<svg xmlns="http://www.w3.org/2000/svg" xmlns:xlink="http://www.w3.org/1999/xlink" style="width: 0; height: 0; visibility: hidden; position: absolute;" aria-hidden="true"><symbol  viewBox='0 0 24 24' id='action-add-folder'>
    <path d="M20,6H12L10,4H4A1.985,1.985,0,0,0,2.01,6L2,18a1.993,1.993,0,0,0,2,2H20a1.993,1.993,0,0,0,2-2V8A1.993,1.993,0,0,0,20,6Zm0,12H4V6H9.17l2,2H20Zm-8-4h2v2h2V14h2V12H16V10H14v2H12Z"></path>
  </symbol><symbol  viewBox='0 0 24 24' id='action-add'>
    <path d="M12,3a9,9,0,1,0,9,9A9,9,0,0,0,12,3Zm5,10H13v4H11V13H7V11h4V7h2v4h4Z"></path>
  </symbol><symbol  viewBox='0 0 24 24' id='action-archive'>
    <path d="M20.54,5.706l-1.39-1.68A1.451,1.451,0,0,0,18,3.476H6a1.486,1.486,0,0,0-1.16.55L3.46,5.706A1.958,1.958,0,0,0,3,6.976v12.5a2.006,2.006,0,0,0,2,2H19a2.006,2.006,0,0,0,2-2V6.976A1.958,1.958,0,0,0,20.54,5.706Zm-14.3-.23H17.76l.81.97H5.44ZM5,19.476v-11H19v11Zm8.45-9h-2.9v3H8l4,4,4-4H13.45Z"></path>
  </symbol><symbol  viewBox='0 0 24 24' id='action-break-glass'>
    <path d="M.686,9.172,2.808,7.05,7.05,11.293,4.929,13.414ZM13.414,2.1,7.05,4.222,4.222,7.05,7.05,9.879l.707-.707,4.95,4.949v1.415L19.071,21.9,21.9,19.071l-6.363-6.364H14.121L9.172,7.757l4.949-4.949Z"></path>
  </symbol><symbol  viewBox='0 0 24 24' id='action-bulk-import'>
    <path d="M3,6V4H21V6H3ZM16.25,16.485V20h1.5V16.485h2.735L16.95,12.95l-3.536,3.535Zm-5-4.949H8.464L12,8l3.536,3.536H12.75V20h-1.5Zm-5,4.949H3.515L7.05,12.95l3.536,3.535H7.75V20H6.25Z"></path>
  </symbol><symbol  viewBox='0 0 24 24' id='action-change-password'>
    <path d="M13.853,10.208l-1.5,1.175L12.625,9.5h-1.25l.269,1.883-1.5-1.175-.625,1.084L11.288,12l-1.766.708.625,1.084,1.5-1.175L11.375,14.5h1.25l-.269-1.883,1.5,1.175.625-1.084L12.712,12l1.766-.708ZM12,12ZM8.353,10.208l-1.5,1.175L7.125,9.5H5.875l.269,1.883-1.5-1.175-.625,1.084L5.788,12l-1.766.708.625,1.084,1.5-1.175L5.875,14.5h1.25l-.269-1.883,1.5,1.175.625-1.084L7.212,12l1.766-.708ZM6.5,12Zm12.853-1.792-1.5,1.175L18.125,9.5h-1.25l.269,1.883-1.5-1.175-.625,1.084L16.788,12l-1.766.708.625,1.084,1.5-1.175L16.875,14.5h1.25l-.269-1.883,1.5,1.175.625-1.084L18.212,12l1.766-.708ZM17.5,12Zm4.52-7.01h-20a1,1,0,0,0-1,1v12a1,1,0,0,0,1,1h20a1,1,0,0,0,1-1v-12A1,1,0,0,0,22.02,4.99Zm-19,12v-10L21,7l.021,9.99Z"></path>
  </symbol><symbol  viewBox='0 0 24 24' id='action-change-ticket'>
    <path d="M9,17H7V15H9Zm0-6H7v2H9ZM9,7H7V9H9ZM7,7V5H0v5a2,2,0,0,1,2,2,2,2,0,0,1-2,2v5H7V17H2V15.445a3.967,3.967,0,0,0,0-6.89V7ZM9,5V7H22V8.555a3.967,3.967,0,0,0,0,6.89V17H9v2H24V14a2,2,0,0,1,0-4V5Z"></path>
  </symbol><symbol  viewBox='0 0 24 24' id='action-clone-user'>
    <path d="M5,4A2,2,0,1,1,3,6,2,2,0,0,1,5,4ZM5,9c-1.337,0-4,.75-4,2.25V12H9v-.75C9,9.75,6.337,9,5,9ZM17.08,4.951l-1.29,1.53a1.958,1.958,0,0,1,.66,1.1l1.96-.43A3.964,3.964,0,0,0,17.08,4.951Zm-.61,3.41a2,2,0,0,1-.63,1.12l1.35,1.48a3.941,3.941,0,0,0,1.24-2.25Zm-4.66-3.32a3.941,3.941,0,0,0-1.24,2.25l1.96.35a2,2,0,0,1,.63-1.12Zm3.36,4.84a1.853,1.853,0,0,1-.67.12,1.775,1.775,0,0,1-.61-.1l-.61,1.91A4.148,4.148,0,0,0,14.5,12a3.8,3.8,0,0,0,1.35-.24Zm-2.62-1.46-1.96.43a3.964,3.964,0,0,0,1.33,2.2l1.29-1.53A1.958,1.958,0,0,1,12.55,8.421ZM14.5,4a3.8,3.8,0,0,0-1.35.24l.68,1.88A1.853,1.853,0,0,1,14.5,6a1.775,1.775,0,0,1,.61.1l.61-1.91A4.148,4.148,0,0,0,14.5,4ZM23,21H21V19h2ZM6,19H8v2H6Zm5,0H9v2h2Zm3,0H12v2h2Zm3,0H15v2h2Zm3,0H18v2h2Zm-6.2-4.983c-.152.005-.3.015-.452.024-.5.032-.99.082-1.459.154l.272,1.941h0c.588-.07,1.215-.114,1.871-.129h.013l-.053-1.994C13.927,14.014,13.862,14.014,13.8,14.017ZM6,18H8a1.112,1.112,0,0,1,.618-.847h0l-.965-1.516A3,3,0,0,0,6,18Zm2.72-2.927.7,1.68h0a8.094,8.094,0,0,1,.807-.259h.006c.294-.079.612-.149.95-.211l-.395-1.877A11.709,11.709,0,0,0,8.72,15.073Zm12.627.564-.965,1.516h0A1.112,1.112,0,0,1,21,18h2A3,3,0,0,0,21.347,15.637Zm-3.138-1.232-.395,1.877c.338.062.656.132.95.211h.006a8.094,8.094,0,0,1,.807.259h0l.7-1.68A11.709,11.709,0,0,0,18.209,14.405Zm-2.555-.364c-.15-.009-.3-.019-.452-.024-.064,0-.129,0-.192,0l-.053,1.994h.013c.656.015,1.283.059,1.871.129h0l.272-1.941C16.644,14.123,16.155,14.073,15.654,14.041Z"></path>
  </symbol><symbol  viewBox='0 0 24 24' id='action-copy-settings'>
    <path d="M17.65,13.581l1.2-1.052-.9-1.558-1.51.51-.724-.418L15.4,9.5H13.6l-.313,1.563-.724.418-1.51-.51-.9,1.558,1.2,1.052v.838l-1.2,1.052.9,1.558,1.51-.51.724.418L13.6,18.5h1.8l.313-1.563.724-.418,1.51.51.9-1.558-1.2-1.052ZM15.85,14a1.35,1.35,0,1,1-1.35-1.35A1.349,1.349,0,0,1,15.85,14ZM17,1H5A2.006,2.006,0,0,0,3,3V17H5V3H17Zm3,4H9A2.006,2.006,0,0,0,7,7V21a2.006,2.006,0,0,0,2,2H20a2.006,2.006,0,0,0,2-2V7A2.006,2.006,0,0,0,20,5Zm0,16H9V7H20Z"></path>
  </symbol><symbol  viewBox='0 0 24 24' id='action-copy-to-client'>
    <path d="M19,2H14.82A2.988,2.988,0,0,0,9.18,2H5A2.006,2.006,0,0,0,3,4V5.229A7.027,7.027,0,0,0,5,8V4H7V6H17V4h2V20H5V15.673A10.977,10.977,0,0,1,3,14.5V20a2.006,2.006,0,0,0,2,2H19a2.006,2.006,0,0,0,2-2V4A2.006,2.006,0,0,0,19,2ZM12,4a1,1,0,1,1,1-1A1,1,0,0,1,12,4ZM9.5,17.5v-3a9,9,0,0,1-9-9A9.045,9.045,0,0,1,.635,4,8.995,8.995,0,0,0,9.5,11.5v-3L15,13Z"></path>
  </symbol><symbol  viewBox='0 0 24 24' id='action-copy-to-guest'>
    <path d="M20.2,14.6l-1.2.9V20H5V4H7V6h7.433A10.908,10.908,0,0,1,17,5.182V2H14.82A2.988,2.988,0,0,0,9.18,2H5A2.006,2.006,0,0,0,3,4V20a2.006,2.006,0,0,0,2,2H19a2.006,2.006,0,0,0,2-2V14ZM12,2a1,1,0,1,1-1,1A1,1,0,0,1,12,2Zm7,11V10a8.995,8.995,0,0,0-8.865,7.5A8.951,8.951,0,0,1,19,7V4l5,4.5Z"></path>
  </symbol><symbol  viewBox='0 0 24 24' id='action-ctrl-alt-del'>
    <path d="M20,15v5H15V15h5m1-2H14a1,1,0,0,0-1,1v7a1,1,0,0,0,1,1h7a1,1,0,0,0,1-1V14a1,1,0,0,0-1-1ZM14.5,4V9h-5V4h5m1-2h-7a1,1,0,0,0-1,1v7a1,1,0,0,0,1,1h7a1,1,0,0,0,1-1V3a1,1,0,0,0-1-1ZM9,15v5H4V15H9m1-2H3a1,1,0,0,0-1,1v7a1,1,0,0,0,1,1h7a1,1,0,0,0,1-1V14a1,1,0,0,0-1-1Z"></path>
  </symbol><symbol  viewBox='0 0 24 24' id='action-delete'>
    <path d="M6,19a2.006,2.006,0,0,0,2,2h8a2.006,2.006,0,0,0,2-2V7H6ZM8,9h8V19H8Zm7.5-5-1-1h-5l-1,1H5V6H19V4ZM11.333,17H10V11h1.333ZM14,17H12.667V11H14Z"></path>
  </symbol><symbol  viewBox='0 0 24 24' id='action-download-csv'>
    <path d="M6.154,16.859a1.893,1.893,0,0,1-.742,1.5,2.9,2.9,0,0,1-1.846.562,2.539,2.539,0,0,1-1.95-.742,2.966,2.966,0,0,1-.7-2.11v-.161a3.341,3.341,0,0,1,.322-1.507,2.3,2.3,0,0,1,.913-.988,2.681,2.681,0,0,1,1.367-.342,2.858,2.858,0,0,1,1.858.569,2.136,2.136,0,0,1,.784,1.55H4.519a.756.756,0,0,0-.254-.625,1.116,1.116,0,0,0-.743-.224q-.877,0-.942,1.316l0,.434a2.421,2.421,0,0,0,.22,1.2.828.828,0,0,0,.771.36c.642,0,.955-.265.943-.8Zm3.971.432a.478.478,0,0,0-.225-.413,2.458,2.458,0,0,0-.789-.287,7.471,7.471,0,0,1-.947-.279,2.282,2.282,0,0,1-.632-.348,1.233,1.233,0,0,1-.366-.486,1.791,1.791,0,0,1-.117-.684,1.483,1.483,0,0,1,.285-.887,1.854,1.854,0,0,1,.8-.609,2.836,2.836,0,0,1,1.13-.218,2.934,2.934,0,0,1,1.772.482,1.528,1.528,0,0,1,.659,1.305h-1.65a.581.581,0,0,0-.218-.454.8.8,0,0,0-.549-.19.781.781,0,0,0-.5.149.433.433,0,0,0-.19.349.407.407,0,0,0,.192.351,2.379,2.379,0,0,0,.682.259,3.793,3.793,0,0,1,1.711.7,1.543,1.543,0,0,1,.5,1.214,1.454,1.454,0,0,1-.61,1.234,2.771,2.771,0,0,1-1.675.451,3.512,3.512,0,0,1-1.319-.233,1.981,1.981,0,0,1-.9-.664A1.708,1.708,0,0,1,6.854,17H8.509a.724.724,0,0,0,.227.611,1.264,1.264,0,0,0,.759.175.722.722,0,0,0,.464-.134A.435.435,0,0,0,10.125,17.291ZM15,17.255l.015.093.014-.074,1.2-4.116H17.95l-2,5.689H14.093l-1.988-5.689h1.714Z"></path><path d="M21,2H13.414a1,1,0,0,0-.707.293L6.293,8.707A1,1,0,0,0,6,9.414V11h8a1,1,0,0,0,1-1V4h5V21H6v1a1,1,0,0,0,1,1H21a1,1,0,0,0,1-1V3A1,1,0,0,0,21,2ZM13,9H8.828L13,4.828Z"></path>
  </symbol><symbol  viewBox='0 0 24 24' id='action-download'>
    <path d="M6,10h4V4h4v6h4l-6,6Zm13,8H3v2H21V18Z"></path>
  </symbol><symbol  viewBox='0 0 24 24' id='action-edit'>
    <path d="M3,17.25V21H6.75L17.81,9.94,14.06,6.19ZM20.71,7.04a1,1,0,0,0,0-1.41L18.37,3.29a1,1,0,0,0-1.41,0L15.13,5.12l3.75,3.75Z"></path>
  </symbol><symbol  viewBox='0 0 24 24' id='action-filter'>
    <path d="M7,6H17l-5.01,6.3ZM4.25,5.61C6.27,8.2,10,13,10,13v6a1,1,0,0,0,1,1h2a1,1,0,0,0,1-1V13s3.72-4.8,5.74-7.39A1,1,0,0,0,18.95,4H5.04A1,1,0,0,0,4.25,5.61Z"></path>
  </symbol><symbol  viewBox='0 0 24 24' id='action-hide'>
    <path d="M12,4.5A11.827,11.827,0,0,0,1,12a11.817,11.817,0,0,0,22,0A11.827,11.827,0,0,0,12,4.5Zm0,2a9.76,9.76,0,0,1,8.089,4.25H3.911A9.76,9.76,0,0,1,12,6.5Zm0,11a9.75,9.75,0,0,1-8.09-4.25H20.09A9.75,9.75,0,0,1,12,17.5Z"></path>
  </symbol><symbol  viewBox='0 0 24 24' id='action-lock'>
    <path d="M19.177,7.917h-2V6.134A5.148,5.148,0,0,0,12.671.94,5,5,0,0,0,7.177,5.917v2h-2a1,1,0,0,0-1,1v12a1,1,0,0,0,1,1h14a1,1,0,0,0,1-1v-12A1,1,0,0,0,19.177,7.917Zm-10-2a3,3,0,0,1,3.156-3,3.11,3.11,0,0,1,2.844,3.16V7.917h-6Zm9,14h-12v-10h12Zm-6-3a2,2,0,1,0-2-2A2.006,2.006,0,0,0,12.177,16.917Z"></path>
  </symbol><symbol  viewBox='0 0 24 24' id='action-print'>
    <path d="M19,8H18V3H6V8H5a3,3,0,0,0-3,3v6H6v4H18V17h4V11A3,3,0,0,0,19,8ZM8,5h8V8H8Zm8,12v2H8V15h8Zm2-2V13H6v2H4V11a1,1,0,0,1,1-1H19a1,1,0,0,1,1,1v4Z"></path>
  </symbol><symbol  viewBox='0 0 24 24' id='action-refresh'>
    <path d="M20,4v6H14l2.237-2.237A5.984,5.984,0,0,0,6.193,10.5H4.141A7.984,7.984,0,0,1,17.649,6.351ZM12,18.005a5.962,5.962,0,0,1-4.237-1.768L10,14H4v6l2.352-2.351A7.983,7.983,0,0,0,19.859,13.5H17.807A6.008,6.008,0,0,1,12,18.005"></path>
  </symbol><symbol  viewBox='0 0 24 24' id='action-remove-force'>
    <path fill="#f90" d="M22 16L20.668 17.336 14 24 17.167 17.336 13.665 17.336 16.006 12 21.505 12 18.003 16 22 16z"></path><path d="M14,12H7V10H20.941A9,9,0,1,0,10.5,19.865Z"></path>
  </symbol><symbol  viewBox='0 0 24 24' id='action-remove'>
    <path d="M17,13H7V11H17ZM12,3a9,9,0,1,0,9,9A9,9,0,0,0,12,3Z"></path>
  </symbol><symbol  viewBox='0 0 24 24' id='action-reset'>
    <path d="M16.359,5.288A8.01,8.01,0,0,0,6.341,6.347L4,5v7l6.062-3.5-1.911-1.1a6,6,0,1,1,.58,9.635A5.931,5.931,0,0,1,6.4,14.08l-1.739,1a7.9,7.9,0,0,0,2.989,3.623A8,8,0,1,0,16.359,5.288Z"></path>
  </symbol><symbol  viewBox='0 0 24 24' id='action-revert'>
    <path d="M18.712,16.354A8.009,8.009,0,0,1,7.645,18.706a7.9,7.9,0,0,1-2.989-3.623l1.739-1a5.931,5.931,0,0,0,2.339,2.949,6,6,0,1,0-.58-9.635l1.911,1.1L4,12V5l2.338,1.35A8,8,0,0,1,18.712,16.354Zm-3-1.7L12.75,11.689V8h-1.5v4.311l3.4,3.4Z"></path>
  </symbol><symbol  viewBox='0 0 24 24' id='action-save'>
    <path d="M17.293,3.293A1,1,0,0,0,16.586,3H4A1,1,0,0,0,3,4V20a1,1,0,0,0,1,1H20a1,1,0,0,0,1-1V7.414a1,1,0,0,0-.293-.707ZM19,19H5V5H16.17L19,7.83ZM6,6h9v4H6Zm9,9a3,3,0,1,1-3-3A3,3,0,0,1,15,15Z"></path>
  </symbol><symbol  viewBox='0 0 24 24' id='action-screenshot'>
    <path d="M5,17H3V15H5Zm0,2H3v2H5Zm0-8H3v2H5ZM21,3H19V5h2Zm0,4H19V9h2ZM5,7H3V9H5ZM17,3H15V5h2ZM13,3H11V5h2ZM9,3H7V5H9ZM5,3H3V5H5ZM24,22V14.707A1.707,1.707,0,0,0,22.293,13H20.414l-2-2H12.586l-2,2H8.707A1.707,1.707,0,0,0,7,14.707V22a2,2,0,0,0,2,2H22A2,2,0,0,0,24,22ZM9,15h2.414l2-2h4.172l2,2H22v7H9Zm6.5,0a3,3,0,1,0,3,3A3,3,0,0,0,15.5,15Z"></path>
  </symbol><symbol  viewBox='0 0 24 24' id='action-search'>
    <path d="M15.5,14h-.79l-.28-.27a6.51,6.51,0,1,0-.7.7l.27.28v.79l5,4.99L20.49,19Zm-6,0A4.5,4.5,0,1,1,14,9.5,4.494,4.494,0,0,1,9.5,14"></path>
  </symbol><symbol  viewBox='0 0 24 24' id='action-select-all'>
    <path d="M3,13H5V11H3Zm4,8H9V19H7ZM3,9H5V7H3ZM13,3H11V5h2ZM3,17H5V15H3ZM9,3H7V5H9ZM5,3H3V5H5Zm6,18h2V19H11Zm8-8h2V11H19Zm0-4h2V7H19Zm0,8h2V15H19Zm-4,4h2V19H15ZM15,5h2V3H15Zm4,0h2V3H19Zm0,16h2V19H19ZM3,21H5V19H3Zm4-4H17V7H7ZM9,9h6v6H9Z"></path>
  </symbol><symbol  viewBox='0 0 24 24' id='action-select-clear'>
    <path d="M3,13H5V11H3Zm4,8H9V19H7ZM3,9H5V7H3ZM13,3H11V5h2ZM3,17H5V15H3ZM9,3H7V5H9ZM5,3H3V5H5Zm6,18h2V19H11Zm8-8h2V11H19Zm0-4h2V7H19Zm0,8h2V15H19Zm-4,4h2V19H15ZM15,5h2V3H15Zm4,0h2V3H19Zm0,16h2V19H19ZM3,21H5V19H3ZM15.536,7.05,12,10.586,8.464,7.05,7.05,8.464,10.586,12,7.05,15.536,8.464,16.95,12,13.414l3.536,3.536,1.414-1.414L13.414,12,16.95,8.464Z"></path>
  </symbol><symbol  viewBox='0 0 24 24' id='action-set-date'>
    <path d="M17,13.75H14.5v-2.5H17Zm-3.75-2.5h-2.5v2.5h2.5Zm-3.75,0H7v2.5H9.5Zm7.5,4H14.5v2.5H17Zm-3.75,0h-2.5v2.5h2.5Zm-3.75,0H7v2.5H9.5ZM20,4a1,1,0,0,1,1,1V21a1,1,0,0,1-1,1H4a1,1,0,0,1-1-1V5A1,1,0,0,1,4,4H6V2H8V4h8V2h2V4ZM19,9H5V20H19Z"></path>
  </symbol><symbol  viewBox='0 0 24 24' id='action-show'>
    <path d="M12,6.5A9.77,9.77,0,0,1,20.82,12,9.822,9.822,0,0,1,3.18,12,9.77,9.77,0,0,1,12,6.5m0-2A11.827,11.827,0,0,0,1,12a11.817,11.817,0,0,0,22,0A11.827,11.827,0,0,0,12,4.5Zm0,3A4.5,4.5,0,1,0,16.5,12,4.507,4.507,0,0,0,12,7.5Z"></path>
  </symbol><symbol  viewBox='0 0 24 24' id='action-switch-enable'>
    <path d="M16,18H8A6,6,0,0,1,8,6h8a6,6,0,0,1,0,12ZM8,8a4,4,0,0,0,0,8h8a4,4,0,0,0,0-8Zm8,1a3,3,0,1,0,3,3A3,3,0,0,0,16,9Z"></path>
  </symbol><symbol  viewBox='0 0 24 24' id='action-terminate'>
    <path d="M14.828,16.243,12,13.414,9.172,16.243,7.757,14.828,10.586,12,7.757,9.172,9.172,7.757,12,10.586l2.828-2.829,1.415,1.415L13.414,12l2.829,2.828ZM12,3a9,9,0,1,0,9,9A9,9,0,0,0,12,3Z"></path>
  </symbol><symbol  viewBox='0 0 24 24' id='action-trigger-audit'>
    <path d="M12,3a9,9,0,1,0,9,9A9.01,9.01,0,0,0,12,3ZM10,16.5v-9L16,12Z"></path>
  </symbol><symbol  viewBox='0 0 24 24' id='action-unlock'>
    <path d="M10,15a2,2,0,1,1,2,2A2.006,2.006,0,0,1,10,15ZM20,8.935v12.13a.938.938,0,0,1-.935.935H4.935A.938.938,0,0,1,4,21.065V8.935A.938.938,0,0,1,4.935,8H15V6.165A3.11,3.11,0,0,0,12.156,3,2.987,2.987,0,0,0,9.185,5H7.1a5,5,0,0,1,5.391-3.976A5.146,5.146,0,0,1,17,6.217V8h2.065A.938.938,0,0,1,20,8.935ZM18,10H6V20H18Z"></path>
  </symbol><symbol  viewBox='0 0 24 24' id='action-upload'>
    <path d="M18,14H14v6H10V14H6l6-6ZM5,6H21V4H3V6Z"></path>
  </symbol><symbol  viewBox='0 0 24 24' id='notification-alert'>
    <path d="M22.131,19.5l-9.266-16a1,1,0,0,0-1.73,0l-9.266,16A1,1,0,0,0,2.735,21h18.53A1,1,0,0,0,22.131,19.5ZM11,16h2v2H11Zm2-2H11V10h2Z" fill="#f90"></path>
  </symbol><symbol  viewBox='0 0 24 24' id='object-account'>
    <path d="M12,14c-2.67,0-8,1.34-8,4v2H20V18c0-2.66-5.33-4-8-4M6,18c.22-.72,3.31-2,6-2s5.8,1.29,6,2Zm6-6A4,4,0,1,0,8,8a4,4,0,0,0,4,4m0-6a2,2,0,1,1-2,2,2.006,2.006,0,0,1,2-2"></path>
  </symbol><symbol  viewBox='0 0 24 24' id='object-active-directory'>
    <path d="M20,11.25a2.761,2.761,0,0,0-1.77.64L13.51,6.3a2.75,2.75,0,1,0-3.02,0L5.77,11.89a2.753,2.753,0,1,0,.43,3.76l3.6,2.7a2.75,2.75,0,1,0,4.4,0l3.6-2.7a2.75,2.75,0,1,0,2.2-4.4ZM6.74,14.18l-.57-.43.46-.55,4.62-5.48v9.84l-.19-.14Zm10.52,0-4.32,3.24-.19.14V7.72l4.62,5.48.46.55Z"></path>
  </symbol><symbol  viewBox='0 0 24 24' id='object-api'>
    <path d="M2.848,17.208v-3c0-1.05-.4-1.324-1.848-1.324V11.118c1.449,0,1.848-.273,1.848-1.344V6.793c0-2.373,1.113-3.506,3.4-3.506H7.781V5.05H6.627C5.514,5.05,5.01,5.618,5.01,6.9V9.753c0,1.3-.42,1.974-1.428,2.226v.042c1.008.252,1.428.924,1.428,2.226v2.877c0,1.259.5,1.826,1.617,1.826H7.781v1.763H6.248C3.961,20.713,2.848,19.58,2.848,17.208Zm18.3-10.415V9.774c0,1.071.4,1.344,1.848,1.344v1.763c-1.449,0-1.848.274-1.848,1.324v3c0,2.372-1.113,3.505-3.4,3.505H16.217V18.95h1.156c1.111,0,1.615-.567,1.615-1.848V14.247c0-1.3.42-1.974,1.428-2.226v-.042c-1.008-.252-1.428-.924-1.428-2.226V6.877c0-1.259-.5-1.827-1.615-1.827H16.217V3.287H17.75C20.039,3.287,21.152,4.42,21.152,6.793ZM12,10.5A1.5,1.5,0,1,0,13.5,12,1.5,1.5,0,0,0,12,10.5Zm-4,0A1.5,1.5,0,1,0,9.5,12,1.5,1.5,0,0,0,8,10.5Zm8,0A1.5,1.5,0,1,0,17.5,12,1.5,1.5,0,0,0,16,10.5Z"></path>
  </symbol><symbol  viewBox='0 0 24 24' id='object-certificate'>
    <path d="M13.488,20H3a1,1,0,0,1-1-1V5A1,1,0,0,1,3,4H21a1,1,0,0,1,1,1v6.589a5.985,5.985,0,0,0-2-1.22V6H4V18h8.3a6,6,0,0,0,1.191,2m4.46-12h-12V9.5h12Zm-3.657,3.25H5.948v1.5h6.961a6.037,6.037,0,0,1,1.382-1.5M5.948,14.5V16h6a6.035,6.035,0,0,1,.2-1.5Z"></path><path d="M21.948,16a4,4,0,1,0-6.4,3.182L14.948,24l3-2,3,2-.6-4.818A3.981,3.981,0,0,0,21.948,16Zm-4,2a2,2,0,1,1,2-2A2,2,0,0,1,17.948,18Z"></path>
  </symbol><symbol  viewBox='0 0 24 24' id='object-clipboard'>
    <path d="M19,2H14.82A2.988,2.988,0,0,0,9.18,2H5A2.006,2.006,0,0,0,3,4V20a2.006,2.006,0,0,0,2,2H19a2.006,2.006,0,0,0,2-2V4A2.006,2.006,0,0,0,19,2ZM12,2a1,1,0,1,1-1,1A1,1,0,0,1,12,2Zm7,18H5V4H7V7H17V4h2Z"></path>
  </symbol><symbol  viewBox='0 0 24 24' id='object-cluster'>
    <path d="M1.433,19.485A4.98,4.98,0,0,0,10.637,18H16.4a3.5,3.5,0,1,0,2.532-4.4L15.272,7.265a3.493,3.493,0,1,0-5.566-.639,3.559,3.559,0,0,0,.492.647L7.321,12.256a4.981,4.981,0,0,0-5.888,7.229Zm7.623-6.233,2.875-4.98a3.5,3.5,0,0,0,1.609-.006L17.2,14.6a3.486,3.486,0,0,0-.81,1.4H10.642a4.606,4.606,0,0,0-1.586-2.748ZM3.237,17a2.483,2.483,0,0,1,.835-1.851c.033-.031.071-.059.106-.088a2.482,2.482,0,0,1,.258-.186c.027-.017.049-.039.077-.055.062-.036.127-.061.191-.091.03-.013.058-.029.088-.041a2.488,2.488,0,0,1,1.23-.182l-.012.021a2.49,2.49,0,0,1,1.735,1l.014-.024a2.379,2.379,0,0,1,.169.235,2.508,2.508,0,0,1,.12.265H8.026a2.47,2.47,0,0,1,0,2H8.04c-.024.054-.068.1-.095.149a2.463,2.463,0,0,1-.239.373c-.049.063-.1.125-.151.184a2.548,2.548,0,0,1-.5.409c-.017.01-.027.025-.043.035-.041.023-.084.035-.125.056a2.488,2.488,0,0,1-.3.134c-.034.012-.067.021-.1.032A2.467,2.467,0,0,1,3.237,17Z"></path>
  </symbol><symbol  viewBox='0 0 24 24' id='object-dashboard'>
    <path d="M19,5V7H15V5h4M9,5v6H5V5H9m10,8v6H15V13h4M9,17v2H5V17H9M21,3H13V9h8ZM11,3H3V13h8Zm10,8H13V21h8ZM11,15H3v6h8Z"></path>
  </symbol><symbol  viewBox='0 0 24 24' id='object-group-ad'>
    <path d="M9,4a3.5,3.5,0,1,0,3.5,3.5A3.5,3.5,0,0,0,9,4ZM9,9a1.5,1.5,0,1,1,1.5-1.5A1.5,1.5,0,0,1,9,9Zm6,2a3.446,3.446,0,0,1-1.5-.35,5.461,5.461,0,0,0,0-6.3A3.446,3.446,0,0,1,15,4a3.5,3.5,0,0,1,0,7m-3.95,8H2V16.25c0-2.33,4.66-3.5,7-3.5,1.755,0,4.814.658,6.235,1.97a3.861,3.861,0,0,0,.19.419,3.321,3.321,0,0,0-2.723.373A10.427,10.427,0,0,0,9,14.75c-2.136,0-4.625.961-5,1.567V17h7.35A3.464,3.464,0,0,0,11,18.5,3.588,3.588,0,0,0,11.05,19Z"></path><path d="M22.5,17a1.483,1.483,0,0,0-.965.35l-2.2-2.605h0a1.5,1.5,0,1,0-1.678,0h0l-2.2,2.605A1.483,1.483,0,0,0,14.5,17a1.5,1.5,0,1,0,1.2,2.4l1.6,1.2,0,0a1.5,1.5,0,1,0,2.392,0l0,0,1.6-1.2A1.5,1.5,0,1,0,22.5,17Zm-6.51,1.37-.045-.035.04-.045L18,15.9v3.98Zm3.01,1.5V15.9l2.015,2.395.04.045-.045.035Z" fill="#09f"></path>
  </symbol><symbol  viewBox='0 0 24 24' id='object-group'>
    <path d="M9,5a3.5,3.5,0,1,0,3.5,3.5A3.5,3.5,0,0,0,9,5Zm0,5a1.5,1.5,0,1,1,1.5-1.5A1.5,1.5,0,0,1,9,10Zm7.04,3.81c2.46.27,5.96,1.42,5.96,3.44V20H18V17.25a4.193,4.193,0,0,0-1.96-3.44M15,12a3.446,3.446,0,0,1-1.5-.35,5.461,5.461,0,0,0,0-6.3A3.446,3.446,0,0,1,15,5a3.5,3.5,0,0,1,0,7M9,13.75c-2.34,0-7,1.17-7,3.5V20H16V17.25C16,14.92,11.34,13.75,9,13.75ZM14,18H4v-.684c.375-.605,2.864-1.566,5-1.566s4.625.961,5,1.566Z"></path>
  </symbol><symbol  viewBox='0 0 24 24' id='object-groups'>
    <path d="M4,13a2,2,0,1,0-2-2A2.006,2.006,0,0,0,4,13Zm1.13,1.1A6.983,6.983,0,0,0,4,14a6.95,6.95,0,0,0-2.78.58A2.011,2.011,0,0,0,0,16.43V18H4.5V16.39A4.5,4.5,0,0,1,5.13,14.1ZM20,13a2,2,0,1,0-2-2A2.006,2.006,0,0,0,20,13Zm4,3.43a2.011,2.011,0,0,0-1.22-1.85,6.8,6.8,0,0,0-3.91-.48,4.5,4.5,0,0,1,.63,2.29V18H24Zm-7.76-2.78a10.443,10.443,0,0,0-4.24-.9,10.611,10.611,0,0,0-4.24.9A2.988,2.988,0,0,0,6,16.39V18H18V16.39A2.988,2.988,0,0,0,16.24,13.65ZM8.07,16c.09-.23.13-.39.91-.69a8.423,8.423,0,0,1,6.04,0c.77.3.81.46.91.69ZM12,8a1,1,0,1,1-1,1,1,1,0,0,1,1-1m0-2a3,3,0,1,0,3,3,3,3,0,0,0-3-3Z"></path>
  </symbol><symbol  viewBox='0 0 24 24' id='object-integration'>
    <path d="M19.01,8.49a3.532,3.532,0,1,0-2.794-1.413L15.158,8.135a4.9,4.9,0,0,0-6.3,0L7.727,7a2.022,2.022,0,1,0-.707.707L8.155,8.842a4.9,4.9,0,0,0,0,6.3L6.387,16.906a2.506,2.506,0,1,0,.707.707l1.768-1.768a4.9,4.9,0,0,0,6.3,0l1.135,1.135A2.022,2.022,0,1,0,17,16.273l-1.135-1.135a4.9,4.9,0,0,0,0-6.3l1.058-1.058A3.462,3.462,0,0,0,19.01,8.49Zm0-5a1.5,1.5,0,1,1-1.5,1.5A1.5,1.5,0,0,1,19.01,3.49Zm-7,11.5a3,3,0,1,1,3-3A3,3,0,0,1,12.01,14.99Z"></path>
  </symbol><symbol  viewBox='0 0 24 24' id='object-playbook'>
    <path d="M17.5,22.45l4.95-4.95L18,13.046V10h3V3H14V6H11.1L3,1.5v10L11.1,7H14v3h3v3.054L13.05,17H9.962a4,4,0,1,0,0,1H13.05ZM5,8.1V4.9L7.882,6.5ZM16,5h3V8H16ZM6,19.5a2,2,0,1,1,2-2A2,2,0,0,1,6,19.5Zm11.5-4.121L19.621,17.5,17.5,19.621,15.379,17.5Z"></path>
  </symbol><symbol  viewBox='0 0 24 24' id='object-plugin'>
    <path d="M19,8.535V5H15.465a4,4,0,0,0-7.93,0H3v5.5H4.5a2,2,0,0,1,0,4H3V21H9.5V19.5a2,2,0,0,1,4,0V21H19V16.465a4,4,0,0,0,0-7.93ZM18.5,14.5H17V19H15.465a4,4,0,0,0-7.93,0H5V16.465a4,4,0,0,0,0-7.93V7H9.5V5.5a2,2,0,0,1,4,0V7H17v3.5h1.5a2,2,0,0,1,0,4Z"></path>
  </symbol><symbol  viewBox='0 0 24 24' id='object-profile-privileged'>
    <path d="M12,8.225l.882,1.788.493,1,1.1.16,1.972.287-1.427,1.391-.8.777.188,1.1.337,1.964-1.765-.927L12,15.243l-.985.518-1.765.927.337-1.964.188-1.1-.8-.777L7.551,11.458l1.972-.287,1.1-.16.493-1L12,8.225M12,3.44,9.219,9.076,3,9.979l4.5,4.387L6.438,20.56,12,17.635l5.562,2.925L16.5,14.366,21,9.979l-6.219-.9L12,3.44Z" fill="#08f"></path>
  </symbol><symbol  viewBox='0 0 24 24' id='object-profile-super'>
    <path d="M12,12.741l1.373,1.921,1,1.4,1.535-.785,1.86-.951L16.555,18H7.445L6.23,14.33l1.86.951,1.535.785,1-1.4L12,12.741M12,5.5a1.989,1.989,0,0,0-.125,3.975L9,13.5,3.1,10.481a1.977,1.977,0,0,0,1.319-.567,2,2,0,1,0-2.828,0,1.965,1.965,0,0,0,1.26.556L6,20H18l3.155-9.531a1.938,1.938,0,1,0-.249.012L15,13.5,12.125,9.475A1.989,1.989,0,0,0,12,5.5Z" fill="#f90"></path>
  </symbol><symbol  viewBox='0 0 24 24' id='object-profiles'>
    <path d="M7.5,8a2,2,0,1,1-2,2A2,2,0,0,1,7.5,8Zm0,5c-1.337,0-4,.75-4,2.25V16h8v-.75C11.5,13.75,8.837,13,7.5,13ZM20,9.5H13V8h7Zm0,1.75H13v1.5h7Zm0,3.25H13V16h7ZM0,4.75v14.5A.75.75,0,0,0,.75,20h22.5a.75.75,0,0,0,.75-.75V4.75A.75.75,0,0,0,23.25,4H.75A.75.75,0,0,0,0,4.75ZM22,18H2V6H22Z"></path>
  </symbol><symbol  viewBox='0 0 24 24' id='object-request'>
    <path d="M17.27,6.729l-4.24,10.13-1.32-3.42-.32-.83-.82-.32L7.14,10.96ZM21,3,3,10.53v.98l6.84,2.65L12.48,21h.98Z"></path>
  </symbol><symbol  viewBox='0 0 24 24' id='object-server-firewall'>
    <path d="M12,14H24V9.781a1,1,0,0,0-.757-.97L12.485,6.121a2.015,2.015,0,0,0-.97,0L.757,8.811A1,1,0,0,0,0,9.781V14.22a1,1,0,0,0,.757.97l.94.235,9.818,2.454a1.987,1.987,0,0,0,.485.059Zm-9.563-.25c-.517,0-.937-.559-.937-1.25s.42-1.25.937-1.25.938.56.938,1.25S2.955,13.75,2.437,13.75ZM2.372,9.439,12,7.032l9.628,2.407L12,11.846Z"></path><path d="M17.5,16h4v1.5h-4ZM14,17.5V16h2.5v1.5Zm0,1h4.5V20H14Zm2,4H14V21h2Zm4.5,0H17V21h3.5ZM24,21v1.5H21.5V21Zm0-1H19.5V18.5H24Zm0-2.5H22.5V16H24Z" fill="#08f"></path>
  </symbol><symbol  viewBox='0 0 24 24' id='object-server-mail'>
    <path d="M13,15H23.609A.99.99,0,0,0,24,14.22V9.781a1,1,0,0,0-.757-.97L12.485,6.121a2.015,2.015,0,0,0-.97,0L.757,8.811A1,1,0,0,0,0,9.781V14.22a1,1,0,0,0,.757.97l.94.235,9.818,2.454a2.015,2.015,0,0,0,.97,0L13,17.75ZM2.437,13.75c-.517,0-.937-.559-.937-1.25s.42-1.25.937-1.25.938.56.938,1.25S2.955,13.75,2.437,13.75ZM2.372,9.439,12,7.032l9.628,2.407L12,11.846Z"></path><path d="M19.5,19.832,15,17h9ZM24,18.2l-4.5,2.831L15,18.2h0V23h9V18.2Z" fill="#08f"></path>
  </symbol><symbol  viewBox='0 0 24 24' id='object-server-map'>
    <path d="M13,14.564l11-1.573V9.781a1,1,0,0,0-.757-.97L12.485,6.121a2.015,2.015,0,0,0-.97,0L.757,8.811A1,1,0,0,0,0,9.781V14.22a1,1,0,0,0,.757.97l.94.235,9.818,2.454a2.015,2.015,0,0,0,.97,0L13,17.75ZM2.437,13.75c-.517,0-.937-.559-.937-1.25s.42-1.25.937-1.25.938.56.938,1.25S2.955,13.75,2.437,13.75ZM2.372,9.439,12,7.032l9.628,2.407L12,11.846Z"></path><path d="M18.5,19H15V16.28c1.163-.179,2.332-.333,3.5-.48Zm1,0H24q0-2,0-4-2.251.312-4.5.652Zm0,4.365c1.5.2,3,.411,4.5.635q0-2,0-4H19.5ZM18.5,20H15v2.754c1.167.157,2.334.31,3.5.48Z" fill="#08f"></path>
  </symbol><symbol  viewBox='0 0 24 24' id='object-server-pam'>
    <path d="M14,17.2a3.2,3.2,0,0,1,5.463-2.262l.537.537.537-.537A3.173,3.173,0,0,1,22.8,14a3.211,3.211,0,0,1,1.2.233l0-.013V9.781a1,1,0,0,0-.757-.97L12.485,6.121a2.015,2.015,0,0,0-.97,0L.757,8.811A1,1,0,0,0,0,9.781V14.22a1,1,0,0,0,.757.97l.94.235,9.818,2.454a2.015,2.015,0,0,0,.97,0l1.544-.386C14.02,17.4,14,17.3,14,17.2ZM2.437,13.75c-.517,0-.937-.559-.937-1.25s.42-1.25.937-1.25.938.56.938,1.25S2.955,13.75,2.437,13.75ZM12,11.846,2.372,9.439,12,7.032l9.628,2.407Z"></path><path d="M17.2,24a1.2,1.2,0,0,1-.849-2.049L18.3,20l-1.952-1.952a1.2,1.2,0,0,1,1.7-1.7L21.7,20l-3.648,3.648A1.2,1.2,0,0,1,17.2,24m5.063-4.566,1.386-1.386a1.2,1.2,0,0,0-1.7-1.7l-1.385,1.386Zm0,1.131-1.7,1.7,1.385,1.387a1.2,1.2,0,1,0,1.7-1.7Z" fill="#08f"></path>
  </symbol><symbol  viewBox='0 0 24 24' id='object-server-web'>
    <path d="M19.5,13a6.467,6.467,0,0,1,4.365,1.694A.984.984,0,0,0,24,14.22V9.781a1,1,0,0,0-.757-.97L12.485,6.121a2.015,2.015,0,0,0-.97,0L.757,8.811A1,1,0,0,0,0,9.781V14.22a1,1,0,0,0,.757.97l.94.235,9.818,2.454a2.015,2.015,0,0,0,.97,0l.777-.194A6.5,6.5,0,0,1,19.5,13Zm-17.063.75c-.517,0-.937-.559-.937-1.25s.42-1.25.937-1.25.938.56.938,1.25S2.955,13.75,2.437,13.75ZM2.372,9.439,12,7.032l9.628,2.407L12,11.846Z"></path><path d="M19.5,15A4.5,4.5,0,1,0,24,19.5,4.5,4.5,0,0,0,19.5,15Zm3.02,2.75h-.97A5.194,5.194,0,0,0,21,16.344,3.529,3.529,0,0,1,22.52,17.75ZM23,19.5a3.5,3.5,0,0,1-.09.75h-1.2c.023-.244.038-.493.038-.75s-.015-.506-.038-.75h1.2A3.5,3.5,0,0,1,23,19.5Zm-7,0a3.5,3.5,0,0,1,.09-.75h1.2c-.023.244-.038.493-.038.75s.015.506.038.75h-1.2A3.5,3.5,0,0,1,16,19.5Zm2.25,0a6.869,6.869,0,0,1,.041-.75h2.418a6.88,6.88,0,0,1,0,1.5H18.291A6.869,6.869,0,0,1,18.25,19.5Zm1.25-3.25c.283,0,.736.554,1.012,1.5H18.488C18.764,16.8,19.217,16.25,19.5,16.25Zm-1.5.094a5.194,5.194,0,0,0-.547,1.406h-.97A3.529,3.529,0,0,1,18,16.344ZM16.48,21.25h.97A5.194,5.194,0,0,0,18,22.656,3.529,3.529,0,0,1,16.48,21.25Zm3.02,1.5c-.283,0-.736-.554-1.012-1.5h2.024C20.236,22.2,19.783,22.75,19.5,22.75Zm1.5-.094a5.194,5.194,0,0,0,.547-1.406h.97A3.529,3.529,0,0,1,21,22.656Z" fill="#08f"></path>
  </symbol><symbol  viewBox='0 0 24 24' id='object-server'>
    <path d="M11.515,6.121.757,8.811A1,1,0,0,0,0,9.781V14.22a1,1,0,0,0,.757.97l.94.235,9.818,2.454a2.015,2.015,0,0,0,.97,0L22.3,15.425l.94-.235A1,1,0,0,0,24,14.22V9.781a1,1,0,0,0-.757-.97L12.485,6.121A2.015,2.015,0,0,0,11.515,6.121ZM2.437,13.75c-.517,0-.937-.559-.937-1.25s.42-1.25.937-1.25.938.56.938,1.25S2.955,13.75,2.437,13.75ZM12,11.846,2.372,9.439,12,7.032l9.628,2.407Z"></path>
  </symbol><symbol  viewBox='0 0 24 24' id='object-terminal'>
    <path d="M20,18V6L4,6V18Zm-2-4v2H10l2-2ZM5.172,8H8l4,4L8,16H5.172l4-4Z"></path>
  </symbol><symbol  viewBox='0 0 24 24' id='object-token'>
    <path d="M13.739,8a7,7,0,1,0,0,8H23V8ZM21,14H12.575a5,5,0,1,1,0-4H21ZM8.641,12l2.89.885-1,1.731L8.32,12.555,9,15.5H7l.68-2.945L5.469,14.616l-1-1.731L7.359,12l-2.89-.884,1-1.731L7.68,11.446,7,8.5H9l-.68,2.946,2.211-2.061,1,1.731Z"></path>
  </symbol><symbol  viewBox='0 0 24 24' id='object-user-privileged'>
    <path d="M13.651,20H3V18c0-1.922,2.784-3.153,5.335-3.689l1.782,1.737C7.675,16.276,5.2,17.358,5,18h7.12l1.606,1.566ZM15,8a4,4,0,1,1-4-4,4,4,0,0,1,4,4M13,8a2,2,0,1,0-2,2,2.006,2.006,0,0,0,2-2"></path><path fill="#08f" d="M18 13.708L19.313 16.369 22.25 16.796 20.125 18.867 20.626 21.792 18 20.411 15.373 21.792 15.875 18.867 13.75 16.796 16.687 16.369 18 13.708z"></path>
  </symbol><symbol  viewBox='0 0 24 24' id='object-user-super'>
    <path d="M12.661,20H3V18c0-2.66,5.331-4,8-4,.23,0,.486.014.751.034A2.973,2.973,0,0,0,11,16h0c-2.689,0-5.78,1.28-6,2h6.779c.035.039.062.084.1.122a2.773,2.773,0,0,0,.361.3ZM11,12a4,4,0,1,1,4-4,4,4,0,0,1-4,4m0-6a2,2,0,1,0,2,2,2.006,2.006,0,0,0-2-2"></path><path d="M23,16a1,1,0,1,0-1.047.99L19.5,18.5l-1.437-2.012a1,1,0,1,0-.125,0L16.5,18.5l-2.452-1.51a.983.983,0,0,0,.659-.283,1,1,0,1,0-1.414,0,.983.983,0,0,0,.63.278L15,21h6l1.077-4.015A.993.993,0,0,0,23,16" fill="#f90"></path>
  </symbol><symbol  viewBox='0 0 24 24' id='object-vault'>
    <path d="M21,3.01H5a1,1,0,0,0-1,1V6H2v4H4v4H2v4H4v2.01a1,1,0,0,0,1,1H21a1,1,0,0,0,1-1v-16A1,1,0,0,0,21,3.01Zm-1,16H6v-14H20ZM8.758,16.243a1,1,0,0,0,1.414,0l1.175-1.176a3.485,3.485,0,0,0,3.306,0l1.175,1.176a1,1,0,1,0,1.414-1.414l-1.175-1.176a3.485,3.485,0,0,0,0-3.306l1.175-1.176a1,1,0,1,0-1.414-1.414L14.653,8.933a3.485,3.485,0,0,0-3.306,0L10.172,7.757A1,1,0,1,0,8.758,9.171l1.175,1.176a3.485,3.485,0,0,0,0,3.306L8.758,14.829A1,1,0,0,0,8.758,16.243ZM13,10a2,2,0,1,1-2,2A2,2,0,0,1,13,10Z"></path>
  </symbol><symbol  viewBox='0 0 24 24' id='status-account-approved'>
    <path d="M12,12A4,4,0,1,0,8,8,4,4,0,0,0,12,12Zm0-6a2,2,0,1,1-2,2A2.006,2.006,0,0,1,12,6Zm.237,14H4V18c0-2.66,5.33-4,8-4,.074,0,.156.005.234.007a6.447,6.447,0,0,0-.651,2.005C9,16.132,6.209,17.317,6,18h5.585A6.446,6.446,0,0,0,12.237,20Z" fill="#e0e"></path><path d="M18,12.5A4.5,4.5,0,1,0,22.5,17,4.5,4.5,0,0,0,18,12.5ZM17.227,20l-2.6-2.625,1.05-1.058,1.552,1.56,3.318-3.347,1.05,1.058Z" fill="#e0e"></path>
  </symbol><symbol  viewBox='0 0 24 24' id='status-account-fully-managed'>
    <path d="M15.2,21a1.2,1.2,0,0,1-.849-2.049L16.3,17l-1.952-1.951a1.2,1.2,0,0,1,1.7-1.7L19.7,17,16.05,20.648A1.2,1.2,0,0,1,15.2,21m5.063-4.566,1.386-1.386a1.2,1.2,0,1,0-1.7-1.7l-1.385,1.386Zm0,1.132-1.7,1.7,1.385,1.387a1.2,1.2,0,0,0,1.7-1.7Z" fill="#0a0"></path><path d="M12.023,20H4V18c0-2.66,5.33-4,8-4h.015c-.005.067-.014.133-.014.2a3.174,3.174,0,0,0,.573,1.82C12.381,16.008,12.19,16,12,16c-2.69,0-5.78,1.28-6,2h6.56A3.181,3.181,0,0,0,12.023,20ZM8,8a4,4,0,1,1,4,4A4,4,0,0,1,8,8Zm2,0a2,2,0,1,0,2-2A2.006,2.006,0,0,0,10,8Z" fill="#0a0"></path>
  </symbol><symbol  viewBox='0 0 24 24' id='status-account-known'>
    <path d="M12,12A4,4,0,1,0,8,8,4,4,0,0,0,12,12Zm0-6a2,2,0,1,1-2,2A2.006,2.006,0,0,1,12,6ZM10.921,20H4V18c0-2.66,5.33-4,8-4a12.952,12.952,0,0,1,2.252.23l-1.067,1.848A9.715,9.715,0,0,0,12,16c-2.69,0-5.78,1.28-6,2h6.075Z" fill="#fb0"></path><path d="M23.78,21.75,19.3,13.989a1.5,1.5,0,0,0-2.6,0L12.22,21.75a1.5,1.5,0,0,0,1.3,2.25h8.962A1.5,1.5,0,0,0,23.78,21.75ZM15.9,23.5a.9.9,0,0,1-.636-1.536L16.727,20.5l-1.463-1.464a.9.9,0,1,1,1.272-1.272L19.273,20.5l-2.737,2.736A.9.9,0,0,1,15.9,23.5Zm4.836-.264a.9.9,0,0,1-1.272,0l-.976-.976,1.272-1.273.976.977A.9.9,0,0,1,20.736,23.236Zm0-4.2-.933.934L18.53,18.7l.934-.933a.9.9,0,1,1,1.272,1.272Z" fill="#fb0"></path>
  </symbol><symbol  viewBox='0 0 24 24' id='status-account-managed'>
    <path d="M11.294,20H4V18c0-2.66,5.33-4,8-4,.08,0,.17.005.254.008a6.957,6.957,0,0,0-.968,2.023C8.79,16.223,6.2,17.343,6,18h5A6.99,6.99,0,0,0,11.294,20ZM8,8a4,4,0,1,1,4,4A4,4,0,0,1,8,8Zm2,0a2,2,0,1,0,2-2A2.006,2.006,0,0,0,10,8Z" fill="#09f"></path><path d="M18,13a5,5,0,1,0,5,5A5,5,0,0,0,18,13Zm-1.464,7.736a.9.9,0,1,1-1.272-1.272L16.727,18l-1.463-1.464a.9.9,0,0,1,1.272-1.272L19.273,18Zm4.2,0a.9.9,0,0,1-1.272,0l-.976-.976,1.272-1.273.976.977A.9.9,0,0,1,20.736,20.736Zm0-4.2-.933.934L18.53,16.2l.934-.933a.9.9,0,1,1,1.272,1.272Z" fill="#09f"></path>
  </symbol><symbol  viewBox='0 0 24 24' id='status-account-unapproved'>
    <path d="M12.237,20H4V18c0-2.66,5.33-4,8-4,.074,0,.156.005.234.007a6.447,6.447,0,0,0-.651,2.005C9,16.132,6.209,17.317,6,18h5.585A6.446,6.446,0,0,0,12.237,20ZM8,8a4,4,0,1,1,4,4A4,4,0,0,1,8,8Zm2,0a2,2,0,1,0,2-2A2.006,2.006,0,0,0,10,8Z" fill="#d00"></path><path d="M18,12.5A4.5,4.5,0,1,0,22.5,17,4.5,4.5,0,0,0,18,12.5Zm2.53,5.97-1.06,1.06L18,18.061,16.53,19.53l-1.06-1.06L16.939,17,15.47,15.53l1.06-1.06L18,15.939l1.47-1.469,1.06,1.06L19.061,17Z" fill="#d00"></path>
  </symbol><symbol  viewBox='0 0 24 24' id='status-group-disabled'>
    <path d="M9,5a3.5,3.5,0,1,0,3.5,3.5A3.5,3.5,0,0,0,9,5Zm0,5a1.5,1.5,0,1,1,1.5-1.5A1.5,1.5,0,0,1,9,10Zm7.04,3.81c2.46.27,5.96,1.42,5.96,3.44V20H18V17.25a4.193,4.193,0,0,0-1.96-3.44M15,12a3.446,3.446,0,0,1-1.5-.35,5.461,5.461,0,0,0,0-6.3A3.446,3.446,0,0,1,15,5a3.5,3.5,0,0,1,0,7M9,13.75c-2.34,0-7,1.17-7,3.5V20H16V17.25C16,14.92,11.34,13.75,9,13.75ZM14,18H4v-.684c.375-.605,2.864-1.566,5-1.566s4.625.961,5,1.566Z" fill="#bbb"></path>
  </symbol><symbol  viewBox='0 0 24 24' id='status-group-enabled'>
    <path d="M9,5a3.5,3.5,0,1,0,3.5,3.5A3.5,3.5,0,0,0,9,5Zm0,5a1.5,1.5,0,1,1,1.5-1.5A1.5,1.5,0,0,1,9,10Zm7.04,3.81c2.46.27,5.96,1.42,5.96,3.44V20H18V17.25a4.193,4.193,0,0,0-1.96-3.44M15,12a3.446,3.446,0,0,1-1.5-.35,5.461,5.461,0,0,0,0-6.3A3.446,3.446,0,0,1,15,5a3.5,3.5,0,0,1,0,7M9,13.75c-2.34,0-7,1.17-7,3.5V20H16V17.25C16,14.92,11.34,13.75,9,13.75ZM14,18H4v-.684c.375-.605,2.864-1.566,5-1.566s4.625.961,5,1.566Z" fill="#08f"></path>
  </symbol><symbol  viewBox='0 0 24 24' id='status-profile-disabled'>
    <path d="M5.5,10a2,2,0,1,1,2,2A2,2,0,0,1,5.5,10Zm6,5.25c0-1.5-2.663-2.25-4-2.25s-4,.75-4,2.25V16h8ZM24,4.75v14.5a.75.75,0,0,1-.75.75H.75A.75.75,0,0,1,0,19.25V4.75A.75.75,0,0,1,.75,4h22.5A.75.75,0,0,1,24,4.75ZM22,6H2V18H22Zm-7.293,9.707L17,13.414l2.293,2.293,1.414-1.414L18.414,12l2.293-2.293L19.293,8.293,17,10.586,14.707,8.293,13.293,9.707,15.586,12l-2.293,2.293Z" fill="#bbb"></path>
  </symbol><symbol  viewBox='0 0 24 24' id='status-profile-unprovisioning'>
    <path d="M5.5,10a2,2,0,1,1,2,2A2,2,0,0,1,5.5,10Zm6,5.25c0-1.5-2.663-2.25-4-2.25s-4,.75-4,2.25V16h8ZM24,4.75v14.5a.75.75,0,0,1-.75.75H.75A.75.75,0,0,1,0,19.25V4.75A.75.75,0,0,1,.75,4h22.5A.75.75,0,0,1,24,4.75ZM22,6H2V18H22Zm-2,7.5V10.672l-2,2V8H16v4.672l-2-2V13.5l3,3Z" fill="#d00"></path>
  </symbol><symbol  viewBox='0 0 24 24' id='status-user-privileged-disabled-locked'>
    <path fill="#08f" d="M18 13.708L19.313 16.369 22.25 16.796 20.125 18.867 20.626 21.792 18 20.411 15.373 21.792 15.875 18.867 13.75 16.796 16.687 16.369 18 13.708z"></path><path d="M20.75,6V5a2.75,2.75,0,0,0-5.5,0V6H14v6h8V6ZM18,10.25A1.25,1.25,0,1,1,19.25,9,1.25,1.25,0,0,1,18,10.25ZM16.75,6V5a1.25,1.25,0,0,1,2.5,0V6Z" fill="#d00"></path><path d="M6,8a3.953,3.953,0,0,1,5-3.859V6.28A1.965,1.965,0,0,0,10,6a2,2,0,0,0,0,4,1.965,1.965,0,0,0,1-.28v2.139A3.953,3.953,0,0,1,6,8Zm5,10H4c.22-.72,3.31-2,6-2a9.664,9.664,0,0,1,1,.055v-2c-.359-.034-.7-.054-1-.054-2.67,0-8,1.34-8,4v2h9Z" fill="#d00"></path>
  </symbol><symbol  viewBox='0 0 24 24' id='status-user-privileged-disabled'>
    <path d="M13.651,20H3V18c0-1.922,2.784-3.153,5.335-3.689l1.782,1.737C7.675,16.276,5.2,17.358,5,18h7.12l1.606,1.566ZM15,8a4,4,0,1,1-4-4,4,4,0,0,1,4,4M13,8a2,2,0,1,0-2,2,2.006,2.006,0,0,0,2-2" fill="#bbb"></path><path fill="#08f" d="M18 13.708L19.313 16.369 22.25 16.796 20.125 18.867 20.626 21.792 18 20.411 15.373 21.792 15.875 18.867 13.75 16.796 16.687 16.369 18 13.708z"></path>
  </symbol><symbol  viewBox='0 0 24 24' id='status-user-privileged-enabled-locked'>
    <path d="M18,13.708l1.313,2.661,2.937.427-2.125,2.071.5,2.925L18,20.411l-2.627,1.381.5-2.925L13.75,16.8l2.937-.427ZM10,12a3.977,3.977,0,0,0,1-.141V9.72A1.965,1.965,0,0,1,10,10a2,2,0,0,1,0-4,1.965,1.965,0,0,1,1,.28V4.141A3.994,3.994,0,1,0,10,12Zm1,8H2V18c0-2.66,5.33-4,8-4,.3,0,.641.02,1,.054v2A9.664,9.664,0,0,0,10,16c-2.69,0-5.78,1.28-6,2h7Z" fill="#08f"></path><path d="M20.75,6V5a2.75,2.75,0,0,0-5.5,0V6H14v6h8V6ZM18,10.25A1.25,1.25,0,1,1,19.25,9,1.25,1.25,0,0,1,18,10.25ZM16.75,6V5a1.25,1.25,0,0,1,2.5,0V6Z" fill="#d00"></path>
  </symbol><symbol  viewBox='0 0 24 24' id='status-user-privileged-enabled'>
    <path d="M13.651,20H3V18c0-1.922,2.784-3.153,5.335-3.689l1.782,1.737C7.675,16.276,5.2,17.358,5,18h7.12l1.606,1.566ZM15,8a4,4,0,1,1-4-4,4,4,0,0,1,4,4M13,8a2,2,0,1,0-2,2,2.006,2.006,0,0,0,2-2m3.687,8.369L13.75,16.8l2.125,2.071-.5,2.925L18,20.411l2.626,1.381-.5-2.925L22.25,16.8l-2.937-.427L18,13.708Z" fill="#08f"></path>
  </symbol><symbol  viewBox='0 0 24 24' id='status-user-provisioning'>
    <path d="M7,8a3.953,3.953,0,0,1,5-3.859V6.28A1.965,1.965,0,0,0,11,6a2,2,0,0,0,0,4,1.965,1.965,0,0,0,1-.28v2.139A3.953,3.953,0,0,1,7,8Zm5,10H5c.22-.72,3.31-2,6-2a9.664,9.664,0,0,1,1,.055v-2c-.359-.034-.7-.054-1-.054-2.67,0-8,1.34-8,4v2h9ZM20,7,17,4,14,7V9.828l2-2V20h2V7.828l2,2Z" fill="#0a0"></path>
  </symbol><symbol  viewBox='0 0 24 24' id='status-user-super-disabled-locked'>
    <path d="M20.75,6V5a2.75,2.75,0,0,0-5.5,0V6H14v6h8V6ZM18,10.25A1.25,1.25,0,1,1,19.25,9,1.25,1.25,0,0,1,18,10.25ZM16.75,6V5a1.25,1.25,0,0,1,2.5,0V6Z" fill="#d00"></path><path d="M23,16a.993.993,0,0,1-.923.985L21,21H15l-1.077-4.015a.983.983,0,0,1-.63-.278,1,1,0,1,1,1.414,0,.983.983,0,0,1-.659.283L16.5,18.5l1.438-2.012a1,1,0,1,1,.125,0L19.5,18.5l2.453-1.51A1,1,0,1,1,23,16" fill="#f90"></path><path d="M10,12a3.977,3.977,0,0,0,1-.141V9.72A1.965,1.965,0,0,1,10,10a2,2,0,0,1,0-4,1.965,1.965,0,0,1,1,.28V4.141A3.994,3.994,0,1,0,10,12Zm1,8H2V18c0-2.66,5.33-4,8-4,.3,0,.641.02,1,.054v2A9.664,9.664,0,0,0,10,16c-2.69,0-5.78,1.28-6,2h7Z" fill="#bbb"></path>
  </symbol><symbol  viewBox='0 0 24 24' id='status-user-super-disabled'>
    <path d="M12.661,20H3V18c0-2.66,5.331-4,8-4,.23,0,.486.014.751.034A2.973,2.973,0,0,0,11,16h0c-2.689,0-5.78,1.28-6,2h6.779c.035.039.062.084.1.122a2.773,2.773,0,0,0,.361.3ZM11,12a4,4,0,1,1,4-4,4,4,0,0,1-4,4m0-6a2,2,0,1,0,2,2,2.006,2.006,0,0,0-2-2" fill="#bbb"></path><path d="M23,16a1,1,0,1,0-1.047.99L19.5,18.5l-1.437-2.012a1,1,0,1,0-.125,0L16.5,18.5l-2.452-1.51a.983.983,0,0,0,.659-.283,1,1,0,1,0-1.414,0,.983.983,0,0,0,.63.278L15,21h6l1.077-4.015A.993.993,0,0,0,23,16" fill="#f90"></path>
  </symbol><symbol  viewBox='0 0 24 24' id='status-user-super-enabled-locked'>
    <path d="M23,16a.993.993,0,0,1-.923.985L21,21H15l-1.077-4.015a.983.983,0,0,1-.63-.278,1,1,0,1,1,1.414,0,.983.983,0,0,1-.659.283L16.5,18.5l1.438-2.012a1,1,0,1,1,.125,0L19.5,18.5l2.453-1.51A1,1,0,1,1,23,16M10,12a3.977,3.977,0,0,0,1-.141V9.72A1.965,1.965,0,0,1,10,10a2,2,0,0,1,0-4,1.965,1.965,0,0,1,1,.28V4.141A3.994,3.994,0,1,0,10,12Zm1,8H2V18c0-2.66,5.33-4,8-4,.3,0,.641.02,1,.054v2A9.664,9.664,0,0,0,10,16c-2.69,0-5.78,1.28-6,2h7Z" fill="#f90"></path><path d="M20.75,6V5a2.75,2.75,0,0,0-5.5,0V6H14v6h8V6ZM18,10.25A1.25,1.25,0,1,1,19.25,9,1.25,1.25,0,0,1,18,10.25ZM16.75,6V5a1.25,1.25,0,0,1,2.5,0V6Z" fill="#d00"></path>
  </symbol><symbol  viewBox='0 0 24 24' id='status-user-super-enabled'>
    <path d="M12.661,20H3V18c0-2.66,5.331-4,8-4,.23,0,.486.014.751.034A2.973,2.973,0,0,0,11,16h0c-2.689,0-5.78,1.28-6,2h6.779c.035.039.062.084.1.122a2.773,2.773,0,0,0,.361.3ZM11,12a4,4,0,1,1,4-4,4,4,0,0,1-4,4m0-6a2,2,0,1,0,2,2,2.006,2.006,0,0,0-2-2M23,16a1,1,0,1,0-1.047.99L19.5,18.5l-1.437-2.012a1,1,0,1,0-.125,0L16.5,18.5l-2.452-1.51a.983.983,0,0,0,.659-.283,1,1,0,1,0-1.414,0,.983.983,0,0,0,.63.278L15,21h6l1.077-4.015A.993.993,0,0,0,23,16" fill="#f90"></path>
  </symbol><symbol  viewBox='0 0 24 24' id='status-user-unprovisioning'>
    <path d="M7,8a3.953,3.953,0,0,1,5-3.859V6.28A1.965,1.965,0,0,0,11,6a2,2,0,0,0,0,4,1.965,1.965,0,0,0,1-.28v2.139A3.953,3.953,0,0,1,7,8Zm5,10H5c.22-.72,3.31-2,6-2a9.664,9.664,0,0,1,1,.055v-2c-.359-.034-.7-.054-1-.054-2.67,0-8,1.34-8,4v2h9Zm8-3.328-2,2V4H16V16.672l-2-2V17.5l3,3,3-3Z" fill="#d00"></path>
  </symbol><symbol  viewBox='0 0 24 24' id='window-close'>
    <path d="M18.362,7.048l-1.41-1.41L12,10.59,7.048,5.638l-1.41,1.41L10.59,12,5.638,16.952l1.41,1.41L12,13.41l4.952,4.952,1.41-1.41L13.41,12Z"></path>
  </symbol><symbol  viewBox='0 0 24 24' id='window-float'>
    <path d="M19,4H9A1,1,0,0,0,8,5V8H5A1,1,0,0,0,4,9V19a1,1,0,0,0,1,1H15a1,1,0,0,0,1-1V16h3a1,1,0,0,0,1-1V5A1,1,0,0,0,19,4ZM14,18H6V10h8Zm4-4H16V9a1,1,0,0,0-1-1H10V6h8Z"></path>
  </symbol><symbol  viewBox='0 0 24 24' id='window-help'>
    <path d="M12,3a9,9,0,1,0,9,9A9,9,0,0,0,12,3Zm1,13.984H11v-2h2Zm1.764-5.831a3.1,3.1,0,0,1-.634.944c-.256.262-1.035,1.035-1.035,1.035a.33.33,0,0,0-.1.233v.619H11v-.619a2.345,2.345,0,0,1,.684-1.65s.765-.759,1.015-1.015a1.074,1.074,0,0,0,.223-.328,1,1,0,0,0,0-.776,1,1,0,0,0-1.844,0,1,1,0,0,0,0,.776l-1.842.781a3,3,0,1,1,5.528,0Z"></path>
  </symbol><symbol  viewBox='0 0 24 24' id='window-maximise'>
    <path d="M18,5H6A1,1,0,0,0,5,6V18a1,1,0,0,0,1,1H18a1,1,0,0,0,1-1V6A1,1,0,0,0,18,5ZM17,17H7V9H17Z"></path>
  </symbol></svg>