<svg xmlns="http://www.w3.org/2000/svg" xmlns:xlink="http://www.w3.org/1999/xlink" style="width: 0; height: 0; visibility: hidden; position: absolute;" aria-hidden="true"><symbol  viewBox='0 0 24 24' id='action-add-folder'>
    <g fill="none"><path d="M0 0H24V24H0z"></path><path stroke="#000" stroke-miterlimit="10" stroke-width=".5" d="M-60 -12H420V468H-60z"></path></g><path d="M20,6H12L10,4H4A2,2,0,0,0,2,6V18a2,2,0,0,0,2,2H20a2,2,0,0,0,2-2V8A2,2,0,0,0,20,6Zm0,12H4V6H9.17l2,2H20Zm-8-4h2v2h2V14h2V12H16V10H14v2H12Z"></path>
  </symbol><symbol  viewBox='0 0 24 24' id='action-add'>
    <g fill="none"><path d="M0 0H24V24H0z"></path><path stroke="#000" stroke-miterlimit="10" stroke-width=".5" d="M-300 -12H180V468H-300z"></path></g><path d="M12,3a9,9,0,1,0,9,9A9,9,0,0,0,12,3Zm5,10H13v4H11V13H7V11h4V7h2v4h4Z"></path>
  </symbol><symbol  viewBox='0 0 24 24' id='action-archive'>
    <g fill="none"><path d="M0 0H24V24H0z"></path><path stroke="#000" stroke-miterlimit="10" stroke-width=".5" d="M-60 -12H420V468H-60z"></path></g><path d="M20.54,5.71,19.15,4A1.45,1.45,0,0,0,18,3.48H6A1.49,1.49,0,0,0,4.84,4L3.46,5.71A2,2,0,0,0,3,7v12.5a2,2,0,0,0,2,2H19a2,2,0,0,0,2-2V7A2,2,0,0,0,20.54,5.71ZM6.24,5.48H17.76l.81,1H5.44ZM5,19.48v-11H19v11Zm8.45-9h-2.9v3H8l4,4,4-4H13.45Z"></path>
  </symbol><symbol  viewBox='0 0 24 24' id='action-break-glass'>
    <g fill="none"><path d="M0 0H24V24H0z"></path><path stroke="#000" stroke-miterlimit="10" stroke-width=".5" d="M-108 -12H372V468H-108z"></path></g><path d="M.69,9.17,2.81,7.05l4.24,4.24L4.93,13.41ZM13.41,2.1,7.05,4.22,4.22,7.05,7.05,9.88l.71-.71,5,4.95v1.42l6.36,6.36,2.83-2.83-6.36-6.36H14.12l-4.95-5,4.95-4.95Z"></path>
  </symbol><symbol  viewBox='0 0 24 24' id='action-bulk-import'>
    <g fill="none"><path d="M0 0H24V24H0z"></path><path stroke="#000" stroke-miterlimit="10" stroke-width=".5" d="M-348 -12H132V468H-348z"></path></g><path d="M3,6V4H21V6H3ZM16.25,16.49V20h1.5V16.49h2.74L17,13l-3.54,3.54Zm-5-4.95H8.46L12,8l3.54,3.54H12.75V20h-1.5Zm-5,4.95H3.51L7.05,13l3.54,3.54H7.75V20H6.25Z"></path>
  </symbol><symbol  viewBox='0 0 24 24' id='action-change-password'>
    <g fill="none"><path d="M0 0H24V24H0z"></path><path stroke="#000" stroke-miterlimit="10" stroke-width=".5" d="M-252 -12H228V468H-252z"></path></g><path d="M13.85,10.21l-1.49,1.17.26-1.88H11.38l.26,1.88-1.49-1.17-.63,1.08,1.77.71-1.77.71.63,1.08,1.49-1.17-.26,1.88h1.24l-.26-1.88,1.49,1.17.63-1.08L12.71,12l1.77-.71Zm-5.5,0L6.86,11.38,7.12,9.5H5.88l.26,1.88L4.65,10.21,4,11.29,5.79,12,4,12.71l.63,1.08,1.49-1.17L5.88,14.5H7.12l-.26-1.88,1.49,1.17L9,12.71,7.21,12,9,11.29Zm11,0-1.49,1.17.26-1.88H16.88l.26,1.88-1.49-1.17L15,11.29l1.77.71L15,12.71l.63,1.08,1.49-1.17-.26,1.88h1.24l-.26-1.88,1.49,1.17L20,12.71,18.21,12,20,11.29ZM22,5H2A1,1,0,0,0,1,6V18a1,1,0,0,0,1,1H22a1,1,0,0,0,1-1V6A1,1,0,0,0,22,5ZM3,17V7H21l0,10Z"></path>
  </symbol><symbol  viewBox='0 0 24 24' id='action-change-ticket'>
    <g fill="none"><path d="M0 0H24V24H0z"></path><path stroke="#000" stroke-miterlimit="10" stroke-width=".5" d="M-300 -12H180V468H-300z"></path></g><path d="M9,17H7V15H9Zm0-6H7v2H9ZM9,7H7V9H9ZM7,7V5H0v5a2,2,0,0,1,2,2,2,2,0,0,1-2,2v5H7V17H2V15.45a4,4,0,0,0,0-6.9V7ZM9,5V7H22V8.55a4,4,0,0,0,0,6.9V17H9v2H24V14a2,2,0,0,1,0-4V5Z"></path>
  </symbol><symbol  viewBox='0 0 24 24' id='action-clone-user'>
    <g fill="none"><path d="M0 0H24V24H0z"></path><path stroke="#000" stroke-miterlimit="10" stroke-width=".5" d="M-156 -12H324V468H-156z"></path></g><path d="M5,4A2,2,0,1,1,3,6,2,2,0,0,1,5,4ZM5,9c-1.34,0-4,.75-4,2.25V12H9v-.75C9,9.75,6.34,9,5,9ZM17.08,5,15.79,6.48a2,2,0,0,1,.66,1.1l2-.43A4,4,0,0,0,17.08,5Zm-.61,3.41a2,2,0,0,1-.63,1.12L17.19,11a3.94,3.94,0,0,0,1.24-2.25ZM11.81,5a3.94,3.94,0,0,0-1.24,2.25l2,.35a2,2,0,0,1,.63-1.12Zm3.36,4.84a1.85,1.85,0,0,1-.67.12,1.77,1.77,0,0,1-.61-.1l-.61,1.91A4.15,4.15,0,0,0,14.5,12a3.8,3.8,0,0,0,1.35-.24ZM12.55,8.42l-2,.43a4,4,0,0,0,1.33,2.2l1.29-1.53A2,2,0,0,1,12.55,8.42ZM14.5,4a3.8,3.8,0,0,0-1.35.24l.68,1.88A1.85,1.85,0,0,1,14.5,6a1.77,1.77,0,0,1,.61.1l.61-1.91A4.15,4.15,0,0,0,14.5,4ZM23,21H21V19h2ZM6,19H8v2H6Zm5,0H9v2h2Zm3,0H12v2h2Zm3,0H15v2h2Zm3,0H18v2h2Zm-6.2-5-.45,0c-.51,0-1,.08-1.46.15l.27,2h0A18.1,18.1,0,0,1,14,16h0l0-2ZM6,18H8a1.13,1.13,0,0,1,.62-.85h0l-1-1.51A3,3,0,0,0,6,18Zm2.72-2.93.7,1.68h0c.25-.09.52-.18.81-.26h0c.29-.08.61-.15.95-.21l-.4-1.87A11.18,11.18,0,0,0,8.72,15.07Zm12.63.57-1,1.51h0A1.13,1.13,0,0,1,21,18h2A3,3,0,0,0,21.35,15.64Zm-3.14-1.23-.4,1.87c.34.06.66.13,1,.21h0c.29.08.56.17.81.26h0l.7-1.68A11.18,11.18,0,0,0,18.21,14.41ZM15.65,14l-.45,0H15l0,2h0a18.1,18.1,0,0,1,1.87.13h0l.27-2C16.64,14.12,16.16,14.07,15.65,14Z"></path>
  </symbol><symbol  viewBox='0 0 24 24' id='action-copy-settings'>
    <g fill="none"><path d="M0 0H24V24H0z"></path><path stroke="#000" stroke-miterlimit="10" stroke-width=".5" d="M-300 -12H180V468H-300z"></path></g><path d="M17.65,13.58l1.2-1.05L18,11l-1.51.51-.73-.42L15.4,9.5H13.6l-.31,1.56-.73.42L11.05,11l-.9,1.56,1.2,1.05v.84l-1.2,1.05.9,1.56,1.51-.51.73.42.31,1.56h1.8l.31-1.56.73-.42L18,17l.9-1.56-1.2-1.05Zm-1.8.42a1.35,1.35,0,1,1-1.35-1.35A1.34,1.34,0,0,1,15.85,14ZM17,1H5A2,2,0,0,0,3,3V17H5V3H17Zm3,4H9A2,2,0,0,0,7,7V21a2,2,0,0,0,2,2H20a2,2,0,0,0,2-2V7A2,2,0,0,0,20,5Zm0,16H9V7H20Z"></path>
  </symbol><symbol  viewBox='0 0 24 24' id='action-copy-to-client'>
    <g fill="none"><path d="M0 0H24V24H0z"></path><path stroke="#000" stroke-miterlimit="10" stroke-width=".5" d="M-204 -12H276V468H-204z"></path></g><path d="M19,2H14.82A3,3,0,0,0,9.18,2H5A2,2,0,0,0,3,4V5.23A7,7,0,0,0,5,8V4H7V6H17V4h2V20H5V15.67A10.79,10.79,0,0,1,3,14.5V20a2,2,0,0,0,2,2H19a2,2,0,0,0,2-2V4A2,2,0,0,0,19,2ZM12,4a1,1,0,1,1,1-1A1,1,0,0,1,12,4ZM9.5,17.5v-3a9,9,0,0,1-9-9A9.29,9.29,0,0,1,.63,4,9,9,0,0,0,9.5,11.5v-3L15,13Z"></path>
  </symbol><symbol  viewBox='0 0 24 24' id='action-copy-to-guest'>
    <g fill="none"><path d="M0 0H24V24H0z"></path><path stroke="#000" stroke-miterlimit="10" stroke-width=".5" d="M-252 -12H228V468H-252z"></path></g><path d="M20.2,14.6l-1.2.9V20H5V4H7V6h7.43A11.17,11.17,0,0,1,17,5.18V2H14.82A3,3,0,0,0,9.18,2H5A2,2,0,0,0,3,4V20a2,2,0,0,0,2,2H19a2,2,0,0,0,2-2V14ZM12,2a1,1,0,1,1-1,1A1,1,0,0,1,12,2Zm7,11V10a9,9,0,0,0-8.87,7.5A9.29,9.29,0,0,1,10,16a9,9,0,0,1,9-9V4l5,4.5Z"></path>
  </symbol><symbol  viewBox='0 0 24 24' id='action-ctrl-alt-del'>
    <g fill="none"><path d="M0 0H24V24H0z"></path><path stroke="#000" stroke-miterlimit="10" stroke-width=".5" d="M-156 -12H324V468H-156z"></path></g><path d="M20,15v5H15V15h5m1-2H14a1,1,0,0,0-1,1v7a1,1,0,0,0,1,1h7a1,1,0,0,0,1-1V14a1,1,0,0,0-1-1ZM14.5,4V9h-5V4h5m1-2h-7a1,1,0,0,0-1,1v7a1,1,0,0,0,1,1h7a1,1,0,0,0,1-1V3a1,1,0,0,0-1-1ZM9,15v5H4V15H9m1-2H3a1,1,0,0,0-1,1v7a1,1,0,0,0,1,1h7a1,1,0,0,0,1-1V14a1,1,0,0,0-1-1Z"></path>
  </symbol><symbol  viewBox='0 0 24 24' id='action-delete'>
    <g fill="none"><path d="M0 0H24V24H0z"></path><path stroke="#000" stroke-miterlimit="10" stroke-width=".5" d="M-12 -12H468V468H-12z"></path></g><path d="M6,19a2,2,0,0,0,2,2h8a2,2,0,0,0,2-2V7H6ZM8,9h8V19H8Zm7.5-5-1-1h-5l-1,1H5V6H19V4ZM11.33,17H10V11h1.33ZM14,17H12.67V11H14Z"></path>
  </symbol><symbol  viewBox='0 0 24 24' id='action-download-csv'>
    <g fill="none"><path d="M0 0H24V24H0z"></path><path stroke="#000" stroke-miterlimit="10" stroke-width=".5" d="M-252 -12H228V468H-252z"></path></g><path d="M6.15,16.86a1.87,1.87,0,0,1-.74,1.5,2.84,2.84,0,0,1-1.84.56,2.51,2.51,0,0,1-1.95-.74,2.94,2.94,0,0,1-.7-2.11v-.16a3.38,3.38,0,0,1,.32-1.5,2.21,2.21,0,0,1,.92-1,2.62,2.62,0,0,1,1.36-.34,2.86,2.86,0,0,1,1.86.56,2.11,2.11,0,0,1,.78,1.55H4.52a.73.73,0,0,0-.26-.62,1.09,1.09,0,0,0-.74-.23c-.58,0-.9.44-.94,1.32v.43a2.52,2.52,0,0,0,.21,1.2.83.83,0,0,0,.78.37c.64,0,.95-.27.94-.8Zm4,.43a.47.47,0,0,0-.22-.41,2.34,2.34,0,0,0-.79-.29,8,8,0,0,1-.95-.28A2.35,2.35,0,0,1,7.53,16a1.13,1.13,0,0,1-.36-.48,1.78,1.78,0,0,1-.12-.69,1.44,1.44,0,0,1,.28-.88,1.9,1.9,0,0,1,.8-.61,2.78,2.78,0,0,1,1.13-.22,3,3,0,0,1,1.77.48,1.54,1.54,0,0,1,.66,1.31H10a.58.58,0,0,0-.22-.46.81.81,0,0,0-.54-.19.76.76,0,0,0-.5.15.43.43,0,0,0-.19.35.4.4,0,0,0,.19.35,2.23,2.23,0,0,0,.68.26,3.73,3.73,0,0,1,1.71.7,1.54,1.54,0,0,1,.5,1.21,1.46,1.46,0,0,1-.61,1.23,2.79,2.79,0,0,1-1.68.45,3.45,3.45,0,0,1-1.32-.23A2,2,0,0,1,7.17,18a1.71,1.71,0,0,1-.32-1H8.51a.71.71,0,0,0,.23.61,1.31,1.31,0,0,0,.76.17.72.72,0,0,0,.46-.13A.44.44,0,0,0,10.12,17.29Zm4.88,0,0,.1v-.08l1.2-4.11H18l-2,5.69H14.09l-2-5.69h1.71Z"></path><path d="M21,2H13.41a1,1,0,0,0-.7.29L6.29,8.71a1,1,0,0,0-.29.7V11h8a1,1,0,0,0,1-1V4h5V21H6v1a1,1,0,0,0,1,1H21a1,1,0,0,0,1-1V3A1,1,0,0,0,21,2ZM13,9H8.83L13,4.83Z"></path>
  </symbol><symbol  viewBox='0 0 24 24' id='action-download'>
    <g fill="none"><path d="M0 0H24V24H0z"></path><path stroke="#000" stroke-miterlimit="10" stroke-width=".5" d="M-396 -12H84V468H-396z"></path></g><path d="M6,10h4V4h4v6h4l-6,6Zm13,8H3v2H21V18Z"></path>
  </symbol><symbol  viewBox='0 0 24 24' id='action-edit'>
    <g fill="none"><path d="M0 0H24V24H0z"></path><path stroke="#000" stroke-miterlimit="10" stroke-width=".5" d="M-204 -12H276V468H-204z"></path></g><path d="M3,17.25V21H6.75L17.81,9.94,14.06,6.19ZM20.71,7a1,1,0,0,0,0-1.41L18.37,3.29a1,1,0,0,0-1.41,0L15.13,5.12l3.75,3.75Z"></path>
  </symbol><symbol  viewBox='0 0 24 24' id='action-filter'>
    <g fill="none"><path d="M0 0H24V24H0z"></path><path stroke="#000" stroke-miterlimit="10" stroke-width=".5" d="M-204 -12H276V468H-204z"></path></g><path d="M7,6H17l-5,6.3ZM4.25,5.61,10,13v6a1,1,0,0,0,1,1h2a1,1,0,0,0,1-1V13s3.72-4.8,5.74-7.39A1,1,0,0,0,19,4H5A1,1,0,0,0,4.25,5.61Z"></path>
  </symbol><symbol  viewBox='0 0 24 24' id='action-hide'>
    <g fill="none"><path d="M0 0H24V24H0z"></path><path stroke="#000" stroke-miterlimit="10" stroke-width=".5" d="M-12 -12H468V468H-12z"></path></g><path d="M12,4.5A11.83,11.83,0,0,0,1,12a11.82,11.82,0,0,0,22,0A11.83,11.83,0,0,0,12,4.5Zm0,2a9.75,9.75,0,0,1,8.09,4.25H3.91A9.75,9.75,0,0,1,12,6.5Zm0,11a9.74,9.74,0,0,1-8.09-4.25H20.09A9.74,9.74,0,0,1,12,17.5Z"></path>
  </symbol><symbol  viewBox='0 0 24 24' id='action-launch-map-tool'>
    <g fill="none"><path d="M0 0H24V24H0z"></path><path stroke="#000" stroke-miterlimit="10" stroke-width=".5" d="M-348 -12H132V468H-348z"></path></g><path d="M13,8h5v3H13Zm0,7h5V12H13ZM7,15h5V12H7Zm5-8H6v4h6ZM24,18v2H0V18H4a2,2,0,0,1-2-2V6A2,2,0,0,1,4,4H20a2,2,0,0,1,2,2V16a2,2,0,0,1-2,2ZM4,16H20V6H4Z"></path>
  </symbol><symbol  viewBox='0 0 24 24' id='action-lock'>
    <g fill="none"><path d="M0 0H24V24H0z"></path><path stroke="#000" stroke-miterlimit="10" stroke-width=".5" d="M-252 -12H228V468H-252z"></path></g><path d="M19.18,7.92h-2V6.13A5.15,5.15,0,0,0,12.67.94a5,5,0,0,0-5.49,5v2h-2a1,1,0,0,0-1,1v12a1,1,0,0,0,1,1h14a1,1,0,0,0,1-1v-12A1,1,0,0,0,19.18,7.92Zm-10-2a3,3,0,0,1,3.15-3,3.11,3.11,0,0,1,2.85,3.16V7.92h-6Zm9,14h-12v-10h12Zm-6-3a2,2,0,1,0-2-2A2,2,0,0,0,12.18,16.92Z"></path>
  </symbol><symbol  viewBox='0 0 24 24' id='action-print'>
    <g fill="none"><path d="M0 0H24V24H0z"></path><path stroke="#000" stroke-miterlimit="10" stroke-width=".5" d="M-12 -12H468V468H-12z"></path></g><path d="M19,8H18V3H6V8H5a3,3,0,0,0-3,3v6H6v4H18V17h4V11A3,3,0,0,0,19,8ZM8,5h8V8H8Zm8,12v2H8V15h8Zm2-2V13H6v2H4V11a1,1,0,0,1,1-1H19a1,1,0,0,1,1,1v4Z"></path>
  </symbol><symbol  viewBox='0 0 24 24' id='action-refresh'>
    <g fill="none"><path d="M0 0H24V24H0z"></path><path stroke="#000" stroke-miterlimit="10" stroke-width=".5" d="M-12 -12H468V468H-12z"></path></g><path d="M20,4v6H14l2.24-2.24a6,6,0,0,0-10,2.74H4.14A8,8,0,0,1,17.65,6.35ZM12,18a6,6,0,0,1-4.24-1.76L10,14H4v6l2.35-2.35A8,8,0,0,0,19.86,13.5H17.81A6,6,0,0,1,12,18"></path>
  </symbol><symbol  viewBox='0 0 24 24' id='action-remove-force'>
    <g fill="none"><path d="M0 0H24V24H0z"></path><path stroke="#000" stroke-miterlimit="10" stroke-width=".5" d="M-444 -12H36V468H-444z"></path></g><path fill="#f80" d="M22 16L20.67 17.34 14 24 17.17 17.34 13.66 17.34 16.01 12 21.5 12 18 16 22 16z"></path><path d="M14,12H7V10H20.94A9,9,0,1,0,10.5,19.86Z"></path>
  </symbol><symbol  viewBox='0 0 24 24' id='action-remove'>
    <g fill="none"><path d="M0 0H24V24H0z"></path><path stroke="#000" stroke-miterlimit="10" stroke-width=".5" d="M-396 -12H84V468H-396z"></path></g><path d="M17,13H7V11H17ZM12,3a9,9,0,1,0,9,9A9,9,0,0,0,12,3Z"></path>
  </symbol><symbol  viewBox='0 0 24 24' id='action-reset'>
    <g fill="none"><path d="M0 0H24V24H0z"></path><path stroke="#000" stroke-miterlimit="10" stroke-width=".5" d="M-156 -12H324V468H-156z"></path></g><path d="M16.36,5.29a8,8,0,0,0-10,1.06L4,5v7l6.06-3.5L8.15,7.39a6,6,0,1,1-1.76,6.69l-1.73,1a7.84,7.84,0,0,0,3,3.63A8,8,0,0,0,16.36,5.29Z"></path>
  </symbol><symbol  viewBox='0 0 24 24' id='action-revert'>
    <g fill="none"><path d="M0 0H24V24H0z"></path><path stroke="#000" stroke-miterlimit="10" stroke-width=".5" d="M-204 -12H276V468H-204z"></path></g><path d="M18.71,16.35A8,8,0,0,1,7.65,18.71a7.84,7.84,0,0,1-3-3.63l1.73-1A6,6,0,1,0,8.15,7.39L10.06,8.5,4,12V5L6.34,6.35a8,8,0,0,1,12.37,10Zm-3-1.7-3-3V8h-1.5v4.31l3.4,3.4Z"></path>
  </symbol><symbol  viewBox='0 0 24 24' id='action-save'>
    <g fill="none"><path d="M0 0H24V24H0z"></path><path stroke="#000" stroke-miterlimit="10" stroke-width=".5" d="M-60 -12H420V468H-60z"></path></g><path d="M17.29,3.29a1,1,0,0,0-.7-.29H4A1,1,0,0,0,3,4V20a1,1,0,0,0,1,1H20a1,1,0,0,0,1-1V7.41a1,1,0,0,0-.29-.7ZM19,19H5V5H16.17L19,7.83ZM6,6h9v4H6Zm9,9a3,3,0,1,1-3-3A3,3,0,0,1,15,15Z"></path>
  </symbol><symbol  viewBox='0 0 24 24' id='action-screenshot'>
    <g fill="none"><path d="M0 0H24V24H0z"></path><path stroke="#000" stroke-miterlimit="10" stroke-width=".5" d="M-396 -12H84V468H-396z"></path></g><path d="M5,17H3V15H5Zm0,2H3v2H5Zm0-8H3v2H5ZM21,3H19V5h2Zm0,4H19V9h2ZM5,7H3V9H5ZM17,3H15V5h2ZM13,3H11V5h2ZM9,3H7V5H9ZM5,3H3V5H5ZM24,22V14.71A1.7,1.7,0,0,0,22.29,13H20.41l-2-2H12.59l-2,2H8.71A1.7,1.7,0,0,0,7,14.71V22a2,2,0,0,0,2,2H22A2,2,0,0,0,24,22ZM9,15h2.41l2-2h4.18l2,2H22v7H9Zm6.5,0a3,3,0,1,0,3,3A3,3,0,0,0,15.5,15Z"></path>
  </symbol><symbol  viewBox='0 0 24 24' id='action-search'>
    <g fill="none"><path d="M0 0H24V24H0z"></path><path stroke="#000" stroke-miterlimit="10" stroke-width=".5" d="M-60 -12H420V468H-60z"></path></g><path d="M15.5,14h-.79l-.28-.27a6.51,6.51,0,1,0-.7.7l.27.28v.79l5,5L20.49,19Zm-6,0A4.5,4.5,0,1,1,14,9.5,4.49,4.49,0,0,1,9.5,14"></path>
  </symbol><symbol  viewBox='0 0 24 24' id='action-select-all'>
    <g fill="none"><path d="M0 0H24V24H0z"></path><path stroke="#000" stroke-miterlimit="10" stroke-width=".5" d="M-108 -12H372V468H-108z"></path></g><path d="M3,13H5V11H3Zm4,8H9V19H7ZM3,9H5V7H3ZM13,3H11V5h2ZM3,17H5V15H3ZM9,3H7V5H9ZM5,3H3V5H5Zm6,18h2V19H11Zm8-8h2V11H19Zm0-4h2V7H19Zm0,8h2V15H19Zm-4,4h2V19H15ZM15,5h2V3H15Zm4,0h2V3H19Zm0,16h2V19H19ZM3,21H5V19H3Zm4-4H17V7H7ZM9,9h6v6H9Z"></path>
  </symbol><symbol  viewBox='0 0 24 24' id='action-select-clear'>
    <g fill="none"><path d="M0 0H24V24H0z"></path><path stroke="#000" stroke-miterlimit="10" stroke-width=".5" d="M-156 -12H324V468H-156z"></path></g><path d="M3,13H5V11H3Zm4,8H9V19H7ZM3,9H5V7H3ZM13,3H11V5h2ZM3,17H5V15H3ZM9,3H7V5H9ZM5,3H3V5H5Zm6,18h2V19H11Zm8-8h2V11H19Zm0-4h2V7H19Zm0,8h2V15H19Zm-4,4h2V19H15ZM15,5h2V3H15Zm4,0h2V3H19Zm0,16h2V19H19ZM3,21H5V19H3ZM15.54,7.05,12,10.59,8.46,7.05,7.05,8.46,10.59,12,7.05,15.54,8.46,17,12,13.41,15.54,17,17,15.54,13.41,12,17,8.46Z"></path>
  </symbol><symbol  viewBox='0 0 24 24' id='action-set-date'>
    <g fill="none"><path d="M0 0H24V24H0z"></path><path stroke="#000" stroke-miterlimit="10" stroke-width=".5" d="M-108 -12H372V468H-108z"></path></g><path d="M17,13.75H14.5v-2.5H17Zm-3.75-2.5h-2.5v2.5h2.5Zm-3.75,0H7v2.5H9.5Zm7.5,4H14.5v2.5H17Zm-3.75,0h-2.5v2.5h2.5Zm-3.75,0H7v2.5H9.5ZM20,4a1,1,0,0,1,1,1V21a1,1,0,0,1-1,1H4a1,1,0,0,1-1-1V5A1,1,0,0,1,4,4H6V2H8V4h8V2h2V4ZM19,9H5V20H19Z"></path>
  </symbol><symbol  viewBox='0 0 24 24' id='action-show'>
    <g fill="none"><path d="M0 0H24V24H0z"></path><path stroke="#000" stroke-miterlimit="10" stroke-width=".5" d="M-444 -12H36V468H-444z"></path></g><path d="M12,6.5A9.77,9.77,0,0,1,20.82,12,9.82,9.82,0,0,1,3.18,12,9.77,9.77,0,0,1,12,6.5m0-2A11.83,11.83,0,0,0,1,12a11.82,11.82,0,0,0,22,0A11.83,11.83,0,0,0,12,4.5Zm0,3A4.5,4.5,0,1,0,16.5,12,4.51,4.51,0,0,0,12,7.5Z"></path>
  </symbol><symbol  viewBox='0 0 24 24' id='action-switch-enable'>
    <g fill="none"><path d="M0 0H24V24H0z"></path><path stroke="#000" stroke-miterlimit="10" stroke-width=".5" d="M-348 -12H132V468H-348z"></path></g><path d="M16,18H8A6,6,0,0,1,8,6h8a6,6,0,0,1,0,12ZM8,8a4,4,0,0,0,0,8h8a4,4,0,0,0,0-8Zm8,1a3,3,0,1,0,3,3A3,3,0,0,0,16,9Z"></path>
  </symbol><symbol  viewBox='0 0 24 24' id='action-terminate'>
    <g fill="none"><path d="M0 0H24V24H0z"></path><path stroke="#000" stroke-miterlimit="10" stroke-width=".5" d="M-348 -12H132V468H-348z"></path></g><path d="M14.83,16.24,12,13.41,9.17,16.24,7.76,14.83,10.59,12,7.76,9.17,9.17,7.76,12,10.59l2.83-2.83,1.41,1.41L13.41,12l2.83,2.83ZM12,3a9,9,0,1,0,9,9A9,9,0,0,0,12,3Z"></path>
  </symbol><symbol  viewBox='0 0 24 24' id='action-trigger-audit'>
    <g fill="none"><path d="M0 0H24V24H0z"></path><path stroke="#000" stroke-miterlimit="10" stroke-width=".5" d="M-109 -12H371V468H-109z"></path></g><path d="M12,3a9,9,0,1,0,9,9A9,9,0,0,0,12,3ZM10,16.5v-9L16,12Z"></path>
  </symbol><symbol  viewBox='0 0 24 24' id='action-unlock'>
    <g fill="none"><path d="M0 0H24V24H0z"></path><path stroke="#000" stroke-miterlimit="10" stroke-width=".5" d="M-300 -12H180V468H-300z"></path></g><path d="M10,15a2,2,0,1,1,2,2A2,2,0,0,1,10,15ZM20,8.93V21.07a.93.93,0,0,1-.93.93H4.93A.93.93,0,0,1,4,21.07V8.93A.93.93,0,0,1,4.93,8H15V6.16A3.12,3.12,0,0,0,12.16,3a3,3,0,0,0-3,2H7.1a5,5,0,0,1,5.39-4A5.16,5.16,0,0,1,17,6.22V8h2.07A.93.93,0,0,1,20,8.93ZM18,10H6V20H18Z"></path>
  </symbol><symbol  viewBox='0 0 24 24' id='action-upload'>
    <g fill="none"><path d="M0 0H24V24H0z"></path><path stroke="#000" stroke-miterlimit="10" stroke-width=".5" d="M-444 -12H36V468H-444z"></path></g><path d="M18,14H14v6H10V14H6l6-6ZM5,6H21V4H3V6Z"></path>
  </symbol><symbol  viewBox='0 0 24 24' id='notification-alert'>
    <g fill="none"><path d="M0 0H24V24H0z"></path><path stroke="#000" stroke-miterlimit="10" stroke-width=".5" d="M-12 -204H468V276H-12z"></path></g><path d="M22.13,19.5l-9.26-16a1,1,0,0,0-1.74,0l-9.26,16A1,1,0,0,0,2.73,21H21.27A1,1,0,0,0,22.13,19.5ZM11,16h2v2H11Zm2-2H11V10h2Z" fill="#f80"></path>
  </symbol><symbol  viewBox='0 0 24 24' id='object-account'>
    <g fill="none"><path d="M0 0H24V24H0z"></path><path stroke="#000" stroke-miterlimit="10" stroke-width=".5" d="M-300 -60H180V420H-300z"></path></g><path d="M12,14c-2.67,0-8,1.34-8,4v2H20V18c0-2.66-5.33-4-8-4M6,18c.22-.72,3.31-2,6-2s5.8,1.29,6,2Zm6-6A4,4,0,1,0,8,8a4,4,0,0,0,4,4m0-6a2,2,0,1,1-2,2,2,2,0,0,1,2-2"></path>
  </symbol><symbol  viewBox='0 0 24 24' id='object-active-directory'>
    <g fill="none"><path d="M0 0H24V24H0z"></path><path stroke="#000" stroke-miterlimit="10" stroke-width=".5" d="M-252 -60H228V420H-252z"></path></g><path d="M20,11.25a2.76,2.76,0,0,0-1.77.64L13.51,6.3a2.75,2.75,0,1,0-3,0L5.77,11.89a2.75,2.75,0,1,0,.43,3.76l3.6,2.7a2.75,2.75,0,1,0,4.4,0l3.6-2.7a2.75,2.75,0,1,0,2.2-4.4ZM6.74,14.18l-.57-.43.46-.55,4.62-5.48v9.84l-.19-.14Zm10.52,0-4.32,3.24-.19.14V7.72l4.62,5.48.46.55Z"></path>
  </symbol><symbol  viewBox='0 0 24 24' id='object-api'>
    <g fill="none"><path d="M0 0H24V24H0z"></path><path stroke="#000" stroke-miterlimit="10" stroke-width=".5" d="M-60 -60H420V420H-60z"></path></g><path d="M2.85,17.21v-3c0-1-.4-1.32-1.85-1.32V11.12c1.45,0,1.85-.27,1.85-1.35v-3c0-2.37,1.11-3.5,3.4-3.5H7.78V5.05H6.63C5.51,5.05,5,5.62,5,6.9V9.75c0,1.31-.42,2-1.43,2.23v0c1,.25,1.43.92,1.43,2.23v2.87C5,18.38,5.51,19,6.63,19H7.78v1.76H6.25C4,20.71,2.85,19.58,2.85,17.21ZM21.15,6.79v3c0,1.08.4,1.35,1.85,1.35v1.76c-1.45,0-1.85.27-1.85,1.32v3c0,2.37-1.11,3.5-3.4,3.5H16.22V19h1.15C18.48,19,19,18.38,19,17.1V14.25c0-1.31.42-2,1.43-2.23v0c-1-.25-1.43-.92-1.43-2.23V6.88c0-1.26-.51-1.83-1.62-1.83H16.22V3.29h1.53C20,3.29,21.15,4.42,21.15,6.79ZM12,10.5A1.5,1.5,0,1,0,13.5,12,1.5,1.5,0,0,0,12,10.5Zm-4,0A1.5,1.5,0,1,0,9.5,12,1.5,1.5,0,0,0,8,10.5Zm8,0A1.5,1.5,0,1,0,17.5,12,1.5,1.5,0,0,0,16,10.5Z"></path>
  </symbol><symbol  viewBox='0 0 24 24' id='object-certificate'>
    <g fill="none"><path d="M0 0H24V24H0z"></path><path stroke="#000" stroke-miterlimit="10" stroke-width=".5" d="M-348 -60H132V420H-348z"></path></g><path d="M13.49,20H3a1,1,0,0,1-1-1V5A1,1,0,0,1,3,4H21a1,1,0,0,1,1,1v6.59a6,6,0,0,0-2-1.22V6H4V18h8.3a5.87,5.87,0,0,0,1.19,2M18,8H6V9.5H18Zm-3.66,3.25H6v1.5h7a6,6,0,0,1,1.38-1.5M6,14.5V16h6a6.16,6.16,0,0,1,.19-1.5Z"></path><path d="M22,16a4,4,0,1,0-6.4,3.18L15,24l3-2,3,2-.6-4.82A4,4,0,0,0,22,16Zm-4,2a2,2,0,1,1,2-2A2,2,0,0,1,18,18Z"></path>
  </symbol><symbol  viewBox='0 0 24 24' id='object-clipboard'>
    <g fill="none"><path d="M0 0H24V24H0z"></path><path stroke="#000" stroke-miterlimit="10" stroke-width=".5" d="M-204 -60H276V420H-204z"></path></g><path d="M19,2H14.82A3,3,0,0,0,9.18,2H5A2,2,0,0,0,3,4V20a2,2,0,0,0,2,2H19a2,2,0,0,0,2-2V4A2,2,0,0,0,19,2ZM12,2a1,1,0,1,1-1,1A1,1,0,0,1,12,2Zm7,18H5V4H7V7H17V4h2Z"></path>
  </symbol><symbol  viewBox='0 0 24 24' id='object-cluster'>
    <g fill="none"><path d="M0 0H24V24H0z"></path><path stroke="#000" stroke-miterlimit="10" stroke-width=".5" d="M-252 -60H228V420H-252z"></path></g><path d="M1.43,19.48A5,5,0,0,0,10.64,18h5.75a3.37,3.37,0,0,0,.32.73,3.5,3.5,0,1,0,2.22-5.13L15.27,7.27a3.49,3.49,0,1,0-5.56-.64,3.1,3.1,0,0,0,.49.64l-2.88,5a5,5,0,0,0-5.89,7.22Zm7.63-6.23,2.87-5a3.5,3.5,0,0,0,1.61,0L17.2,14.6a3.41,3.41,0,0,0-.81,1.4H10.64a4.89,4.89,0,0,0-.55-1.52A5.14,5.14,0,0,0,9.06,13.25ZM3.24,17a2.47,2.47,0,0,1,.83-1.85l.11-.09a2.48,2.48,0,0,1,.26-.19l.07,0,.19-.09.09,0A2.39,2.39,0,0,1,6,14.51v0a2.5,2.5,0,0,1,1.73,1l0,0c.06.08.12.15.17.23s.08.18.12.27H8a2.49,2.49,0,0,1,0,2H8a1.3,1.3,0,0,1-.1.15,1.76,1.76,0,0,1-.23.37,1.46,1.46,0,0,1-.16.19,2.8,2.8,0,0,1-.49.41s0,0,0,0l-.12.06-.3.13-.1,0a2.36,2.36,0,0,1-.75.13A2.5,2.5,0,0,1,3.24,17Z"></path>
  </symbol><symbol  viewBox='0 0 24 24' id='object-dashboard'>
    <g fill="none"><path d="M0 0H24V24H0z"></path><path stroke="#000" stroke-miterlimit="10" stroke-width=".5" d="M-108 -60H372V420H-108z"></path></g><path d="M19,5V7H15V5h4M9,5v6H5V5H9m10,8v6H15V13h4M9,17v2H5V17H9M21,3H13V9h8ZM11,3H3V13h8Zm10,8H13V21h8ZM11,15H3v6h8Z"></path>
  </symbol><symbol  viewBox='0 0 24 24' id='object-devops'>
    <g fill="none"><path d="M0 0H24V24H0z"></path><path stroke="#000" stroke-miterlimit="10" stroke-width=".5" d="M-348 -60H132V420H-348z"></path></g><path d="M23,12a5.48,5.48,0,0,1-5.44,5.5,6.15,6.15,0,0,1-4.22-2,15.86,15.86,0,0,0,1-1.57l.08-.15a4.62,4.62,0,0,0,3.11,1.72,3.5,3.5,0,0,0,0-7,4.62,4.62,0,0,0-3.11,1.72A9.68,9.68,0,0,0,13.14,12h0l-.53,1a11,11,0,0,1-.6.93,12.15,12.15,0,0,1-1.34,1.58,6.15,6.15,0,0,1-4.22,2,5.5,5.5,0,0,1,0-11,6.15,6.15,0,0,1,4.22,2,15.86,15.86,0,0,0-1,1.57l-.08.15A4.62,4.62,0,0,0,6.44,8.5a3.5,3.5,0,0,0,0,7,4.62,4.62,0,0,0,3.11-1.72A9.68,9.68,0,0,0,10.86,12h0l.53-1a11,11,0,0,1,.6-.93A12.15,12.15,0,0,1,13.34,8.5a6.15,6.15,0,0,1,4.22-2A5.48,5.48,0,0,1,23,12Z"></path>
  </symbol><symbol  viewBox='0 0 24 24' id='object-group-ad'>
    <g fill="none"><path d="M0 0H24V24H0z"></path><path stroke="#000" stroke-miterlimit="10" stroke-width=".5" d="M-60 -60H420V420H-60z"></path></g><path d="M9,4a3.5,3.5,0,1,0,3.5,3.5A3.5,3.5,0,0,0,9,4ZM9,9a1.5,1.5,0,1,1,1.5-1.5A1.5,1.5,0,0,1,9,9Zm6,2a3.45,3.45,0,0,1-1.5-.35,5.46,5.46,0,0,0,0-6.3A3.45,3.45,0,0,1,15,4a3.5,3.5,0,0,1,0,7m-3.95,8H2V16.25c0-2.33,4.66-3.5,7-3.5,1.75,0,4.81.66,6.23,2a4,4,0,0,0,.2.42A3.61,3.61,0,0,0,14.5,15a3.46,3.46,0,0,0-1.8.51A10.41,10.41,0,0,0,9,14.75c-2.14,0-4.62,1-5,1.57V17h7.35A3.45,3.45,0,0,0,11,18.5,4,4,0,0,0,11.05,19Z"></path><path d="M22.5,17a1.47,1.47,0,0,0-1,.35l-2.2-2.6h0a1.5,1.5,0,1,0-1.68,0h0l-2.2,2.6a1.47,1.47,0,0,0-1-.35,1.5,1.5,0,1,0,1.2,2.4l1.6,1.2h0a1.54,1.54,0,0,0-.3.9,1.5,1.5,0,0,0,3,0,1.54,1.54,0,0,0-.3-.9h0l1.6-1.2A1.5,1.5,0,1,0,22.5,17ZM16,18.37l0,0,0-.05,2-2.39v4Zm3,1.51v-4l2,2.39,0,.05,0,0Z" fill="#08f"></path>
  </symbol><symbol  viewBox='0 0 24 24' id='object-group'>
    <g fill="none"><path d="M0 0H24V24H0z"></path><path stroke="#000" stroke-miterlimit="10" stroke-width=".5" d="M-444 -60H36V420H-444z"></path></g><path d="M9,4a3.5,3.5,0,1,0,3.5,3.5A3.5,3.5,0,0,0,9,4ZM9,9a1.5,1.5,0,1,1,1.5-1.5A1.5,1.5,0,0,1,9,9Zm7,3.81c2.46.27,6,1.42,6,3.44V19H18V16.25a4.19,4.19,0,0,0-2-3.44M15,11a3.45,3.45,0,0,1-1.5-.35,5.46,5.46,0,0,0,0-6.3A3.45,3.45,0,0,1,15,4a3.5,3.5,0,0,1,0,7M9,12.75c-2.34,0-7,1.17-7,3.5V19H16V16.25C16,13.92,11.34,12.75,9,12.75ZM14,17H4v-.68c.38-.61,2.86-1.57,5-1.57s4.62,1,5,1.57Z"></path>
  </symbol><symbol  viewBox='0 0 24 24' id='object-groups'>
    <g fill="none"><path d="M0 0H24V24H0z"></path><path stroke="#000" stroke-miterlimit="10" stroke-width=".5" d="M-12 -60H468V420H-12z"></path></g><path d="M4,13a2,2,0,1,0-2-2A2,2,0,0,0,4,13Zm1.13,1.1A7.08,7.08,0,0,0,4,14a7,7,0,0,0-2.78.58A2,2,0,0,0,0,16.43V18H4.5V16.39A4.48,4.48,0,0,1,5.13,14.1ZM20,13a2,2,0,1,0-2-2A2,2,0,0,0,20,13Zm4,3.43a2,2,0,0,0-1.22-1.85,6.82,6.82,0,0,0-3.91-.48,4.48,4.48,0,0,1,.63,2.29V18H24Zm-7.76-2.78a10.48,10.48,0,0,0-4.24-.9,10.68,10.68,0,0,0-4.24.9A3,3,0,0,0,6,16.39V18H18V16.39A3,3,0,0,0,16.24,13.65ZM8.07,16c.09-.23.13-.39.91-.69a8.39,8.39,0,0,1,6,0c.77.3.81.46.91.69ZM12,8a1,1,0,1,1-1,1,1,1,0,0,1,1-1m0-2a3,3,0,1,0,3,3A3,3,0,0,0,12,6Z"></path>
  </symbol><symbol  viewBox='0 0 24 24' id='object-integration'>
    <g fill="none"><path d="M0 0H24V24H0z"></path><path stroke="#000" stroke-miterlimit="10" stroke-width=".5" d="M-300 -60H180V420H-300z"></path></g><path d="M19,8.49A3.5,3.5,0,1,0,15.51,5a3.47,3.47,0,0,0,.71,2.09L15.16,8.13a4.92,4.92,0,0,0-6.3,0L7.73,7A2,2,0,0,0,8,6,2,2,0,1,0,6,8a2,2,0,0,0,1-.28L8.16,8.84a4.89,4.89,0,0,0,0,6.3L6.39,16.91A2.44,2.44,0,0,0,5,16.49,2.5,2.5,0,1,0,7.51,19a2.44,2.44,0,0,0-.42-1.38l1.77-1.77a4.91,4.91,0,0,0,6.3,0L16.29,17A2,2,0,0,0,16,18a2,2,0,1,0,2-2,2,2,0,0,0-1,.28l-1.13-1.13a4.92,4.92,0,0,0,0-6.3l1.05-1.06A3.47,3.47,0,0,0,19,8.49Zm0-5A1.5,1.5,0,1,1,17.51,5,1.5,1.5,0,0,1,19,3.49ZM12,15a3,3,0,1,1,3-3A3,3,0,0,1,12,15Z"></path>
  </symbol><symbol  viewBox='0 0 24 24' id='object-playbook'>
    <g fill="none"><path d="M0 0H24V24H0z"></path><path stroke="#000" stroke-miterlimit="10" stroke-width=".5" d="M-108 -60H372V420H-108z"></path></g><path d="M17.5,22.45l4.95-4.95L18,13.05V10h3V3H14V6H11.1L3,1.5v10L11.1,7H14v3h3v3.05L13.05,17H10a4,4,0,1,0,0,1h3.09ZM5,8.1V4.9L7.88,6.5ZM16,5h3V8H16ZM6,19.5a2,2,0,1,1,2-2A2,2,0,0,1,6,19.5Zm11.5-4.12,2.12,2.12L17.5,19.62,15.38,17.5Z"></path>
  </symbol><symbol  viewBox='0 0 24 24' id='object-plugin'>
    <g fill="none"><path d="M0 0H24V24H0z"></path><path stroke="#000" stroke-miterlimit="10" stroke-width=".5" d="M-12 -60H468V420H-12z"></path></g><path d="M19,8.53V5H15.47A4,4,0,0,0,7.53,5H3v5.5H4.5a2,2,0,0,1,0,4H3V21H9.5V19.5a2,2,0,0,1,4,0V21H19V16.47a4,4,0,0,0,0-7.94Zm-.5,6H17V19H15.47a4,4,0,0,0-7.94,0H5V16.47A4,4,0,0,0,5,8.53V7H9.5V5.5a2,2,0,0,1,4,0V7H17v3.5h1.5a2,2,0,0,1,0,4Z"></path>
  </symbol><symbol  viewBox='0 0 24 24' id='object-profile-privileged'>
    <g fill="none"><path d="M0 0H24V24H0z"></path><path stroke="#000" stroke-miterlimit="10" stroke-width=".5" d="M-12 -108H468V372H-12z"></path></g><path d="M12,8.23,12.88,10l.49,1,1.11.16,2,.29L15,12.85l-.8.78.19,1.09.34,2L13,15.76l-1-.52-1,.52-1.76.93.34-2,.19-1.09L9,12.85,7.55,11.46l2-.29L10.63,11l.49-1L12,8.23m0-4.79L9.22,9.08,3,10l4.5,4.39L6.44,20.56,12,17.64l5.56,2.92L16.5,14.37,21,10l-6.22-.9L12,3.44Z" fill="#08f"></path>
  </symbol><symbol  viewBox='0 0 24 24' id='object-profile-super'>
    <g fill="none"><path d="M0 0H24V24H0z"></path><path stroke="#000" stroke-miterlimit="10" stroke-width=".5" d="M-60 -108H420V372H-60z"></path></g><path d="M12,12.74l1.37,1.92,1,1.41,1.54-.79,1.86-.95L16.56,18H7.44L6.23,14.33l1.86.95,1.54.79,1-1.41L12,12.74M12,5.5a2,2,0,0,0-2,2,2,2,0,0,0,1.88,2L9,13.5l-5.91-3a1.94,1.94,0,0,0,1.32-.57,2,2,0,0,0,0-2.82,2,2,0,1,0-1.56,3.38L6,20H18l3.15-9.53a1.95,1.95,0,1,0-.24,0L15,13.5l-2.88-4A2,2,0,0,0,14,7.5a2,2,0,0,0-2-2Z" fill="#f80"></path>
  </symbol><symbol  viewBox='0 0 24 24' id='object-profiles'>
    <g fill="none"><path d="M0 0H24V24H0z"></path><path stroke="#000" stroke-miterlimit="10" stroke-width=".5" d="M-156 -60H324V420H-156z"></path></g><path d="M7.5,8a2,2,0,1,1-2,2A2,2,0,0,1,7.5,8Zm0,5c-1.34,0-4,.75-4,2.25V16h8v-.75C11.5,13.75,8.84,13,7.5,13ZM20,9.5H13V8h7Zm0,1.75H13v1.5h7Zm0,3.25H13V16h7ZM0,4.75v14.5A.76.76,0,0,0,.75,20h22.5a.76.76,0,0,0,.75-.75V4.75A.76.76,0,0,0,23.25,4H.75A.76.76,0,0,0,0,4.75ZM22,18H2V6H22Z"></path>
  </symbol><symbol  viewBox='0 0 24 24' id='object-request'>
    <g fill="none"><path d="M0 0H24V24H0z"></path><path stroke="#000" stroke-miterlimit="10" stroke-width=".5" d="M-444 -60H36V420H-444z"></path></g><path d="M17.27,6.73,13,16.86l-1.32-3.42-.32-.83-.82-.32L7.14,11ZM21,3,3,10.53v1l6.84,2.65L12.48,21h1Z"></path>
  </symbol><symbol  viewBox='0 0 24 24' id='object-server-firewall'>
    <g fill="none"><path d="M0 0H24V24H0z"></path><path stroke="#000" stroke-miterlimit="10" stroke-width=".5" d="M-12 -60H468V420H-12z"></path></g><path d="M12,14H24V9.78a1,1,0,0,0-.76-1L12.49,6.12a2,2,0,0,0-1,0L.76,8.81a1,1,0,0,0-.76,1v4.44a1,1,0,0,0,.76,1l.94.23,9.82,2.46a1.91,1.91,0,0,0,.48.06Zm-9.56-.25c-.52,0-.94-.56-.94-1.25s.42-1.25.94-1.25.94.56.94,1.25S3,13.75,2.44,13.75ZM2.37,9.44,12,7l9.63,2.41L12,11.85Z"></path><path d="M17.5,16h4v1.5h-4ZM14,17.5V16h2.5v1.5Zm0,1h4.5V20H14Zm2,4H14V21h2Zm4.5,0H17V21h3.5ZM24,21v1.5H21.5V21Zm0-1H19.5V18.5H24Zm0-2.5H22.5V16H24Z" fill="#08f"></path>
  </symbol><symbol  viewBox='0 0 24 24' id='object-server-mail'>
    <g fill="none"><path d="M0 0H24V24H0z"></path><path stroke="#000" stroke-miterlimit="10" stroke-width=".5" d="M-252 -60H228V420H-252z"></path></g><path d="M13,15H23.61a1,1,0,0,0,.39-.78V9.78a1,1,0,0,0-.76-1L12.49,6.12a2,2,0,0,0-1,0L.76,8.81a1,1,0,0,0-.76,1v4.44a1,1,0,0,0,.76,1l.94.23,9.82,2.46a2,2,0,0,0,1,0l.52-.13ZM2.44,13.75c-.52,0-.94-.56-.94-1.25s.42-1.25.94-1.25.94.56.94,1.25S3,13.75,2.44,13.75ZM2.37,9.44,12,7l9.63,2.41L12,11.85Z"></path><path d="M19.5,19.83,15,17h9ZM24,18.2,19.5,21,15,18.2h0V23h9V18.2Z" fill="#08f"></path>
  </symbol><symbol  viewBox='0 0 24 24' id='object-server-map'>
    <g fill="none"><path d="M0 0H24V24H0z"></path><path stroke="#000" stroke-miterlimit="10" stroke-width=".5" d="M-108 -60H372V420H-108z"></path></g><path d="M13,14.56,24,13V9.78a1,1,0,0,0-.76-1L12.49,6.12a2,2,0,0,0-1,0L.76,8.81a1,1,0,0,0-.76,1v4.44a1,1,0,0,0,.76,1l.94.23,9.82,2.46a2,2,0,0,0,1,0l.52-.13ZM2.44,13.75c-.52,0-.94-.56-.94-1.25s.42-1.25.94-1.25.94.56.94,1.25S3,13.75,2.44,13.75ZM2.37,9.44,12,7l9.63,2.41L12,11.85Z"></path><path d="M18.5,19H15V16.28c1.16-.18,2.33-.33,3.5-.48Zm1,0H24V15l-4.5.65Zm0,4.37q2.25.3,4.5.63V20H19.5ZM18.5,20H15v2.75l3.5.48Z" fill="#08f"></path>
  </symbol><symbol  viewBox='0 0 24 24' id='object-server-pam'>
    <g fill="none"><path d="M0 0H24V24H0z"></path><path stroke="#000" stroke-miterlimit="10" stroke-width=".5" d="M-156 -60H324V420H-156z"></path></g><path d="M14,17.2a3.2,3.2,0,0,1,5.46-2.26l.54.54.54-.54A3.14,3.14,0,0,1,22.8,14a3.24,3.24,0,0,1,1.2.23h0V9.78a1,1,0,0,0-.76-1L12.49,6.12a2,2,0,0,0-1,0L.76,8.81a1,1,0,0,0-.76,1v4.44a1,1,0,0,0,.76,1l.94.23,9.82,2.46a2,2,0,0,0,1,0L14,17.49A2.58,2.58,0,0,1,14,17.2ZM2.44,13.75c-.52,0-.94-.56-.94-1.25s.42-1.25.94-1.25.94.56.94,1.25S3,13.75,2.44,13.75ZM12,11.85,2.37,9.44,12,7l9.63,2.41Z"></path><path d="M17.2,24a1.22,1.22,0,0,1-.85-.35,1.2,1.2,0,0,1,0-1.7L18.3,20l-1.95-1.95a1.2,1.2,0,0,1,1.7-1.7L21.7,20l-3.65,3.65a1.22,1.22,0,0,1-.85.35m5.06-4.57,1.39-1.38a1.2,1.2,0,0,0-1.7-1.7l-1.38,1.39Zm0,1.14-1.69,1.69L22,23.65a1.21,1.21,0,0,0,1.7,0,1.2,1.2,0,0,0,0-1.7Z" fill="#08f"></path>
  </symbol><symbol  viewBox='0 0 24 24' id='object-server-web'>
    <g fill="none"><path d="M0 0H24V24H0z"></path><path stroke="#000" stroke-miterlimit="10" stroke-width=".5" d="M-60 -60H420V420H-60z"></path></g><path d="M19.5,13a6.49,6.49,0,0,1,4.37,1.69,1.06,1.06,0,0,0,.13-.47V9.78a1,1,0,0,0-.76-1L12.49,6.12a2,2,0,0,0-1,0L.76,8.81a1,1,0,0,0-.76,1v4.44a1,1,0,0,0,.76,1l.94.23,9.82,2.46a2,2,0,0,0,1,0l.78-.2A6.51,6.51,0,0,1,19.5,13Zm-17.06.75c-.52,0-.94-.56-.94-1.25s.42-1.25.94-1.25.94.56.94,1.25S3,13.75,2.44,13.75ZM2.37,9.44,12,7l9.63,2.41L12,11.85Z"></path><path d="M19.5,15A4.5,4.5,0,1,0,24,19.5,4.49,4.49,0,0,0,19.5,15Zm3,2.75h-1A5.18,5.18,0,0,0,21,16.34,3.51,3.51,0,0,1,22.52,17.75ZM23,19.5a3.66,3.66,0,0,1-.09.75h-1.2c0-.24,0-.49,0-.75s0-.51,0-.75h1.2A3.66,3.66,0,0,1,23,19.5Zm-7,0a3.66,3.66,0,0,1,.09-.75h1.2c0,.24,0,.49,0,.75s0,.51,0,.75h-1.2A3.66,3.66,0,0,1,16,19.5Zm2.25,0c0-.26,0-.51,0-.75h2.42c0,.24,0,.49,0,.75s0,.51,0,.75H18.29C18.27,20,18.25,19.76,18.25,19.5Zm1.25-3.25c.28,0,.74.55,1,1.5h-2C18.76,16.8,19.22,16.25,19.5,16.25Zm-1.5.09a5.18,5.18,0,0,0-.55,1.41h-1A3.51,3.51,0,0,1,18,16.34Zm-1.52,4.91h1A5.18,5.18,0,0,0,18,22.66,3.51,3.51,0,0,1,16.48,21.25Zm3,1.5c-.28,0-.74-.55-1-1.5h2C20.24,22.2,19.78,22.75,19.5,22.75Zm1.5-.09a5.18,5.18,0,0,0,.55-1.41h1A3.51,3.51,0,0,1,21,22.66Z" fill="#08f"></path>
  </symbol><symbol  viewBox='0 0 24 24' id='object-server'>
    <g fill="none"><path d="M0 0H24V24H0z"></path><path stroke="#000" stroke-miterlimit="10" stroke-width=".5" d="M-204 -60H276V420H-204z"></path></g><path d="M11.51,6.12.76,8.81a1,1,0,0,0-.76,1v4.44a1,1,0,0,0,.76,1l.94.23,9.82,2.46a2,2,0,0,0,1,0l9.82-2.46.94-.23a1,1,0,0,0,.76-1V9.78a1,1,0,0,0-.76-1L12.49,6.12A2,2,0,0,0,11.51,6.12ZM2.44,13.75c-.52,0-.94-.56-.94-1.25s.42-1.25.94-1.25.94.56.94,1.25S3,13.75,2.44,13.75ZM12,11.85,2.37,9.44,12,7l9.63,2.41Z"></path>
  </symbol><symbol  viewBox='0 0 24 24' id='object-shared-drive'>
    <g fill="none"><path d="M0 0H24V24H0z"></path><path stroke="#000" stroke-miterlimit="10" stroke-width=".5" d="M-300 -60H180V420H-300z"></path></g><path d="M22,20H14.82A3,3,0,0,0,13,18.18V16h7a2,2,0,0,0,2-2V6a2,2,0,0,0-2-2H12L10,2H4A2,2,0,0,0,2,4V14a2,2,0,0,0,2,2h7v2.18A3,3,0,0,0,9.18,20H2v2H9.18a3,3,0,0,0,5.64,0H22ZM4,14V4H9.17l2,2H20v8Zm8,8a1,1,0,1,1,1-1A1,1,0,0,1,12,22Z"></path>
  </symbol><symbol  viewBox='0 0 24 24' id='object-terminal'>
    <g fill="none"><path d="M0 0H24V24H0z"></path><path stroke="#000" stroke-miterlimit="10" stroke-width=".5" d="M-156 -60H324V420H-156z"></path></g><path d="M20,18V6H4V18Zm-2-4v2H10l2-2ZM5.17,8H8l4,4L8,16H5.17l4-4Z"></path>
  </symbol><symbol  viewBox='0 0 24 24' id='object-token'>
    <g fill="none"><path d="M0 0H24V24H0z"></path><path stroke="#000" stroke-miterlimit="10" stroke-width=".5" d="M-204 -60H276V420H-204z"></path></g><path d="M13.74,8a7,7,0,1,0,0,8H23V8ZM21,14H12.57a5,5,0,1,1,0-4H21ZM8.64,12l2.89.88-1,1.74L8.32,12.55,9,15.5H7l.68-2.95L5.47,14.62l-1-1.74L7.36,12l-2.89-.88,1-1.74,2.21,2.07L7,8.5H9l-.68,2.95,2.21-2.07,1,1.74Z"></path>
  </symbol><symbol  viewBox='0 0 24 24' id='object-user-privileged'>
    <g fill="none"><path d="M0 0H24V24H0z"></path><path stroke="#000" stroke-miterlimit="10" stroke-width=".5" d="M-396 -60H84V420H-396z"></path></g><path d="M13.65,20H3V18c0-1.92,2.78-3.15,5.34-3.69l1.78,1.74C7.68,16.28,5.2,17.36,5,18h7.12l1.61,1.57ZM15,8a4,4,0,1,1-4-4,4,4,0,0,1,4,4M13,8a2,2,0,1,0-2,2,2,2,0,0,0,2-2"></path><path fill="#08f" d="M18 13.71L19.31 16.37 22.25 16.8 20.13 18.87 20.63 21.79 18 20.41 15.37 21.79 15.88 18.87 13.75 16.8 16.69 16.37 18 13.71z"></path>
  </symbol><symbol  viewBox='0 0 24 24' id='object-user-super'>
    <g fill="none"><path d="M0 0H24V24H0z"></path><path stroke="#000" stroke-miterlimit="10" stroke-width=".5" d="M-348 -60H132V420H-348z"></path></g><path d="M12.66,20H3V18c0-2.66,5.33-4,8-4l.75,0A3,3,0,0,0,11,16h0c-2.69,0-5.78,1.28-6,2h6.78l.1.12a2.67,2.67,0,0,0,.36.31ZM11,12a4,4,0,1,1,4-4,4,4,0,0,1-4,4m0-6a2,2,0,1,0,2,2,2,2,0,0,0-2-2"></path><path d="M23,16a1,1,0,0,0-2,0A1,1,0,0,0,22,17L19.5,18.5l-1.44-2a1,1,0,1,0-.12,0l-1.44,2L14.05,17a1,1,0,1,0-.76-.28,1,1,0,0,0,.63.28L15,21h6l1.08-4A1,1,0,0,0,23,16" fill="#f80"></path>
  </symbol><symbol  viewBox='0 0 24 24' id='object-vault'>
    <g fill="none"><path d="M0 0H24V24H0z"></path><path stroke="#000" stroke-miterlimit="10" stroke-width=".5" d="M-396 -60H84V420H-396z"></path></g><path d="M21,3H5A1,1,0,0,0,4,4V6H2v4H4v4H2v4H4v2a1,1,0,0,0,1,1H21a1,1,0,0,0,1-1V4A1,1,0,0,0,21,3ZM20,19H6V5H20ZM8.76,16.24a1,1,0,0,0,1.41,0l1.18-1.17a3.51,3.51,0,0,0,3.3,0l1.18,1.17a1,1,0,0,0,1.41,0,1,1,0,0,0,0-1.41l-1.17-1.18a3.51,3.51,0,0,0,0-3.3l1.17-1.18a1,1,0,1,0-1.41-1.41L14.65,8.93a3.51,3.51,0,0,0-3.3,0L10.17,7.76A1,1,0,0,0,8.76,9.17l1.17,1.18a3.51,3.51,0,0,0,0,3.3L8.76,14.83A1,1,0,0,0,8.76,16.24ZM13,10a2,2,0,1,1-2,2A2,2,0,0,1,13,10Z"></path>
  </symbol><symbol  viewBox='0 0 24 24' id='status-group-disabled'>
    <g fill="none"><path d="M0 0H24V24H0z"></path><path stroke="#000" stroke-miterlimit="10" stroke-width=".5" d="M-156 -108H324V372H-156z"></path></g><path d="M9,5a3.5,3.5,0,1,0,3.5,3.5A3.5,3.5,0,0,0,9,5Zm0,5a1.5,1.5,0,1,1,1.5-1.5A1.5,1.5,0,0,1,9,10Zm7,3.81c2.46.27,6,1.42,6,3.44V20H18V17.25a4.19,4.19,0,0,0-2-3.44M15,12a3.45,3.45,0,0,1-1.5-.35,5.46,5.46,0,0,0,0-6.3A3.45,3.45,0,0,1,15,5a3.5,3.5,0,0,1,0,7M9,13.75c-2.34,0-7,1.17-7,3.5V20H16V17.25C16,14.92,11.34,13.75,9,13.75ZM14,18H4v-.68c.38-.61,2.86-1.57,5-1.57s4.62,1,5,1.57Z" fill="#bbb"></path>
  </symbol><symbol  viewBox='0 0 24 24' id='status-group-enabled'>
    <g fill="none"><path d="M0 0H24V24H0z"></path><path stroke="#000" stroke-miterlimit="10" stroke-width=".5" d="M-108 -108H372V372H-108z"></path></g><path d="M9,5a3.5,3.5,0,1,0,3.5,3.5A3.5,3.5,0,0,0,9,5Zm0,5a1.5,1.5,0,1,1,1.5-1.5A1.5,1.5,0,0,1,9,10Zm7,3.81c2.46.27,6,1.42,6,3.44V20H18V17.25a4.19,4.19,0,0,0-2-3.44M15,12a3.45,3.45,0,0,1-1.5-.35,5.46,5.46,0,0,0,0-6.3A3.45,3.45,0,0,1,15,5a3.5,3.5,0,0,1,0,7M9,13.75c-2.34,0-7,1.17-7,3.5V20H16V17.25C16,14.92,11.34,13.75,9,13.75ZM14,18H4v-.68c.38-.61,2.86-1.57,5-1.57s4.62,1,5,1.57Z" fill="#08f"></path>
  </symbol><symbol  viewBox='0 0 24 24' id='status-profile-disabled'>
    <g fill="none"><path d="M0 0H24V24H0z"></path><path stroke="#000" stroke-miterlimit="10" stroke-width=".5" d="M-204 -108H276V372H-204z"></path></g><path d="M5.5,10a2,2,0,1,1,2,2A2,2,0,0,1,5.5,10Zm6,5.25c0-1.5-2.66-2.25-4-2.25s-4,.75-4,2.25V16h8ZM24,4.75v14.5a.76.76,0,0,1-.75.75H.75A.76.76,0,0,1,0,19.25V4.75A.76.76,0,0,1,.75,4h22.5A.76.76,0,0,1,24,4.75ZM22,6H2V18H22Zm-7.29,9.71L17,13.41l2.29,2.3,1.42-1.42L18.41,12l2.3-2.29L19.29,8.29,17,10.59l-2.29-2.3L13.29,9.71,15.59,12l-2.3,2.29Z" fill="#bbb"></path>
  </symbol><symbol  viewBox='0 0 24 24' id='status-profile-unprovisioning'>
    <g fill="none"><path d="M0 0H24V24H0z"></path><path stroke="#000" stroke-miterlimit="10" stroke-width=".5" d="M-252 -108H228V372H-252z"></path></g><path d="M5.5,10a2,2,0,1,1,2,2A2,2,0,0,1,5.5,10Zm6,5.25c0-1.5-2.66-2.25-4-2.25s-4,.75-4,2.25V16h8ZM24,4.75v14.5a.76.76,0,0,1-.75.75H.75A.76.76,0,0,1,0,19.25V4.75A.76.76,0,0,1,.75,4h22.5A.76.76,0,0,1,24,4.75ZM22,6H2V18H22Zm-2,7.5V10.67l-2,2V8H16v4.67l-2-2V13.5l3,3Z" fill="#c00"></path>
  </symbol><symbol  viewBox='0 0 24 24' id='status-user-privileged-disabled-locked'>
    <g fill="none"><path d="M0 0H24V24H0z"></path><path stroke="#000" stroke-miterlimit="10" stroke-width=".5" d="M-348 -108H132V372H-348z"></path></g><path fill="#08f" d="M18 13.71L19.31 16.37 22.25 16.8 20.13 18.87 20.63 21.79 18 20.41 15.37 21.79 15.88 18.87 13.75 16.8 16.69 16.37 18 13.71z"></path><path d="M20.75,6V5a2.75,2.75,0,0,0-5.5,0V6H14v6h8V6ZM18,10.25A1.25,1.25,0,1,1,19.25,9,1.25,1.25,0,0,1,18,10.25ZM16.75,6V5a1.25,1.25,0,0,1,2.5,0V6Z" fill="#c00"></path><path d="M6,8a4,4,0,0,1,4-4,4.09,4.09,0,0,1,1,.14V6.28a2,2,0,1,0,0,3.44v2.14A4.09,4.09,0,0,1,10,12,4,4,0,0,1,6,8Zm5,10H4c.22-.72,3.31-2,6-2,.33,0,.66,0,1,.05v-2c-.36,0-.7-.05-1-.05-2.67,0-8,1.34-8,4v2h9Z" fill="#bbb"></path>
  </symbol><symbol  viewBox='0 0 24 24' id='status-user-privileged-disabled'>
    <g fill="none"><path d="M0 0H24V24H0z"></path><path stroke="#000" stroke-miterlimit="10" stroke-width=".5" d="M-300 -108H180V372H-300z"></path></g><path d="M13.65,20H3V18c0-1.92,2.78-3.15,5.34-3.69l1.78,1.74C7.68,16.28,5.2,17.36,5,18h7.12l1.61,1.57ZM15,8a4,4,0,1,1-4-4,4,4,0,0,1,4,4M13,8a2,2,0,1,0-2,2,2,2,0,0,0,2-2" fill="#bbb"></path><path fill="#08f" d="M18 13.71L19.31 16.37 22.25 16.8 20.13 18.87 20.63 21.79 18 20.41 15.37 21.79 15.88 18.87 13.75 16.8 16.69 16.37 18 13.71z"></path>
  </symbol><symbol  viewBox='0 0 24 24' id='status-user-privileged-enabled-locked'>
    <g fill="none"><path d="M0 0H24V24H0z"></path><path stroke="#000" stroke-miterlimit="10" stroke-width=".5" d="M-156 -108H324V372H-156z"></path></g><path d="M18,13.71l1.31,2.66,2.94.43-2.13,2.07.51,2.92L18,20.41l-2.63,1.38.51-2.92L13.75,16.8l2.94-.43ZM10,12a4.09,4.09,0,0,0,1-.14V9.72a2,2,0,1,1,0-3.44V4.14A4.09,4.09,0,0,0,10,4a4,4,0,0,0,0,8Zm1,8H2V18c0-2.66,5.33-4,8-4,.3,0,.64,0,1,.05v2c-.34,0-.67-.05-1-.05-2.69,0-5.78,1.28-6,2h7Z" fill="#08f"></path><path d="M20.75,6V5a2.75,2.75,0,0,0-5.5,0V6H14v6h8V6ZM18,10.25A1.25,1.25,0,1,1,19.25,9,1.25,1.25,0,0,1,18,10.25ZM16.75,6V5a1.25,1.25,0,0,1,2.5,0V6Z" fill="#c00"></path>
  </symbol><symbol  viewBox='0 0 24 24' id='status-user-privileged-enabled'>
    <g fill="none"><path d="M0 0H24V24H0z"></path><path stroke="#000" stroke-miterlimit="10" stroke-width=".5" d="M-108 -108H372V372H-108z"></path></g><path d="M13.65,20H3V18c0-1.92,2.78-3.15,5.34-3.69l1.78,1.74C7.68,16.28,5.2,17.36,5,18h7.12l1.61,1.57ZM15,8a4,4,0,1,1-4-4,4,4,0,0,1,4,4M13,8a2,2,0,1,0-2,2,2,2,0,0,0,2-2m3.69,8.37-2.94.43,2.13,2.07-.51,2.92L18,20.41l2.63,1.38-.51-2.92,2.13-2.07-2.94-.43L18,13.71Z" fill="#08f"></path>
  </symbol><symbol  viewBox='0 0 24 24' id='status-user-provisioning'>
    <g fill="none"><path d="M0 0H24V24H0z"></path><path stroke="#000" stroke-miterlimit="10" stroke-width=".5" d="M-396 -108H84V372H-396z"></path></g><path d="M7,8a4,4,0,0,1,4-4,4.09,4.09,0,0,1,1,.14V6.28a2,2,0,1,0,0,3.44v2.14A4.09,4.09,0,0,1,11,12,4,4,0,0,1,7,8Zm5,10H5c.22-.72,3.31-2,6-2,.33,0,.66,0,1,.05v-2c-.36,0-.7-.05-1-.05-2.67,0-8,1.34-8,4v2h9ZM20,7,17,4,14,7V9.83l2-2V20h2V7.83l2,2Z" fill="#0a0"></path>
  </symbol><symbol  viewBox='0 0 24 24' id='status-user-super-disabled-locked'>
    <g fill="none"><path d="M0 0H24V24H0z"></path><path stroke="#000" stroke-miterlimit="10" stroke-width=".5" d="M-252 -108H228V372H-252z"></path></g><path d="M20.75,6V5a2.75,2.75,0,0,0-5.5,0V6H14v6h8V6ZM18,10.25A1.25,1.25,0,1,1,19.25,9,1.25,1.25,0,0,1,18,10.25ZM16.75,6V5a1.25,1.25,0,0,1,2.5,0V6Z" fill="#c00"></path><path d="M23,16a1,1,0,0,1-.92,1L21,21H15l-1.08-4a1,1,0,0,1-.63-.28,1,1,0,1,1,.76.28L16.5,18.5l1.44-2a1,1,0,1,1,.12,0l1.44,2L22,17A1,1,0,0,1,21,16a1,1,0,0,1,2,0" fill="#f80"></path><path d="M10,12a4.09,4.09,0,0,0,1-.14V9.72a2,2,0,1,1,0-3.44V4.14A4.09,4.09,0,0,0,10,4a4,4,0,0,0,0,8Zm1,8H2V18c0-2.66,5.33-4,8-4,.3,0,.64,0,1,.05v2c-.34,0-.67-.05-1-.05-2.69,0-5.78,1.28-6,2h7Z" fill="#bbb"></path>
  </symbol><symbol  viewBox='0 0 24 24' id='status-user-super-disabled'>
    <g fill="none"><path d="M0 0H24V24H0z"></path><path stroke="#000" stroke-miterlimit="10" stroke-width=".5" d="M-204 -108H276V372H-204z"></path></g><path d="M12.66,20H3V18c0-2.66,5.33-4,8-4l.75,0A3,3,0,0,0,11,16h0c-2.69,0-5.78,1.28-6,2h6.78l.1.12a2.67,2.67,0,0,0,.36.31ZM11,12a4,4,0,1,1,4-4,4,4,0,0,1-4,4m0-6a2,2,0,1,0,2,2,2,2,0,0,0-2-2" fill="#bbb"></path><path d="M23,16a1,1,0,0,0-2,0A1,1,0,0,0,22,17L19.5,18.5l-1.44-2a1,1,0,1,0-.12,0l-1.44,2L14.05,17a1,1,0,1,0-.76-.28,1,1,0,0,0,.63.28L15,21h6l1.08-4A1,1,0,0,0,23,16" fill="#f80"></path>
  </symbol><symbol  viewBox='0 0 24 24' id='status-user-super-enabled-locked'>
    <g fill="none"><path d="M0 0H24V24H0z"></path><path stroke="#000" stroke-miterlimit="10" stroke-width=".5" d="M-60 -108H420V372H-60z"></path></g><path d="M23,16a1,1,0,0,1-.92,1L21,21H15l-1.08-4a1,1,0,0,1-.63-.28,1,1,0,1,1,.76.28L16.5,18.5l1.44-2a1,1,0,1,1,.12,0l1.44,2L22,17A1,1,0,0,1,21,16a1,1,0,0,1,2,0M10,12a4.09,4.09,0,0,0,1-.14V9.72a2,2,0,1,1,0-3.44V4.14A4.09,4.09,0,0,0,10,4a4,4,0,0,0,0,8Zm1,8H2V18c0-2.66,5.33-4,8-4,.3,0,.64,0,1,.05v2c-.34,0-.67-.05-1-.05-2.69,0-5.78,1.28-6,2h7Z" fill="#f80"></path><path d="M20.75,6V5a2.75,2.75,0,0,0-5.5,0V6H14v6h8V6ZM18,10.25A1.25,1.25,0,1,1,19.25,9,1.25,1.25,0,0,1,18,10.25ZM16.75,6V5a1.25,1.25,0,0,1,2.5,0V6Z" fill="#c00"></path>
  </symbol><symbol  viewBox='0 0 24 24' id='status-user-super-enabled'>
    <g fill="none"><path d="M0 0H24V24H0z"></path><path stroke="#000" stroke-miterlimit="10" stroke-width=".5" d="M-12 -108H468V372H-12z"></path></g><path d="M12.66,20H3V18c0-2.66,5.33-4,8-4l.75,0A3,3,0,0,0,11,16h0c-2.69,0-5.78,1.28-6,2h6.78l.1.12a2.67,2.67,0,0,0,.36.31ZM11,12a4,4,0,1,1,4-4,4,4,0,0,1-4,4m0-6a2,2,0,1,0,2,2,2,2,0,0,0-2-2M23,16a1,1,0,0,0-2,0A1,1,0,0,0,22,17L19.5,18.5l-1.44-2a1,1,0,1,0-.12,0l-1.44,2L14.05,17a1,1,0,1,0-.76-.28,1,1,0,0,0,.63.28L15,21h6l1.08-4A1,1,0,0,0,23,16" fill="#f80"></path>
  </symbol><symbol  viewBox='0 0 24 24' id='status-user-unprovisioning'>
    <g fill="none"><path d="M0 0H24V24H0z"></path><path stroke="#000" stroke-miterlimit="10" stroke-width=".5" d="M-444 -108H36V372H-444z"></path></g><path d="M7,8a4,4,0,0,1,4-4,4.09,4.09,0,0,1,1,.14V6.28a2,2,0,1,0,0,3.44v2.14A4.09,4.09,0,0,1,11,12,4,4,0,0,1,7,8Zm5,10H5c.22-.72,3.31-2,6-2,.33,0,.66,0,1,.05v-2c-.36,0-.7-.05-1-.05-2.67,0-8,1.34-8,4v2h9Zm8-3.33-2,2V4H16V16.67l-2-2V17.5l3,3,3-3Z" fill="#c00"></path>
  </symbol><symbol  viewBox='0 0 24 24' id='window-close'>
    <g fill="none"><path d="M0 0H24V24H0z"></path><path stroke="#000" stroke-miterlimit="10" stroke-width=".5" d="M-108 -156H372V324H-108z"></path></g><path d="M18.36,7.05,17,5.64l-4.95,5L7.05,5.64,5.64,7.05l5,5L5.64,17l1.41,1.41,5-4.95L17,18.36,18.36,17,13.41,12Z"></path>
  </symbol><symbol  viewBox='0 0 24 24' id='window-float'>
    <g fill="none"><path d="M0 0H24V24H0z"></path><path stroke="#000" stroke-miterlimit="10" stroke-width=".5" d="M-60 -156H420V324H-60z"></path></g><path d="M19,4H9A1,1,0,0,0,8,5V8H5A1,1,0,0,0,4,9V19a1,1,0,0,0,1,1H15a1,1,0,0,0,1-1V16h3a1,1,0,0,0,1-1V5A1,1,0,0,0,19,4ZM14,18H6V10h8Zm4-4H16V9a1,1,0,0,0-1-1H10V6h8Z"></path>
  </symbol><symbol  viewBox='0 0 24 24' id='window-help'>
    <g fill="none"><path d="M0 0H24V24H0z"></path><path stroke="#000" stroke-miterlimit="10" stroke-width=".5" d="M-12 -156H468V324H-12z"></path></g><path d="M12,3a9,9,0,1,0,9,9A9,9,0,0,0,12,3Zm1,14H11V15h2Zm1.76-5.83a3,3,0,0,1-.63.95l-1,1a.39.39,0,0,0-.09.23V14H11v-.62a2.38,2.38,0,0,1,.68-1.65s.77-.75,1-1a1,1,0,0,0,.22-1.1,1,1,0,0,0-.21-.32,1,1,0,0,0-.32-.22,1.05,1.05,0,0,0-.78,0,1,1,0,0,0-.32.22A1,1,0,0,0,11,10a1,1,0,0,0,.08.39l-1.84.78A2.92,2.92,0,0,1,9,10a3,3,0,0,1,.88-2.12,3,3,0,0,1,.95-.64,3.06,3.06,0,0,1,2.34,0,3,3,0,0,1,.95.64A3,3,0,0,1,15,10,2.92,2.92,0,0,1,14.76,11.15Z"></path>
  </symbol><symbol  viewBox='0 0 24 24' id='window-maximise'>
    <g fill="none"><path d="M0 0H24V24H0z"></path><path stroke="#000" stroke-miterlimit="10" stroke-width=".5" d="M-156 -156H324V324H-156z"></path></g><path d="M18,5H6A1,1,0,0,0,5,6V18a1,1,0,0,0,1,1H18a1,1,0,0,0,1-1V6A1,1,0,0,0,18,5ZM17,17H7V9H17Z"></path>
  </symbol><symbol  viewBox='0 0 24 24' id='window-minimise'>
    <g fill="none"><path d="M0 0H24V24H0z"></path><path stroke="#000" stroke-miterlimit="10" stroke-width=".5" d="M-204 -156H276V324H-204z"></path></g><path d="M5 11H19V13H5z"></path>
  </symbol></svg>