<svg xmlns="http://www.w3.org/2000/svg" xmlns:xlink="http://www.w3.org/1999/xlink" style="width: 0; height: 0; visibility: hidden; position: absolute;" aria-hidden="true"><symbol  viewBox='0 0 24 24' id='action-add-comment'>
    <path d="M19,4H5A4,4,0,0,0,1,8V23l6-3H19a4,4,0,0,0,4-4V8A4,4,0,0,0,19,4Zm2,12a2,2,0,0,1-2,2H6.53l-.42.21L3,19.76V8A2,2,0,0,1,5,6H19a2,2,0,0,1,2,2Zm-8-5h3v2H13v3H11V13H8V11h3V8h2Z"></path>
  </symbol><symbol  viewBox='0 0 24 24' id='action-add-folder'>
    <path d="M20,6H12L10,4H4A2,2,0,0,0,2,6V18a2,2,0,0,0,2,2H20a2,2,0,0,0,2-2V8A2,2,0,0,0,20,6Zm0,12H4V6H9.17l2,2H20Zm-8-4h2v2h2V14h2V12H16V10H14v2H12Z"></path>
  </symbol><symbol  viewBox='0 0 24 24' id='action-add'>
    <path d="M12,3a9,9,0,1,0,9,9A9,9,0,0,0,12,3Zm5,10H13v4H11V13H7V11h4V7h2v4h4Z"></path>
  </symbol><symbol  viewBox='0 0 24 24' id='action-archive'>
    <path d="M20.54,5.71,19.15,4A1.45,1.45,0,0,0,18,3.48H6A1.49,1.49,0,0,0,4.84,4L3.46,5.71A2,2,0,0,0,3,7v12.5a2,2,0,0,0,2,2H19a2,2,0,0,0,2-2V7A2,2,0,0,0,20.54,5.71ZM6.24,5.48H17.76l.81,1H5.44ZM5,19.48v-11H19v11Zm8.45-9h-2.9v3H8l4,4,4-4H13.45Z"></path>
  </symbol><symbol  viewBox='0 0 24 24' id='action-break-glass'>
    <path d="M.69,9.17,2.81,7.05l4.24,4.24L4.93,13.41ZM13.41,2.1,7.05,4.22,4.22,7.05,7.05,9.88l.71-.71,5,4.95v1.42l6.36,6.36,2.83-2.83-6.36-6.36H14.12l-4.95-5,4.95-4.95Z"></path>
  </symbol><symbol  viewBox='0 0 24 24' id='action-bulk-import'>
    <path d="M3,6V4H21V6H3ZM16.25,16.49V20h1.5V16.49h2.74L17,13l-3.54,3.54Zm-5-4.95H8.46L12,8l3.54,3.54H12.75V20h-1.5Zm-5,4.95H3.51L7.05,13l3.54,3.54H7.75V20H6.25Z"></path>
  </symbol><symbol  viewBox='0 0 24 24' id='action-change-password'>
    <path d="M16.94,10.14l.92.92L10.92,18H10v-.92l6.94-6.94m3.6-6a1,1,0,0,0-.7.29L18,6.24,21.76,10l1.83-1.83a1,1,0,0,0,0-1.41L21.25,4.41A1,1,0,0,0,20.54,4.12Zm-3.6,3.19L8,16.25V20h3.75l8.94-8.94ZM1,20H5V18H1ZM1,4V6H14l2-2Zm7.46,6.88a.86.86,0,0,0-1.08-.55.55.55,0,0,0-.24.12l-1.34,1a1,1,0,0,0-.49-.36l.51-1.57A.88.88,0,0,0,5,8.36H5a.87.87,0,0,0-.86.86,1.26,1.26,0,0,0,0,.27l.52,1.57a1,1,0,0,0-.49.36l-1.34-1a.85.85,0,0,0-1.2.19.9.9,0,0,0-.12.24h0A.86.86,0,0,0,2.1,12a.75.75,0,0,0,.26,0H4a1,1,0,0,0,.2.58l-1.34,1a.86.86,0,0,0-.19,1.2,1.14,1.14,0,0,0,.19.19h0a.86.86,0,0,0,1.2-.19.55.55,0,0,0,.12-.24l.52-1.57A1.07,1.07,0,0,0,5,13a1.07,1.07,0,0,0,.3-.06l.51,1.57a.86.86,0,0,0,1.08.55.9.9,0,0,0,.24-.12h0a.86.86,0,0,0,0-1.39l-1.33-1A1,1,0,0,0,6,12H7.64a.86.86,0,0,0,.86-.86A1.09,1.09,0,0,0,8.46,10.88ZM23,18H18l-2,2h7Z"></path>
  </symbol><symbol  viewBox='0 0 24 24' id='action-change-ticket'>
    <path d="M9,17H7V15H9Zm0-6H7v2H9ZM9,7H7V9H9ZM7,7V5H0v5a2,2,0,0,1,2,2,2,2,0,0,1-2,2v5H7V17H2V15.45a4,4,0,0,0,0-6.9V7ZM9,5V7H22V8.55a4,4,0,0,0,0,6.9V17H9v2H24V14a2,2,0,0,1,0-4V5Z"></path>
  </symbol><symbol  viewBox='0 0 24 24' id='action-clone-user'>
    <path d="M5,4A2,2,0,1,1,3,6,2,2,0,0,1,5,4ZM5,9c-1.34,0-4,.75-4,2.25V12H9v-.75C9,9.75,6.34,9,5,9ZM17.08,5,15.79,6.48a2,2,0,0,1,.66,1.1l2-.43A4,4,0,0,0,17.08,5Zm-.61,3.41a2,2,0,0,1-.63,1.12L17.19,11a3.94,3.94,0,0,0,1.24-2.25ZM11.81,5a3.94,3.94,0,0,0-1.24,2.25l2,.35a2,2,0,0,1,.63-1.12Zm3.36,4.84a1.85,1.85,0,0,1-.67.12,1.77,1.77,0,0,1-.61-.1l-.61,1.91A4.15,4.15,0,0,0,14.5,12a3.8,3.8,0,0,0,1.35-.24ZM12.55,8.42l-2,.43a4,4,0,0,0,1.33,2.2l1.29-1.53A2,2,0,0,1,12.55,8.42ZM14.5,4a3.8,3.8,0,0,0-1.35.24l.68,1.88A1.85,1.85,0,0,1,14.5,6a1.77,1.77,0,0,1,.61.1l.61-1.91A4.15,4.15,0,0,0,14.5,4ZM23,21H21V19h2ZM6,19H8v2H6Zm5,0H9v2h2Zm3,0H12v2h2Zm3,0H15v2h2Zm3,0H18v2h2Zm-6.2-5-.45,0c-.51,0-1,.08-1.46.15l.27,2h0A18.1,18.1,0,0,1,14,16h0l0-2ZM6,18H8a1.13,1.13,0,0,1,.62-.85h0l-1-1.51A3,3,0,0,0,6,18Zm2.72-2.93.7,1.68h0c.25-.09.52-.18.81-.26h0c.29-.08.61-.15.95-.21l-.4-1.87A11.18,11.18,0,0,0,8.72,15.07Zm12.63.57-1,1.51h0A1.13,1.13,0,0,1,21,18h2A3,3,0,0,0,21.35,15.64Zm-3.14-1.23-.4,1.87c.34.06.66.13,1,.21h0c.29.08.56.17.81.26h0l.7-1.68A11.18,11.18,0,0,0,18.21,14.41ZM15.65,14l-.45,0H15l0,2h0a18.1,18.1,0,0,1,1.87.13h0l.27-2C16.64,14.12,16.16,14.07,15.65,14Z"></path>
  </symbol><symbol  viewBox='0 0 24 24' id='action-collapse'>
    <path d="M12 8L17.71 13.71 16.29 15.12 12 10.83 7.71 15.12 6.29 13.71 12 8z"></path>
  </symbol><symbol  viewBox='0 0 24 24' id='action-copy-settings'>
    <path d="M16.65,13.58l1.2-1.05L17,11l-1.51.51-.73-.42L14.4,9.5H12.6l-.31,1.56-.73.42L10.05,11l-.9,1.56,1.2,1.05v.84l-1.2,1.05.9,1.56,1.51-.51.73.42.31,1.56h1.8l.31-1.56.73-.42L17,17l.9-1.56-1.2-1.05Zm-1.8.42a1.35,1.35,0,1,1-1.35-1.35A1.34,1.34,0,0,1,14.85,14ZM16,1H4A2,2,0,0,0,2,3V17H4V3H16Zm3,4H8A2,2,0,0,0,6,7V21a2,2,0,0,0,2,2H19a2,2,0,0,0,2-2V7A2,2,0,0,0,19,5Zm0,16H8V7H19Z"></path>
  </symbol><symbol  viewBox='0 0 24 24' id='action-copy-to-client'>
    <path d="M19,2H14.82A3,3,0,0,0,9.18,2H5A2,2,0,0,0,3,4V5.23A7,7,0,0,0,5,8V4H7V6H17V4h2V20H5V15.67A10.79,10.79,0,0,1,3,14.5V20a2,2,0,0,0,2,2H19a2,2,0,0,0,2-2V4A2,2,0,0,0,19,2ZM12,4a1,1,0,1,1,1-1A1,1,0,0,1,12,4ZM9.5,17.5v-3a9,9,0,0,1-9-9A9.29,9.29,0,0,1,.63,4,9,9,0,0,0,9.5,11.5v-3L15,13Z"></path>
  </symbol><symbol  viewBox='0 0 24 24' id='action-copy-to-guest'>
    <path d="M20.2,14.6l-1.2.9V20H5V4H7V6h7.43A11.17,11.17,0,0,1,17,5.18V2H14.82A3,3,0,0,0,9.18,2H5A2,2,0,0,0,3,4V20a2,2,0,0,0,2,2H19a2,2,0,0,0,2-2V14ZM12,2a1,1,0,1,1-1,1A1,1,0,0,1,12,2Zm7,11V10a9,9,0,0,0-8.87,7.5A9.29,9.29,0,0,1,10,16a9,9,0,0,1,9-9V4l5,4.5Z"></path>
  </symbol><symbol  viewBox='0 0 24 24' id='action-copy'>
    <path d="M16,1H4A2,2,0,0,0,2,3V17H4V3H16ZM15,5H8A2,2,0,0,0,6,7V21a2,2,0,0,0,2,2H19a2,2,0,0,0,2-2V11ZM8,21V7h6v5h5v9Z"></path>
  </symbol><symbol  viewBox='0 0 24 24' id='action-create-techout'>
    <path d="M18,4V20H6V4H18m0-2H6A2,2,0,0,0,4,4V20a2,2,0,0,0,2,2H18a2,2,0,0,0,2-2V4a2,2,0,0,0-2-2ZM13,5H11V7h2Zm0,3H11v2h2Zm1.77,6.85L13,11H11L9.23,14.85A3,3,0,0,0,9,16a3,3,0,0,0,6,0A3,3,0,0,0,14.77,14.85ZM12,17.5A1.5,1.5,0,1,1,13.5,16,1.5,1.5,0,0,1,12,17.5Z"></path>
  </symbol><symbol  viewBox='0 0 24 24' id='action-ctrl-alt-del'>
    <path d="M20,15v5H15V15h5m1-2H14a1,1,0,0,0-1,1v7a1,1,0,0,0,1,1h7a1,1,0,0,0,1-1V14a1,1,0,0,0-1-1ZM14.5,4V9h-5V4h5m1-2h-7a1,1,0,0,0-1,1v7a1,1,0,0,0,1,1h7a1,1,0,0,0,1-1V3a1,1,0,0,0-1-1ZM9,15v5H4V15H9m1-2H3a1,1,0,0,0-1,1v7a1,1,0,0,0,1,1h7a1,1,0,0,0,1-1V14a1,1,0,0,0-1-1Z"></path>
  </symbol><symbol  viewBox='0 0 24 24' id='action-delete'>
    <path d="M6,19a2,2,0,0,0,2,2h8a2,2,0,0,0,2-2V7H6ZM8,9h8V19H8Zm7.5-5-1-1h-5l-1,1H5V6H19V4Z"></path>
  </symbol><symbol  viewBox='0 0 24 24' id='action-download-csv'>
    <path d="M6.15,16.86a1.87,1.87,0,0,1-.74,1.5,2.84,2.84,0,0,1-1.84.56,2.51,2.51,0,0,1-1.95-.74,2.94,2.94,0,0,1-.7-2.11v-.16a3.38,3.38,0,0,1,.32-1.5,2.21,2.21,0,0,1,.92-1,2.62,2.62,0,0,1,1.36-.34,2.86,2.86,0,0,1,1.86.56,2.11,2.11,0,0,1,.78,1.55H4.52a.73.73,0,0,0-.26-.62,1.09,1.09,0,0,0-.74-.23c-.58,0-.9.44-.94,1.32v.43a2.52,2.52,0,0,0,.21,1.2.83.83,0,0,0,.78.37c.64,0,.95-.27.94-.8Zm4,.43a.47.47,0,0,0-.22-.41,2.34,2.34,0,0,0-.79-.29,8,8,0,0,1-.95-.28A2.35,2.35,0,0,1,7.53,16a1.13,1.13,0,0,1-.36-.48,1.78,1.78,0,0,1-.12-.69,1.44,1.44,0,0,1,.28-.88,1.9,1.9,0,0,1,.8-.61,2.78,2.78,0,0,1,1.13-.22,3,3,0,0,1,1.77.48,1.54,1.54,0,0,1,.66,1.31H10a.58.58,0,0,0-.22-.46.81.81,0,0,0-.54-.19.76.76,0,0,0-.5.15.43.43,0,0,0-.19.35.4.4,0,0,0,.19.35,2.23,2.23,0,0,0,.68.26,3.73,3.73,0,0,1,1.71.7,1.54,1.54,0,0,1,.5,1.21,1.46,1.46,0,0,1-.61,1.23,2.79,2.79,0,0,1-1.68.45,3.45,3.45,0,0,1-1.32-.23A2,2,0,0,1,7.17,18a1.71,1.71,0,0,1-.32-1H8.51a.71.71,0,0,0,.23.61,1.31,1.31,0,0,0,.76.17.72.72,0,0,0,.46-.13A.44.44,0,0,0,10.12,17.29Zm4.88,0,0,.1v-.08l1.2-4.11H18l-2,5.69H14.09l-2-5.69h1.71Z"></path><path d="M21,2H13.41a1,1,0,0,0-.7.29L6.29,8.71a1,1,0,0,0-.29.7V11h8a1,1,0,0,0,1-1V4h5V21H6v1a1,1,0,0,0,1,1H21a1,1,0,0,0,1-1V3A1,1,0,0,0,21,2ZM13,9H8.83L13,4.83Z"></path>
  </symbol><symbol  viewBox='0 0 24 24' id='action-download'>
    <path d="M6,10h4V4h4v6h4l-6,6Zm13,8H3v2H21V18Z"></path>
  </symbol><symbol  viewBox='0 0 24 24' id='action-edit'>
    <path d="M14.06,9l.92.92L5.92,19H5v-.92L14.06,9m3.6-6a1,1,0,0,0-.7.29L15.13,5.12l3.75,3.75L20.71,7a1,1,0,0,0,0-1.41L18.37,3.29A1,1,0,0,0,17.66,3Zm-3.6,3.19L3,17.25V21H6.75L17.81,9.94Z"></path>
  </symbol><symbol  viewBox='0 0 24 24' id='action-expand'>
    <path d="M12 16L6.29 10.29 7.71 8.88 12 13.17 16.29 8.88 17.71 10.29 12 16z"></path>
  </symbol><symbol  viewBox='0 0 24 24' id='action-filter'>
    <path d="M7,6H17l-5,6.3ZM4.25,5.61,10,13v6a1,1,0,0,0,1,1h2a1,1,0,0,0,1-1V13s3.72-4.8,5.74-7.39A1,1,0,0,0,19,4H5A1,1,0,0,0,4.25,5.61Z"></path>
  </symbol><symbol  viewBox='0 0 24 24' id='action-hide'>
    <path d="M2,3.87,4.69,6.55A11.74,11.74,0,0,0,1,11.5,11.83,11.83,0,0,0,12,19a11.73,11.73,0,0,0,4.32-.82l3.42,3.42,1.41-1.41L3.42,2.45ZM6.11,8,7.86,9.72A4.6,4.6,0,0,0,7.5,11.5a4.51,4.51,0,0,0,6.27,4.14l1,1A10.43,10.43,0,0,1,12,17a9.77,9.77,0,0,1-8.82-5.5A9.9,9.9,0,0,1,6.11,8ZM10,6.22,8.36,4.57A11.83,11.83,0,0,1,23,11.5,11.8,11.8,0,0,1,19.82,16l-1.41-1.41a9.65,9.65,0,0,0,2.41-3.12A9.77,9.77,0,0,0,12,6,10.11,10.11,0,0,0,10,6.22ZM12,7a4.48,4.48,0,0,1,4.49,4.49,4.68,4.68,0,0,1-.14,1.07L10.93,7.14A4.24,4.24,0,0,1,12,7Z"></path>
  </symbol><symbol  viewBox='0 0 24 24' id='action-launch-admin-ui'>
    <path d="M21.89,6.77,20.27,5.15,17.44,8A1,1,0,0,1,16,8a1,1,0,0,1,0-1.42l2.83-2.82L17.24,2.12a6,6,0,0,0-6.88,7.8L3.65,16.11A2.76,2.76,0,0,0,4,20a2.75,2.75,0,0,0,3.91.32l6.17-6.68a6,6,0,0,0,7.8-6.87ZM15.66,12h0l-.35,0-.25-.05-.29-.09-.36-.14-.21-.1a4.14,4.14,0,0,1-.55-.34L6.48,18.94c-.12.12-.62.08-1.06-.36s-.48-.93-.38-1l7.78-7.21a4.23,4.23,0,0,1-.33-.53l-.09-.22a2.13,2.13,0,0,1-.14-.35A1.61,1.61,0,0,1,12.17,9a2.38,2.38,0,0,1-.05-.26c0-.12,0-.23-.06-.34h0a4,4,0,0,1,1.14-3.2A4,4,0,0,1,15.78,4L14.61,5.15a3,3,0,0,0,4.25,4.24L20,8.23a4,4,0,0,1-1.16,2.58A4,4,0,0,1,15.66,12Z"></path>
  </symbol><symbol  viewBox='0 0 24 24' id='action-lock'>
    <path d="M19.18,7.92h-2V6.13A5.15,5.15,0,0,0,12.67.94a5,5,0,0,0-5.49,5v2h-2a1,1,0,0,0-1,1v12a1,1,0,0,0,1,1h14a1,1,0,0,0,1-1v-12A1,1,0,0,0,19.18,7.92Zm-10-2a3,3,0,0,1,3.15-3,3.11,3.11,0,0,1,2.85,3.16V7.92h-6Zm9,14h-12v-10h12Zm-6-3a2,2,0,1,0-2-2A2,2,0,0,0,12.18,16.92Z"></path>
  </symbol><symbol  viewBox='0 0 24 24' id='action-log-out'>
    <path d="M19,6H6V18H19v2H4V4H19Zm0,2.61H16.12L18.51,11H10v2h8.51l-2.39,2.39H19L22.39,12Z"></path>
  </symbol><symbol  viewBox='0 0 24 24' id='action-more'>
    <path d="M12,3a9,9,0,1,0,9,9A9,9,0,0,0,12,3ZM10.71,16.71,9.29,15.29,12.59,12,9.29,8.71l1.42-1.42L15.41,12Z"></path>
  </symbol><symbol  viewBox='0 0 24 24' id='action-open-settings'>
    <path d="M14.62,22H9.38L8.8,19.1l-1.35-.78-2.8.95L2,14.73l2.22-2V11.22L2,9.27,4.65,4.73l2.8.95L8.8,4.9,9.38,2h5.24l.58,2.9,1.35.78,2.8-.95L22,9.27l-2.22,2v1.56l2.22,2-2.62,4.54-2.8-.95-1.35.78ZM11,20h2l.44-2.18,2.91-1.68,2.11.71,1-1.7-1.67-1.47V10.31l1.67-1.46-1-1.7-2.11.71L13.42,6.18,13,4H11l-.44,2.18L7.67,7.86,5.56,7.15l-1,1.7,1.67,1.46v3.37L4.58,15.15l1,1.7,2.11-.71,2.91,1.68Zm4-8a3,3,0,1,0-3,3A3,3,0,0,0,15,12Z"></path>
  </symbol><symbol  viewBox='0 0 24 24' id='action-print'>
    <path d="M19,8H18V3H6V8H5a3,3,0,0,0-3,3v6H6v4H18V17h4V11A3,3,0,0,0,19,8ZM8,5h8V8H8Zm8,12v2H8V15h8Zm2-2V13H6v2H4V11a1,1,0,0,1,1-1H19a1,1,0,0,1,1,1v4Z"></path>
  </symbol><symbol  viewBox='0 0 24 24' id='action-refresh'>
    <path d="M20,4v6H14l2.24-2.24a6,6,0,0,0-10,2.74H4.14A8,8,0,0,1,17.65,6.35ZM12,18a6,6,0,0,1-4.24-1.76L10,14H4v6l2.35-2.35A8,8,0,0,0,19.86,13.5H17.81A6,6,0,0,1,12,18"></path>
  </symbol><symbol  viewBox='0 0 24 24' id='action-remove-force'>
    <path fill="#f80" d="M22 16L20.67 17.34 14 24 17.17 17.34 13.66 17.34 16.01 12 21.5 12 18 16 22 16z"></path><path d="M14,12H7V10H20.94A9,9,0,1,0,10.5,19.86Z"></path>
  </symbol><symbol  viewBox='0 0 24 24' id='action-remove'>
    <path d="M17,13H7V11H17ZM12,3a9,9,0,1,0,9,9A9,9,0,0,0,12,3Z"></path>
  </symbol><symbol  viewBox='0 0 24 24' id='action-request-timed-access'>
    <path d="M12,21a8,8,0,1,1,8-8A8,8,0,0,1,12,21ZM12,7a6,6,0,1,0,6,6A6,6,0,0,0,12,7Zm3-5H9V4h6ZM11,8.5V13a1,1,0,0,0,2,0V8.5Z"></path>
  </symbol><symbol  viewBox='0 0 24 24' id='action-reset'>
    <path d="M16.36,5.29a8,8,0,0,0-10,1.06L4,5v7l6.06-3.5L8.15,7.39a6,6,0,1,1-1.76,6.69l-1.73,1a7.84,7.84,0,0,0,3,3.63A8,8,0,0,0,16.36,5.29Z"></path>
  </symbol><symbol  viewBox='0 0 24 24' id='action-revert'>
    <path d="M18.71,16.35A8,8,0,0,1,7.65,18.71a7.84,7.84,0,0,1-3-3.63l1.73-1A6,6,0,1,0,8.15,7.39L10.06,8.5,4,12V5L6.34,6.35a8,8,0,0,1,12.37,10Zm-3-1.7-3-3V8h-1.5v4.31l3.4,3.4Z"></path>
  </symbol><symbol  viewBox='0 0 24 24' id='action-save'>
    <path d="M17.29,3.29a1,1,0,0,0-.7-.29H4A1,1,0,0,0,3,4V20a1,1,0,0,0,1,1H20a1,1,0,0,0,1-1V7.41a1,1,0,0,0-.29-.7ZM19,19H5V5H16.17L19,7.83ZM6,6h9v4H6Zm9,9a3,3,0,1,1-3-3A3,3,0,0,1,15,15Z"></path>
  </symbol><symbol  viewBox='0 0 24 24' id='action-screenshot'>
    <path d="M5,17H3V15H5Zm0,2H3v2H5Zm0-8H3v2H5ZM21,3H19V5h2Zm0,4H19V9h2ZM5,7H3V9H5ZM17,3H15V5h2ZM13,3H11V5h2ZM9,3H7V5H9ZM5,3H3V5H5ZM24,22V14.71A1.7,1.7,0,0,0,22.29,13H20.41l-2-2H12.59l-2,2H8.71A1.7,1.7,0,0,0,7,14.71V22a2,2,0,0,0,2,2H22A2,2,0,0,0,24,22ZM9,15h2.41l2-2h4.18l2,2H22v7H9Zm6.5,0a3,3,0,1,0,3,3A3,3,0,0,0,15.5,15Z"></path>
  </symbol><symbol  viewBox='0 0 24 24' id='action-search'>
    <path d="M15.5,14h-.79l-.28-.27a6.51,6.51,0,1,0-.7.7l.27.28v.79l5,5L20.49,19Zm-6,0A4.5,4.5,0,1,1,14,9.5,4.49,4.49,0,0,1,9.5,14"></path>
  </symbol><symbol  viewBox='0 0 24 24' id='action-select-all'>
    <path d="M3,13H5V11H3Zm4,8H9V19H7ZM3,9H5V7H3ZM13,3H11V5h2ZM3,17H5V15H3ZM9,3H7V5H9ZM5,3H3V5H5Zm6,18h2V19H11Zm8-8h2V11H19Zm0-4h2V7H19Zm0,8h2V15H19Zm-4,4h2V19H15ZM15,5h2V3H15Zm4,0h2V3H19Zm0,16h2V19H19ZM3,21H5V19H3Zm4-4H17V7H7ZM9,9h6v6H9Z"></path>
  </symbol><symbol  viewBox='0 0 24 24' id='action-select-clear'>
    <path d="M3,13H5V11H3Zm4,8H9V19H7ZM3,9H5V7H3ZM13,3H11V5h2ZM3,17H5V15H3ZM9,3H7V5H9ZM5,3H3V5H5Zm6,18h2V19H11Zm8-8h2V11H19Zm0-4h2V7H19Zm0,8h2V15H19Zm-4,4h2V19H15ZM15,5h2V3H15Zm4,0h2V3H19Zm0,16h2V19H19ZM3,21H5V19H3ZM15.54,7.05,12,10.59,8.46,7.05,7.05,8.46,10.59,12,7.05,15.54,8.46,17,12,13.41,15.54,17,17,15.54,13.41,12,17,8.46Z"></path>
  </symbol><symbol  viewBox='0 0 24 24' id='action-set-date'>
    <path d="M17,13.75H14.5v-2.5H17Zm-3.75-2.5h-2.5v2.5h2.5Zm-3.75,0H7v2.5H9.5Zm7.5,4H14.5v2.5H17Zm-3.75,0h-2.5v2.5h2.5Zm-3.75,0H7v2.5H9.5ZM20,4a1,1,0,0,1,1,1V21a1,1,0,0,1-1,1H4a1,1,0,0,1-1-1V5A1,1,0,0,1,4,4H6V2H8V4h8V2h2V4ZM19,9H5V20H19Z"></path>
  </symbol><symbol  viewBox='0 0 24 24' id='action-show'>
    <path d="M12,6.5A9.77,9.77,0,0,1,20.82,12,9.82,9.82,0,0,1,3.18,12,9.77,9.77,0,0,1,12,6.5m0-2A11.83,11.83,0,0,0,1,12a11.82,11.82,0,0,0,22,0A11.83,11.83,0,0,0,12,4.5Zm0,3A4.5,4.5,0,1,0,16.5,12,4.51,4.51,0,0,0,12,7.5Z"></path>
  </symbol><symbol  viewBox='0 0 24 24' id='action-terminate'>
    <path d="M14.83,16.24,12,13.41,9.17,16.24,7.76,14.83,10.59,12,7.76,9.17,9.17,7.76,12,10.59l2.83-2.83,1.41,1.41L13.41,12l2.83,2.83ZM12,3a9,9,0,1,0,9,9A9,9,0,0,0,12,3Z"></path>
  </symbol><symbol  viewBox='0 0 24 24' id='action-toggle-drawer'>
    <path d="M14,12a2,2,0,1,1-2-2A2,2,0,0,1,14,12Zm5-2a2,2,0,1,0,2,2A2,2,0,0,0,19,10ZM5,10a2,2,0,1,0,2,2A2,2,0,0,0,5,10Z"></path>
  </symbol><symbol  viewBox='0 0 24 24' id='action-toggle-menu'>
    <path d="M3,18H21V16H3Zm0-5H21V11H3ZM3,6V8H21V6Z"></path>
  </symbol><symbol  viewBox='0 0 24 24' id='action-trigger-audit'>
    <path d="M12,3a9,9,0,1,0,9,9A9,9,0,0,0,12,3ZM10,16.5v-9L16,12Z"></path>
  </symbol><symbol  viewBox='0 0 24 24' id='action-unlock'>
    <path d="M10,15a2,2,0,1,1,2,2A2,2,0,0,1,10,15ZM20,8.93V21.07a.93.93,0,0,1-.93.93H4.93A.93.93,0,0,1,4,21.07V8.93A.93.93,0,0,1,4.93,8H15V6.16A3.12,3.12,0,0,0,12.16,3a3,3,0,0,0-3,2H7.1a5,5,0,0,1,5.39-4A5.16,5.16,0,0,1,17,6.22V8h2.07A.93.93,0,0,1,20,8.93ZM18,10H6V20H18Z"></path>
  </symbol><symbol  viewBox='0 0 24 24' id='action-upload'>
    <path d="M18,14H14v6H10V14H6l6-6ZM5,6H21V4H3V6Z"></path>
  </symbol><symbol  viewBox='0 0 24 24' id='notification-failed'>
    <path d="M17.2,3H6.8L1.61,12,6.8,21H17.2l5.19-9ZM13,17H11V15h2Zm0-4H11V7h2Z"></path>
  </symbol><symbol  viewBox='0 0 24 24' id='notification-info'>
    <path d="M12,3a9,9,0,1,0,9,9A9,9,0,0,0,12,3Zm1,14H11V11h2Zm0-8H11V7h2Z"></path>
  </symbol><symbol  viewBox='0 0 24 24' id='notification-missing'>
    <path d="M12,3a9,9,0,1,0,9,9A9,9,0,0,0,12,3Zm1,15H11V16h2Zm1.76-6.83a3,3,0,0,1-.63.94l-1,1a.36.36,0,0,0-.09.23V14H11v-.62a2.36,2.36,0,0,1,.68-1.65l1-1a1.08,1.08,0,0,0,.22-.32A1,1,0,0,0,13,10a1,1,0,0,0-.08-.39,1,1,0,0,0-.21-.32,1.11,1.11,0,0,0-.32-.21,1,1,0,0,0-.78,0,1.11,1.11,0,0,0-.32.21,1,1,0,0,0-.21.32A1,1,0,0,0,11,10a1,1,0,0,0,.08.39l-1.84.78A3,3,0,0,1,9,10a2.92,2.92,0,0,1,.24-1.17,2.8,2.8,0,0,1,.64-1,3,3,0,0,1,.95-.65,3.06,3.06,0,0,1,2.34,0,3,3,0,0,1,.95.65,2.8,2.8,0,0,1,.64,1A2.92,2.92,0,0,1,15,10,3,3,0,0,1,14.76,11.17Z"></path>
  </symbol><symbol  viewBox='0 0 24 24' id='notification-success'>
    <path d="M12,3a9,9,0,1,0,9,9A9,9,0,0,0,12,3Zm0,12.21a1,1,0,0,1-.32.22h0a.61.61,0,0,1-.13,0,1,1,0,0,1-.25,0,1,1,0,0,1-.24,0,.5.5,0,0,1-.13,0h0a1,1,0,0,1-.32-.22L6.7,11.32,8.11,9.91l3.18,3.18,4.6-4.6L17.3,9.91Z"></path>
  </symbol><symbol  viewBox='0 0 24 24' id='notification-warning'>
    <path d="M22.13,19.5l-9.26-16a1,1,0,0,0-1.74,0l-9.26,16A1,1,0,0,0,2.73,21H21.27A1,1,0,0,0,22.13,19.5ZM13,18H11V16h2Zm0-4H11V9h2Z"></path>
  </symbol><symbol  viewBox='0 0 24 24' id='object-account-filled'>
    <path d="M12,14c-2.67,0-8,1.34-8,4v2H20V18c0-2.66-5.33-4-8-4m0-2A4,4,0,1,0,8,8a4,4,0,0,0,4,4"></path>
  </symbol><symbol  viewBox='0 0 24 24' id='object-account'>
    <path d="M12,14c-2.67,0-8,1.34-8,4v2H20V18c0-2.66-5.33-4-8-4M6,18c.22-.72,3.31-2,6-2s5.8,1.29,6,2Zm6-6A4,4,0,1,0,8,8a4,4,0,0,0,4,4m0-6a2,2,0,1,1-2,2,2,2,0,0,1,2-2"></path>
  </symbol><symbol  viewBox='0 0 24 24' id='object-active-directory'>
    <path d="M20,11.25a2.76,2.76,0,0,0-1.77.64L13.51,6.3a2.75,2.75,0,1,0-3,0L5.77,11.89a2.75,2.75,0,1,0,.43,3.76l3.6,2.7a2.75,2.75,0,1,0,4.4,0l3.6-2.7a2.75,2.75,0,1,0,2.2-4.4ZM6.74,14.18l-.57-.43.46-.55,4.62-5.48v9.84l-.19-.14Zm10.52,0-4.32,3.24-.19.14V7.72l4.62,5.48.46.55Z"></path>
  </symbol><symbol  viewBox='0 0 24 24' id='object-certificate'>
    <path d="M13.49,20H3a1,1,0,0,1-1-1V5A1,1,0,0,1,3,4H21a1,1,0,0,1,1,1v6.59a6,6,0,0,0-2-1.22V6H4V18h8.3a5.87,5.87,0,0,0,1.19,2M18,8H6V9.5H18Zm-3.66,3.25H6v1.5h7a6,6,0,0,1,1.38-1.5M6,14.5V16h6a6.16,6.16,0,0,1,.19-1.5Z"></path><path d="M22,16a4,4,0,1,0-6.4,3.18L15,24l3-2,3,2-.6-4.82A4,4,0,0,0,22,16Zm-4,2a2,2,0,1,1,2-2A2,2,0,0,1,18,18Z"></path>
  </symbol><symbol  viewBox='0 0 24 24' id='object-dashboard'>
    <path d="M19,5V7H15V5h4M9,5v6H5V5H9m10,8v6H15V13h4M9,17v2H5V17H9M21,3H13V9h8ZM11,3H3V13h8Zm10,8H13V21h8ZM11,15H3v6h8Z"></path>
  </symbol><symbol  viewBox='0 0 24 24' id='object-file'>
    <path d="M13.17,2H5A1,1,0,0,0,4,3V21a1,1,0,0,0,1,1H19a1,1,0,0,0,1-1V8.83a2,2,0,0,0-.59-1.42L14.59,2.59A2,2,0,0,0,13.17,2Zm4,6H14V4.83ZM18,20H6V4h6v6h6ZM8,12h8v2H8Zm0,4h8v2H8Z"></path>
  </symbol><symbol  viewBox='0 0 24 24' id='object-fingerprint'>
    <path d="M17.81,4.47a.46.46,0,0,1-.23-.06A11.44,11.44,0,0,0,12,3,11.44,11.44,0,0,0,6.44,4.41.5.5,0,0,1,6,3.53,12.72,12.72,0,0,1,18,3.52a.51.51,0,0,1-.23.95ZM3.5,9.72a.52.52,0,0,1-.29-.09.5.5,0,0,1-.12-.7A10.34,10.34,0,0,1,6.84,5.66a11.54,11.54,0,0,1,10.31,0A10.38,10.38,0,0,1,20.9,8.9a.5.5,0,0,1-.82.58,9.39,9.39,0,0,0-3.39-2.94,10.54,10.54,0,0,0-9.4,0,9.49,9.49,0,0,0-3.4,3A.44.44,0,0,1,3.5,9.72ZM9.75,21.79a.47.47,0,0,1-.35-.15,10.11,10.11,0,0,1-2-2.64,8.88,8.88,0,0,1-1-4.34A5.54,5.54,0,0,1,12,9.27a5.54,5.54,0,0,1,5.66,5.39.5.5,0,0,1-1,0A4.54,4.54,0,0,0,12,10.27a4.54,4.54,0,0,0-4.66,4.39,7.83,7.83,0,0,0,.93,3.85,9.47,9.47,0,0,0,1.85,2.42.51.51,0,0,1,0,.71A.55.55,0,0,1,9.75,21.79Zm7.17-1.85a5.39,5.39,0,0,1-3.1-.89,5.32,5.32,0,0,1-2.38-4.39.5.5,0,0,1,1,0,4.3,4.3,0,0,0,1.94,3.56,4.38,4.38,0,0,0,2.54.71,6.61,6.61,0,0,0,1-.1.5.5,0,1,1,.17,1A6.83,6.83,0,0,1,16.92,19.94Zm-2,2.06-.13,0a7.8,7.8,0,0,1-3.72-2.1,7.3,7.3,0,0,1-2.17-5.22A3,3,0,0,1,12,11.72a3,3,0,0,1,3.08,2.94,2.09,2.09,0,0,0,4.16,0A7.05,7.05,0,0,0,12,7.83a7.3,7.3,0,0,0-6.61,4,6.43,6.43,0,0,0-.59,2.8,9.94,9.94,0,0,0,.67,3.61.49.49,0,0,1-.29.64.5.5,0,0,1-.64-.29,11.14,11.14,0,0,1-.73-4,7.51,7.51,0,0,1,.68-3.24A8.3,8.3,0,0,1,12,6.82a8.06,8.06,0,0,1,8.25,7.83,3.08,3.08,0,0,1-6.16,0A2,2,0,0,0,12,12.71a2,2,0,0,0-2.08,1.94,6.3,6.3,0,0,0,1.87,4.51A6.8,6.8,0,0,0,15,21a.5.5,0,0,1,.35.61A.49.49,0,0,1,14.91,22Z"></path>
  </symbol><symbol  viewBox='0 0 24 24' id='object-group-ad'>
    <path d="M9,4a3.5,3.5,0,1,0,3.5,3.5A3.5,3.5,0,0,0,9,4ZM9,9a1.5,1.5,0,1,1,1.5-1.5A1.5,1.5,0,0,1,9,9Zm6,2a3.45,3.45,0,0,1-1.5-.35,5.46,5.46,0,0,0,0-6.3A3.45,3.45,0,0,1,15,4a3.5,3.5,0,0,1,0,7m-3.95,8H2V16.25c0-2.33,4.66-3.5,7-3.5,1.75,0,4.81.66,6.23,2a4,4,0,0,0,.2.42A3.61,3.61,0,0,0,14.5,15a3.46,3.46,0,0,0-1.8.51A10.41,10.41,0,0,0,9,14.75c-2.14,0-4.62,1-5,1.57V17h7.35A3.45,3.45,0,0,0,11,18.5,4,4,0,0,0,11.05,19Z"></path><path d="M22.5,17a1.47,1.47,0,0,0-1,.35l-2.2-2.6h0a1.5,1.5,0,1,0-1.68,0h0l-2.2,2.6a1.47,1.47,0,0,0-1-.35,1.5,1.5,0,1,0,1.2,2.4l1.6,1.2h0a1.54,1.54,0,0,0-.3.9,1.5,1.5,0,0,0,3,0,1.54,1.54,0,0,0-.3-.9h0l1.6-1.2A1.5,1.5,0,1,0,22.5,17ZM16,18.37l0,0,0-.05,2-2.39v4Zm3,1.51v-4l2,2.39,0,.05,0,0Z" fill="#08f"></path>
  </symbol><symbol  viewBox='0 0 24 24' id='object-group'>
    <path d="M9,4a3.5,3.5,0,1,0,3.5,3.5A3.5,3.5,0,0,0,9,4ZM9,9a1.5,1.5,0,1,1,1.5-1.5A1.5,1.5,0,0,1,9,9Zm7,3.81c2.46.27,6,1.42,6,3.44V19H18V16.25a4.19,4.19,0,0,0-2-3.44M15,11a3.45,3.45,0,0,1-1.5-.35,5.46,5.46,0,0,0,0-6.3A3.45,3.45,0,0,1,15,4a3.5,3.5,0,0,1,0,7M9,12.75c-2.34,0-7,1.17-7,3.5V19H16V16.25C16,13.92,11.34,12.75,9,12.75ZM14,17H4v-.68c.38-.61,2.86-1.57,5-1.57s4.62,1,5,1.57Z"></path>
  </symbol><symbol  viewBox='0 0 24 24' id='object-groups'>
    <path d="M4,13a2,2,0,1,0-2-2A2,2,0,0,0,4,13Zm1.13,1.1A7.08,7.08,0,0,0,4,14a7,7,0,0,0-2.78.58A2,2,0,0,0,0,16.43V18H4.5V16.39A4.48,4.48,0,0,1,5.13,14.1ZM20,13a2,2,0,1,0-2-2A2,2,0,0,0,20,13Zm4,3.43a2,2,0,0,0-1.22-1.85,6.82,6.82,0,0,0-3.91-.48,4.48,4.48,0,0,1,.63,2.29V18H24Zm-7.76-2.78a10.48,10.48,0,0,0-4.24-.9,10.68,10.68,0,0,0-4.24.9A3,3,0,0,0,6,16.39V18H18V16.39A3,3,0,0,0,16.24,13.65ZM8.07,16c.09-.23.13-.39.91-.69a8.39,8.39,0,0,1,6,0c.77.3.81.46.91.69ZM12,8a1,1,0,1,1-1,1,1,1,0,0,1,1-1m0-2a3,3,0,1,0,3,3A3,3,0,0,0,12,6Z"></path>
  </symbol><symbol  viewBox='0 0 24 24' id='object-keyboard'>
    <path d="M20,7V17H4V7H20m0-2H4A2,2,0,0,0,2,7V17a2,2,0,0,0,2,2H20a2,2,0,0,0,2-2V7A2,2,0,0,0,20,5ZM11,8h2v2H11Zm0,3h2v2H11ZM8,8h2v2H8Zm0,3h2v2H8ZM5,11H7v2H5ZM5,8H7v2H5Zm3,6h8v2H8Zm6-3h2v2H14Zm0-3h2v2H14Zm3,3h2v2H17Zm0-3h2v2H17Z"></path>
  </symbol><symbol  viewBox='0 0 24 24' id='object-password'>
    <path d="M0,20H24V18H0ZM0,4V6H24V4Zm15.46,6.88A.86.86,0,0,1,14.64,12H13a1,1,0,0,1-.21.58l1.35,1a.86.86,0,0,1,0,1.39h0a.86.86,0,0,1-1.32-.43l-.52-1.57a.78.78,0,0,1-.6,0l-.52,1.57a.86.86,0,0,1-1.32.43h0a.86.86,0,0,1,0-1.39l1.35-1A1,1,0,0,1,11,12H9.36a.86.86,0,0,1-.82-1.12h0a.85.85,0,0,1,1.32-.43l1.35,1a1,1,0,0,1,.49-.36l-.52-1.57A.87.87,0,0,1,12,8.36h0a.87.87,0,0,1,.82,1.13l-.52,1.57a1,1,0,0,1,.49.36l1.35-1a.85.85,0,0,1,1.32.43Zm-8,0a.85.85,0,0,0-1.32-.43l-1.35,1a1,1,0,0,0-.49-.36l.52-1.57A.87.87,0,0,0,4,8.36H4a.87.87,0,0,0-.82,1.13l.52,1.57a1,1,0,0,0-.49.36l-1.35-1a.85.85,0,0,0-1.32.43h0A.86.86,0,0,0,1.36,12H3a1,1,0,0,0,.21.58l-1.35,1a.86.86,0,0,0,0,1.39h0a.86.86,0,0,0,1.32-.43l.52-1.57A.94.94,0,0,0,4,13a.94.94,0,0,0,.3-.06l.52,1.57a.86.86,0,0,0,1.32.43h0a.86.86,0,0,0,0-1.39l-1.35-1A1,1,0,0,0,5,12H6.64a.86.86,0,0,0,.82-1.12Zm16,0h0a.85.85,0,0,0-1.32-.43l-1.35,1a1,1,0,0,0-.49-.36l.52-1.57A.87.87,0,0,0,20,8.36h0a.87.87,0,0,0-.82,1.13l.52,1.57a1,1,0,0,0-.49.36l-1.35-1a.85.85,0,0,0-1.32.43h0A.86.86,0,0,0,17.36,12H19a1,1,0,0,0,.21.58l-1.35,1a.86.86,0,0,0,0,1.39h0a.86.86,0,0,0,1.32-.43l.52-1.57a.78.78,0,0,0,.6,0l.52,1.57a.86.86,0,0,0,1.32.43h0a.86.86,0,0,0,0-1.39l-1.35-1A1,1,0,0,0,21,12h1.64A.86.86,0,0,0,23.46,10.88Z"></path>
  </symbol><symbol  viewBox='0 0 24 24' id='object-profile-privileged'>
    <path d="M12,8.23,12.88,10l.49,1,1.11.16,2,.29L15,12.85l-.8.78.19,1.09.34,2L13,15.76l-1-.52-1,.52-1.76.93.34-2,.19-1.09L9,12.85,7.55,11.46l2-.29L10.63,11l.49-1L12,8.23m0-4.79L9.22,9.08,3,10l4.5,4.39L6.44,20.56,12,17.64l5.56,2.92L16.5,14.37,21,10l-6.22-.9L12,3.44Z"></path>
  </symbol><symbol  viewBox='0 0 24 24' id='object-profile-super'>
    <path d="M12,12.74l1.37,1.92,1,1.41,1.54-.79,1.86-.95L16.56,18H7.44L6.23,14.33l1.86.95,1.54.79,1-1.41L12,12.74M12,5.5a2,2,0,0,0-2,2,2,2,0,0,0,1.88,2L9,13.5l-5.91-3a1.94,1.94,0,0,0,1.32-.57,2,2,0,0,0,0-2.82,2,2,0,1,0-1.56,3.38L6,20H18l3.15-9.53a1.95,1.95,0,1,0-.24,0L15,13.5l-2.88-4A2,2,0,0,0,14,7.5a2,2,0,0,0-2-2Z"></path>
  </symbol><symbol  viewBox='0 0 24 24' id='object-profiles'>
    <path d="M7.5,8a2,2,0,1,1-2,2A2,2,0,0,1,7.5,8Zm0,5c-1.34,0-4,.75-4,2.25V16h8v-.75C11.5,13.75,8.84,13,7.5,13ZM20,9.5H13V8h7Zm0,1.75H13v1.5h7Zm0,3.25H13V16h7ZM0,4.75v14.5A.76.76,0,0,0,.75,20h22.5a.76.76,0,0,0,.75-.75V4.75A.76.76,0,0,0,23.25,4H.75A.76.76,0,0,0,0,4.75ZM22,18H2V6H22Z"></path>
  </symbol><symbol  viewBox='0 0 24 24' id='object-request'>
    <path d="M21,16l-4,4H14l3-3H4V15H17l-3-3h3ZM3,8l4,4h3L7,9H20V7H7l3-3H7Z"></path>
  </symbol><symbol  viewBox='0 0 24 24' id='object-server-map'>
    <path d="M13,14.56,24,13V9.78a1,1,0,0,0-.76-1L12.49,6.12a2,2,0,0,0-1,0L.76,8.81a1,1,0,0,0-.76,1v4.44a1,1,0,0,0,.76,1l.94.23,9.82,2.46a2,2,0,0,0,1,0l.52-.13ZM2.44,13.75c-.52,0-.94-.56-.94-1.25s.42-1.25.94-1.25.94.56.94,1.25S3,13.75,2.44,13.75ZM2.37,9.44,12,7l9.63,2.41L12,11.85Z"></path><path d="M18.5,19H15V16.28c1.16-.18,2.33-.33,3.5-.48Zm1,0H24V15l-4.5.65Zm0,4.37q2.25.3,4.5.63V20H19.5ZM18.5,20H15v2.75l3.5.48Z" fill="#08f"></path>
  </symbol><symbol  viewBox='0 0 24 24' id='object-server-pam'>
    <path d="M14,17.2a3.2,3.2,0,0,1,5.46-2.26l.54.54.54-.54A3.14,3.14,0,0,1,22.8,14a3.24,3.24,0,0,1,1.2.23h0V9.78a1,1,0,0,0-.76-1L12.49,6.12a2,2,0,0,0-1,0L.76,8.81a1,1,0,0,0-.76,1v4.44a1,1,0,0,0,.76,1l.94.23,9.82,2.46a2,2,0,0,0,1,0L14,17.49A2.58,2.58,0,0,1,14,17.2ZM2.44,13.75c-.52,0-.94-.56-.94-1.25s.42-1.25.94-1.25.94.56.94,1.25S3,13.75,2.44,13.75ZM12,11.85,2.37,9.44,12,7l9.63,2.41Z"></path><path d="M17.2,24a1.22,1.22,0,0,1-.85-.35,1.2,1.2,0,0,1,0-1.7L18.3,20l-1.95-1.95a1.2,1.2,0,0,1,1.7-1.7L21.7,20l-3.65,3.65a1.22,1.22,0,0,1-.85.35m5.06-4.57,1.39-1.38a1.2,1.2,0,0,0-1.7-1.7l-1.38,1.39Zm0,1.14-1.69,1.69L22,23.65a1.21,1.21,0,0,0,1.7,0,1.2,1.2,0,0,0,0-1.7Z" fill="#08f"></path>
  </symbol><symbol  viewBox='0 0 24 24' id='object-server'>
    <path d="M11.51,6.12.76,8.81a1,1,0,0,0-.76,1v4.44a1,1,0,0,0,.76,1l.94.23,9.82,2.46a2,2,0,0,0,1,0l9.82-2.46.94-.23a1,1,0,0,0,.76-1V9.78a1,1,0,0,0-.76-1L12.49,6.12A2,2,0,0,0,11.51,6.12ZM2.44,13.75c-.52,0-.94-.56-.94-1.25s.42-1.25.94-1.25.94.56.94,1.25S3,13.75,2.44,13.75ZM12,11.85,2.37,9.44,12,7l9.63,2.41Z"></path>
  </symbol><symbol  viewBox='0 0 24 24' id='object-session-recording'>
    <path d="M13.42,15.67a.93.93,0,0,0,.15,1l3.11,3.94a1.43,1.43,0,0,0,1.09.54.88.88,0,0,0,.79-.42l4.07-7c.34-.6-.22-1.45-1.05-1.57l-5-.72-.18,0a.88.88,0,0,0-.79.41ZM0,19v2H6a2,2,0,0,0,2-2V15.34l2.48,1.43a1,1,0,0,0,1.36-.36l3.65-6.32a1,1,0,0,0-.37-1.36L5.59,3.23a1,1,0,0,0-.49-.14,1,1,0,0,0-.87.5L.58,9.91A1,1,0,0,0,1,11.27L6,14.19V19Zm8-6v0H7.94L2.82,10,5.46,5.46l7.8,4.5-2.65,4.58Z"></path>
  </symbol><symbol  viewBox='0 0 24 24' id='object-shared-drive'>
    <path d="M20,20a2,2,0,0,0,2-2V9a2,2,0,0,0-2-2H12L10,5H4A2,2,0,0,0,2,7V18a2,2,0,0,0,2,2ZM4,18V7H9.17l2,2H20v9Z"></path>
  </symbol><symbol  viewBox='0 0 24 24' id='object-ssh-key'>
    <path d="M10.46,10.88A.86.86,0,0,1,9.64,12H8a1,1,0,0,1-.21.58l1.35,1a.86.86,0,0,1,0,1.39h0a.86.86,0,0,1-1.32-.43L7.3,12.94a.78.78,0,0,1-.6,0l-.52,1.57a.86.86,0,0,1-1.32.43h0a.86.86,0,0,1,0-1.39l1.35-1A1,1,0,0,1,6,12H4.36a.86.86,0,0,1-.82-1.12h0a.85.85,0,0,1,1.32-.43l1.35,1a1,1,0,0,1,.49-.36L6.18,9.49A.87.87,0,0,1,7,8.36H7a.87.87,0,0,1,.82,1.13L7.3,11.06a1,1,0,0,1,.49.36l1.35-1a.85.85,0,0,1,1.32.43ZM24,9v6H22v4H16V15H13.32a7,7,0,1,1,0-6Zm-2,2H11.94l-.23-.67a5,5,0,1,0,0,3.34l.23-.67H18v4h2V13h2Z"></path>
  </symbol><symbol  viewBox='0 0 24 24' id='object-tasks'>
    <path d="M10.13,3.87,5,9,2,6,3.41,4.59,5,6.17,8.72,2.45ZM8.72,8.45,5,12.17,3.41,10.59,2,12l3,3,5.13-5.13Zm0,6L5,18.17,3.41,16.59,2,18l3,3,5.13-5.13ZM21,5H13L11,7H21Zm0,12H13l-2,2H21Zm0-6H13l-2,2H21Z"></path>
  </symbol><symbol  viewBox='0 0 24 24' id='object-token'>
    <path d="M13.74,8a7,7,0,1,0,0,8H23V8ZM21,14H12.57a5,5,0,1,1,0-4H21Zm-9.59-3.12A.86.86,0,0,1,10.59,12H9a1,1,0,0,1-.2.58l1.34,1a.86.86,0,0,1,0,1.39h0a.86.86,0,0,1-1.32-.43l-.51-1.57A1.07,1.07,0,0,1,8,13a.94.94,0,0,1-.3-.06l-.51,1.57a.86.86,0,0,1-1.33.43h0a.86.86,0,0,1,0-1.39l1.35-1A1,1,0,0,1,7,12H5.31a.86.86,0,0,1-.82-1.12h0a.85.85,0,0,1,1.32-.43l1.35,1a1,1,0,0,1,.49-.36L7.14,9.49A.86.86,0,0,1,8,8.36H8a.87.87,0,0,1,.82,1.13l-.51,1.57a1,1,0,0,1,.49.36l1.34-1a.85.85,0,0,1,1.32.43Z"></path>
  </symbol><symbol  viewBox='0 0 24 24' id='object-tool-app'>
    <path d="M13,8h5v3H13Zm0,7h5V12H13ZM7,15h5V12H7Zm5-8H6v4h6ZM24,18v2H0V18H4a2,2,0,0,1-2-2V6A2,2,0,0,1,4,4H20a2,2,0,0,1,2,2V16a2,2,0,0,1-2,2ZM4,16H20V6H4Z"></path>
  </symbol><symbol  viewBox='0 0 24 24' id='object-tool-browser'>
    <path d="M12,3a9,9,0,1,0,9,9A9,9,0,0,0,12,3Zm6,5.5H16.1A10.29,10.29,0,0,0,15,5.69,7.09,7.09,0,0,1,18,8.5ZM19,12a6.77,6.77,0,0,1-.18,1.5h-2.4a14.1,14.1,0,0,0,0-3h2.4A6.77,6.77,0,0,1,19,12ZM5,12a6.77,6.77,0,0,1,.18-1.5h2.4a14.1,14.1,0,0,0,0,3H5.18A6.77,6.77,0,0,1,5,12Zm4.5,0a14.16,14.16,0,0,1,.08-1.5h4.84a14.1,14.1,0,0,1,0,3H9.58A14.16,14.16,0,0,1,9.5,12ZM12,5.5c.57,0,1.47,1.11,2,3H10C10.53,6.61,11.43,5.5,12,5.5ZM9,5.69A10.29,10.29,0,0,0,7.9,8.5H6A7.09,7.09,0,0,1,9,5.69ZM6,15.5H7.9A10.29,10.29,0,0,0,9,18.31,7.09,7.09,0,0,1,6,15.5Zm6,3c-.57,0-1.47-1.11-2-3h4C13.47,17.39,12.57,18.5,12,18.5Zm3-.19A10.29,10.29,0,0,0,16.1,15.5H18A7.09,7.09,0,0,1,15,18.31Z"></path>
  </symbol><symbol  viewBox='0 0 24 24' id='object-tool-rdp'>
    <path d="M16.5,9.5v3h-9v-3h9m2-2H5.5v7h13v-7ZM20,18a2,2,0,0,0,2-2V6a2,2,0,0,0-2-2H4A2,2,0,0,0,2,6V16a2,2,0,0,0,2,2H0v2H24V18ZM4,6H20V16H4Z"></path>
  </symbol><symbol  viewBox='0 0 24 24' id='object-tool-sftp'>
    <path d="M8,20H0V18H6V6H0V4H8Zm16-2H18V6h6V4H16V20h8Zm0-9H20v2h4Zm0,4H20v2h4ZM4,9H0v2H4Zm0,4H0v2H4Zm8.17-1-3,3H12l3-3L12,9H9.17Z"></path>
  </symbol><symbol  viewBox='0 0 24 24' id='object-tool-ssh'>
    <path d="M20,18V6H4V18Zm-2-4v2H10l2-2ZM5.17,8H8l4,4L8,16H5.17l4-4Z"></path>
  </symbol><symbol  viewBox='0 0 24 24' id='object-user-privileged'>
    <path d="M13.65,20H3V18c0-1.92,2.78-3.15,5.34-3.69l1.78,1.74C7.68,16.28,5.2,17.36,5,18h7.12l1.61,1.57ZM15,8a4,4,0,1,1-4-4,4,4,0,0,1,4,4M13,8a2,2,0,1,0-2,2,2,2,0,0,0,2-2"></path><path fill="#08f" d="M13.75 16.8L16.69 16.37 18 13.71 19.31 16.37 22.25 16.8 20.13 18.87 20.63 21.79 18 20.41 15.37 21.79 15.88 18.87 13.75 16.8z"></path>
  </symbol><symbol  viewBox='0 0 24 24' id='object-user-super'>
    <path d="M12.66,20H3V18c0-2.66,5.33-4,8-4l.75,0A3,3,0,0,0,11,16h0c-2.69,0-5.78,1.28-6,2h6.78l.1.12a2.67,2.67,0,0,0,.36.31ZM11,12a4,4,0,1,1,4-4,4,4,0,0,1-4,4m0-6a2,2,0,1,0,2,2,2,2,0,0,0-2-2"></path><path d="M23,16a1,1,0,0,0-2,0A1,1,0,0,0,22,17L19.5,18.5l-1.44-2a1,1,0,1,0-.12,0l-1.44,2L14.05,17a1,1,0,1,0-.76-.28,1,1,0,0,0,.63.28L15,21h6l1.08-4A1,1,0,0,0,23,16" fill="#f80"></path>
  </symbol><symbol  viewBox='0 0 24 24' id='object-vault'>
    <path d="M21,3H5A1,1,0,0,0,4,4V6H2v4H4v4H2v4H4v2a1,1,0,0,0,1,1H21a1,1,0,0,0,1-1V4A1,1,0,0,0,21,3ZM20,19H6V5H20ZM8.76,16.24a1,1,0,0,0,1.41,0l1.18-1.17a3.51,3.51,0,0,0,3.3,0l1.18,1.17a1,1,0,0,0,1.41,0,1,1,0,0,0,0-1.41l-1.17-1.18a3.51,3.51,0,0,0,0-3.3l1.17-1.18a1,1,0,1,0-1.41-1.41L14.65,8.93a3.51,3.51,0,0,0-3.3,0L10.17,7.76A1,1,0,0,0,8.76,9.17l1.17,1.18a3.51,3.51,0,0,0,0,3.3L8.76,14.83A1,1,0,0,0,8.76,16.24ZM13,10a2,2,0,1,1-2,2A2,2,0,0,1,13,10Z"></path>
  </symbol><symbol  viewBox='0 0 24 24' id='status-group-disabled'>
    <path d="M9,5a3.5,3.5,0,1,0,3.5,3.5A3.5,3.5,0,0,0,9,5Zm0,5a1.5,1.5,0,1,1,1.5-1.5A1.5,1.5,0,0,1,9,10Zm7,3.81c2.46.27,6,1.42,6,3.44V20H18V17.25a4.19,4.19,0,0,0-2-3.44M15,12a3.45,3.45,0,0,1-1.5-.35,5.46,5.46,0,0,0,0-6.3A3.45,3.45,0,0,1,15,5a3.5,3.5,0,0,1,0,7M9,13.75c-2.34,0-7,1.17-7,3.5V20H16V17.25C16,14.92,11.34,13.75,9,13.75ZM14,18H4v-.68c.38-.61,2.86-1.57,5-1.57s4.62,1,5,1.57Z" fill="#bbb"></path>
  </symbol><symbol  viewBox='0 0 24 24' id='status-group-enabled'>
    <path d="M9,5a3.5,3.5,0,1,0,3.5,3.5A3.5,3.5,0,0,0,9,5Zm0,5a1.5,1.5,0,1,1,1.5-1.5A1.5,1.5,0,0,1,9,10Zm7,3.81c2.46.27,6,1.42,6,3.44V20H18V17.25a4.19,4.19,0,0,0-2-3.44M15,12a3.45,3.45,0,0,1-1.5-.35,5.46,5.46,0,0,0,0-6.3A3.45,3.45,0,0,1,15,5a3.5,3.5,0,0,1,0,7M9,13.75c-2.34,0-7,1.17-7,3.5V20H16V17.25C16,14.92,11.34,13.75,9,13.75ZM14,18H4v-.68c.38-.61,2.86-1.57,5-1.57s4.62,1,5,1.57Z" fill="#08f"></path>
  </symbol><symbol  viewBox='0 0 24 24' id='status-profile-disabled'>
    <path d="M5.5,10a2,2,0,1,1,2,2A2,2,0,0,1,5.5,10Zm6,5.25c0-1.5-2.66-2.25-4-2.25s-4,.75-4,2.25V16h8ZM24,4.75v14.5a.76.76,0,0,1-.75.75H.75A.76.76,0,0,1,0,19.25V4.75A.76.76,0,0,1,.75,4h22.5A.76.76,0,0,1,24,4.75ZM22,6H2V18H22Zm-7.29,9.71L17,13.41l2.29,2.3,1.42-1.42L18.41,12l2.3-2.29L19.29,8.29,17,10.59l-2.29-2.3L13.29,9.71,15.59,12l-2.3,2.29Z" fill="#bbb"></path>
  </symbol><symbol  viewBox='0 0 24 24' id='status-profile-unprovisioning'>
    <path d="M5.5,10a2,2,0,1,1,2,2A2,2,0,0,1,5.5,10Zm6,5.25c0-1.5-2.66-2.25-4-2.25s-4,.75-4,2.25V16h8ZM24,4.75v14.5a.76.76,0,0,1-.75.75H.75A.76.76,0,0,1,0,19.25V4.75A.76.76,0,0,1,.75,4h22.5A.76.76,0,0,1,24,4.75ZM22,6H2V18H22Zm-2,7.5V10.67l-2,2V8H16v4.67l-2-2V13.5l3,3Z" fill="#c00"></path>
  </symbol><symbol  viewBox='0 0 24 24' id='status-user-privileged-disabled-locked'>
    <path fill="#08f" d="M18 13.71L19.31 16.37 22.25 16.8 20.13 18.87 20.63 21.79 18 20.41 15.37 21.79 15.88 18.87 13.75 16.8 16.69 16.37 18 13.71z"></path><path data-name="specifier" d="M20.75,6V5a2.75,2.75,0,0,0-5.5,0V6H14v6h8V6ZM18,10.25A1.25,1.25,0,1,1,19.25,9,1.25,1.25,0,0,1,18,10.25ZM16.75,6V5a1.25,1.25,0,0,1,2.5,0V6Z" fill="#c00"></path><path d="M6,8a4,4,0,0,1,4-4,4.09,4.09,0,0,1,1,.14V6.28a2,2,0,1,0,0,3.44v2.14A4.09,4.09,0,0,1,10,12,4,4,0,0,1,6,8Zm5,10H4c.22-.72,3.31-2,6-2,.33,0,.66,0,1,.05v-2c-.36,0-.7-.05-1-.05-2.67,0-8,1.34-8,4v2h9Z" fill="#bbb"></path>
  </symbol><symbol  viewBox='0 0 24 24' id='status-user-privileged-disabled'>
    <path d="M13.65,20H3V18c0-1.92,2.78-3.15,5.34-3.69l1.78,1.74C7.68,16.28,5.2,17.36,5,18h7.12l1.61,1.57ZM15,8a4,4,0,1,1-4-4,4,4,0,0,1,4,4M13,8a2,2,0,1,0-2,2,2,2,0,0,0,2-2" fill="#bbb"></path><path fill="#08f" d="M18 13.71L19.31 16.37 22.25 16.8 20.13 18.87 20.63 21.79 18 20.41 15.37 21.79 15.88 18.87 13.75 16.8 16.69 16.37 18 13.71z"></path>
  </symbol><symbol  viewBox='0 0 24 24' id='status-user-privileged-enabled-locked'>
    <path d="M18,13.71l1.31,2.66,2.94.43-2.13,2.07.51,2.92L18,20.41l-2.63,1.38.51-2.92L13.75,16.8l2.94-.43ZM10,12a4.09,4.09,0,0,0,1-.14V9.72a2,2,0,1,1,0-3.44V4.14A4.09,4.09,0,0,0,10,4a4,4,0,0,0,0,8Zm1,8H2V18c0-2.66,5.33-4,8-4,.3,0,.64,0,1,.05v2c-.34,0-.67-.05-1-.05-2.69,0-5.78,1.28-6,2h7Z" fill="#08f"></path><path d="M20.75,6V5a2.75,2.75,0,0,0-5.5,0V6H14v6h8V6ZM18,10.25A1.25,1.25,0,1,1,19.25,9,1.25,1.25,0,0,1,18,10.25ZM16.75,6V5a1.25,1.25,0,0,1,2.5,0V6Z" fill="#c00"></path>
  </symbol><symbol  viewBox='0 0 24 24' id='status-user-privileged-enabled'>
    <path d="M13.65,20H3V18c0-1.92,2.78-3.15,5.34-3.69l1.78,1.74C7.68,16.28,5.2,17.36,5,18h7.12l1.61,1.57ZM15,8a4,4,0,1,1-4-4,4,4,0,0,1,4,4M13,8a2,2,0,1,0-2,2,2,2,0,0,0,2-2m3.69,8.37-2.94.43,2.13,2.07-.51,2.92L18,20.41l2.63,1.38-.51-2.92,2.13-2.07-2.94-.43L18,13.71Z" fill="#08f"></path>
  </symbol><symbol  viewBox='0 0 24 24' id='status-user-provisioning'>
    <path d="M7,8a4,4,0,0,1,4-4,4.09,4.09,0,0,1,1,.14V6.28a2,2,0,1,0,0,3.44v2.14A4.09,4.09,0,0,1,11,12,4,4,0,0,1,7,8Zm5,10H5c.22-.72,3.31-2,6-2,.33,0,.66,0,1,.05v-2c-.36,0-.7-.05-1-.05-2.67,0-8,1.34-8,4v2h9ZM20,7,17,4,14,7V9.83l2-2V20h2V7.83l2,2Z" fill="#0a0"></path>
  </symbol><symbol  viewBox='0 0 24 24' id='status-user-super-disabled-locked'>
    <path d="M20.75,6V5a2.75,2.75,0,0,0-5.5,0V6H14v6h8V6ZM18,10.25A1.25,1.25,0,1,1,19.25,9,1.25,1.25,0,0,1,18,10.25ZM16.75,6V5a1.25,1.25,0,0,1,2.5,0V6Z" fill="#c00"></path><path data-name="specifier" d="M23,16a1,1,0,0,1-.92,1L21,21H15l-1.08-4a1,1,0,0,1-.63-.28,1,1,0,1,1,.76.28L16.5,18.5l1.44-2a1,1,0,1,1,.12,0l1.44,2L22,17A1,1,0,0,1,21,16a1,1,0,0,1,2,0" fill="#f80"></path><path d="M10,12a4.09,4.09,0,0,0,1-.14V9.72a2,2,0,1,1,0-3.44V4.14A4.09,4.09,0,0,0,10,4a4,4,0,0,0,0,8Zm1,8H2V18c0-2.66,5.33-4,8-4,.3,0,.64,0,1,.05v2c-.34,0-.67-.05-1-.05-2.69,0-5.78,1.28-6,2h7Z" fill="#bbb"></path>
  </symbol><symbol  viewBox='0 0 24 24' id='status-user-super-disabled'>
    <path d="M12.66,20H3V18c0-2.66,5.33-4,8-4l.75,0A3,3,0,0,0,11,16h0c-2.69,0-5.78,1.28-6,2h6.78l.1.12a2.67,2.67,0,0,0,.36.31ZM11,12a4,4,0,1,1,4-4,4,4,0,0,1-4,4m0-6a2,2,0,1,0,2,2,2,2,0,0,0-2-2" fill="#bbb"></path><path d="M23,16a1,1,0,0,0-2,0A1,1,0,0,0,22,17L19.5,18.5l-1.44-2a1,1,0,1,0-.12,0l-1.44,2L14.05,17a1,1,0,1,0-.76-.28,1,1,0,0,0,.63.28L15,21h6l1.08-4A1,1,0,0,0,23,16" fill="#f80"></path>
  </symbol><symbol  viewBox='0 0 24 24' id='status-user-super-enabled-locked'>
    <path d="M23,16a1,1,0,0,1-.92,1L21,21H15l-1.08-4a1,1,0,0,1-.63-.28,1,1,0,1,1,.76.28L16.5,18.5l1.44-2a1,1,0,1,1,.12,0l1.44,2L22,17A1,1,0,0,1,21,16a1,1,0,0,1,2,0M10,12a4.09,4.09,0,0,0,1-.14V9.72a2,2,0,1,1,0-3.44V4.14A4.09,4.09,0,0,0,10,4a4,4,0,0,0,0,8Zm1,8H2V18c0-2.66,5.33-4,8-4,.3,0,.64,0,1,.05v2c-.34,0-.67-.05-1-.05-2.69,0-5.78,1.28-6,2h7Z" fill="#f80"></path><path d="M20.75,6V5a2.75,2.75,0,0,0-5.5,0V6H14v6h8V6ZM18,10.25A1.25,1.25,0,1,1,19.25,9,1.25,1.25,0,0,1,18,10.25ZM16.75,6V5a1.25,1.25,0,0,1,2.5,0V6Z" fill="#c00"></path>
  </symbol><symbol  viewBox='0 0 24 24' id='status-user-super-enabled'>
    <path d="M12.66,20H3V18c0-2.66,5.33-4,8-4l.75,0A3,3,0,0,0,11,16h0c-2.69,0-5.78,1.28-6,2h6.78l.1.12a2.67,2.67,0,0,0,.36.31ZM11,12a4,4,0,1,1,4-4,4,4,0,0,1-4,4m0-6a2,2,0,1,0,2,2,2,2,0,0,0-2-2M23,16a1,1,0,0,0-2,0A1,1,0,0,0,22,17L19.5,18.5l-1.44-2a1,1,0,1,0-.12,0l-1.44,2L14.05,17a1,1,0,1,0-.76-.28,1,1,0,0,0,.63.28L15,21h6l1.08-4A1,1,0,0,0,23,16" fill="#f80"></path>
  </symbol><symbol  viewBox='0 0 24 24' id='status-user-unprovisioning'>
    <path d="M7,8a4,4,0,0,1,4-4,4.09,4.09,0,0,1,1,.14V6.28a2,2,0,1,0,0,3.44v2.14A4.09,4.09,0,0,1,11,12,4,4,0,0,1,7,8Zm5,10H5c.22-.72,3.31-2,6-2,.33,0,.66,0,1,.05v-2c-.36,0-.7-.05-1-.05-2.67,0-8,1.34-8,4v2h9Zm8-3.33-2,2V4H16V16.67l-2-2V17.5l3,3,3-3Z" fill="#c00"></path>
  </symbol><symbol  viewBox='0 0 24 24' id='window-close'>
    <path d="M18.36,7.05,17,5.64l-4.95,5L7.05,5.64,5.64,7.05l5,5L5.64,17l1.41,1.41,5-4.95L17,18.36,18.36,17,13.41,12Z"></path>
  </symbol><symbol  viewBox='0 0 24 24' id='window-float'>
    <path d="M19,4H9A1,1,0,0,0,8,5V8H5A1,1,0,0,0,4,9V19a1,1,0,0,0,1,1H15a1,1,0,0,0,1-1V16h3a1,1,0,0,0,1-1V5A1,1,0,0,0,19,4ZM14,18H6V10h8Zm4-4H16V9a1,1,0,0,0-1-1H10V6h8Z"></path>
  </symbol><symbol  viewBox='0 0 24 24' id='window-help'>
    <path d="M12,3a9,9,0,1,0,9,9A9,9,0,0,0,12,3Zm1,15H11V16h2Zm1.76-6.83a3,3,0,0,1-.63.94l-1,1a.36.36,0,0,0-.09.23V14H11v-.62a2.36,2.36,0,0,1,.68-1.65l1-1a1.08,1.08,0,0,0,.22-.32A1,1,0,0,0,13,10a1,1,0,0,0-.08-.39,1,1,0,0,0-.21-.32,1.11,1.11,0,0,0-.32-.21,1,1,0,0,0-.78,0,1.11,1.11,0,0,0-.32.21,1,1,0,0,0-.21.32A1,1,0,0,0,11,10a1,1,0,0,0,.08.39l-1.84.78A3,3,0,0,1,9,10a2.92,2.92,0,0,1,.24-1.17,2.8,2.8,0,0,1,.64-1,3,3,0,0,1,.95-.65,3.06,3.06,0,0,1,2.34,0,3,3,0,0,1,.95.65,2.8,2.8,0,0,1,.64,1A2.92,2.92,0,0,1,15,10,3,3,0,0,1,14.76,11.17Z"></path>
  </symbol><symbol  viewBox='0 0 24 24' id='window-maximise'>
    <path d="M18,5H6A1,1,0,0,0,5,6V18a1,1,0,0,0,1,1H18a1,1,0,0,0,1-1V6A1,1,0,0,0,18,5ZM17,17H7V9H17Z"></path>
  </symbol><symbol  viewBox='0 0 24 24' id='window-minimise'>
    <path d="M5 11H19V13H5z"></path>
  </symbol></svg>