<svg xmlns="http://www.w3.org/2000/svg" xmlns:xlink="http://www.w3.org/1999/xlink" style="width: 0; height: 0; visibility: hidden; position: absolute;" aria-hidden="true"><symbol  viewBox='0 0 24 24' id='action-add-comment'>
    <path d="M19,4H5A4,4,0,0,0,1,8V23l6-3H19a4,4,0,0,0,4-4V8A4,4,0,0,0,19,4Zm2,12a2,2,0,0,1-2,2H6.5l-.4.2L3,19.8V8A2,2,0,0,1,5,6H19a2,2,0,0,1,2,2Zm-8-5h3v2H13v3H11V13H8V11h3V8h2Z"></path>
  </symbol><symbol  viewBox='0 0 24 24' id='action-add-folder'>
    <path d="M20,6H12L10,4H4A2,2,0,0,0,2,6V18a2,2,0,0,0,2,2H20a2,2,0,0,0,2-2V8A2,2,0,0,0,20,6Zm0,12H4V6H9.2l2,2H20Zm-8-4h2v2h2V14h2V12H16V10H14v2H12Z"></path>
  </symbol><symbol  viewBox='0 0 24 24' id='action-add'>
    <path d="M12,3a9,9,0,1,0,9,9A9,9,0,0,0,12,3Zm5,10H13v4H11V13H7V11h4V7h2v4h4Z"></path>
  </symbol><symbol  viewBox='0 0 24 24' id='action-archive'>
    <path d="M20.5,5.7,19.2,4A1.7,1.7,0,0,0,18,3.5H6A1.7,1.7,0,0,0,4.8,4L3.5,5.7A1.9,1.9,0,0,0,3,7V19.5a2,2,0,0,0,2,2H19a2,2,0,0,0,2-2V7A1.9,1.9,0,0,0,20.5,5.7ZM6.2,5.5H17.8l.8.9H5.4ZM5,19.5V8.5H19v11Zm8.4-9H10.5v3H8l4,4,4-4H13.4Z"></path>
  </symbol><symbol  viewBox='0 0 24 24' id='action-break-glass'>
    <path d="M.7,9.2,2.8,7.1l4.3,4.2L4.9,13.4ZM13.4,2.1,7.1,4.2,4.2,7.1,7.1,9.9l.7-.7,4.9,4.9v1.4l6.4,6.4,2.8-2.8-6.4-6.4H14.1L9.2,7.8l4.9-5Z"></path>
  </symbol><symbol  viewBox='0 0 24 24' id='action-bulk-import'>
    <path d="M3,6V4H21V6H3ZM16.2,16.5V20h1.6V16.5h2.7l-3.6-3.6-3.5,3.6Zm-5-5H8.5L12,8l3.5,3.5H12.8V20H11.2Zm-5,5H3.5l3.6-3.6,3.5,3.6H7.8V20H6.2Z"></path>
  </symbol><symbol  viewBox='0 0 24 24' id='action-change-password'>
    <path d="M16.9,10.1l1,1-7,6.9H10v-.9l6.9-7m3.6-6a1.1,1.1,0,0,0-.7.3L18,6.2,21.8,10l1.8-1.8a1,1,0,0,0,0-1.4L21.2,4.4A.8.8,0,0,0,20.5,4.1ZM16.9,7.3,8,16.2V20h3.8l8.9-8.9ZM1,20H5V18H1ZM1,4V6H14l2-2Zm7.5,6.9a1,1,0,0,0-1.1-.6H7.1l-1.3,1a.9.9,0,0,0-.5-.3l.5-1.6a.9.9,0,0,0-.5-1.1H5a.8.8,0,0,0-.9.8c0,.1.1.2.1.3l.5,1.6a.9.9,0,0,0-.5.3l-1.3-1a1,1,0,0,0-1.2.2l-.2.3h0A1,1,0,0,0,2.1,12H4a1.4,1.4,0,0,0,.2.6l-1.3,1a.8.8,0,0,0-.2,1.2h.2a.8.8,0,0,0,1.2-.2v-.2l.5-1.6h.6l.5,1.6a.9.9,0,0,0,1.1.6l.2-.2h0a.8.8,0,0,0,.2-1.2H7.1l-1.3-1A1.4,1.4,0,0,0,6,12H7.6a.9.9,0,0,0,.9-.9ZM23,18H18l-2,2h7Z"></path>
  </symbol><symbol  viewBox='0 0 24 24' id='action-change-ticket'>
    <path d="M9,17H7V15H9Zm0-6H7v2H9ZM9,7H7V9H9ZM7,7V5H0v5a2,2,0,0,1,2,2,2,2,0,0,1-2,2v5H7V17H2V15.4A3.8,3.8,0,0,0,4,12,3.8,3.8,0,0,0,2,8.6V7ZM9,5V7H22V8.6A3.8,3.8,0,0,0,20,12a3.8,3.8,0,0,0,2,3.4V17H9v2H24V14a2,2,0,0,1,0-4V5Z"></path>
  </symbol><symbol  viewBox='0 0 24 24' id='action-clone-user'>
    <path d="M5,4A2,2,0,1,1,3,6,2,2,0,0,1,5,4ZM5,9c-1.3,0-4,.7-4,2.2V12H9v-.7C9,9.8,6.3,9,5,9ZM17.1,5,15.8,6.5a2.1,2.1,0,0,1,.7,1.1l1.9-.4A3.6,3.6,0,0,0,17.1,5Zm-.6,3.4a1.9,1.9,0,0,1-.7,1.1L17.2,11a4,4,0,0,0,1.2-2.3ZM11.8,5a4,4,0,0,0-1.2,2.3l1.9.3a1.9,1.9,0,0,1,.7-1.1Zm3.4,4.9H13.9l-.6,1.9,1.2.2,1.3-.2ZM12.5,8.4l-1.9.5a4.2,4.2,0,0,0,1.3,2.2l1.3-1.6A2.1,2.1,0,0,1,12.5,8.4Zm2-4.4-1.3.2.6,1.9h1.3l.6-1.9ZM23,21H21V19h2ZM6,19H8v2H6Zm5,0H9v2h2Zm3,0H12v2h2Zm3,0H15v2h2Zm3,0H18v2h2Zm-6.2-5h-.5l-1.4.2.3,1.9H14V14ZM6,18H8a.9.9,0,0,1,.6-.8h0l-.9-1.6A3,3,0,0,0,6,18Zm2.7-2.9.7,1.7h0l.8-.3h0l1-.2-.4-1.9Zm12.6.5-.9,1.6h0a.9.9,0,0,1,.6.8h2A3,3,0,0,0,21.3,15.6Zm-3.1-1.2-.4,1.9,1,.2h0l.8.3h0l.7-1.7ZM15.7,14H15v2h1.8l.3-1.9Z"></path>
  </symbol><symbol  viewBox='0 0 24 24' id='action-collapse'>
    <path d="M12 8L17.7 13.7 16.3 15.1 12 10.8 7.7 15.1 6.3 13.7 12 8z"></path>
  </symbol><symbol  viewBox='0 0 24 24' id='action-copy-settings'>
    <path d="M16.6,13.6l1.2-1.1L16.9,11l-1.5.5-.7-.4-.3-1.6H12.6l-.3,1.6-.7.4L10.1,11l-.9,1.5,1.2,1.1v.8L9.2,15.5l.9,1.5,1.5-.5.7.4.3,1.6h1.8l.3-1.6.7-.4,1.5.5.9-1.5-1.2-1.1Zm-1.7.4a1.5,1.5,0,0,1-1.4,1.4A1.5,1.5,0,0,1,12.1,14a1.5,1.5,0,0,1,1.4-1.4A1.5,1.5,0,0,1,14.9,14ZM16,1H4A2,2,0,0,0,2,3V17H4V3H16Zm3,4H8A2,2,0,0,0,6,7V21a2,2,0,0,0,2,2H19a2,2,0,0,0,2-2V7A2,2,0,0,0,19,5Zm0,16H8V7H19Z"></path>
  </symbol><symbol  viewBox='0 0 24 24' id='action-copy-to-client'>
    <path d="M19,2H14.8A3,3,0,0,0,9.2,2H5A2,2,0,0,0,3,4V5.2A6.3,6.3,0,0,0,5,8V4H7V6H17V4h2V20H5V15.7a8.2,8.2,0,0,1-2-1.2V20a2,2,0,0,0,2,2H19a2,2,0,0,0,2-2V4A2,2,0,0,0,19,2ZM12,4a1,1,0,1,1,1-1A1,1,0,0,1,12,4ZM9.5,17.5v-3a9,9,0,0,1-9-9C.5,5,.6,4.5.6,4a9,9,0,0,0,8.9,7.5v-3L15,13Z"></path>
  </symbol><symbol  viewBox='0 0 24 24' id='action-copy-to-guest'>
    <path d="M20.2,14.6l-1.2.9V20H5V4H7V6h7.4A7.9,7.9,0,0,1,17,5.2V2H14.8A3,3,0,0,0,9.2,2H5A2,2,0,0,0,3,4V20a2,2,0,0,0,2,2H19a2,2,0,0,0,2-2V14ZM12,2a1,1,0,1,1-1,1A1,1,0,0,1,12,2Zm7,11V10a9,9,0,0,0-8.9,7.5c0-.5-.1-1-.1-1.5a9,9,0,0,1,9-9V4l5,4.5Z"></path>
  </symbol><symbol  viewBox='0 0 24 24' id='action-copy'>
    <path d="M16,1H4A2,2,0,0,0,2,3V17H4V3H16ZM15,5H8A2,2,0,0,0,6,7V21a2,2,0,0,0,2,2H19a2,2,0,0,0,2-2V11ZM8,21V7h6v5h5v9Z"></path>
  </symbol><symbol  viewBox='0 0 24 24' id='action-create-techout'>
    <path d="M18,4V20H6V4H18m0-2H6A2,2,0,0,0,4,4V20a2,2,0,0,0,2,2H18a2,2,0,0,0,2-2V4a2,2,0,0,0-2-2ZM13,5H11V7h2Zm0,3H11v2h2Zm1.8,6.9L13,11H11L9.2,14.9A3.6,3.6,0,0,0,9,16a3,3,0,0,0,6,0A3.6,3.6,0,0,0,14.8,14.9ZM12,17.5A1.5,1.5,0,1,1,13.5,16,1.5,1.5,0,0,1,12,17.5Z"></path>
  </symbol><symbol  viewBox='0 0 24 24' id='action-ctrl-alt-del'>
    <path d="M20,15v5H15V15h5m1-2H14a.9.9,0,0,0-1,1v7a.9.9,0,0,0,1,1h7a.9.9,0,0,0,1-1V14a.9.9,0,0,0-1-1ZM14.5,4V9h-5V4h5m1-2h-7a.9.9,0,0,0-1,1v7a.9.9,0,0,0,1,1h7a.9.9,0,0,0,1-1V3a.9.9,0,0,0-1-1ZM9,15v5H4V15H9m1-2H3a.9.9,0,0,0-1,1v7a.9.9,0,0,0,1,1h7a.9.9,0,0,0,1-1V14a.9.9,0,0,0-1-1Z"></path>
  </symbol><symbol  viewBox='0 0 24 24' id='action-delete'>
    <path d="M6,19a2,2,0,0,0,2,2h8a2,2,0,0,0,2-2V7H6ZM8,9h8V19H8Zm7.5-5-1-1h-5l-1,1H5V6H19V4Z"></path>
  </symbol><symbol  viewBox='0 0 24 24' id='action-download-csv'>
    <path d="M6.2,16.9a2.2,2.2,0,0,1-.8,1.5,3.5,3.5,0,0,1-1.8.5,2.6,2.6,0,0,1-2-.7,3.3,3.3,0,0,1-.7-2.1v-.2a3.3,3.3,0,0,1,.3-1.5,3.2,3.2,0,0,1,1-1,2.5,2.5,0,0,1,1.3-.3,3.6,3.6,0,0,1,1.9.5,2.7,2.7,0,0,1,.8,1.6H4.5a.8.8,0,0,0-.2-.6,1.1,1.1,0,0,0-.8-.3c-.6,0-.9.5-.9,1.4v.4c0,.6,0,1,.2,1.2a.9.9,0,0,0,.8.4c.6,0,.9-.3.9-.8Zm3.9.4a.5.5,0,0,0-.2-.4l-.8-.3-.9-.3L7.5,16c-.1-.2-.3-.3-.3-.5a1.4,1.4,0,0,1-.2-.7,1.6,1.6,0,0,1,.3-.9,1.6,1.6,0,0,1,.8-.6l1.2-.2a2.3,2.3,0,0,1,1.7.5,1.4,1.4,0,0,1,.7,1.3H10c0-.2,0-.4-.2-.5l-.5-.2-.5.2-.2.3a.5.5,0,0,0,.2.4l.7.2a4.6,4.6,0,0,1,1.7.7,1.7,1.7,0,0,1,.5,1.2,1.5,1.5,0,0,1-.6,1.3,2.9,2.9,0,0,1-1.7.4l-1.3-.2a2.2,2.2,0,0,1-.9-.7,1.7,1.7,0,0,1-.3-1H8.5a.8.8,0,0,0,.2.6l.8.2.5-.2C10.1,17.6,10.1,17.4,10.1,17.3Zm4.9,0h0l1.2-4.1H18l-2.1,5.6H14.1l-2-5.6h1.7Z"></path><path d="M21,2H13.4a.9.9,0,0,0-.7.3L6.3,8.7a.9.9,0,0,0-.3.7V11h8a.9.9,0,0,0,1-1V4h5V21H6v1a.9.9,0,0,0,1,1H21a.9.9,0,0,0,1-1V3A.9.9,0,0,0,21,2ZM13,9H8.8L13,4.8Z"></path>
  </symbol><symbol  viewBox='0 0 24 24' id='action-download'>
    <path d="M6,10h4V4h4v6h4l-6,6Zm13,8H3v2H21V18Z"></path>
  </symbol><symbol  viewBox='0 0 24 24' id='action-edit'>
    <path d="M14.1,9l.9.9L5.9,19H5v-.9L14.1,9m3.6-6a.8.8,0,0,0-.7.3L15.1,5.1l3.8,3.8L20.7,7a1,1,0,0,0,0-1.4L18.4,3.3A1.1,1.1,0,0,0,17.7,3ZM14.1,6.2,3,17.2V21H6.7L17.8,9.9Z"></path>
  </symbol><symbol  viewBox='0 0 24 24' id='action-expand'>
    <path d="M12 16L6.3 10.3 7.7 8.9 12 13.2 16.3 8.9 17.7 10.3 12 16z"></path>
  </symbol><symbol  viewBox='0 0 24 24' id='action-filter'>
    <path d="M7,6H17l-5,6.3ZM4.2,5.6,10,13v6a1,1,0,0,0,1,1h2a1,1,0,0,0,1-1V13l5.7-7.4A1,1,0,0,0,19,4H5A1,1,0,0,0,4.2,5.6Z"></path>
  </symbol><symbol  viewBox='0 0 24 24' id='action-hide'>
    <path d="M2,4.4,4.7,7A12.4,12.4,0,0,0,1,12a11.8,11.8,0,0,0,11,7.5,12.2,12.2,0,0,0,4.3-.8l3.4,3.4,1.5-1.4L3.4,3ZM6.1,8.5l1.8,1.7A3.9,3.9,0,0,0,7.5,12,4.5,4.5,0,0,0,12,16.5a3.9,3.9,0,0,0,1.8-.4l1,1a8.6,8.6,0,0,1-2.8.4A9.6,9.6,0,0,1,3.2,12,9.9,9.9,0,0,1,6.1,8.5ZM10,6.7,8.4,5.1A10.5,10.5,0,0,1,12,4.5,11.8,11.8,0,0,1,23,12a11.2,11.2,0,0,1-3.2,4.5l-1.4-1.4A9.2,9.2,0,0,0,20.8,12,9.6,9.6,0,0,0,12,6.5Zm2,.8A4.5,4.5,0,0,1,16.5,12a4.3,4.3,0,0,1-.2,1.1L10.9,7.6Z"></path>
  </symbol><symbol  viewBox='0 0 24 24' id='action-launch-admin-ui'>
    <path d="M21.9,6.8,20.3,5.1,17.4,8A1,1,0,0,1,16,6.6l2.9-2.9L17.2,2.1a6.1,6.1,0,0,0-5.4,1.6,5.8,5.8,0,0,0-1.4,6.2L3.7,16.1A2.7,2.7,0,0,0,4,20a2.7,2.7,0,0,0,3.9.3l6.2-6.7a5.8,5.8,0,0,0,6.2-1.4A5.8,5.8,0,0,0,21.9,6.8Zm-6.2,5.1H14.2l-.6-.3L6.5,18.9c-.1.2-.6.1-1.1-.3s-.5-1-.4-1l7.8-7.3-.3-.5c0-.1-.1-.1-.1-.2s-.1-.2-.1-.4a.4.4,0,0,1-.1-.3c-.1,0-.1-.1-.1-.2V8.3h0a3.8,3.8,0,0,1,1.1-3.3A3.6,3.6,0,0,1,15.8,4L14.6,5.1a3,3,0,0,0,4.3,4.3L20,8.2a3.6,3.6,0,0,1-1.1,2.6A3.7,3.7,0,0,1,15.7,11.9Z"></path>
  </symbol><symbol  viewBox='0 0 24 24' id='action-lock'>
    <path d="M19.2,7.9h-2V6.1A5.2,5.2,0,0,0,12.7.9a5.1,5.1,0,0,0-5.5,5v2h-2a1,1,0,0,0-1,1v12a.9.9,0,0,0,1,1h14a1,1,0,0,0,1-1V8.9A1.1,1.1,0,0,0,19.2,7.9Zm-10-2a3,3,0,0,1,3.1-3,3.2,3.2,0,0,1,2.9,3.2V7.9h-6Zm9,14H6.2V9.9h12Zm-6-3a2,2,0,1,0-2-2A2,2,0,0,0,12.2,16.9Z"></path>
  </symbol><symbol  viewBox='0 0 24 24' id='action-log-out'>
    <path d="M19,6H6V18H19v2H4V4H19Zm0,2.6H16.1L18.5,11H10v2h8.5l-2.4,2.4H19L22.4,12Z"></path>
  </symbol><symbol  viewBox='0 0 24 24' id='action-more'>
    <path d="M12,3a9,9,0,1,0,9,9A9,9,0,0,0,12,3ZM10.7,16.7,9.3,15.3,12.6,12,9.3,8.7l1.4-1.4L15.4,12Z"></path>
  </symbol><symbol  viewBox='0 0 24 24' id='action-open-external-resource'>
    <path d="M20,11.6V20H4V4h8.4l-2,2H6V18H18V13.6ZM16.2,3l-2,2h3.4l-6.3,6.3,1.4,1.4L19,6.4V9.8l2-2V3Z"></path>
  </symbol><symbol  viewBox='0 0 24 24' id='action-open-settings'>
    <path d="M14.6,22H9.4l-.6-2.9-1.4-.8-2.8,1L2,14.7l2.2-1.9V11.2L2,9.3,4.6,4.7l2.8,1,1.4-.8L9.4,2h5.2l.6,2.9,1.4.8,2.8-1L22,9.3l-2.2,1.9v1.6L22,14.7l-2.6,4.6-2.8-1-1.4.8ZM11,20h2l.4-2.2,2.9-1.7,2.1.7,1-1.6-1.6-1.5V10.3l1.6-1.5-1-1.6-2.1.7L13.4,6.2,13,4H11l-.4,2.2L7.7,7.9,5.6,7.2l-1,1.6,1.6,1.5v3.4L4.6,15.2l1,1.6,2.1-.7,2.9,1.7Zm4-8a3,3,0,1,0-3,3A2.9,2.9,0,0,0,15,12Z"></path>
  </symbol><symbol  viewBox='0 0 24 24' id='action-print'>
    <path d="M19,8H18V3H6V8H5a2.9,2.9,0,0,0-3,3v6H6v4H18V17h4V11A2.9,2.9,0,0,0,19,8ZM8,5h8V8H8Zm8,12v2H8V15h8Zm2-2V13H6v2H4V11a.9.9,0,0,1,1-1H19a1,1,0,0,1,1,1v4Z"></path>
  </symbol><symbol  viewBox='0 0 24 24' id='action-prune'>
    <path d="M17,9v1H7v-1c0-1.1,.9-2,2-2h2V2.5c0-.6,.5-1,1-1s1,.4,1,1V7h2c1.1,0,2,.9,2,2Zm4.7,10.8l-1.1,.5c-2.8,1.3-5.7,1.9-8.6,1.9s-5.8-.6-8.6-1.9l-1.1-.5,.6-1c.5-.8,1-1.5,1.5-2.2,1.2-1.7,2.2-3.1,2.5-4.7v-.8h10.1v.8c.3,1.6,1.4,3,2.6,4.7,.5,.7,1,1.4,1.5,2.2l.6,1Zm-13-6.8c-.5,1.7-1.5,3.1-2.6,4.7-.3,.4-.5,.8-.8,1.1,1,.4,2,.6,2.9,.8,.9-1.5,1.6-3,2.1-4.3,0,1.4,.2,2.9,.4,4.6,.9,0,1.8,0,2.7,0,.2-1.8,.3-3.3,.4-4.6,.5,1.3,1.2,2.7,2.1,4.3,1-.2,2-.5,2.9-.8-.3-.4-.5-.8-.8-1.1-1.1-1.6-2.2-3-2.6-4.7h-6.6Z"></path><path d="M17,9v1H7v-1c0-1.1,.9-2,2-2h2V2.5c0-.6,.5-1,1-1s1,.4,1,1V7h2c1.1,0,2,.9,2,2Zm4.7,10.8l-1.1,.5c-2.8,1.3-5.7,1.9-8.6,1.9s-5.8-.6-8.6-1.9l-1.1-.5,.6-1c.5-.8,1-1.5,1.5-2.2,1.2-1.7,2.2-3.1,2.5-4.7v-.8h10.1v.8c.3,1.6,1.4,3,2.6,4.7,.5,.7,1,1.4,1.5,2.2l.6,1Zm-13-6.8c-.5,1.7-1.5,3.1-2.6,4.7-.3,.4-.5,.8-.8,1.1,1,.4,2,.6,2.9,.8,.9-1.5,1.6-3,2.1-4.3,0,1.4,.2,2.9,.4,4.6,.9,0,1.8,0,2.7,0,.2-1.8,.3-3.3,.4-4.6,.5,1.3,1.2,2.7,2.1,4.3,1-.2,2-.5,2.9-.8-.3-.4-.5-.8-.8-1.1-1.1-1.6-2.2-3-2.6-4.7h-6.6Z"></path><g><path fill="none" stroke="#000" stroke-miterlimit="10" stroke-width=".5" d="M-444 -12H36V468H-444z"></path></g>
  </symbol><symbol  viewBox='0 0 24 24' id='action-refresh'>
    <path d="M20,4v6H14l2.2-2.2A5.6,5.6,0,0,0,12,6a6,6,0,0,0-5.8,4.5H4.1A8.1,8.1,0,0,1,12,4a7.6,7.6,0,0,1,5.6,2.4ZM12,18a5.6,5.6,0,0,1-4.2-1.8L10,14H4v6l2.4-2.4A7.6,7.6,0,0,0,12,20a8.1,8.1,0,0,0,7.9-6.5H17.8A6,6,0,0,1,12,18"></path>
  </symbol><symbol  viewBox='0 0 24 24' id='action-remove-force'>
    <path fill="#f80" d="M22 16L20.7 17.3 14 24 17.2 17.3 13.7 17.3 16 12 21.5 12 18 16 22 16z"></path><path d="M14,12H7V10H20.9a9,9,0,1,0-10.4,9.9Z"></path>
  </symbol><symbol  viewBox='0 0 24 24' id='action-remove'>
    <path d="M17,13H7V11H17ZM12,3a9,9,0,1,0,9,9A9,9,0,0,0,12,3Z"></path>
  </symbol><symbol  viewBox='0 0 24 24' id='action-reset'>
    <path d="M16.4,5.3a8.1,8.1,0,0,0-10.1,1L4,5v7l6.1-3.5L8.2,7.4A6,6,0,0,1,15.3,7,6,6,0,0,1,8.7,17a5.9,5.9,0,0,1-2.3-2.9l-1.7,1a7.8,7.8,0,0,0,2.9,3.6A8,8,0,0,0,16.4,5.3Z"></path>
  </symbol><symbol  viewBox='0 0 24 24' id='action-revert'>
    <path d="M18.7,16.4A8,8,0,0,1,7.6,18.7a7.8,7.8,0,0,1-2.9-3.6l1.7-1A5.9,5.9,0,0,0,8.7,17,6,6,0,0,0,15.3,7a6,6,0,0,0-7.1.4l1.9,1.1L4,12V5L6.3,6.3a8.1,8.1,0,0,1,10.1-1A8,8,0,0,1,18.7,16.4Zm-3-1.7-2.9-3V8H11.2v4.3l3.5,3.4Z"></path>
  </symbol><symbol  viewBox='0 0 24 24' id='action-save'>
    <path d="M17.3,3.3a.9.9,0,0,0-.7-.3H4A.9.9,0,0,0,3,4V20a.9.9,0,0,0,1,1H20a.9.9,0,0,0,1-1V7.4a.9.9,0,0,0-.3-.7ZM19,19H5V5H16.2L19,7.8ZM6,6h9v4H6Zm9,9a3,3,0,1,1-3-3A2.9,2.9,0,0,1,15,15Z"></path>
  </symbol><symbol  viewBox='0 0 24 24' id='action-screenshot'>
    <path d="M5,17H3V15H5Zm0,2H3v2H5Zm0-8H3v2H5ZM21,3H19V5h2Zm0,4H19V9h2ZM5,7H3V9H5ZM17,3H15V5h2ZM13,3H11V5h2ZM9,3H7V5H9ZM5,3H3V5H5ZM24,22V14.7A1.8,1.8,0,0,0,22.3,13H20.4l-2-2H12.6l-2,2H8.7A1.8,1.8,0,0,0,7,14.7V22a2,2,0,0,0,2,2H22A2,2,0,0,0,24,22ZM9,15h2.4l2-2h4.2l2,2H22v7H9Zm6.5,0a3,3,0,1,0,3,3A2.9,2.9,0,0,0,15.5,15Z"></path>
  </symbol><symbol  viewBox='0 0 24 24' id='action-search'>
    <path d="M15.5,14h-.8l-.3-.3A6.3,6.3,0,0,0,16,9.5,6.5,6.5,0,1,0,9.5,16a6.3,6.3,0,0,0,4.2-1.6l.3.3v.8l5,5L20.5,19Zm-6,0A4.5,4.5,0,1,1,14,9.5,4.5,4.5,0,0,1,9.5,14"></path>
  </symbol><symbol  viewBox='0 0 24 24' id='action-select-all'>
    <path d="M3,13H5V11H3Zm4,8H9V19H7ZM3,9H5V7H3ZM13,3H11V5h2ZM3,17H5V15H3ZM9,3H7V5H9ZM5,3H3V5H5Zm6,18h2V19H11Zm8-8h2V11H19Zm0-4h2V7H19Zm0,8h2V15H19Zm-4,4h2V19H15ZM15,5h2V3H15Zm4,0h2V3H19Zm0,16h2V19H19ZM3,21H5V19H3Zm4-4H17V7H7ZM9,9h6v6H9Z"></path>
  </symbol><symbol  viewBox='0 0 24 24' id='action-select-clear'>
    <path d="M3,13H5V11H3Zm4,8H9V19H7ZM3,9H5V7H3ZM13,3H11V5h2ZM3,17H5V15H3ZM9,3H7V5H9ZM5,3H3V5H5Zm6,18h2V19H11Zm8-8h2V11H19Zm0-4h2V7H19Zm0,8h2V15H19Zm-4,4h2V19H15ZM15,5h2V3H15Zm4,0h2V3H19Zm0,16h2V19H19ZM3,21H5V19H3ZM15.5,7.1,12,10.6,8.5,7.1,7.1,8.5,10.6,12,7.1,15.5l1.4,1.4L12,13.4l3.5,3.5,1.4-1.4L13.4,12l3.5-3.5Z"></path>
  </symbol><symbol  viewBox='0 0 24 24' id='action-set-date'>
    <path d="M17,13.8H14.5V11.2H17Zm-3.8-2.6H10.8v2.6h2.4Zm-3.7,0H7v2.6H9.5Zm7.5,4H14.5v2.6H17Zm-3.8,0H10.8v2.6h2.4Zm-3.7,0H7v2.6H9.5ZM20,4a.9.9,0,0,1,1,1V21a.9.9,0,0,1-1,1H4a.9.9,0,0,1-1-1V5A.9.9,0,0,1,4,4H6V2H8V4h8V2h2V4ZM19,9H5V20H19Z"></path>
  </symbol><symbol  viewBox='0 0 24 24' id='action-show'>
    <path d="M12,6.5A9.6,9.6,0,0,1,20.8,12,9.6,9.6,0,0,1,12,17.5,9.6,9.6,0,0,1,3.2,12,9.6,9.6,0,0,1,12,6.5m0-2A11.8,11.8,0,0,0,1,12a11.8,11.8,0,0,0,22,0A11.8,11.8,0,0,0,12,4.5Zm0,3A4.5,4.5,0,1,0,16.5,12,4.5,4.5,0,0,0,12,7.5Z"></path>
  </symbol><symbol  viewBox='0 0 24 24' id='action-terminate'>
    <path d="M14.8,16.2,12,13.4,9.2,16.2,7.8,14.8,10.6,12,7.8,9.2,9.2,7.8,12,10.6l2.8-2.8,1.4,1.4L13.4,12l2.8,2.8ZM12,3a9,9,0,1,0,9,9A9,9,0,0,0,12,3Z"></path>
  </symbol><symbol  viewBox='0 0 24 24' id='action-toggle-drawer'>
    <path d="M14,12a2,2,0,1,1-2-2A2,2,0,0,1,14,12Zm5-2a2,2,0,1,0,2,2A2,2,0,0,0,19,10ZM5,10a2,2,0,1,0,2,2A2,2,0,0,0,5,10Z"></path>
  </symbol><symbol  viewBox='0 0 24 24' id='action-toggle-menu'>
    <path d="M3,18H21V16H3Zm0-5H21V11H3ZM3,6V8H21V6Z"></path>
  </symbol><symbol  viewBox='0 0 24 24' id='action-trigger-audit'>
    <path d="M12,3a9,9,0,1,0,9,9A9,9,0,0,0,12,3ZM10,16.5v-9L16,12Z"></path>
  </symbol><symbol  viewBox='0 0 24 24' id='action-unlock'>
    <path d="M10,15a2,2,0,1,1,2,2A2,2,0,0,1,10,15ZM20,8.9V21.1a.9.9,0,0,1-.9.9H4.9a.9.9,0,0,1-.9-.9V8.9A.9.9,0,0,1,4.9,8H15V6.2A3.1,3.1,0,0,0,12.2,3a3,3,0,0,0-3,2H7.1a5.1,5.1,0,0,1,5.4-4A5.2,5.2,0,0,1,17,6.2V8h2.1A.9.9,0,0,1,20,8.9ZM18,10H6V20H18Z"></path>
  </symbol><symbol  viewBox='0 0 24 24' id='action-upload'>
    <path d="M18,14H14v6H10V14H6l6-6ZM5,6H21V4H3V6Z"></path>
  </symbol><symbol  viewBox='0 0 24 24' id='notification-failed'>
    <path d="M17.2,3H6.8L1.6,12l5.2,9H17.2l5.2-9ZM13,17H11V15h2Zm0-4H11V7h2Z"></path>
  </symbol><symbol  viewBox='0 0 24 24' id='notification-info'>
    <path d="M12,3a9,9,0,1,0,9,9A9,9,0,0,0,12,3Zm1,14H11V11h2Zm0-8H11V7h2Z"></path>
  </symbol><symbol  viewBox='0 0 24 24' id='notification-missing'>
    <path d="M12,3a9,9,0,1,0,9,9A9,9,0,0,0,12,3Zm1,15H11V16h2Zm1.8-6.8-.7.9a9.1,9.1,0,0,1-1,1,.4.4,0,0,0-.1.3V14H11v-.6a2.3,2.3,0,0,1,.7-1.7l1-1,.2-.3A.6.6,0,0,0,13,10a.6.6,0,0,0-.1-.4l-.2-.3-.3-.2h-.8l-.3.2-.2.3a.6.6,0,0,0-.1.4.6.6,0,0,0,.1.4l-1.9.8A5,5,0,0,1,9,10a5,5,0,0,1,.2-1.2l.7-.9.9-.7a3.3,3.3,0,0,1,2.4,0l.9.7.7.9A5,5,0,0,1,15,10,5,5,0,0,1,14.8,11.2Z"></path>
  </symbol><symbol  viewBox='0 0 24 24' id='notification-success'>
    <path d="M12,3a9,9,0,1,0,9,9A9,9,0,0,0,12,3Zm0,12.2-.3.2h-.8l-.3-.2L6.7,11.3,8.1,9.9l3.2,3.2,4.6-4.6,1.4,1.4Z"></path>
  </symbol><symbol  viewBox='0 0 24 24' id='notification-warning'>
    <path d="M22.1,19.5l-9.2-16a1,1,0,0,0-1.8,0l-9.2,16A1,1,0,0,0,2.7,21H21.3A1,1,0,0,0,22.1,19.5ZM13,18H11V16h2Zm0-4H11V9h2Z"></path>
  </symbol><symbol  viewBox='0 0 24 24' id='object-access'>
    <path d="M7,5a7,7,0,1,0,6.3,10H16v4h6V15h2V9H13.3A7,7,0,0,0,7,5Zm15,8H20v4H18V13H11.9l-.2.7A5,5,0,0,1,7,17,5,5,0,0,1,7,7a5,5,0,0,1,4.7,3.3l.2.7H22ZM7,8a2,2,0,1,1-2,2A2,2,0,0,1,7,8ZM3.6,14.1A6.5,6.5,0,0,1,7,13a6.5,6.5,0,0,1,3.4,1.1A4.1,4.1,0,0,1,7,16,4.1,4.1,0,0,1,3.6,14.1Zm0,0A6.5,6.5,0,0,1,7,13a6.5,6.5,0,0,1,3.4,1.1A4.1,4.1,0,0,1,7,16,4.1,4.1,0,0,1,3.6,14.1Z"></path><path fill="none" stroke="#000" stroke-miterlimit="10" stroke-width=".5" d="M-12 -60H468V420H-12z"></path>
  </symbol><symbol  viewBox='0 0 24 24' id='object-account-filled'>
    <path d="M12,14c-2.7,0-8,1.3-8,4v2H20V18c0-2.7-5.3-4-8-4m0-2A4,4,0,1,0,8,8a4,4,0,0,0,4,4"></path>
  </symbol><symbol  viewBox='0 0 24 24' id='object-account'>
    <path d="M12,14c-2.7,0-8,1.3-8,4v2H20V18c0-2.7-5.3-4-8-4M6,18c.2-.7,3.3-2,6-2s5.8,1.3,6,2Zm6-6A4,4,0,1,0,8,8a4,4,0,0,0,4,4m0-6a2,2,0,1,1-2,2,2,2,0,0,1,2-2"></path>
  </symbol><symbol  viewBox='0 0 24 24' id='object-active-directory'>
    <path d="M20,11.2a2.9,2.9,0,0,0-1.8.7L13.5,6.3A2.6,2.6,0,0,0,14.8,4,2.9,2.9,0,0,0,12,1.2,2.9,2.9,0,0,0,9.2,4a2.6,2.6,0,0,0,1.3,2.3L5.8,11.9A2.9,2.9,0,0,0,4,11.2a2.8,2.8,0,0,0,0,5.6,2.7,2.7,0,0,0,2.2-1.2l3.6,2.7A3.5,3.5,0,0,0,9.2,20,2.9,2.9,0,0,0,12,22.8,2.9,2.9,0,0,0,14.8,20a3.5,3.5,0,0,0-.6-1.7l3.6-2.7A2.7,2.7,0,0,0,20,16.8a2.8,2.8,0,0,0,0-5.6Zm-13.3,3-.5-.4.4-.6,4.6-5.5v9.7Zm10.6,0-4.4,3.2V7.7l4.6,5.5.4.6Z"></path>
  </symbol><symbol  viewBox='0 0 24 24' id='object-approval'>
    <path d="M10.9,4a3.9,3.9,0,0,0-4,4,3.9,3.9,0,0,0,4,4,4,4,0,0,0,0-8Zm0,6a2,2,0,1,1,2-2A2,2,0,0,1,10.9,10Zm1,10h-9V18c0-2.7,5.3-4,8-4h1l-1.6,1.5-.5.5h0c-2.4.2-4.7,1.3-4.9,1.9h5Zm9.2-5.4-5.8,5.9L11.9,17l1.4-1.4,2,2.1,4.4-4.5Z"></path><path fill="none" stroke="#000" stroke-miterlimit="10" stroke-width=".5" d="M-60 -60H420V420H-60z"></path>
  </symbol><symbol  viewBox='0 0 24 24' id='object-certificate'>
    <path d="M13.5,20H3a.9.9,0,0,1-1-1V5A.9.9,0,0,1,3,4H21a.9.9,0,0,1,1,1v6.6a5.9,5.9,0,0,0-2-1.2V6H4V18h8.3a8.2,8.2,0,0,0,1.2,2M17.9,8H5.9V9.5h12Zm-3.6,3.2H5.9v1.6h7a7,7,0,0,1,1.4-1.6M5.9,14.5V16h6a7.7,7.7,0,0,1,.2-1.5Z"></path><path d="M21.9,16a3.9,3.9,0,0,0-4-4,4,4,0,0,0-4,4,4.2,4.2,0,0,0,1.6,3.2L14.9,24l3-2,3,2-.6-4.8A3.9,3.9,0,0,0,21.9,16Zm-4,2a2,2,0,1,1,0-4,2,2,0,0,1,0,4Z"></path>
  </symbol><symbol  viewBox='0 0 24 24' id='object-dashboard'>
    <path d="M19,5V7H15V5h4M9,5v6H5V5H9m10,8v6H15V13h4M9,17v2H5V17H9M21,3H13V9h8ZM11,3H3V13h8Zm10,8H13V21h8ZM11,15H3v6h8Z"></path>
  </symbol><symbol  viewBox='0 0 24 24' id='object-file'>
    <path d="M13.2,2H5A.9.9,0,0,0,4,3V21a.9.9,0,0,0,1,1H19a.9.9,0,0,0,1-1V8.8a2,2,0,0,0-.6-1.4L14.6,2.6A2,2,0,0,0,13.2,2Zm4,6H14V4.8ZM18,20H6V4h6v6h6ZM8,12h8v2H8Zm0,4h8v2H8Z"></path>
  </symbol><symbol  viewBox='0 0 24 24' id='object-fingerprint'>
    <path d="M17.8,4.5h-.2A11.4,11.4,0,0,0,12,3,12.2,12.2,0,0,0,6.4,4.4a.5.5,0,0,1-.6-.2c-.2-.2-.1-.5.2-.7A12.4,12.4,0,0,1,12,2a13,13,0,0,1,6,1.5c.3.2.4.5.2.7S18,4.5,17.8,4.5ZM3.5,9.7H3.2a.5.5,0,0,1-.1-.7A9.5,9.5,0,0,1,6.8,5.7a11,11,0,0,1,10.3,0,9.8,9.8,0,0,1,3.8,3.2.5.5,0,0,1-.1.7.5.5,0,0,1-.7-.1,9.7,9.7,0,0,0-3.4-3,11,11,0,0,0-9.4,0,8.9,8.9,0,0,0-3.4,3C3.8,9.7,3.7,9.7,3.5,9.7ZM9.8,21.8a.5.5,0,0,1-.4-.2,9,9,0,0,1-2-2.6,8.6,8.6,0,0,1-1.1-4.3A5.6,5.6,0,0,1,12,9.3a5.6,5.6,0,0,1,5.7,5.4.6.6,0,0,1-.5.5.5.5,0,0,1-.5-.5A4.5,4.5,0,0,0,12,10.3a4.5,4.5,0,0,0-4.7,4.4,8,8,0,0,0,1,3.8,7.9,7.9,0,0,0,1.8,2.4.5.5,0,0,1,0,.7Zm7.1-1.9a6.2,6.2,0,0,1-3.1-.8,5.5,5.5,0,0,1-2.4-4.4.5.5,0,0,1,.5-.5.5.5,0,0,1,.5.5,4.3,4.3,0,0,0,2,3.5,4.1,4.1,0,0,0,2.5.7H18c.2,0,.5.2.5.4a.4.4,0,0,1-.4.6Zm-2,2.1h-.1a8.4,8.4,0,0,1-3.7-2.1,7.4,7.4,0,0,1-2.2-5.2,3,3,0,0,1,3.1-3,2.9,2.9,0,0,1,3,3,2.1,2.1,0,0,0,2.1,1.9,2,2,0,0,0,2.1-1.9A7,7,0,0,0,12,7.8a7.4,7.4,0,0,0-6.7,4.1,7.8,7.8,0,0,0-.5,2.8,9.7,9.7,0,0,0,.6,3.6.4.4,0,0,1-.3.6.4.4,0,0,1-.6-.3,10.7,10.7,0,0,1-.7-3.9,8.8,8.8,0,0,1,.6-3.3A8.4,8.4,0,0,1,12,6.8a8,8,0,0,1,8.2,7.8,3.1,3.1,0,0,1-6.2,0,2,2,0,0,0-2-1.9,2,2,0,0,0-2.1,1.9,6,6,0,0,0,1.9,4.6A6.7,6.7,0,0,0,15,21a.6.6,0,0,1,.4.6A.5.5,0,0,1,14.9,22Z"></path>
  </symbol><symbol  viewBox='0 0 24 24' id='object-group-ad'>
    <path d="M9,4A3.5,3.5,0,0,0,5.5,7.5a3.5,3.5,0,0,0,7,0A3.5,3.5,0,0,0,9,4ZM9,9a1.5,1.5,0,1,1,1.5-1.5A1.5,1.5,0,0,1,9,9Zm6,2a4,4,0,0,1-1.5-.3,5.8,5.8,0,0,0,1-3.2,5.2,5.2,0,0,0-1-3.1A2.8,2.8,0,0,1,15,4a3.5,3.5,0,0,1,3.5,3.5A3.5,3.5,0,0,1,15,11m-3.9,8H2V16.3c0-2.4,4.7-3.5,7-3.5s4.8.6,6.2,1.9l.2.4h-.9a3.5,3.5,0,0,0-1.8.5A10.6,10.6,0,0,0,9,14.8c-2.1,0-4.6.9-5,1.5V17h7.3a4,4,0,0,0-.3,1.5A.9.9,0,0,0,11.1,19Z"></path><path d="M22.5,17a1.3,1.3,0,0,0-1,.4l-2.2-2.7h0a1.4,1.4,0,0,0,.7-1.2,1.5,1.5,0,0,0-3,0,1.4,1.4,0,0,0,.7,1.2h0l-2.2,2.7a1.3,1.3,0,0,0-1-.4,1.5,1.5,0,0,0,0,3,1.4,1.4,0,0,0,1.2-.6l1.6,1.2h0a1.6,1.6,0,0,0-.3.9,1.5,1.5,0,0,0,3,0,1.6,1.6,0,0,0-.3-.9h0l1.6-1.2a1.4,1.4,0,0,0,1.2.6,1.5,1.5,0,0,0,0-3ZM16,18.4h0l2-2.4v4Zm3,1.5v-4l2,2.4h0Z" fill="#08f"></path>
  </symbol><symbol  viewBox='0 0 24 24' id='object-group'>
    <path d="M9,4A3.5,3.5,0,0,0,5.5,7.5a3.5,3.5,0,0,0,7,0A3.5,3.5,0,0,0,9,4ZM9,9a1.5,1.5,0,1,1,1.5-1.5A1.5,1.5,0,0,1,9,9Zm7,3.8c2.5.3,6,1.4,6,3.4V19H18V16.2a4.1,4.1,0,0,0-2-3.4M15,11a2.8,2.8,0,0,1-1.5-.4,5.2,5.2,0,0,0,1-3.1,5.8,5.8,0,0,0-1-3.2A4,4,0,0,1,15,4a3.5,3.5,0,0,1,3.5,3.5A3.5,3.5,0,0,1,15,11M9,12.7c-2.3,0-7,1.2-7,3.5V19H16V16.2C16,13.9,11.3,12.7,9,12.7ZM14,17H4v-.7c.4-.6,2.9-1.6,5-1.6s4.6,1,5,1.6Z"></path>
  </symbol><symbol  viewBox='0 0 24 24' id='object-groups'>
    <path d="M4,13a2,2,0,1,0-2-2A2,2,0,0,0,4,13Zm1.1,1.1H4a6.7,6.7,0,0,0-2.8.6A2,2,0,0,0,0,16.4V18H4.5V16.4A4.6,4.6,0,0,1,5.1,14.1ZM20,13a2,2,0,1,0-2-2A2,2,0,0,0,20,13Zm4,3.4a2,2,0,0,0-1.2-1.8,6.5,6.5,0,0,0-3.9-.5,4.6,4.6,0,0,1,.6,2.3V18H24Zm-7.8-2.7a9.9,9.9,0,0,0-4.2-.9,9.9,9.9,0,0,0-4.2.9A2.8,2.8,0,0,0,6,16.4V18H18V16.4A2.8,2.8,0,0,0,16.2,13.7ZM8.1,16c.1-.2.1-.4.9-.7a8.8,8.8,0,0,1,6,0c.8.3.8.5.9.7ZM12,8a.9.9,0,0,1,1,1,1,1,0,0,1-2,0,.9.9,0,0,1,1-1m0-2A2.9,2.9,0,0,0,9,9a3,3,0,0,0,6,0A2.9,2.9,0,0,0,12,6Z"></path>
  </symbol><symbol  viewBox='0 0 24 24' id='object-keyboard'>
    <path d="M20,7V17H4V7H20m0-2H4A2,2,0,0,0,2,7V17a2,2,0,0,0,2,2H20a2,2,0,0,0,2-2V7A2,2,0,0,0,20,5ZM11,8h2v2H11Zm0,3h2v2H11ZM8,8h2v2H8Zm0,3h2v2H8ZM5,11H7v2H5ZM5,8H7v2H5Zm3,6h8v2H8Zm6-3h2v2H14Zm0-3h2v2H14Zm3,3h2v2H17Zm0-3h2v2H17Z"></path>
  </symbol><symbol  viewBox='0 0 24 24' id='object-password'>
    <path d="M0,20H24V18H0ZM0,4V6H24V4Zm15.5,6.9a.9.9,0,0,1-.9,1.1H13a1.4,1.4,0,0,1-.2.6l1.3,1a.8.8,0,0,1,0,1.3h0a.8.8,0,0,1-1.3-.4l-.5-1.6h-.6l-.5,1.6a.8.8,0,0,1-1.3.4h0a.8.8,0,0,1,0-1.3l1.3-1A1.4,1.4,0,0,1,11,12H9.4a.9.9,0,0,1-.9-1.1h0a1,1,0,0,1,1.4-.5l1.3,1a.9.9,0,0,1,.5-.3l-.5-1.6A.8.8,0,0,1,12,8.4h0a.8.8,0,0,1,.8,1.1l-.5,1.6a.9.9,0,0,1,.5.3l1.3-1a1,1,0,0,1,1.4.5Zm-8,0a1,1,0,0,0-1.4-.5l-1.3,1a.9.9,0,0,0-.5-.3l.5-1.6A.8.8,0,0,0,4,8.4H4a.8.8,0,0,0-.8,1.1l.5,1.6a.9.9,0,0,0-.5.3l-1.3-1a1,1,0,0,0-1.4.5h0A.9.9,0,0,0,1.4,12H3a1.4,1.4,0,0,0,.2.6l-1.3,1a.8.8,0,0,0,0,1.3h0a.8.8,0,0,0,1.3-.4l.5-1.6h.6l.5,1.6a.8.8,0,0,0,1.3.4h0a.8.8,0,0,0,0-1.3l-1.3-1A1.4,1.4,0,0,0,5,12H6.6a.9.9,0,0,0,.9-1.1Zm16,0h0a1,1,0,0,0-1.4-.5l-1.3,1a.9.9,0,0,0-.5-.3l.5-1.6A.8.8,0,0,0,20,8.4h0a.8.8,0,0,0-.8,1.1l.5,1.6a.9.9,0,0,0-.5.3l-1.3-1a1,1,0,0,0-1.4.5h0a.9.9,0,0,0,.9,1.1H19a1.4,1.4,0,0,0,.2.6l-1.3,1a.8.8,0,0,0,0,1.3h0a.8.8,0,0,0,1.3-.4l.5-1.6h.6l.5,1.6a.8.8,0,0,0,1.3.4h0a.8.8,0,0,0,0-1.3l-1.3-1A1.4,1.4,0,0,0,21,12h1.6A.9.9,0,0,0,23.5,10.9Z"></path>
  </symbol><symbol  viewBox='0 0 24 24' id='object-profile-privileged'>
    <path d="M12,8.2l.9,1.8.5,1,1.1.2,1.9.3L15,12.8l-.8.8.2,1.1.3,2L13,15.8l-1-.6-1,.6-1.7.9.3-2,.2-1.1L9,12.8,7.6,11.5l1.9-.3,1.1-.2.5-1L12,8.2m0-4.8L9.2,9.1,3,10l4.5,4.4L6.4,20.6l5.6-3,5.6,3-1.1-6.2L21,10l-6.2-.9L12,3.4Z"></path>
  </symbol><symbol  viewBox='0 0 24 24' id='object-profile-super'>
    <path d="M12,12.7l1.4,2,1,1.4,1.5-.8,1.9-1L16.6,18H7.4L6.2,14.3l1.9,1,1.5.8,1-1.4,1.4-2m0-7.2a2,2,0,0,0-2,2,2,2,0,0,0,1.9,2L9,13.5l-5.9-3a1.8,1.8,0,0,0,1.3-.6,1.9,1.9,0,0,0,0-2.8A2,2,0,0,0,3,6.5a2,2,0,0,0-1.4.6,1.9,1.9,0,0,0,0,2.8,2,2,0,0,0,1.2.6L6,20H18l3.2-9.5a2,2,0,0,0,1.8-2,2,2,0,0,0-4,0,2,2,0,0,0,1.9,2l-5.9,3-2.9-4a2,2,0,0,0,1.9-2,2,2,0,0,0-2-2Z"></path>
  </symbol><symbol  viewBox='0 0 24 24' id='object-profiles'>
    <path d="M7.5,8a2,2,0,1,1-2,2A2,2,0,0,1,7.5,8Zm0,5c-1.3,0-4,.7-4,2.2V16h8v-.7C11.5,13.8,8.8,13,7.5,13ZM20,9.5H13V8h7Zm0,1.7H13v1.6h7Zm0,3.3H13V16h7ZM0,4.7V19.3a.7.7,0,0,0,.7.7H23.3a.7.7,0,0,0,.7-.7V4.7a.7.7,0,0,0-.7-.7H.7A.7.7,0,0,0,0,4.7ZM22,18H2V6H22Z"></path>
  </symbol><symbol  viewBox='0 0 24 24' id='object-request'>
    <path d="M21,16l-4,4H14l3-3H4V15H17l-3-3h3ZM3,8l4,4h3L7,9H20V7H7l3-3H7Z"></path>
  </symbol><symbol  viewBox='0 0 24 24' id='object-server-map'>
    <path d="M13,14.6,24,13V9.8a1,1,0,0,0-.8-1L12.5,6.1h-1L.8,8.8a1,1,0,0,0-.8,1v4.4a1,1,0,0,0,.8,1l.9.2,9.8,2.5a1.7,1.7,0,0,0,1,0H13ZM2.4,13.8c-.5,0-.9-.6-.9-1.3s.4-1.2.9-1.2,1,.5,1,1.2S3,13.8,2.4,13.8Zm0-4.4L12,7l9.6,2.4L12,11.8Z"></path><path d="M18.5,19H15V16.3l3.5-.5Zm1,0H24V15l-4.5.7Zm0,4.4L24,24V20H19.5Zm-1-3.4H15v2.8l3.5.4Z" fill="#08f"></path>
  </symbol><symbol  viewBox='0 0 24 24' id='object-server-pam'>
    <path d="M14,17.2a3.3,3.3,0,0,1,5.5-2.3l.5.6.5-.6a3.2,3.2,0,0,1,2.3-.9l1.2.2h0V9.8a1,1,0,0,0-.8-1L12.5,6.1h-1L.8,8.8a1,1,0,0,0-.8,1v4.4a1,1,0,0,0,.8,1l.9.2,9.8,2.5a1.7,1.7,0,0,0,1,0l1.5-.4ZM2.4,13.8c-.5,0-.9-.6-.9-1.3s.4-1.2.9-1.2,1,.5,1,1.2S3,13.8,2.4,13.8Zm9.6-2L2.4,9.4,12,7l9.6,2.4Z"></path><path d="M17.2,24a.9.9,0,0,1-.8-.4,1,1,0,0,1,0-1.6l1.9-2-1.9-2A1.1,1.1,0,0,1,18,16.4L21.7,20,18,23.6a.9.9,0,0,1-.8.4m5.1-4.6L23.6,18A1.1,1.1,0,0,0,22,16.4l-1.4,1.3Zm0,1.2-1.7,1.7L22,23.6a1,1,0,0,0,1.6,0,1,1,0,0,0,0-1.6Z" fill="#08f"></path>
  </symbol><symbol  viewBox='0 0 24 24' id='object-server'>
    <path d="M11.5,6.1.8,8.8a1,1,0,0,0-.8,1v4.4a1,1,0,0,0,.8,1l.9.2,9.8,2.5a1.7,1.7,0,0,0,1,0l9.8-2.5.9-.2a1,1,0,0,0,.8-1V9.8a1,1,0,0,0-.8-1L12.5,6.1ZM2.4,13.8c-.5,0-.9-.6-.9-1.3s.4-1.2.9-1.2,1,.5,1,1.2S3,13.8,2.4,13.8Zm9.6-2L2.4,9.4,12,7l9.6,2.4Z"></path>
  </symbol><symbol  viewBox='0 0 24 24' id='object-session-recording'>
    <path d="M13.4,15.7a.8.8,0,0,0,.2,1l3.1,3.9a1.4,1.4,0,0,0,1.1.6.9.9,0,0,0,.8-.4l4-7.1c.4-.6-.2-1.4-1-1.5l-5-.8h-.2a1.2,1.2,0,0,0-.8.4ZM0,19v2H6a2,2,0,0,0,2-2V15.3l2.5,1.5H11a.9.9,0,0,0,.8-.5l3.7-6.3a1,1,0,0,0-.4-1.4L5.6,3.2H5.1a1.2,1.2,0,0,0-.9.5L.6,9.9A1,1,0,0,0,1,11.3l5,2.9V19Zm8-6H7.9L2.8,10,5.5,5.5,13.3,10l-2.7,4.5Z"></path>
  </symbol><symbol  viewBox='0 0 24 24' id='object-shared-drive'>
    <path d="M20,20a2,2,0,0,0,2-2V9a2,2,0,0,0-2-2H12L10,5H4A2,2,0,0,0,2,7V18a2,2,0,0,0,2,2ZM4,18V7H9.2l2,2H20v9Z"></path>
  </symbol><symbol  viewBox='0 0 24 24' id='object-ssh-key'>
    <path d="M10.5,10.9A.9.9,0,0,1,9.6,12H8a1.4,1.4,0,0,1-.2.6l1.3,1a.8.8,0,0,1,0,1.3h0a.8.8,0,0,1-1.3-.4l-.5-1.6H6.7l-.5,1.6a.8.8,0,0,1-1.3.4h0a.8.8,0,0,1,0-1.3l1.3-1A1.4,1.4,0,0,1,6,12H4.4a.9.9,0,0,1-.9-1.1h0a1,1,0,0,1,1.4-.5l1.3,1a.9.9,0,0,1,.5-.3L6.2,9.5A.8.8,0,0,1,7,8.4H7a.8.8,0,0,1,.8,1.1l-.5,1.6a.9.9,0,0,1,.5.3l1.3-1a1,1,0,0,1,1.4.5ZM24,9v6H22v4H16V15H13.3a7,7,0,1,1,0-6Zm-2,2H11.9l-.2-.7A5,5,0,0,0,7,7,5,5,0,0,0,7,17a5,5,0,0,0,4.7-3.3l.2-.7H18v4h2V13h2Z"></path>
  </symbol><symbol  viewBox='0 0 24 24' id='object-tasks'>
    <path d="M10.1,3.9,5,9,2,6,3.4,4.6,5,6.2,8.7,2.5ZM8.7,8.5,5,12.2,3.4,10.6,2,12l3,3,5.1-5.1Zm0,6L5,18.2,3.4,16.6,2,18l3,3,5.1-5.1ZM21,5H13L11,7H21Zm0,12H13l-2,2H21Zm0-6H13l-2,2H21Z"></path>
  </symbol><symbol  viewBox='0 0 24 24' id='object-timed-access'>
    <path d="M20.2,4H18V2H16V4H8V2H6V4H4a.9.9,0,0,0-1,.8V21a.9.9,0,0,0,.8,1H20a.9.9,0,0,0,1-.8V5A.9.9,0,0,0,20.2,4ZM19,20H5V9H19Z" fill="currentColor"></path><path d="M13 14H17V18H13z"></path>
  </symbol><symbol  viewBox='0 0 24 24' id='object-token'>
    <path d="M13.7,8A6.8,6.8,0,0,0,8,5,7,7,0,0,0,8,19a6.8,6.8,0,0,0,5.7-3H23V8ZM21,14H12.6A5.1,5.1,0,0,1,8,17,5,5,0,0,1,8,7a5.1,5.1,0,0,1,4.6,3H21Zm-9.6-3.1a.8.8,0,0,1-.8,1.1H9a.9.9,0,0,1-.3.6l1.4,1a.8.8,0,0,1,0,1.3h0a.8.8,0,0,1-1.3-.4l-.5-1.6H7.6l-.5,1.6a.8.8,0,0,1-1.3.4h0a.8.8,0,0,1,0-1.3l1.4-1A.7.7,0,0,1,7,12H5.3a.8.8,0,0,1-.8-1.1h0a.9.9,0,0,1,1.3-.5l1.4,1c.1-.1.2-.3.4-.3L7.1,9.5A.9.9,0,0,1,8,8.4H8a.9.9,0,0,1,.8,1.1l-.5,1.6c.2,0,.3.2.4.3l1.4-1a.9.9,0,0,1,1.3.5Z"></path>
  </symbol><symbol  viewBox='0 0 24 24' id='object-tool-app'>
    <path d="M13,8h5v3H13Zm0,7h5V12H13ZM7,15h5V12H7Zm5-8H6v4h6ZM24,18v2H0V18H4a2,2,0,0,1-2-2V6A2,2,0,0,1,4,4H20a2,2,0,0,1,2,2V16a2,2,0,0,1-2,2ZM4,16H20V6H4Z"></path>
  </symbol><symbol  viewBox='0 0 24 24' id='object-tool-browser'>
    <path d="M12,3a9,9,0,1,0,9,9A9,9,0,0,0,12,3Zm6,5.5H16.1A10.2,10.2,0,0,0,15,5.7,6.8,6.8,0,0,1,18,8.5ZM19,12a7.7,7.7,0,0,1-.2,1.5H16.4a7.6,7.6,0,0,0,.1-1.5,7.6,7.6,0,0,0-.1-1.5h2.4A7.7,7.7,0,0,1,19,12ZM5,12a7.7,7.7,0,0,1,.2-1.5H7.6A7.6,7.6,0,0,0,7.5,12a7.6,7.6,0,0,0,.1,1.5H5.2A7.7,7.7,0,0,1,5,12Zm4.5,0a7.6,7.6,0,0,1,.1-1.5h4.8a7.6,7.6,0,0,1,.1,1.5,7.6,7.6,0,0,1-.1,1.5H9.6A7.6,7.6,0,0,1,9.5,12ZM12,5.5c.6,0,1.5,1.1,2,3H10C10.5,6.6,11.4,5.5,12,5.5ZM9,5.7A10.2,10.2,0,0,0,7.9,8.5H6A6.8,6.8,0,0,1,9,5.7ZM6,15.5H7.9A10.2,10.2,0,0,0,9,18.3,6.8,6.8,0,0,1,6,15.5Zm6,3c-.6,0-1.5-1.1-2-3h4C13.5,17.4,12.6,18.5,12,18.5Zm3-.2a10.2,10.2,0,0,0,1.1-2.8H18A6.8,6.8,0,0,1,15,18.3Z"></path>
  </symbol><symbol  viewBox='0 0 24 24' id='object-tool-rdp'>
    <path d="M16.5,9.5v3h-9v-3h9m2-2H5.5v7h13v-7ZM20,18a2,2,0,0,0,2-2V6a2,2,0,0,0-2-2H4A2,2,0,0,0,2,6V16a2,2,0,0,0,2,2H0v2H24V18ZM4,6H20V16H4Z"></path>
  </symbol><symbol  viewBox='0 0 24 24' id='object-tool-sftp'>
    <path d="M8,20H0V18H6V6H0V4H8Zm16-2H18V6h6V4H16V20h8Zm0-9H20v2h4Zm0,4H20v2h4ZM4,9H0v2H4Zm0,4H0v2H4Zm8.2-1-3,3H12l3-3L12,9H9.2Z"></path>
  </symbol><symbol  viewBox='0 0 24 24' id='object-tool-ssh'>
    <path d="M20,18V6H4V18Zm-2-4v2H10l2-2ZM5.2,8H8l4,4L8,16H5.2l4-4Z"></path>
  </symbol><symbol  viewBox='0 0 24 24' id='object-user-privileged'>
    <path d="M13.7,20H3V18c0-1.9,2.8-3.2,5.3-3.7L10.1,16c-2.4.3-4.9,1.4-5.1,2h7.1l1.6,1.6ZM15,8a4,4,0,1,1-4-4,4,4,0,0,1,4,4M13,8a2,2,0,1,0-2,2,2,2,0,0,0,2-2"></path><path fill="#08f" d="M13.8 16.8L16.7 16.4 18 13.7 19.3 16.4 22.3 16.8 20.1 18.9 20.6 21.8 18 20.4 15.4 21.8 15.9 18.9 13.8 16.8z"></path>
  </symbol><symbol  viewBox='0 0 24 24' id='object-user-super'>
    <path d="M12.7,20H3V18c0-2.7,5.3-4,8-4h.8a3.2,3.2,0,0,0-.8,2h0c-2.7,0-5.8,1.3-6,2h6.8a.1.1,0,0,0,.1.1l.3.3ZM11,12a4,4,0,1,1,4-4,4,4,0,0,1-4,4m0-6a2,2,0,1,0,2,2,2,2,0,0,0-2-2"></path><path d="M23,16a1,1,0,0,0-2,0,1,1,0,0,0,1,1l-2.5,1.5-1.4-2a1,1,0,0,0,.9-1,1,1,0,0,0-2,0,1,1,0,0,0,.9,1l-1.4,2L14,17a.9.9,0,0,0,.7-.3,1,1,0,1,0-1.4,0,.9.9,0,0,0,.6.3L15,21h6l1.1-4a1.1,1.1,0,0,0,.9-1" fill="#f80"></path>
  </symbol><symbol  viewBox='0 0 24 24' id='object-vault'>
    <path d="M21,3H5A1,1,0,0,0,4,4V6H2v4H4v4H2v4H4v2a.9.9,0,0,0,1,1H21a.9.9,0,0,0,1-1V4A1,1,0,0,0,21,3ZM20,19H6V5H20ZM8.8,16.2a.9.9,0,0,0,.7.3,1.1,1.1,0,0,0,.7-.3l1.1-1.1a4,4,0,0,0,3.4,0l1.1,1.1a1.1,1.1,0,0,0,.7.3.9.9,0,0,0,.7-.3,1,1,0,0,0,0-1.4l-1.1-1.1a4,4,0,0,0,0-3.4l1.1-1.1a1,1,0,0,0-1.4-1.4L14.7,8.9a4,4,0,0,0-3.4,0L10.2,7.8A1,1,0,0,0,8.8,9.2l1.1,1.1a4,4,0,0,0,0,3.4L8.8,14.8A1,1,0,0,0,8.8,16.2ZM13,10a2,2,0,1,1-2,2A2,2,0,0,1,13,10Z"></path>
  </symbol><symbol  viewBox='0 0 24 24' id='status-group-disabled'>
    <path d="M9,5A3.5,3.5,0,0,0,5.5,8.5a3.5,3.5,0,0,0,7,0A3.5,3.5,0,0,0,9,5Zm0,5a1.5,1.5,0,1,1,1.5-1.5A1.5,1.5,0,0,1,9,10Zm7,3.8c2.5.3,6,1.4,6,3.4V20H18V17.2a4.1,4.1,0,0,0-2-3.4M15,12a2.8,2.8,0,0,1-1.5-.4,5.2,5.2,0,0,0,1-3.1,5.8,5.8,0,0,0-1-3.2A4,4,0,0,1,15,5a3.5,3.5,0,0,1,3.5,3.5A3.5,3.5,0,0,1,15,12M9,13.7c-2.3,0-7,1.2-7,3.5V20H16V17.2C16,14.9,11.3,13.7,9,13.7ZM14,18H4v-.7c.4-.6,2.9-1.6,5-1.6s4.6,1,5,1.6Z" fill="#bbb"></path>
  </symbol><symbol  viewBox='0 0 24 24' id='status-group-enabled'>
    <path d="M9,5A3.5,3.5,0,0,0,5.5,8.5a3.5,3.5,0,0,0,7,0A3.5,3.5,0,0,0,9,5Zm0,5a1.5,1.5,0,1,1,1.5-1.5A1.5,1.5,0,0,1,9,10Zm7,3.8c2.5.3,6,1.4,6,3.4V20H18V17.2a4.1,4.1,0,0,0-2-3.4M15,12a2.8,2.8,0,0,1-1.5-.4,5.2,5.2,0,0,0,1-3.1,5.8,5.8,0,0,0-1-3.2A4,4,0,0,1,15,5a3.5,3.5,0,0,1,3.5,3.5A3.5,3.5,0,0,1,15,12M9,13.7c-2.3,0-7,1.2-7,3.5V20H16V17.2C16,14.9,11.3,13.7,9,13.7ZM14,18H4v-.7c.4-.6,2.9-1.6,5-1.6s4.6,1,5,1.6Z" fill="#08f"></path>
  </symbol><symbol  viewBox='0 0 24 24' id='status-profile-disabled'>
    <path d="M5.5,10a2,2,0,1,1,2,2A2,2,0,0,1,5.5,10Zm6,5.2c0-1.4-2.7-2.2-4-2.2s-4,.8-4,2.2V16h8ZM24,4.8V19.2a.7.7,0,0,1-.8.8H.8a.7.7,0,0,1-.8-.8V4.8A.7.7,0,0,1,.8,4H23.2A.7.7,0,0,1,24,4.8ZM22,6H2V18H22Zm-7.3,9.7L17,13.4l2.3,2.3,1.4-1.4L18.4,12l2.3-2.3L19.3,8.3,17,10.6,14.7,8.3,13.3,9.7,15.6,12l-2.3,2.3Z" fill="#bbb"></path>
  </symbol><symbol  viewBox='0 0 24 24' id='status-profile-unprovisioning'>
    <path d="M5.5,10a2,2,0,1,1,2,2A2,2,0,0,1,5.5,10Zm6,5.2c0-1.4-2.7-2.2-4-2.2s-4,.8-4,2.2V16h8ZM24,4.8V19.2a.7.7,0,0,1-.8.8H.8a.7.7,0,0,1-.8-.8V4.8A.7.7,0,0,1,.8,4H23.2A.7.7,0,0,1,24,4.8ZM22,6H2V18H22Zm-2,7.5V10.7l-2,2V8H16v4.7l-2-2v2.8l3,3Z" fill="#c00"></path>
  </symbol><symbol  viewBox='0 0 24 24' id='status-user-privileged-disabled-locked'>
    <path fill="#08f" d="M18 13.7L19.3 16.4 22.3 16.8 20.1 18.9 20.6 21.8 18 20.4 15.4 21.8 15.9 18.9 13.8 16.8 16.7 16.4 18 13.7z"></path><path data-name="specifier" d="M20.8,6V5a2.8,2.8,0,1,0-5.6,0V6H14v6h8V6ZM18,10.2A1.2,1.2,0,0,1,16.8,9a1.2,1.2,0,1,1,2.4,0A1.2,1.2,0,0,1,18,10.2ZM16.8,6V5a1.2,1.2,0,0,1,2.4,0V6Z" fill="#c00"></path><path d="M6,8a4,4,0,0,1,4-4h1V6.3A1.7,1.7,0,0,0,10,6a2,2,0,0,0,0,4,1.7,1.7,0,0,0,1-.3v2.2H10A4,4,0,0,1,6,8Zm5,10H4c.2-.7,3.3-2,6-2h1v-2H10c-2.7,0-8,1.3-8,4v2h9Z" fill="#bbb"></path>
  </symbol><symbol  viewBox='0 0 24 24' id='status-user-privileged-disabled'>
    <path d="M13.7,20H3V18c0-1.9,2.8-3.2,5.3-3.7L10.1,16c-2.4.3-4.9,1.4-5.1,2h7.1l1.6,1.6ZM15,8a4,4,0,1,1-4-4,4,4,0,0,1,4,4M13,8a2,2,0,1,0-2,2,2,2,0,0,0,2-2" fill="#bbb"></path><path fill="#08f" d="M18 13.7L19.3 16.4 22.3 16.8 20.1 18.9 20.6 21.8 18 20.4 15.4 21.8 15.9 18.9 13.8 16.8 16.7 16.4 18 13.7z"></path>
  </symbol><symbol  viewBox='0 0 24 24' id='status-user-privileged-enabled-locked'>
    <path d="M18,13.7l1.3,2.7,2.9.4-2.1,2.1.5,2.9L18,20.4l-2.6,1.4.5-2.9-2.1-2.1,2.9-.4ZM10,12h1V9.7a1.7,1.7,0,0,1-1,.3,2,2,0,0,1,0-4,1.7,1.7,0,0,1,1,.3V4.1H10a4,4,0,0,0,0,8Zm1,8H2V18c0-2.7,5.3-4,8-4h1v2H10c-2.7,0-5.8,1.3-6,2h7Z" fill="#08f"></path><path d="M20.8,6V5a2.8,2.8,0,1,0-5.6,0V6H14v6h8V6ZM18,10.2A1.2,1.2,0,0,1,16.8,9a1.2,1.2,0,1,1,2.4,0A1.2,1.2,0,0,1,18,10.2ZM16.8,6V5a1.2,1.2,0,0,1,2.4,0V6Z" fill="#c00"></path>
  </symbol><symbol  viewBox='0 0 24 24' id='status-user-privileged-enabled'>
    <path d="M13.7,20H3V18c0-1.9,2.8-3.2,5.3-3.7L10.1,16c-2.4.3-4.9,1.4-5.1,2h7.1l1.6,1.6ZM15,8a4,4,0,1,1-4-4,4,4,0,0,1,4,4M13,8a2,2,0,1,0-2,2,2,2,0,0,0,2-2m3.7,8.4-2.9.4,2.1,2.1-.5,2.9L18,20.4l2.6,1.4-.5-2.9,2.1-2.1-2.9-.4L18,13.7Z" fill="#08f"></path>
  </symbol><symbol  viewBox='0 0 24 24' id='status-user-provisioning'>
    <path d="M7,8a4,4,0,0,1,4-4h1V6.3A1.7,1.7,0,0,0,11,6a2,2,0,0,0,0,4,1.7,1.7,0,0,0,1-.3v2.2H11A4,4,0,0,1,7,8Zm5,10H5c.2-.7,3.3-2,6-2h1v-2H11c-2.7,0-8,1.3-8,4v2h9ZM20,7,17,4,14,7V9.8l2-2V20h2V7.8l2,2Z" fill="#0a0"></path>
  </symbol><symbol  viewBox='0 0 24 24' id='status-user-super-disabled-locked'>
    <path d="M20.8,6V5a2.8,2.8,0,1,0-5.6,0V6H14v6h8V6ZM18,10.2A1.2,1.2,0,0,1,16.8,9a1.2,1.2,0,1,1,2.4,0A1.2,1.2,0,0,1,18,10.2ZM16.8,6V5a1.2,1.2,0,0,1,2.4,0V6Z" fill="#c00"></path><path data-name="specifier" d="M23,16a1.1,1.1,0,0,1-.9,1L21,21H15l-1.1-4a.9.9,0,0,1-.6-.3,1,1,0,1,1,1.4,0,.9.9,0,0,1-.7.3l2.5,1.5,1.4-2a1,1,0,0,1-.9-1,1,1,0,0,1,2,0,1,1,0,0,1-.9,1l1.4,2L22,17a1,1,0,0,1-1-1,1,1,0,0,1,2,0" fill="#f80"></path><path d="M10,12h1V9.7a1.7,1.7,0,0,1-1,.3,2,2,0,0,1,0-4,1.7,1.7,0,0,1,1,.3V4.1H10a4,4,0,0,0,0,8Zm1,8H2V18c0-2.7,5.3-4,8-4h1v2H10c-2.7,0-5.8,1.3-6,2h7Z" fill="#bbb"></path>
  </symbol><symbol  viewBox='0 0 24 24' id='status-user-super-disabled'>
    <path d="M12.7,20H3V18c0-2.7,5.3-4,8-4h.8a3.2,3.2,0,0,0-.8,2h0c-2.7,0-5.8,1.3-6,2h6.8a.1.1,0,0,0,.1.1l.3.3ZM11,12a4,4,0,1,1,4-4,4,4,0,0,1-4,4m0-6a2,2,0,1,0,2,2,2,2,0,0,0-2-2" fill="#bbb"></path><path d="M23,16a1,1,0,0,0-2,0,1,1,0,0,0,1,1l-2.5,1.5-1.4-2a1,1,0,0,0,.9-1,1,1,0,0,0-2,0,1,1,0,0,0,.9,1l-1.4,2L14,17a.9.9,0,0,0,.7-.3,1,1,0,1,0-1.4,0,.9.9,0,0,0,.6.3L15,21h6l1.1-4a1.1,1.1,0,0,0,.9-1" fill="#f80"></path>
  </symbol><symbol  viewBox='0 0 24 24' id='status-user-super-enabled-locked'>
    <path d="M23,16a1.1,1.1,0,0,1-.9,1L21,21H15l-1.1-4a.9.9,0,0,1-.6-.3,1,1,0,1,1,1.4,0,.9.9,0,0,1-.7.3l2.5,1.5,1.4-2a1,1,0,0,1-.9-1,1,1,0,0,1,2,0,1,1,0,0,1-.9,1l1.4,2L22,17a1,1,0,0,1-1-1,1,1,0,0,1,2,0M10,12h1V9.7a1.7,1.7,0,0,1-1,.3,2,2,0,0,1,0-4,1.7,1.7,0,0,1,1,.3V4.1H10a4,4,0,0,0,0,8Zm1,8H2V18c0-2.7,5.3-4,8-4h1v2H10c-2.7,0-5.8,1.3-6,2h7Z" fill="#f80"></path><path d="M20.8,6V5a2.8,2.8,0,1,0-5.6,0V6H14v6h8V6ZM18,10.2A1.2,1.2,0,0,1,16.8,9a1.2,1.2,0,1,1,2.4,0A1.2,1.2,0,0,1,18,10.2ZM16.8,6V5a1.2,1.2,0,0,1,2.4,0V6Z" fill="#c00"></path>
  </symbol><symbol  viewBox='0 0 24 24' id='status-user-super-enabled'>
    <path d="M12.7,20H3V18c0-2.7,5.3-4,8-4h.8a3.2,3.2,0,0,0-.8,2h0c-2.7,0-5.8,1.3-6,2h6.8a.1.1,0,0,0,.1.1l.3.3ZM11,12a4,4,0,1,1,4-4,4,4,0,0,1-4,4m0-6a2,2,0,1,0,2,2,2,2,0,0,0-2-2M23,16a1,1,0,0,0-2,0,1,1,0,0,0,1,1l-2.5,1.5-1.4-2a1,1,0,0,0,.9-1,1,1,0,0,0-2,0,1,1,0,0,0,.9,1l-1.4,2L14,17a.9.9,0,0,0,.7-.3,1,1,0,1,0-1.4,0,.9.9,0,0,0,.6.3L15,21h6l1.1-4a1.1,1.1,0,0,0,.9-1" fill="#f80"></path>
  </symbol><symbol  viewBox='0 0 24 24' id='status-user-unprovisioning'>
    <path d="M7,8a4,4,0,0,1,4-4h1V6.3A1.7,1.7,0,0,0,11,6a2,2,0,0,0,0,4,1.7,1.7,0,0,0,1-.3v2.2H11A4,4,0,0,1,7,8Zm5,10H5c.2-.7,3.3-2,6-2h1v-2H11c-2.7,0-8,1.3-8,4v2h9Zm8-3.3-2,2V4H16V16.7l-2-2v2.8l3,3,3-3Z" fill="#c00"></path>
  </symbol><symbol  viewBox='0 0 24 24' id='window-close'>
    <path d="M18.4,7,17,5.6l-5,5-5-5L5.6,7l5,5-5,5L7,18.4l5-5,5,5L18.4,17l-5-5Z"></path>
  </symbol><symbol  viewBox='0 0 24 24' id='window-float'>
    <path d="M19,4H9A.9.9,0,0,0,8,5V8H5A.9.9,0,0,0,4,9V19a.9.9,0,0,0,1,1H15a.9.9,0,0,0,1-1V16h3a.9.9,0,0,0,1-1V5A.9.9,0,0,0,19,4ZM14,18H6V10h8Zm4-4H16V9a.9.9,0,0,0-1-1H10V6h8Z"></path>
  </symbol><symbol  viewBox='0 0 24 24' id='window-help'>
    <path d="M12,3a9,9,0,1,0,9,9A9,9,0,0,0,12,3Zm1,15H11V16h2Zm1.8-6.8-.7.9a9.1,9.1,0,0,1-1,1,.4.4,0,0,0-.1.3V14H11v-.6a2.3,2.3,0,0,1,.7-1.7l1-1,.2-.3A.6.6,0,0,0,13,10a.6.6,0,0,0-.1-.4l-.2-.3-.3-.2h-.8l-.3.2-.2.3a.6.6,0,0,0-.1.4.6.6,0,0,0,.1.4l-1.9.8A5,5,0,0,1,9,10a5,5,0,0,1,.2-1.2l.7-.9.9-.7a3.3,3.3,0,0,1,2.4,0l.9.7.7.9A5,5,0,0,1,15,10,5,5,0,0,1,14.8,11.2Z"></path>
  </symbol><symbol  viewBox='0 0 24 24' id='window-maximise'>
    <path d="M18,5H6A.9.9,0,0,0,5,6V18a.9.9,0,0,0,1,1H18a.9.9,0,0,0,1-1V6A.9.9,0,0,0,18,5ZM17,17H7V9H17Z"></path>
  </symbol><symbol  viewBox='0 0 24 24' id='window-minimise'>
    <path d="M5 11H19V13H5z"></path>
  </symbol></svg>