<svg xmlns="http://www.w3.org/2000/svg" xmlns:xlink="http://www.w3.org/1999/xlink" style="width: 0; height: 0; visibility: hidden; position: absolute;" aria-hidden="true"><symbol  viewBox='0 0 24 24' id='action-add-comment'>
    <path d="M19,4H5A4,4,0,0,0,1,8V23l6-3H19a4,4,0,0,0,4-4V8A4,4,0,0,0,19,4Zm2,12a2,2,0,0,1-2,2H6.528l-.422.211L3,19.764V8A2,2,0,0,1,5,6H19a2,2,0,0,1,2,2Zm-8-5h3v2H13v3H11V13H8V11h3V8h2Z"></path><path fill="none" stroke="#000" stroke-miterlimit="10" stroke-width=".5" d="M-156 -12H324V468H-156z"></path>
  </symbol><symbol  viewBox='0 0 24 24' id='action-add-folder'>
    <path d="M20,6H12L10,4H4A1.985,1.985,0,0,0,2.01,6L2,18a1.993,1.993,0,0,0,2,2H20a1.993,1.993,0,0,0,2-2V8A1.993,1.993,0,0,0,20,6Zm0,12H4V6H9.17l2,2H20Zm-8-4h2v2h2V14h2V12H16V10H14v2H12Z"></path><path fill="none" stroke="#000" stroke-miterlimit="10" stroke-width=".5" d="M-60 -12H420V468H-60z"></path>
  </symbol><symbol  viewBox='0 0 24 24' id='action-add'>
    <path d="M12,3a9,9,0,1,0,9,9A9,9,0,0,0,12,3Zm5,10H13v4H11V13H7V11h4V7h2v4h4Z"></path><path fill="none" stroke="#000" stroke-miterlimit="10" stroke-width=".5" d="M-300 -12H180V468H-300z"></path>
  </symbol><symbol  viewBox='0 0 24 24' id='action-archive'>
    <path d="M20.54,5.706l-1.39-1.68A1.451,1.451,0,0,0,18,3.476H6a1.486,1.486,0,0,0-1.16.55L3.46,5.706A1.958,1.958,0,0,0,3,6.976v12.5a2.006,2.006,0,0,0,2,2H19a2.006,2.006,0,0,0,2-2V6.976A1.958,1.958,0,0,0,20.54,5.706Zm-14.3-.23H17.76l.81.97H5.44ZM5,19.476v-11H19v11Zm8.45-9h-2.9v3H8l4,4,4-4H13.45Z"></path><path fill="none" stroke="#000" stroke-miterlimit="10" stroke-width=".5" d="M-60 -12H420V468H-60z"></path>
  </symbol><symbol  viewBox='0 0 24 24' id='action-break-glass'>
    <path d="M.686,9.172,2.808,7.05,7.05,11.293,4.929,13.414ZM13.414,2.1,7.05,4.222,4.222,7.05,7.05,9.879l.707-.707,4.95,4.949v1.415L19.071,21.9,21.9,19.071l-6.363-6.364H14.121L9.172,7.757l4.949-4.949Z"></path><path fill="none" stroke="#000" stroke-miterlimit="10" stroke-width=".5" d="M-108 -12H372V468H-108z"></path>
  </symbol><symbol  viewBox='0 0 24 24' id='action-bulk-import'>
    <path d="M3,6V4H21V6H3ZM16.25,16.485V20h1.5V16.485h2.735L16.95,12.95l-3.536,3.535Zm-5-4.949H8.464L12,8l3.536,3.536H12.75V20h-1.5Zm-5,4.949H3.515L7.05,12.95l3.536,3.535H7.75V20H6.25Z"></path><path fill="none" stroke="#000" stroke-miterlimit="10" stroke-width=".5" d="M-348 -12H132V468H-348z"></path>
  </symbol><symbol  viewBox='0 0 24 24' id='action-change-password'>
    <path d="M16.939,10.141l.92.92L10.92,18H10v-.92l6.939-6.939m3.6-6.02a1,1,0,0,0-.7.29l-1.83,1.83,3.75,3.75,1.83-1.83a1,1,0,0,0,0-1.41l-2.34-2.34A.982.982,0,0,0,20.539,4.121Zm-3.6,3.19L8,16.25V20h3.75l8.939-8.939ZM1,20H5V18H1ZM1,4V6H14l2-2Zm7.457,6.877a.857.857,0,0,0-1.32-.429L5.8,11.423a.97.97,0,0,0-.49-.361l.511-1.574A.858.858,0,0,0,5,8.365H5a.858.858,0,0,0-.816,1.123L4.7,11.062a.97.97,0,0,0-.49.361l-1.342-.975a.857.857,0,0,0-1.32.429h0A.858.858,0,0,0,2.359,12H4a.975.975,0,0,0,.205.577l-1.342.975a.859.859,0,0,0,0,1.389h0a.859.859,0,0,0,1.321-.429L4.7,12.938A.974.974,0,0,0,5,13a.974.974,0,0,0,.3-.062l.511,1.574a.859.859,0,0,0,1.321.429h0a.859.859,0,0,0,0-1.389L5.8,12.577A.975.975,0,0,0,6,12H7.641a.858.858,0,0,0,.816-1.123ZM23,18H18l-2,2h7Z"></path><path fill="none" stroke="#000" stroke-miterlimit="10" stroke-width=".5" d="M-204 -12H276V468H-204z"></path>
  </symbol><symbol  viewBox='0 0 24 24' id='action-change-ticket'>
    <path d="M9,17H7V15H9Zm0-6H7v2H9ZM9,7H7V9H9ZM7,7V5H0v5a2,2,0,0,1,2,2,2,2,0,0,1-2,2v5H7V17H2V15.445a3.967,3.967,0,0,0,0-6.89V7ZM9,5V7H22V8.555a3.967,3.967,0,0,0,0,6.89V17H9v2H24V14a2,2,0,0,1,0-4V5Z"></path><path fill="none" stroke="#000" stroke-miterlimit="10" stroke-width=".5" d="M-300 -12H180V468H-300z"></path>
  </symbol><symbol  viewBox='0 0 24 24' id='action-clone-user'>
    <path d="M5,4A2,2,0,1,1,3,6,2,2,0,0,1,5,4ZM5,9c-1.337,0-4,.75-4,2.25V12H9v-.75C9,9.75,6.337,9,5,9ZM17.08,4.951l-1.29,1.53a1.958,1.958,0,0,1,.66,1.1l1.96-.43A3.964,3.964,0,0,0,17.08,4.951Zm-.61,3.41a2,2,0,0,1-.63,1.12l1.35,1.48a3.941,3.941,0,0,0,1.24-2.25Zm-4.66-3.32a3.941,3.941,0,0,0-1.24,2.25l1.96.35a2,2,0,0,1,.63-1.12Zm3.36,4.84a1.853,1.853,0,0,1-.67.12,1.775,1.775,0,0,1-.61-.1l-.61,1.91A4.148,4.148,0,0,0,14.5,12a3.8,3.8,0,0,0,1.35-.24Zm-2.62-1.46-1.96.43a3.964,3.964,0,0,0,1.33,2.2l1.29-1.53A1.958,1.958,0,0,1,12.55,8.421ZM14.5,4a3.8,3.8,0,0,0-1.35.24l.68,1.88A1.853,1.853,0,0,1,14.5,6a1.775,1.775,0,0,1,.61.1l.61-1.91A4.148,4.148,0,0,0,14.5,4ZM23,21H21V19h2ZM6,19H8v2H6Zm5,0H9v2h2Zm3,0H12v2h2Zm3,0H15v2h2Zm3,0H18v2h2Zm-6.2-4.983c-.152.005-.3.015-.452.024-.5.032-.99.082-1.459.154l.272,1.941h0c.588-.07,1.215-.114,1.871-.129h.013l-.053-1.994C13.927,14.014,13.862,14.014,13.8,14.017ZM6,18H8a1.112,1.112,0,0,1,.618-.847h0l-.965-1.516A3,3,0,0,0,6,18Zm2.72-2.927.7,1.68h0a8.094,8.094,0,0,1,.807-.259h.006c.294-.079.612-.149.95-.211l-.395-1.877A11.709,11.709,0,0,0,8.72,15.073Zm12.627.564-.965,1.516h0A1.112,1.112,0,0,1,21,18h2A3,3,0,0,0,21.347,15.637Zm-3.138-1.232-.395,1.877c.338.062.656.132.95.211h.006a8.094,8.094,0,0,1,.807.259h0l.7-1.68A11.709,11.709,0,0,0,18.209,14.405Zm-2.555-.364c-.15-.009-.3-.019-.452-.024-.064,0-.129,0-.192,0l-.053,1.994h.013c.656.015,1.283.059,1.871.129h0l.272-1.941C16.644,14.123,16.155,14.073,15.654,14.041Z"></path><path fill="none" stroke="#000" stroke-miterlimit="10" stroke-width=".5" d="M-156 -12H324V468H-156z"></path>
  </symbol><symbol  viewBox='0 0 24 24' id='action-copy-settings'>
    <path d="M16.65,13.581l1.2-1.052-.9-1.558-1.51.51-.724-.418L14.4,9.5H12.6l-.313,1.563-.724.418-1.51-.51-.9,1.558,1.2,1.052v.838l-1.2,1.052.9,1.558,1.51-.51.724.418L12.6,18.5h1.8l.313-1.563.724-.418,1.51.51.9-1.558-1.2-1.052ZM14.85,14a1.35,1.35,0,1,1-1.35-1.35A1.349,1.349,0,0,1,14.85,14ZM16,1H4A2.006,2.006,0,0,0,2,3V17H4V3H16Zm3,4H8A2.006,2.006,0,0,0,6,7V21a2.006,2.006,0,0,0,2,2H19a2.006,2.006,0,0,0,2-2V7A2.006,2.006,0,0,0,19,5Zm0,16H8V7H19Z"></path><path fill="none" stroke="#000" stroke-miterlimit="10" stroke-width=".5" d="M-300 -12H180V468H-300z"></path>
  </symbol><symbol  viewBox='0 0 24 24' id='action-copy-to-client'>
    <path d="M19,2H14.82A2.988,2.988,0,0,0,9.18,2H5A2.006,2.006,0,0,0,3,4V5.229A7.027,7.027,0,0,0,5,8V4H7V6H17V4h2V20H5V15.673A10.977,10.977,0,0,1,3,14.5V20a2.006,2.006,0,0,0,2,2H19a2.006,2.006,0,0,0,2-2V4A2.006,2.006,0,0,0,19,2ZM12,4a1,1,0,1,1,1-1A1,1,0,0,1,12,4ZM9.5,17.5v-3a9,9,0,0,1-9-9A9.045,9.045,0,0,1,.635,4,8.995,8.995,0,0,0,9.5,11.5v-3L15,13Z"></path><path fill="none" stroke="#000" stroke-miterlimit="10" stroke-width=".5" d="M-204 -12H276V468H-204z"></path>
  </symbol><symbol  viewBox='0 0 24 24' id='action-copy-to-guest'>
    <path d="M20.2,14.6l-1.2.9V20H5V4H7V6h7.433A10.908,10.908,0,0,1,17,5.182V2H14.82A2.988,2.988,0,0,0,9.18,2H5A2.006,2.006,0,0,0,3,4V20a2.006,2.006,0,0,0,2,2H19a2.006,2.006,0,0,0,2-2V14ZM12,2a1,1,0,1,1-1,1A1,1,0,0,1,12,2Zm7,11V10a8.995,8.995,0,0,0-8.865,7.5A8.951,8.951,0,0,1,19,7V4l5,4.5Z"></path><path fill="none" stroke="#000" stroke-miterlimit="10" stroke-width=".5" d="M-252 -12H228V468H-252z"></path>
  </symbol><symbol  viewBox='0 0 24 24' id='action-copy'>
    <path d="M16,1H4A2.006,2.006,0,0,0,2,3V17H4V3H16ZM15,5H8A2.006,2.006,0,0,0,6,7V21a2.006,2.006,0,0,0,2,2H19a2.006,2.006,0,0,0,2-2V11ZM8,21V7h6v5h5v9Z"></path><path fill="none" stroke="#000" stroke-miterlimit="10" stroke-width=".5" d="M-12 -12H468V468H-12z"></path>
  </symbol><symbol  viewBox='0 0 24 24' id='action-create-techout'>
    <path d="M18,4V20H6V4H18m0-2H6A2,2,0,0,0,4,4V20a2,2,0,0,0,2,2H18a2,2,0,0,0,2-2V4a2,2,0,0,0-2-2ZM13,5H11V7h2Zm0,3H11v2h2Zm1.771,6.852L13,11H11L9.229,14.852a3,3,0,1,0,5.542,0ZM12,17.5A1.5,1.5,0,1,1,13.5,16,1.5,1.5,0,0,1,12,17.5Z"></path><path fill="none" stroke="#000" stroke-miterlimit="10" stroke-width=".5" d="M-252 -12H228V468H-252z"></path>
  </symbol><symbol  viewBox='0 0 24 24' id='action-ctrl-alt-del'>
    <path d="M20,15v5H15V15h5m1-2H14a1,1,0,0,0-1,1v7a1,1,0,0,0,1,1h7a1,1,0,0,0,1-1V14a1,1,0,0,0-1-1ZM14.5,4V9h-5V4h5m1-2h-7a1,1,0,0,0-1,1v7a1,1,0,0,0,1,1h7a1,1,0,0,0,1-1V3a1,1,0,0,0-1-1ZM9,15v5H4V15H9m1-2H3a1,1,0,0,0-1,1v7a1,1,0,0,0,1,1h7a1,1,0,0,0,1-1V14a1,1,0,0,0-1-1Z"></path><path fill="none" stroke="#000" stroke-miterlimit="10" stroke-width=".5" d="M-156 -12H324V468H-156z"></path>
  </symbol><symbol  viewBox='0 0 24 24' id='action-delete'>
    <path d="M6,19a2.006,2.006,0,0,0,2,2h8a2.006,2.006,0,0,0,2-2V7H6ZM8,9h8V19H8Zm7.5-5-1-1h-5l-1,1H5V6H19V4Z"></path><path fill="none" stroke="#000" stroke-miterlimit="10" stroke-width=".5" d="M-12 -12H468V468H-12z"></path>
  </symbol><symbol  viewBox='0 0 24 24' id='action-download-csv'>
    <path d="M6.154,16.859a1.893,1.893,0,0,1-.742,1.5,2.9,2.9,0,0,1-1.846.562,2.539,2.539,0,0,1-1.95-.742,2.966,2.966,0,0,1-.7-2.11v-.161a3.341,3.341,0,0,1,.322-1.507,2.3,2.3,0,0,1,.913-.988,2.681,2.681,0,0,1,1.367-.342,2.858,2.858,0,0,1,1.858.569,2.136,2.136,0,0,1,.784,1.55H4.519a.756.756,0,0,0-.254-.625,1.116,1.116,0,0,0-.743-.224q-.877,0-.942,1.316l0,.434a2.421,2.421,0,0,0,.22,1.2.828.828,0,0,0,.771.36c.642,0,.955-.265.943-.8Zm3.971.432a.478.478,0,0,0-.225-.413,2.458,2.458,0,0,0-.789-.287,7.471,7.471,0,0,1-.947-.279,2.282,2.282,0,0,1-.632-.348,1.233,1.233,0,0,1-.366-.486,1.791,1.791,0,0,1-.117-.684,1.483,1.483,0,0,1,.285-.887,1.854,1.854,0,0,1,.8-.609,2.836,2.836,0,0,1,1.13-.218,2.934,2.934,0,0,1,1.772.482,1.528,1.528,0,0,1,.659,1.305h-1.65a.581.581,0,0,0-.218-.454.8.8,0,0,0-.549-.19.781.781,0,0,0-.5.149.433.433,0,0,0-.19.349.407.407,0,0,0,.192.351,2.379,2.379,0,0,0,.682.259,3.793,3.793,0,0,1,1.711.7,1.543,1.543,0,0,1,.5,1.214,1.454,1.454,0,0,1-.61,1.234,2.771,2.771,0,0,1-1.675.451,3.512,3.512,0,0,1-1.319-.233,1.981,1.981,0,0,1-.9-.664A1.708,1.708,0,0,1,6.854,17H8.509a.724.724,0,0,0,.227.611,1.264,1.264,0,0,0,.759.175.722.722,0,0,0,.464-.134A.435.435,0,0,0,10.125,17.291ZM15,17.255l.015.093.014-.074,1.2-4.116H17.95l-2,5.689H14.093l-1.988-5.689h1.714Z"></path><path d="M21,2H13.414a1,1,0,0,0-.707.293L6.293,8.707A1,1,0,0,0,6,9.414V11h8a1,1,0,0,0,1-1V4h5V21H6v1a1,1,0,0,0,1,1H21a1,1,0,0,0,1-1V3A1,1,0,0,0,21,2ZM13,9H8.828L13,4.828Z"></path><g><path fill="none" stroke="#000" stroke-miterlimit="10" stroke-width=".5" d="M-252 -12H228V468H-252z"></path></g>
  </symbol><symbol  viewBox='0 0 24 24' id='action-download'>
    <path d="M6,10h4V4h4v6h4l-6,6Zm13,8H3v2H21V18Z"></path><path fill="none" stroke="#000" stroke-miterlimit="10" stroke-width=".5" d="M-396 -12H84V468H-396z"></path>
  </symbol><symbol  viewBox='0 0 24 24' id='action-edit'>
    <path d="M14.059,9.02l.92.92L5.919,19H5v-.92l9.06-9.06M17.659,3a1,1,0,0,0-.7.29l-1.83,1.83,3.75,3.75,1.83-1.83a1,1,0,0,0,0-1.41l-2.34-2.34A.982.982,0,0,0,17.659,3Zm-3.6,3.19L3,17.25V21h3.75L17.809,9.94Z"></path><path fill="none" stroke="#000" stroke-miterlimit="10" stroke-width=".5" d="M-204 -12H276V468H-204z"></path>
  </symbol><symbol  viewBox='0 0 24 24' id='action-filter'>
    <path d="M7,6H17l-5.01,6.3ZM4.25,5.61C6.27,8.2,10,13,10,13v6a1,1,0,0,0,1,1h2a1,1,0,0,0,1-1V13s3.72-4.8,5.74-7.39A1,1,0,0,0,18.95,4H5.04A1,1,0,0,0,4.25,5.61Z"></path><path fill="none" stroke="#000" stroke-miterlimit="10" stroke-width=".5" d="M-204 -12H276V468H-204z"></path>
  </symbol><symbol  viewBox='0 0 24 24' id='action-hide'>
    <path d="M12,4.5A11.827,11.827,0,0,0,1,12a11.817,11.817,0,0,0,22,0A11.827,11.827,0,0,0,12,4.5Zm0,2a9.76,9.76,0,0,1,8.089,4.25H3.911A9.76,9.76,0,0,1,12,6.5Zm0,11a9.75,9.75,0,0,1-8.09-4.25H20.09A9.75,9.75,0,0,1,12,17.5Z"></path><path fill="none" stroke="#000" stroke-miterlimit="10" stroke-width=".5" d="M-12 -12H468V468H-12z"></path>
  </symbol><symbol  viewBox='0 0 24 24' id='action-launch-admin-ui'>
    <path d="M20,18a2,2,0,0,0,1.99-2L22,5a2.006,2.006,0,0,0-2-2H4A2.006,2.006,0,0,0,2,5V16a2.006,2.006,0,0,0,2,2H0v2H24V18ZM4,5H20V16H4ZM17.25,9a1.25,1.25,0,0,1-1.243,1.249L15,14H9L7.993,10.249A1.25,1.25,0,1,1,9.25,9a1.234,1.234,0,0,1-.9,1.179L10.5,11.5,11.938,9.49c-.017,0-.031-.01-.048-.012a1.25,1.25,0,1,1,.22,0c-.017,0-.031.011-.048.012L13.5,11.5l2.15-1.324A1.234,1.234,0,0,1,14.75,9a1.25,1.25,0,0,1,2.5,0Z"></path><path fill="none" stroke="#000" stroke-miterlimit="10" stroke-width=".5" d="M-252 -12H228V468H-252z"></path>
  </symbol><symbol  viewBox='0 0 24 24' id='action-lock'>
    <path d="M19.177,7.917h-2V6.134A5.148,5.148,0,0,0,12.671.94,5,5,0,0,0,7.177,5.917v2h-2a1,1,0,0,0-1,1v12a1,1,0,0,0,1,1h14a1,1,0,0,0,1-1v-12A1,1,0,0,0,19.177,7.917Zm-10-2a3,3,0,0,1,3.156-3,3.11,3.11,0,0,1,2.844,3.16V7.917h-6Zm9,14h-12v-10h12Zm-6-3a2,2,0,1,0-2-2A2.006,2.006,0,0,0,12.177,16.917Z"></path><path fill="none" stroke="#000" stroke-miterlimit="10" stroke-width=".5" d="M-252 -12H228V468H-252z"></path>
  </symbol><symbol  viewBox='0 0 24 24' id='action-log-out'>
    <path d="M19,6,6,6V18H19v2H4V4H19Zm0,2.609H16.117L18.51,11H10v2h8.509l-2.392,2.391H19L22.387,12Z"></path><path fill="none" stroke="#000" stroke-miterlimit="10" stroke-width=".5" d="M-396 -12H84V468H-396z"></path>
  </symbol><symbol  viewBox='0 0 24 24' id='action-open-settings'>
    <path d="M14.619,22H9.381L8.8,19.1l-1.352-.781-2.8.948L2.029,14.73,4.25,12.78V11.219L2.029,9.269,4.649,4.73l2.8.948L8.8,4.9,9.381,2h5.238l.58,2.9,1.352.781,2.8-.948,2.62,4.539-2.221,1.95V12.78l2.221,1.95-2.62,4.539-2.8-.948L15.2,19.1Zm-3.6-2h1.96l.436-2.178,2.918-1.684,2.1.711.98-1.7L17.75,13.685V10.314l1.668-1.465-.98-1.7-2.1.713L13.416,6.177,12.98,4H11.02l-.436,2.177L7.666,7.863l-2.1-.713-.98,1.7L6.25,10.314v3.371L4.582,15.15l.98,1.7,2.1-.711,2.918,1.684ZM15,12a3,3,0,1,0-3,3A3,3,0,0,0,15,12Z"></path><path fill="none" stroke="#000" stroke-miterlimit="10" stroke-width=".5" d="M-348 -12H132V468H-348z"></path>
  </symbol><symbol  viewBox='0 0 24 24' id='action-print'>
    <path d="M19,8H18V3H6V8H5a3,3,0,0,0-3,3v6H6v4H18V17h4V11A3,3,0,0,0,19,8ZM8,5h8V8H8Zm8,12v2H8V15h8Zm2-2V13H6v2H4V11a1,1,0,0,1,1-1H19a1,1,0,0,1,1,1v4Z"></path><path fill="none" stroke="#000" stroke-miterlimit="10" stroke-width=".5" d="M-12 -12H468V468H-12z"></path>
  </symbol><symbol  viewBox='0 0 24 24' id='action-refresh'>
    <path d="M20,4v6H14l2.237-2.237A5.984,5.984,0,0,0,6.193,10.5H4.141A7.984,7.984,0,0,1,17.649,6.351ZM12,18.005a5.962,5.962,0,0,1-4.237-1.768L10,14H4v6l2.352-2.351A7.983,7.983,0,0,0,19.859,13.5H17.807A6.008,6.008,0,0,1,12,18.005"></path><path fill="none" stroke="#000" stroke-miterlimit="10" stroke-width=".5" d="M-12 -12H468V468H-12z"></path>
  </symbol><symbol  viewBox='0 0 24 24' id='action-remove-force'>
    <path fill="#f80" d="M22 16L20.668 17.336 14 24 17.167 17.336 13.665 17.336 16.006 12 21.505 12 18.003 16 22 16z"></path><path d="M14,12H7V10H20.941A9,9,0,1,0,10.5,19.865Z"></path><g><path fill="none" stroke="#000" stroke-miterlimit="10" stroke-width=".5" d="M-444 -12H36V468H-444z"></path></g>
  </symbol><symbol  viewBox='0 0 24 24' id='action-remove'>
    <path d="M17,13H7V11H17ZM12,3a9,9,0,1,0,9,9A9,9,0,0,0,12,3Z"></path><path fill="none" stroke="#000" stroke-miterlimit="10" stroke-width=".5" d="M-396 -12H84V468H-396z"></path>
  </symbol><symbol  viewBox='0 0 24 24' id='action-request-timed-access-2'>
    <path d="M17,18H12V13h5ZM20,4a1,1,0,0,1,1,1V21a1,1,0,0,1-1,1H4a1,1,0,0,1-1-1V5A1,1,0,0,1,4,4H6V2H8V4h8V2h2V4ZM19,9H5V20H19Z"></path>
  </symbol><symbol  viewBox='0 0 24 24' id='action-request-timed-access'>
    <path d="M12,21a8,8,0,1,1,8-8A8.009,8.009,0,0,1,12,21ZM12,7a6,6,0,1,0,6,6A6.006,6.006,0,0,0,12,7Zm3-5H9V4h6ZM11,8.5V13a1,1,0,0,0,2,0V8.5Z"></path><path fill="none" stroke="#000" stroke-miterlimit="10" stroke-width=".5" d="M-60 -12H420V468H-60z"></path>
  </symbol><symbol  viewBox='0 0 24 24' id='action-reset'>
    <path d="M16.359,5.288A8.01,8.01,0,0,0,6.341,6.347L4,5v7l6.062-3.5-1.911-1.1a6,6,0,1,1,.58,9.635A5.931,5.931,0,0,1,6.4,14.08l-1.739,1a7.9,7.9,0,0,0,2.989,3.623A8,8,0,1,0,16.359,5.288Z"></path><path fill="none" stroke="#000" stroke-miterlimit="10" stroke-width=".5" d="M-156 -12H324V468H-156z"></path>
  </symbol><symbol  viewBox='0 0 24 24' id='action-revert'>
    <path d="M18.712,16.354A8.009,8.009,0,0,1,7.645,18.706a7.9,7.9,0,0,1-2.989-3.623l1.739-1a5.931,5.931,0,0,0,2.339,2.949,6,6,0,1,0-.58-9.635l1.911,1.1L4,12V5l2.338,1.35A8,8,0,0,1,18.712,16.354Zm-3-1.7L12.75,11.689V8h-1.5v4.311l3.4,3.4Z"></path><path fill="none" stroke="#000" stroke-miterlimit="10" stroke-width=".5" d="M-204 -12H276V468H-204z"></path>
  </symbol><symbol  viewBox='0 0 24 24' id='action-save'>
    <path d="M17.293,3.293A1,1,0,0,0,16.586,3H4A1,1,0,0,0,3,4V20a1,1,0,0,0,1,1H20a1,1,0,0,0,1-1V7.414a1,1,0,0,0-.293-.707ZM19,19H5V5H16.17L19,7.83ZM6,6h9v4H6Zm9,9a3,3,0,1,1-3-3A3,3,0,0,1,15,15Z"></path><path fill="none" stroke="#000" stroke-miterlimit="10" stroke-width=".5" d="M-60 -12H420V468H-60z"></path>
  </symbol><symbol  viewBox='0 0 24 24' id='action-screenshot'>
    <path d="M5,17H3V15H5Zm0,2H3v2H5Zm0-8H3v2H5ZM21,3H19V5h2Zm0,4H19V9h2ZM5,7H3V9H5ZM17,3H15V5h2ZM13,3H11V5h2ZM9,3H7V5H9ZM5,3H3V5H5ZM24,22V14.707A1.707,1.707,0,0,0,22.293,13H20.414l-2-2H12.586l-2,2H8.707A1.707,1.707,0,0,0,7,14.707V22a2,2,0,0,0,2,2H22A2,2,0,0,0,24,22ZM9,15h2.414l2-2h4.172l2,2H22v7H9Zm6.5,0a3,3,0,1,0,3,3A3,3,0,0,0,15.5,15Z"></path><path fill="none" stroke="#000" stroke-miterlimit="10" stroke-width=".5" d="M-396 -12H84V468H-396z"></path>
  </symbol><symbol  viewBox='0 0 24 24' id='action-search'>
    <path d="M15.5,14h-.79l-.28-.27a6.51,6.51,0,1,0-.7.7l.27.28v.79l5,4.99L20.49,19Zm-6,0A4.5,4.5,0,1,1,14,9.5,4.494,4.494,0,0,1,9.5,14"></path><path fill="none" stroke="#000" stroke-miterlimit="10" stroke-width=".5" d="M-60 -12H420V468H-60z"></path>
  </symbol><symbol  viewBox='0 0 24 24' id='action-select-all'>
    <path d="M3,13H5V11H3Zm4,8H9V19H7ZM3,9H5V7H3ZM13,3H11V5h2ZM3,17H5V15H3ZM9,3H7V5H9ZM5,3H3V5H5Zm6,18h2V19H11Zm8-8h2V11H19Zm0-4h2V7H19Zm0,8h2V15H19Zm-4,4h2V19H15ZM15,5h2V3H15Zm4,0h2V3H19Zm0,16h2V19H19ZM3,21H5V19H3Zm4-4H17V7H7ZM9,9h6v6H9Z"></path><path fill="none" stroke="#000" stroke-miterlimit="10" stroke-width=".5" d="M-108 -12H372V468H-108z"></path>
  </symbol><symbol  viewBox='0 0 24 24' id='action-select-clear'>
    <path d="M3,13H5V11H3Zm4,8H9V19H7ZM3,9H5V7H3ZM13,3H11V5h2ZM3,17H5V15H3ZM9,3H7V5H9ZM5,3H3V5H5Zm6,18h2V19H11Zm8-8h2V11H19Zm0-4h2V7H19Zm0,8h2V15H19Zm-4,4h2V19H15ZM15,5h2V3H15Zm4,0h2V3H19Zm0,16h2V19H19ZM3,21H5V19H3ZM15.536,7.05,12,10.586,8.464,7.05,7.05,8.464,10.586,12,7.05,15.536,8.464,16.95,12,13.414l3.536,3.536,1.414-1.414L13.414,12,16.95,8.464Z"></path><path fill="none" stroke="#000" stroke-miterlimit="10" stroke-width=".5" d="M-156 -12H324V468H-156z"></path>
  </symbol><symbol  viewBox='0 0 24 24' id='action-set-date'>
    <path d="M17,13.75H14.5v-2.5H17Zm-3.75-2.5h-2.5v2.5h2.5Zm-3.75,0H7v2.5H9.5Zm7.5,4H14.5v2.5H17Zm-3.75,0h-2.5v2.5h2.5Zm-3.75,0H7v2.5H9.5ZM20,4a1,1,0,0,1,1,1V21a1,1,0,0,1-1,1H4a1,1,0,0,1-1-1V5A1,1,0,0,1,4,4H6V2H8V4h8V2h2V4ZM19,9H5V20H19Z"></path><path fill="none" stroke="#000" stroke-miterlimit="10" stroke-width=".5" d="M-108 -12H372V468H-108z"></path>
  </symbol><symbol  viewBox='0 0 24 24' id='action-show'>
    <path d="M12,6.5A9.77,9.77,0,0,1,20.82,12,9.822,9.822,0,0,1,3.18,12,9.77,9.77,0,0,1,12,6.5m0-2A11.827,11.827,0,0,0,1,12a11.817,11.817,0,0,0,22,0A11.827,11.827,0,0,0,12,4.5Zm0,3A4.5,4.5,0,1,0,16.5,12,4.507,4.507,0,0,0,12,7.5Z"></path><path fill="none" stroke="#000" stroke-miterlimit="10" stroke-width=".5" d="M-444 -12H36V468H-444z"></path>
  </symbol><symbol  viewBox='0 0 24 24' id='action-terminate'>
    <path d="M14.828,16.243,12,13.414,9.172,16.243,7.757,14.828,10.586,12,7.757,9.172,9.172,7.757,12,10.586l2.828-2.829,1.415,1.415L13.414,12l2.829,2.828ZM12,3a9,9,0,1,0,9,9A9,9,0,0,0,12,3Z"></path><path fill="none" stroke="#000" stroke-miterlimit="10" stroke-width=".5" d="M-348 -12H132V468H-348z"></path>
  </symbol><symbol  viewBox='0 0 24 24' id='action-toggle-drawer'>
    <path d="M14,12a2,2,0,1,1-2-2A2,2,0,0,1,14,12Zm5-2a2,2,0,1,0,2,2A2,2,0,0,0,19,10ZM5,10a2,2,0,1,0,2,2A2,2,0,0,0,5,10Z"></path><path fill="none" stroke="#000" stroke-miterlimit="10" stroke-width=".5" d="M-444 -12H36V468H-444z"></path>
  </symbol><symbol  viewBox='0 0 24 24' id='action-toggle-menu'>
    <path d="M3,18H21V16H3Zm0-5H21V11H3ZM3,6V8H21V6Z"></path><path fill="none" stroke="#000" stroke-miterlimit="10" stroke-width=".5" d="M-108 -12H372V468H-108z"></path>
  </symbol><symbol  viewBox='0 0 24 24' id='action-trigger-audit'>
    <path d="M12,3a9,9,0,1,0,9,9A9.01,9.01,0,0,0,12,3ZM10,16.5v-9L16,12Z"></path><path fill="none" stroke="#000" stroke-miterlimit="10" stroke-width=".5" d="M-108 -12H372V468H-108z"></path>
  </symbol><symbol  viewBox='0 0 24 24' id='action-unlock'>
    <path d="M10,15a2,2,0,1,1,2,2A2.006,2.006,0,0,1,10,15ZM20,8.935v12.13a.938.938,0,0,1-.935.935H4.935A.938.938,0,0,1,4,21.065V8.935A.938.938,0,0,1,4.935,8H15V6.165A3.11,3.11,0,0,0,12.156,3,2.987,2.987,0,0,0,9.185,5H7.1a5,5,0,0,1,5.391-3.976A5.146,5.146,0,0,1,17,6.217V8h2.065A.938.938,0,0,1,20,8.935ZM18,10H6V20H18Z"></path><path fill="none" stroke="#000" stroke-miterlimit="10" stroke-width=".5" d="M-300 -12H180V468H-300z"></path>
  </symbol><symbol  viewBox='0 0 24 24' id='action-upload'>
    <path d="M18,14H14v6H10V14H6l6-6ZM5,6H21V4H3V6Z"></path><path fill="none" stroke="#000" stroke-miterlimit="10" stroke-width=".5" d="M-444 -12H36V468H-444z"></path>
  </symbol><symbol  viewBox='0 0 24 24' id='notification-failed'>
    <path d="M17.196 3L6.804 3 1.608 12 6.804 21 17.196 21 22.392 12 17.196 3z"></path><path d="M11,15h2v2H11Zm2-8H11v6h2Z" fill="#fff"></path><g><path fill="none" stroke="#000" stroke-miterlimit="10" stroke-width=".5" d="M-108 -204H372V276H-108z"></path></g>
  </symbol><symbol  viewBox='0 0 24 24' id='notification-info'>
    <path d="M12,3a9,9,0,1,0,9,9A9.01,9.01,0,0,0,12,3Z"></path><path d="M13,9H11V7h2Zm-2,8h2V11H11Z" fill="#fff"></path><g><path fill="none" stroke="#000" stroke-miterlimit="10" stroke-width=".5" d="M-156 -204H324V276H-156z"></path></g>
  </symbol><symbol  viewBox='0 0 24 24' id='notification-missing'>
    <path d="M12,3a9,9,0,1,0,9,9A9,9,0,0,0,12,3Z"></path><path fill="#fff" d="M11 16H13V18H11z"></path><path d="M14.764,11.168a3.088,3.088,0,0,1-.634.943c-.256.263-1.035,1.035-1.035,1.035a.333.333,0,0,0-.1.233V14H11v-.621a2.349,2.349,0,0,1,.684-1.65s.765-.759,1.015-1.015a1.07,1.07,0,0,0,.223-.327,1,1,0,0,0,0-.776,1,1,0,0,0-.216-.32.993.993,0,0,0-.316-.214,1.014,1.014,0,0,0-.78,0,.993.993,0,0,0-.316.214,1,1,0,0,0-.216.32,1,1,0,0,0,0,.776l-1.842.781a3,3,0,0,1,1.6-3.934,3.027,3.027,0,0,1,2.334,0,2.986,2.986,0,0,1,.955.644,3,3,0,0,1,.642,3.29Z" fill="#fff"></path><g><path fill="none" stroke="#000" stroke-miterlimit="10" stroke-width=".5" d="M-204 -204H276V276H-204z"></path></g>
  </symbol><symbol  viewBox='0 0 24 24' id='notification-success'>
    <path d="M12,3a9,9,0,1,0,9,9A9.01,9.01,0,0,0,12,3Z"></path><path d="M12,15.212a1,1,0,0,1-.325.216h0l-.006,0a1.167,1.167,0,0,1-.131.026,1.04,1.04,0,0,1-.245.047,1.048,1.048,0,0,1-.246-.047,1.107,1.107,0,0,1-.13-.026l-.007,0a1,1,0,0,1-.324-.216L6.7,11.323,8.111,9.909l3.182,3.182,4.6-4.6L17.3,9.909Z" fill="#fff"></path><g><path fill="none" stroke="#000" stroke-miterlimit="10" stroke-width=".5" d="M-60 -204H420V276H-60z"></path></g>
  </symbol><symbol  viewBox='0 0 24 24' id='notification-warning'>
    <path d="M22.131,19.5l-9.266-16a1,1,0,0,0-1.73,0l-9.266,16A1,1,0,0,0,2.735,21h18.53A1,1,0,0,0,22.131,19.5Z"></path><path d="M11,16h2v2H11Zm2-2H11V9h2Z" fill="#fff"></path><g><path fill="none" stroke="#000" stroke-miterlimit="10" stroke-width=".5" d="M-12 -204H468V276H-12z"></path></g>
  </symbol><symbol  viewBox='0 0 24 24' id='object-account'>
    <path d="M12,14c-2.67,0-8,1.34-8,4v2H20V18c0-2.66-5.33-4-8-4M6,18c.22-.72,3.31-2,6-2s5.8,1.29,6,2Zm6-6A4,4,0,1,0,8,8a4,4,0,0,0,4,4m0-6a2,2,0,1,1-2,2,2.006,2.006,0,0,1,2-2"></path><path fill="none" stroke="#000" stroke-miterlimit="10" stroke-width=".5" d="M-300 -60H180V420H-300z"></path>
  </symbol><symbol  viewBox='0 0 24 24' id='object-active-directory'>
    <path d="M20,11.25a2.761,2.761,0,0,0-1.77.64L13.51,6.3a2.75,2.75,0,1,0-3.02,0L5.77,11.89a2.753,2.753,0,1,0,.43,3.76l3.6,2.7a2.75,2.75,0,1,0,4.4,0l3.6-2.7a2.75,2.75,0,1,0,2.2-4.4ZM6.74,14.18l-.57-.43.46-.55,4.62-5.48v9.84l-.19-.14Zm10.52,0-4.32,3.24-.19.14V7.72l4.62,5.48.46.55Z"></path><path fill="none" stroke="#000" stroke-miterlimit="10" stroke-width=".5" d="M-252 -60H228V420H-252z"></path>
  </symbol><symbol  viewBox='0 0 24 24' id='object-certificate'>
    <path d="M13.488,20H3a1,1,0,0,1-1-1V5A1,1,0,0,1,3,4H21a1,1,0,0,1,1,1v6.589a5.985,5.985,0,0,0-2-1.22V6H4V18h8.3a6,6,0,0,0,1.191,2m4.46-12h-12V9.5h12Zm-3.657,3.25H5.948v1.5h6.961a6.037,6.037,0,0,1,1.382-1.5M5.948,14.5V16h6a6.035,6.035,0,0,1,.2-1.5Z"></path><path d="M21.948,16a4,4,0,1,0-6.4,3.182L14.948,24l3-2,3,2-.6-4.818A3.981,3.981,0,0,0,21.948,16Zm-4,2a2,2,0,1,1,2-2A2,2,0,0,1,17.948,18Z"></path><g><path fill="none" stroke="#000" stroke-miterlimit="10" stroke-width=".5" d="M-348 -60H132V420H-348z"></path></g>
  </symbol><symbol  viewBox='0 0 24 24' id='object-dashboard'>
    <path d="M19,5V7H15V5h4M9,5v6H5V5H9m10,8v6H15V13h4M9,17v2H5V17H9M21,3H13V9h8ZM11,3H3V13h8Zm10,8H13V21h8ZM11,15H3v6h8Z"></path><path fill="none" stroke="#000" stroke-miterlimit="10" stroke-width=".5" d="M-108 -60H372V420H-108z"></path>
  </symbol><symbol  viewBox='0 0 24 24' id='object-fingerprint'>
    <path d="M17.81,4.47a.465.465,0,0,1-.23-.06A11.442,11.442,0,0,0,12.01,3,11.441,11.441,0,0,0,6.44,4.41a.5.5,0,0,1-.48-.88,12.724,12.724,0,0,1,12.08-.01.506.506,0,0,1-.23.95ZM3.5,9.72a.521.521,0,0,1-.29-.09.5.5,0,0,1-.12-.7A10.339,10.339,0,0,1,6.84,5.66a11.543,11.543,0,0,1,10.31-.01A10.378,10.378,0,0,1,20.9,8.9a.5.5,0,0,1-.82.58,9.388,9.388,0,0,0-3.39-2.94,10.537,10.537,0,0,0-9.4.01,9.487,9.487,0,0,0-3.4,2.96A.436.436,0,0,1,3.5,9.72ZM9.75,21.79a.469.469,0,0,1-.35-.15A10.109,10.109,0,0,1,7.39,19a8.877,8.877,0,0,1-1.05-4.34A5.538,5.538,0,0,1,12,9.27a5.538,5.538,0,0,1,5.66,5.39.5.5,0,0,1-1,0A4.536,4.536,0,0,0,12,10.27a4.536,4.536,0,0,0-4.66,4.39,7.834,7.834,0,0,0,.93,3.85,9.465,9.465,0,0,0,1.85,2.42.513.513,0,0,1,0,.71A.548.548,0,0,1,9.75,21.79Zm7.17-1.85a5.385,5.385,0,0,1-3.1-.89,5.324,5.324,0,0,1-2.38-4.39.5.5,0,0,1,1,0,4.3,4.3,0,0,0,1.94,3.56,4.385,4.385,0,0,0,2.54.71,6.609,6.609,0,0,0,1.04-.1.5.5,0,1,1,.17.99A6.829,6.829,0,0,1,16.92,19.94ZM14.91,22a.585.585,0,0,1-.13-.02,7.8,7.8,0,0,1-3.72-2.1,7.3,7.3,0,0,1-2.17-5.22,3.016,3.016,0,0,1,3.08-2.94,3.016,3.016,0,0,1,3.08,2.94,2.085,2.085,0,0,0,4.16,0,7.053,7.053,0,0,0-7.25-6.83,7.3,7.3,0,0,0-6.61,4.03,6.433,6.433,0,0,0-.59,2.8,9.937,9.937,0,0,0,.67,3.61.488.488,0,0,1-.29.64.5.5,0,0,1-.64-.29,11.141,11.141,0,0,1-.73-3.96,7.513,7.513,0,0,1,.68-3.24,8.3,8.3,0,0,1,7.51-4.6,8.055,8.055,0,0,1,8.25,7.83,3.083,3.083,0,0,1-6.16,0,2.014,2.014,0,0,0-2.08-1.94,2.014,2.014,0,0,0-2.08,1.94,6.3,6.3,0,0,0,1.87,4.51,6.8,6.8,0,0,0,3.27,1.85.5.5,0,0,1,.35.61A.488.488,0,0,1,14.91,22Z"></path><path fill="none" stroke="#000" stroke-miterlimit="10" stroke-width=".5" d="M-348 -60H132V420H-348z"></path>
  </symbol><symbol  viewBox='0 0 24 24' id='object-group-ad'>
    <path d="M9,4a3.5,3.5,0,1,0,3.5,3.5A3.5,3.5,0,0,0,9,4ZM9,9a1.5,1.5,0,1,1,1.5-1.5A1.5,1.5,0,0,1,9,9Zm6,2a3.446,3.446,0,0,1-1.5-.35,5.461,5.461,0,0,0,0-6.3A3.446,3.446,0,0,1,15,4a3.5,3.5,0,0,1,0,7m-3.95,8H2V16.25c0-2.33,4.66-3.5,7-3.5,1.755,0,4.814.658,6.235,1.97a3.861,3.861,0,0,0,.19.419,3.321,3.321,0,0,0-2.723.373A10.427,10.427,0,0,0,9,14.75c-2.136,0-4.625.961-5,1.567V17h7.35A3.464,3.464,0,0,0,11,18.5,3.588,3.588,0,0,0,11.05,19Z"></path><path d="M22.5,17a1.483,1.483,0,0,0-.965.35l-2.2-2.605h0a1.5,1.5,0,1,0-1.678,0h0l-2.2,2.605A1.483,1.483,0,0,0,14.5,17a1.5,1.5,0,1,0,1.2,2.4l1.6,1.2,0,0a1.5,1.5,0,1,0,2.392,0l0,0,1.6-1.2A1.5,1.5,0,1,0,22.5,17Zm-6.51,1.37-.045-.035.04-.045L18,15.9v3.98Zm3.01,1.5V15.9l2.015,2.395.04.045-.045.035Z" fill="#08f"></path><g><path fill="none" stroke="#000" stroke-miterlimit="10" stroke-width=".5" d="M-60 -60H420V420H-60z"></path></g>
  </symbol><symbol  viewBox='0 0 24 24' id='object-group'>
    <path d="M9,4a3.5,3.5,0,1,0,3.5,3.5A3.5,3.5,0,0,0,9,4ZM9,9a1.5,1.5,0,1,1,1.5-1.5A1.5,1.5,0,0,1,9,9Zm7.04,3.81c2.46.27,5.96,1.42,5.96,3.44V19H18V16.25a4.193,4.193,0,0,0-1.96-3.44M15,11a3.446,3.446,0,0,1-1.5-.35,5.461,5.461,0,0,0,0-6.3A3.446,3.446,0,0,1,15,4a3.5,3.5,0,0,1,0,7M9,12.75c-2.34,0-7,1.17-7,3.5V19H16V16.25C16,13.92,11.34,12.75,9,12.75ZM14,17H4v-.684c.375-.6,2.864-1.566,5-1.566s4.625.961,5,1.566Z"></path><path fill="none" stroke="#000" stroke-miterlimit="10" stroke-width=".5" d="M-444 -60H36V420H-444z"></path>
  </symbol><symbol  viewBox='0 0 24 24' id='object-groups'>
    <path d="M4,13a2,2,0,1,0-2-2A2,2,0,0,0,4,13Zm1.13,1.1A7.01,7.01,0,0,0,4,14a7,7,0,0,0-2.78.58A2,2,0,0,0,0,16.43V18H4.5V16.39A4.5,4.5,0,0,1,5.13,14.1ZM20,13a2,2,0,1,0-2-2A2,2,0,0,0,20,13Zm4,3.43a2,2,0,0,0-1.22-1.85,6.8,6.8,0,0,0-3.91-.48,4.5,4.5,0,0,1,.63,2.29V18H24Zm-7.76-2.78a10.444,10.444,0,0,0-4.24-.9,10.6,10.6,0,0,0-4.24.9A3,3,0,0,0,6,16.39V18H18V16.39A3,3,0,0,0,16.24,13.65ZM8.07,16c.09-.23.13-.39.91-.69a8.417,8.417,0,0,1,6,0c.77.3.81.46.91.69ZM12,8a1,1,0,1,1-1,1,1,1,0,0,1,1-1m0-2a3,3,0,1,0,3,3A3,3,0,0,0,12,6Z"></path><path fill="none" stroke="#000" stroke-miterlimit="10" stroke-width=".5" d="M-12 -60H468V420H-12z"></path>
  </symbol><symbol  viewBox='0 0 24 24' id='object-password'>
    <path d="M0,20H24V18H0ZM0,4V6H24V4Zm15.457,6.877A.858.858,0,0,1,14.641,12H13a.975.975,0,0,1-.205.577l1.342.975a.859.859,0,0,1,0,1.389h0a.859.859,0,0,1-1.321-.429l-.511-1.574a.781.781,0,0,1-.61,0l-.511,1.574a.859.859,0,0,1-1.321.429h0a.859.859,0,0,1,0-1.389l1.342-.975A.975.975,0,0,1,11,12H9.359a.858.858,0,0,1-.816-1.123h0a.857.857,0,0,1,1.32-.429l1.342.975a.97.97,0,0,1,.49-.361l-.511-1.574A.858.858,0,0,1,12,8.365h0a.858.858,0,0,1,.816,1.123l-.511,1.574a.97.97,0,0,1,.49.361l1.342-.975a.857.857,0,0,1,1.32.429Zm-8,0a.857.857,0,0,0-1.32-.429L4.8,11.423a.97.97,0,0,0-.49-.361l.511-1.574A.858.858,0,0,0,4,8.365H4a.858.858,0,0,0-.816,1.123L3.7,11.062a.97.97,0,0,0-.49.361l-1.342-.975a.857.857,0,0,0-1.32.429h0A.858.858,0,0,0,1.359,12H3a.975.975,0,0,0,.205.577l-1.342.975a.859.859,0,0,0,0,1.389h0a.859.859,0,0,0,1.321-.429L3.7,12.938A.974.974,0,0,0,4,13a.974.974,0,0,0,.3-.062l.511,1.574a.859.859,0,0,0,1.321.429h0a.859.859,0,0,0,0-1.389L4.8,12.577A.975.975,0,0,0,5,12H6.641a.858.858,0,0,0,.816-1.123Zm16,0h0a.857.857,0,0,0-1.32-.429l-1.342.975a.97.97,0,0,0-.49-.361l.511-1.574A.858.858,0,0,0,20,8.365h0a.858.858,0,0,0-.816,1.123l.511,1.574a.97.97,0,0,0-.49.361l-1.342-.975a.857.857,0,0,0-1.32.429h0A.858.858,0,0,0,17.359,12H19a.975.975,0,0,0,.2.577l-1.342.975a.859.859,0,0,0,0,1.389h0a.859.859,0,0,0,1.321-.429l.511-1.574a.781.781,0,0,0,.61,0l.511,1.574a.859.859,0,0,0,1.321.429h0a.859.859,0,0,0,0-1.389L20.8,12.577A.975.975,0,0,0,21,12h1.641A.858.858,0,0,0,23.457,10.877Z"></path><path fill="none" stroke="#000" stroke-miterlimit="10" stroke-width=".5" d="M-156 -60H324V420H-156z"></path>
  </symbol><symbol  viewBox='0 0 24 24' id='object-profile-privileged'>
    <path d="M12,8.225l.882,1.788.493,1,1.1.16,1.972.287-1.427,1.391-.8.777.188,1.1.337,1.964-1.765-.927L12,15.243l-.985.518-1.765.927.337-1.964.188-1.1-.8-.777L7.551,11.458l1.972-.287,1.1-.16.493-1L12,8.225M12,3.44,9.219,9.076,3,9.979l4.5,4.387L6.438,20.56,12,17.635l5.562,2.925L16.5,14.366,21,9.979l-6.219-.9L12,3.44Z"></path><path fill="none" stroke="#000" stroke-miterlimit="10" stroke-width=".5" d="M-396 -60H84V420H-396z"></path>
  </symbol><symbol  viewBox='0 0 24 24' id='object-profile-super'>
    <path d="M12,12.741l1.373,1.921,1,1.4,1.535-.785,1.86-.951L16.555,18H7.445L6.23,14.33l1.86.951,1.535.785,1-1.4L12,12.741M12,5.5a1.989,1.989,0,0,0-.125,3.975L9,13.5,3.1,10.481a1.977,1.977,0,0,0,1.319-.567,2,2,0,1,0-2.828,0,1.965,1.965,0,0,0,1.26.556L6,20H18l3.155-9.531a1.938,1.938,0,1,0-.249.012L15,13.5,12.125,9.475A1.989,1.989,0,0,0,12,5.5Z"></path><path fill="none" stroke="#000" stroke-miterlimit="10" stroke-width=".5" d="M-348 -60H132V420H-348z"></path>
  </symbol><symbol  viewBox='0 0 24 24' id='object-profiles'>
    <path d="M7.5,8a2,2,0,1,1-2,2A2,2,0,0,1,7.5,8Zm0,5c-1.337,0-4,.75-4,2.25V16h8v-.75C11.5,13.75,8.837,13,7.5,13ZM20,9.5H13V8h7Zm0,1.75H13v1.5h7Zm0,3.25H13V16h7ZM0,4.75v14.5A.75.75,0,0,0,.75,20h22.5a.75.75,0,0,0,.75-.75V4.75A.75.75,0,0,0,23.25,4H.75A.75.75,0,0,0,0,4.75ZM22,18H2V6H22Z"></path><path fill="none" stroke="#000" stroke-miterlimit="10" stroke-width=".5" d="M-156 -60H324V420H-156z"></path>
  </symbol><symbol  viewBox='0 0 24 24' id='object-request'>
    <path d="M17.27,6.729l-4.24,10.13-1.32-3.42-.32-.83-.82-.32L7.14,10.96ZM21,3,3,10.53v.98l6.84,2.65L12.48,21h.98Z"></path><path fill="none" stroke="#000" stroke-miterlimit="10" stroke-width=".5" d="M-444 -60H36V420H-444z"></path>
  </symbol><symbol  viewBox='0 0 24 24' id='object-server-map'>
    <path d="M13,14.564l11-1.573V9.781a1,1,0,0,0-.757-.97L12.485,6.121a2.015,2.015,0,0,0-.97,0L.757,8.811A1,1,0,0,0,0,9.781V14.22a1,1,0,0,0,.757.97l.94.235,9.818,2.454a2.015,2.015,0,0,0,.97,0L13,17.75ZM2.437,13.75c-.517,0-.937-.559-.937-1.25s.42-1.25.937-1.25.938.56.938,1.25S2.955,13.75,2.437,13.75ZM2.372,9.439,12,7.032l9.628,2.407L12,11.846Z"></path><path d="M18.5,19H15V16.28c1.163-.179,2.332-.333,3.5-.48Zm1,0H24q0-2,0-4-2.251.312-4.5.652Zm0,4.365c1.5.2,3,.411,4.5.635q0-2,0-4H19.5ZM18.5,20H15v2.754c1.167.157,2.334.31,3.5.48Z" fill="#08f"></path><g><path fill="none" stroke="#000" stroke-miterlimit="10" stroke-width=".5" d="M-108 -60H372V420H-108z"></path></g>
  </symbol><symbol  viewBox='0 0 24 24' id='object-server-pam'>
    <path d="M14,17.2a3.2,3.2,0,0,1,5.463-2.262l.537.537.537-.537A3.173,3.173,0,0,1,22.8,14a3.211,3.211,0,0,1,1.2.233l0-.013V9.781a1,1,0,0,0-.757-.97L12.485,6.121a2.015,2.015,0,0,0-.97,0L.757,8.811A1,1,0,0,0,0,9.781V14.22a1,1,0,0,0,.757.97l.94.235,9.818,2.454a2.015,2.015,0,0,0,.97,0l1.544-.386C14.02,17.4,14,17.3,14,17.2ZM2.437,13.75c-.517,0-.937-.559-.937-1.25s.42-1.25.937-1.25.938.56.938,1.25S2.955,13.75,2.437,13.75ZM12,11.846,2.372,9.439,12,7.032l9.628,2.407Z"></path><path d="M17.2,24a1.2,1.2,0,0,1-.849-2.049L18.3,20l-1.952-1.952a1.2,1.2,0,0,1,1.7-1.7L21.7,20l-3.648,3.648A1.2,1.2,0,0,1,17.2,24m5.063-4.566,1.386-1.386a1.2,1.2,0,0,0-1.7-1.7l-1.385,1.386Zm0,1.131-1.7,1.7,1.385,1.387a1.2,1.2,0,1,0,1.7-1.7Z" fill="#08f"></path><g><path fill="none" stroke="#000" stroke-miterlimit="10" stroke-width=".5" d="M-156 -60H324V420H-156z"></path></g>
  </symbol><symbol  viewBox='0 0 24 24' id='object-server'>
    <path d="M11.515,6.121.757,8.811A1,1,0,0,0,0,9.781V14.22a1,1,0,0,0,.757.97l.94.235,9.818,2.454a2.015,2.015,0,0,0,.97,0L22.3,15.425l.94-.235A1,1,0,0,0,24,14.22V9.781a1,1,0,0,0-.757-.97L12.485,6.121A2.015,2.015,0,0,0,11.515,6.121ZM2.437,13.75c-.517,0-.937-.559-.937-1.25s.42-1.25.937-1.25.938.56.938,1.25S2.955,13.75,2.437,13.75ZM12,11.846,2.372,9.439,12,7.032l9.628,2.407Z"></path><path fill="none" stroke="#000" stroke-miterlimit="10" stroke-width=".5" d="M-204 -60H276V420H-204z"></path>
  </symbol><symbol  viewBox='0 0 24 24' id='object-session-recording'>
    <path d="M13.425,15.666a.932.932,0,0,0,.143,1.042l3.113,3.942a1.409,1.409,0,0,0,1.086.535.878.878,0,0,0,.791-.41l4.07-7.05c.346-.6-.22-1.443-1.047-1.563l-4.97-.725a1.244,1.244,0,0,0-.181-.013.887.887,0,0,0-.793.41ZM0,19v2H6a2,2,0,0,0,2-2V15.342l2.477,1.43a1,1,0,0,0,1.366-.366l3.644-6.312a1,1,0,0,0-.366-1.366L5.6,3.228a1,1,0,0,0-1.366.366L.585,9.906a1,1,0,0,0,.366,1.366L6,14.187V19Zm8-5.968V13H7.945L2.817,10.04,5.461,5.46l7.794,4.5-2.644,4.58Z"></path><path fill="none" stroke="#000" stroke-miterlimit="10" stroke-width=".5" d="M-252 -60H228V420H-252z"></path>
  </symbol><symbol  viewBox='0 0 24 24' id='object-shared-drive'>
    <path d="M22,20H14.816A3,3,0,0,0,13,18.184V16h7a2.006,2.006,0,0,0,2-2V6a2.006,2.006,0,0,0-2-2H12L10,2H4A2,2,0,0,0,2.01,4L2,14a2.006,2.006,0,0,0,2,2h7v2.184A3,3,0,0,0,9.184,20H2v2H9.184a2.982,2.982,0,0,0,5.632,0H22ZM4,14V4H9.17l2,2H20v8Zm8,8a1,1,0,1,1,1-1A1,1,0,0,1,12,22Z"></path><path fill="none" stroke="#000" stroke-miterlimit="10" stroke-width=".5" d="M-252 -60H228V420H-252z"></path>
  </symbol><symbol  viewBox='0 0 24 24' id='object-ssh-key'>
    <path d="M10.457,10.877A.858.858,0,0,1,9.641,12H8a.975.975,0,0,1-.205.577l1.342.975a.859.859,0,0,1,0,1.389h0a.859.859,0,0,1-1.321-.429l-.511-1.574A.974.974,0,0,1,7,13a.974.974,0,0,1-.3-.062l-.511,1.574a.859.859,0,0,1-1.321.429h0a.859.859,0,0,1,0-1.389l1.342-.975A.975.975,0,0,1,6,12H4.359a.858.858,0,0,1-.816-1.123h0a.857.857,0,0,1,1.32-.429l1.342.975a.97.97,0,0,1,.49-.361L6.184,9.488A.858.858,0,0,1,7,8.365H7a.858.858,0,0,1,.816,1.123l-.511,1.574a.97.97,0,0,1,.49.361l1.342-.975a.857.857,0,0,1,1.32.429ZM24,9v6H22v4H16V15H13.32a7,7,0,1,1,0-6Zm-2,2H11.94l-.23-.671a5,5,0,1,0,0,3.341l.23-.67H18v4h2V13h2Z"></path><path fill="none" stroke="#000" stroke-miterlimit="10" stroke-width=".5" d="M-300 -60H180V420H-300z"></path>
  </symbol><symbol  viewBox='0 0 24 24' id='object-task'>
    <path d="M17.277,22.475l4.95-4.95-4.454-4.453V10.025h3v-7h-7v3h-2.9l-8.1-4.5v10l8.1-4.5h2.9v3h3v3.054l-3.946,3.946H9.739a4,4,0,1,0,0,1h3.088ZM4.777,8.126v-3.2l2.882,1.6Zm11-3.1h3v3h-3Zm-10,14.5a2,2,0,1,1,2-2A2,2,0,0,1,5.773,19.525Zm11.5-4.121L19.4,17.525l-2.121,2.121-2.121-2.121Z"></path><path fill="none" stroke="#000" stroke-miterlimit="10" stroke-width=".5" d="M-204 -60H276V420H-204z"></path>
  </symbol><symbol  viewBox='0 0 24 24' id='object-token'>
    <path d="M13.739,8a7,7,0,1,0,0,8H23V8ZM21,14H12.575a5,5,0,1,1,0-4H21Zm-9.6-3.123A.858.858,0,0,1,10.593,12H8.951a.975.975,0,0,1-.205.577l1.342.975a.858.858,0,0,1,0,1.389h0a.858.858,0,0,1-1.32-.429l-.512-1.574a.779.779,0,0,1-.609,0l-.512,1.574a.858.858,0,0,1-1.32.429h0a.858.858,0,0,1,0-1.389l1.342-.975A.976.976,0,0,1,6.951,12H5.31a.858.858,0,0,1-.816-1.123h0a.858.858,0,0,1,1.321-.429l1.342.975a.966.966,0,0,1,.49-.361L7.135,9.488a.858.858,0,0,1,.816-1.123h0a.858.858,0,0,1,.816,1.123l-.512,1.574a.966.966,0,0,1,.49.361l1.342-.975a.858.858,0,0,1,1.321.429Z"></path><path fill="none" stroke="#000" stroke-miterlimit="10" stroke-width=".5" d="M-204 -60H276V420H-204z"></path>
  </symbol><symbol  viewBox='0 0 24 24' id='object-tool-app'>
    <path d="M13,8h5v3H13Zm0,7h5V12H13ZM7,15h5V12H7Zm5-8H6v4h6ZM24,18v2H0V18H4a2,2,0,0,1-2-2V6A2,2,0,0,1,4,4H20a2,2,0,0,1,2,2V16a2,2,0,0,1-2,2ZM4,16H20V6H4Z"></path><path fill="none" stroke="#000" stroke-miterlimit="10" stroke-width=".5" d="M-108 -60H372V420H-108z"></path>
  </symbol><symbol  viewBox='0 0 24 24' id='object-tool-browser'>
    <path d="M12,3a9,9,0,1,0,9,9A9,9,0,0,0,12,3Zm6.04,5.5H16.1a10.354,10.354,0,0,0-1.093-2.812A7.052,7.052,0,0,1,18.04,8.5ZM19,12a6.934,6.934,0,0,1-.181,1.5H16.424c.046-.488.076-.987.076-1.5s-.03-1.012-.076-1.5h2.395A6.934,6.934,0,0,1,19,12ZM5,12a6.934,6.934,0,0,1,.181-1.5H7.576c-.046.488-.076.987-.076,1.5s.03,1.012.076,1.5H5.181A6.934,6.934,0,0,1,5,12Zm4.5,0a13.718,13.718,0,0,1,.083-1.5h4.834a13.6,13.6,0,0,1,0,3H9.583A13.718,13.718,0,0,1,9.5,12ZM12,5.5c.567,0,1.472,1.108,2.024,3H9.976C10.528,6.608,11.433,5.5,12,5.5Zm-3.006.188A10.354,10.354,0,0,0,7.9,8.5H5.96A7.052,7.052,0,0,1,8.994,5.688ZM5.96,15.5H7.9a10.354,10.354,0,0,0,1.093,2.812A7.052,7.052,0,0,1,5.96,15.5Zm6.04,3c-.567,0-1.472-1.108-2.024-3h4.048C13.472,17.392,12.567,18.5,12,18.5Zm3.006-.188A10.354,10.354,0,0,0,16.1,15.5H18.04A7.052,7.052,0,0,1,15.006,18.312Z"></path><path fill="none" stroke="#000" stroke-miterlimit="10" stroke-width=".5" d="M-444 -60H36V420H-444z"></path>
  </symbol><symbol  viewBox='0 0 24 24' id='object-tool-rdp'>
    <path d="M16.5,9.5v3h-9v-3h9m2-2H5.5v7h13v-7ZM20,18a2,2,0,0,0,1.99-2L22,6a2.006,2.006,0,0,0-2-2H4A2.006,2.006,0,0,0,2,6V16a2.006,2.006,0,0,0,2,2H0v2H24V18ZM4,6H20V16H4Z"></path><path fill="none" stroke="#000" stroke-miterlimit="10" stroke-width=".5" d="M-60 -60H420V420H-60z"></path>
  </symbol><symbol  viewBox='0 0 24 24' id='object-tool-sftp'>
    <path d="M8,20H0V18H6V6H0V4H8Zm16-2H18V6h6V4H16V20h8Zm0-9H20v2h4Zm0,4H20v2h4ZM4,9H0v2H4Zm0,4H0v2H4Zm8.172-1-3,3H12l3-3L12,9H9.171Z"></path><path fill="none" stroke="#000" stroke-miterlimit="10" stroke-width=".5" d="M-156 -60H324V420H-156z"></path>
  </symbol><symbol  viewBox='0 0 24 24' id='object-tool-ssh'>
    <path d="M20,18V6L4,6V18Zm-2-4v2H10l2-2ZM5.172,8H8l4,4L8,16H5.172l4-4Z"></path><path fill="none" stroke="#000" stroke-miterlimit="10" stroke-width=".5" d="M-12 -60H468V420H-12z"></path>
  </symbol><symbol  viewBox='0 0 24 24' id='object-user-privileged'>
    <path d="M13.651,20H3V18c0-1.922,2.784-3.153,5.335-3.689l1.782,1.737C7.675,16.276,5.2,17.358,5,18h7.12l1.606,1.566ZM15,8a4,4,0,1,1-4-4,4,4,0,0,1,4,4M13,8a2,2,0,1,0-2,2,2.006,2.006,0,0,0,2-2"></path><path fill="#08f" d="M18 13.708L19.313 16.369 22.25 16.796 20.125 18.867 20.626 21.792 18 20.411 15.373 21.792 15.875 18.867 13.75 16.796 16.687 16.369 18 13.708z"></path><g><path fill="none" stroke="#000" stroke-miterlimit="10" stroke-width=".5" d="M-396 -60H84V420H-396z"></path></g>
  </symbol><symbol  viewBox='0 0 24 24' id='object-user-super'>
    <path d="M12.661,20H3V18c0-2.66,5.331-4,8-4,.23,0,.486.014.751.034A2.973,2.973,0,0,0,11,16h0c-2.689,0-5.78,1.28-6,2h6.779c.035.039.062.084.1.122a2.773,2.773,0,0,0,.361.3ZM11,12a4,4,0,1,1,4-4,4,4,0,0,1-4,4m0-6a2,2,0,1,0,2,2,2.006,2.006,0,0,0-2-2"></path><path d="M23,16a1,1,0,1,0-1.047.99L19.5,18.5l-1.437-2.012a1,1,0,1,0-.125,0L16.5,18.5l-2.452-1.51a.983.983,0,0,0,.659-.283,1,1,0,1,0-1.414,0,.983.983,0,0,0,.63.278L15,21h6l1.077-4.015A.993.993,0,0,0,23,16" fill="#f80"></path><g><path fill="none" stroke="#000" stroke-miterlimit="10" stroke-width=".5" d="M-348 -60H132V420H-348z"></path></g>
  </symbol><symbol  viewBox='0 0 24 24' id='object-vault'>
    <path d="M21,3.01H5a1,1,0,0,0-1,1V6H2v4H4v4H2v4H4v2.01a1,1,0,0,0,1,1H21a1,1,0,0,0,1-1v-16A1,1,0,0,0,21,3.01Zm-1,16H6v-14H20ZM8.758,16.243a1,1,0,0,0,1.414,0l1.175-1.176a3.485,3.485,0,0,0,3.306,0l1.175,1.176a1,1,0,1,0,1.414-1.414l-1.175-1.176a3.485,3.485,0,0,0,0-3.306l1.175-1.176a1,1,0,1,0-1.414-1.414L14.653,8.933a3.485,3.485,0,0,0-3.306,0L10.172,7.757A1,1,0,1,0,8.758,9.171l1.175,1.176a3.485,3.485,0,0,0,0,3.306L8.758,14.829A1,1,0,0,0,8.758,16.243ZM13,10a2,2,0,1,1-2,2A2,2,0,0,1,13,10Z"></path><path fill="none" stroke="#000" stroke-miterlimit="10" stroke-width=".5" d="M-396 -60H84V420H-396z"></path>
  </symbol><symbol  viewBox='0 0 24 24' id='status-group-disabled'>
    <path d="M9,5a3.5,3.5,0,1,0,3.5,3.5A3.5,3.5,0,0,0,9,5Zm0,5a1.5,1.5,0,1,1,1.5-1.5A1.5,1.5,0,0,1,9,10Zm7.04,3.81c2.46.27,5.96,1.42,5.96,3.44V20H18V17.25a4.193,4.193,0,0,0-1.96-3.44M15,12a3.446,3.446,0,0,1-1.5-.35,5.461,5.461,0,0,0,0-6.3A3.446,3.446,0,0,1,15,5a3.5,3.5,0,0,1,0,7M9,13.75c-2.34,0-7,1.17-7,3.5V20H16V17.25C16,14.92,11.34,13.75,9,13.75ZM14,18H4v-.684c.375-.605,2.864-1.566,5-1.566s4.625.961,5,1.566Z" fill="#bbb"></path><path fill="none" stroke="#000" stroke-miterlimit="10" stroke-width=".5" d="M-60 -108H420V372H-60z"></path>
  </symbol><symbol  viewBox='0 0 24 24' id='status-group-enabled'>
    <path d="M9,5a3.5,3.5,0,1,0,3.5,3.5A3.5,3.5,0,0,0,9,5Zm0,5a1.5,1.5,0,1,1,1.5-1.5A1.5,1.5,0,0,1,9,10Zm7.04,3.81c2.46.27,5.96,1.42,5.96,3.44V20H18V17.25a4.193,4.193,0,0,0-1.96-3.44M15,12a3.446,3.446,0,0,1-1.5-.35,5.461,5.461,0,0,0,0-6.3A3.446,3.446,0,0,1,15,5a3.5,3.5,0,0,1,0,7M9,13.75c-2.34,0-7,1.17-7,3.5V20H16V17.25C16,14.92,11.34,13.75,9,13.75ZM14,18H4v-.684c.375-.605,2.864-1.566,5-1.566s4.625.961,5,1.566Z" fill="#08f"></path><path fill="none" stroke="#000" stroke-miterlimit="10" stroke-width=".5" d="M-12 -108H468V372H-12z"></path>
  </symbol><symbol  viewBox='0 0 24 24' id='status-profile-disabled'>
    <path d="M5.5,10a2,2,0,1,1,2,2A2,2,0,0,1,5.5,10Zm6,5.25c0-1.5-2.663-2.25-4-2.25s-4,.75-4,2.25V16h8ZM24,4.75v14.5a.75.75,0,0,1-.75.75H.75A.75.75,0,0,1,0,19.25V4.75A.75.75,0,0,1,.75,4h22.5A.75.75,0,0,1,24,4.75ZM22,6H2V18H22Zm-7.293,9.707L17,13.414l2.293,2.293,1.414-1.414L18.414,12l2.293-2.293L19.293,8.293,17,10.586,14.707,8.293,13.293,9.707,15.586,12l-2.293,2.293Z" fill="#bbb"></path><path fill="none" stroke="#000" stroke-miterlimit="10" stroke-width=".5" d="M-108 -108H372V372H-108z"></path>
  </symbol><symbol  viewBox='0 0 24 24' id='status-profile-unprovisioning'>
    <path d="M5.5,10a2,2,0,1,1,2,2A2,2,0,0,1,5.5,10Zm6,5.25c0-1.5-2.663-2.25-4-2.25s-4,.75-4,2.25V16h8ZM24,4.75v14.5a.75.75,0,0,1-.75.75H.75A.75.75,0,0,1,0,19.25V4.75A.75.75,0,0,1,.75,4h22.5A.75.75,0,0,1,24,4.75ZM22,6H2V18H22Zm-2,7.5V10.672l-2,2V8H16v4.672l-2-2V13.5l3,3Z" fill="#c00"></path><path fill="none" stroke="#000" stroke-miterlimit="10" stroke-width=".5" d="M-156 -108H324V372H-156z"></path>
  </symbol><symbol  viewBox='0 0 24 24' id='status-user-privileged-disabled-locked'>
    <path fill="#08f" d="M18 13.708L19.313 16.369 22.25 16.796 20.125 18.867 20.626 21.792 18 20.411 15.373 21.792 15.875 18.867 13.75 16.796 16.687 16.369 18 13.708z"></path><path data-name="specifier" d="M20.75,6V5a2.75,2.75,0,0,0-5.5,0V6H14v6h8V6ZM18,10.25A1.25,1.25,0,1,1,19.25,9,1.25,1.25,0,0,1,18,10.25ZM16.75,6V5a1.25,1.25,0,0,1,2.5,0V6Z" fill="#c00"></path><path d="M6,8a3.953,3.953,0,0,1,5-3.859V6.28A1.965,1.965,0,0,0,10,6a2,2,0,0,0,0,4,1.965,1.965,0,0,0,1-.28v2.139A3.953,3.953,0,0,1,6,8Zm5,10H4c.22-.72,3.31-2,6-2a9.664,9.664,0,0,1,1,.055v-2c-.359-.034-.7-.054-1-.054-2.67,0-8,1.34-8,4v2h9Z" fill="#bbb"></path><g><path fill="none" stroke="#000" stroke-miterlimit="10" stroke-width=".5" d="M-348 -108H132V372H-348z"></path></g>
  </symbol><symbol  viewBox='0 0 24 24' id='status-user-privileged-disabled'>
    <path d="M13.651,20H3V18c0-1.922,2.784-3.153,5.335-3.689l1.782,1.737C7.675,16.276,5.2,17.358,5,18h7.12l1.606,1.566ZM15,8a4,4,0,1,1-4-4,4,4,0,0,1,4,4M13,8a2,2,0,1,0-2,2,2.006,2.006,0,0,0,2-2" fill="#bbb"></path><path fill="#08f" d="M18 13.708L19.313 16.369 22.25 16.796 20.125 18.867 20.626 21.792 18 20.411 15.373 21.792 15.875 18.867 13.75 16.796 16.687 16.369 18 13.708z"></path><g><path fill="none" stroke="#000" stroke-miterlimit="10" stroke-width=".5" d="M-300 -108H180V372H-300z"></path></g>
  </symbol><symbol  viewBox='0 0 24 24' id='status-user-privileged-enabled-locked'>
    <path d="M18,13.708l1.313,2.661,2.937.427-2.125,2.071.5,2.925L18,20.411l-2.627,1.381.5-2.925L13.75,16.8l2.937-.427ZM10,12a3.977,3.977,0,0,0,1-.141V9.72A1.965,1.965,0,0,1,10,10a2,2,0,0,1,0-4,1.965,1.965,0,0,1,1,.28V4.141A3.994,3.994,0,1,0,10,12Zm1,8H2V18c0-2.66,5.33-4,8-4,.3,0,.641.02,1,.054v2A9.664,9.664,0,0,0,10,16c-2.69,0-5.78,1.28-6,2h7Z" fill="#08f"></path><path d="M20.75,6V5a2.75,2.75,0,0,0-5.5,0V6H14v6h8V6ZM18,10.25A1.25,1.25,0,1,1,19.25,9,1.25,1.25,0,0,1,18,10.25ZM16.75,6V5a1.25,1.25,0,0,1,2.5,0V6Z" fill="#c00"></path><g><path fill="none" stroke="#000" stroke-miterlimit="10" stroke-width=".5" d="M-156 -108H324V372H-156z"></path></g>
  </symbol><symbol  viewBox='0 0 24 24' id='status-user-privileged-enabled'>
    <path d="M13.651,20H3V18c0-1.922,2.784-3.153,5.335-3.689l1.782,1.737C7.675,16.276,5.2,17.358,5,18h7.12l1.606,1.566ZM15,8a4,4,0,1,1-4-4,4,4,0,0,1,4,4M13,8a2,2,0,1,0-2,2,2.006,2.006,0,0,0,2-2m3.687,8.369L13.75,16.8l2.125,2.071-.5,2.925L18,20.411l2.626,1.381-.5-2.925L22.25,16.8l-2.937-.427L18,13.708Z" fill="#08f"></path><path fill="none" stroke="#000" stroke-miterlimit="10" stroke-width=".5" d="M-108 -108H372V372H-108z"></path>
  </symbol><symbol  viewBox='0 0 24 24' id='status-user-provisioning'>
    <path d="M7,8a3.953,3.953,0,0,1,5-3.859V6.28A1.965,1.965,0,0,0,11,6a2,2,0,0,0,0,4,1.965,1.965,0,0,0,1-.28v2.139A3.953,3.953,0,0,1,7,8Zm5,10H5c.22-.72,3.31-2,6-2a9.664,9.664,0,0,1,1,.055v-2c-.359-.034-.7-.054-1-.054-2.67,0-8,1.34-8,4v2h9ZM20,7,17,4,14,7V9.828l2-2V20h2V7.828l2,2Z" fill="#0a0"></path><path fill="none" stroke="#000" stroke-miterlimit="10" stroke-width=".5" d="M-396 -108H84V372H-396z"></path>
  </symbol><symbol  viewBox='0 0 24 24' id='status-user-super-disabled-locked'>
    <path d="M20.75,6V5a2.75,2.75,0,0,0-5.5,0V6H14v6h8V6ZM18,10.25A1.25,1.25,0,1,1,19.25,9,1.25,1.25,0,0,1,18,10.25ZM16.75,6V5a1.25,1.25,0,0,1,2.5,0V6Z" fill="#c00"></path><path data-name="specifier" d="M23,16a.993.993,0,0,1-.923.985L21,21H15l-1.077-4.015a.983.983,0,0,1-.63-.278,1,1,0,1,1,1.414,0,.983.983,0,0,1-.659.283L16.5,18.5l1.438-2.012a1,1,0,1,1,.125,0L19.5,18.5l2.453-1.51A1,1,0,1,1,23,16" fill="#f80"></path><path d="M10,12a3.977,3.977,0,0,0,1-.141V9.72A1.965,1.965,0,0,1,10,10a2,2,0,0,1,0-4,1.965,1.965,0,0,1,1,.28V4.141A3.994,3.994,0,1,0,10,12Zm1,8H2V18c0-2.66,5.33-4,8-4,.3,0,.641.02,1,.054v2A9.664,9.664,0,0,0,10,16c-2.69,0-5.78,1.28-6,2h7Z" fill="#bbb"></path><g><path fill="none" stroke="#000" stroke-miterlimit="10" stroke-width=".5" d="M-252 -108H228V372H-252z"></path></g>
  </symbol><symbol  viewBox='0 0 24 24' id='status-user-super-disabled'>
    <path d="M12.661,20H3V18c0-2.66,5.331-4,8-4,.23,0,.486.014.751.034A2.973,2.973,0,0,0,11,16h0c-2.689,0-5.78,1.28-6,2h6.779c.035.039.062.084.1.122a2.773,2.773,0,0,0,.361.3ZM11,12a4,4,0,1,1,4-4,4,4,0,0,1-4,4m0-6a2,2,0,1,0,2,2,2.006,2.006,0,0,0-2-2" fill="#bbb"></path><path d="M23,16a1,1,0,1,0-1.047.99L19.5,18.5l-1.437-2.012a1,1,0,1,0-.125,0L16.5,18.5l-2.452-1.51a.983.983,0,0,0,.659-.283,1,1,0,1,0-1.414,0,.983.983,0,0,0,.63.278L15,21h6l1.077-4.015A.993.993,0,0,0,23,16" fill="#f80"></path><g><path fill="none" stroke="#000" stroke-miterlimit="10" stroke-width=".5" d="M-204 -108H276V372H-204z"></path></g>
  </symbol><symbol  viewBox='0 0 24 24' id='status-user-super-enabled-locked'>
    <path d="M23,16a.993.993,0,0,1-.923.985L21,21H15l-1.077-4.015a.983.983,0,0,1-.63-.278,1,1,0,1,1,1.414,0,.983.983,0,0,1-.659.283L16.5,18.5l1.438-2.012a1,1,0,1,1,.125,0L19.5,18.5l2.453-1.51A1,1,0,1,1,23,16M10,12a3.977,3.977,0,0,0,1-.141V9.72A1.965,1.965,0,0,1,10,10a2,2,0,0,1,0-4,1.965,1.965,0,0,1,1,.28V4.141A3.994,3.994,0,1,0,10,12Zm1,8H2V18c0-2.66,5.33-4,8-4,.3,0,.641.02,1,.054v2A9.664,9.664,0,0,0,10,16c-2.69,0-5.78,1.28-6,2h7Z" fill="#f80"></path><path d="M20.75,6V5a2.75,2.75,0,0,0-5.5,0V6H14v6h8V6ZM18,10.25A1.25,1.25,0,1,1,19.25,9,1.25,1.25,0,0,1,18,10.25ZM16.75,6V5a1.25,1.25,0,0,1,2.5,0V6Z" fill="#c00"></path><g><path fill="none" stroke="#000" stroke-miterlimit="10" stroke-width=".5" d="M-60 -108H420V372H-60z"></path></g>
  </symbol><symbol  viewBox='0 0 24 24' id='status-user-super-enabled'>
    <path d="M12.661,20H3V18c0-2.66,5.331-4,8-4,.23,0,.486.014.751.034A2.973,2.973,0,0,0,11,16h0c-2.689,0-5.78,1.28-6,2h6.779c.035.039.062.084.1.122a2.773,2.773,0,0,0,.361.3ZM11,12a4,4,0,1,1,4-4,4,4,0,0,1-4,4m0-6a2,2,0,1,0,2,2,2.006,2.006,0,0,0-2-2M23,16a1,1,0,1,0-1.047.99L19.5,18.5l-1.437-2.012a1,1,0,1,0-.125,0L16.5,18.5l-2.452-1.51a.983.983,0,0,0,.659-.283,1,1,0,1,0-1.414,0,.983.983,0,0,0,.63.278L15,21h6l1.077-4.015A.993.993,0,0,0,23,16" fill="#f80"></path><path fill="none" stroke="#000" stroke-miterlimit="10" stroke-width=".5" d="M-12 -108H468V372H-12z"></path>
  </symbol><symbol  viewBox='0 0 24 24' id='status-user-unprovisioning'>
    <path d="M7,8a3.953,3.953,0,0,1,5-3.859V6.28A1.965,1.965,0,0,0,11,6a2,2,0,0,0,0,4,1.965,1.965,0,0,0,1-.28v2.139A3.953,3.953,0,0,1,7,8Zm5,10H5c.22-.72,3.31-2,6-2a9.664,9.664,0,0,1,1,.055v-2c-.359-.034-.7-.054-1-.054-2.67,0-8,1.34-8,4v2h9Zm8-3.328-2,2V4H16V16.672l-2-2V17.5l3,3,3-3Z" fill="#c00"></path><path fill="none" stroke="#000" stroke-miterlimit="10" stroke-width=".5" d="M-444 -108H36V372H-444z"></path>
  </symbol><symbol  viewBox='0 0 24 24' id='window-close'>
    <path d="M18.362,7.048l-1.41-1.41L12,10.59,7.048,5.638l-1.41,1.41L10.59,12,5.638,16.952l1.41,1.41L12,13.41l4.952,4.952,1.41-1.41L13.41,12Z"></path><path fill="none" stroke="#000" stroke-miterlimit="10" stroke-width=".5" d="M-108 -156H372V324H-108z"></path>
  </symbol><symbol  viewBox='0 0 24 24' id='window-float'>
    <path d="M19,4H9A1,1,0,0,0,8,5V8H5A1,1,0,0,0,4,9V19a1,1,0,0,0,1,1H15a1,1,0,0,0,1-1V16h3a1,1,0,0,0,1-1V5A1,1,0,0,0,19,4ZM14,18H6V10h8Zm4-4H16V9a1,1,0,0,0-1-1H10V6h8Z"></path><path fill="none" stroke="#000" stroke-miterlimit="10" stroke-width=".5" d="M-60 -156H420V324H-60z"></path>
  </symbol><symbol  viewBox='0 0 24 24' id='window-help'>
    <path d="M12,3a9,9,0,1,0,9,9A9,9,0,0,0,12,3Zm1,15H11V16h2Zm1.764-6.832a3.088,3.088,0,0,1-.634.943c-.256.263-1.035,1.035-1.035,1.035a.333.333,0,0,0-.1.233V14H11v-.621a2.349,2.349,0,0,1,.684-1.65s.765-.759,1.015-1.015a1.07,1.07,0,0,0,.223-.327,1,1,0,0,0,0-.776,1,1,0,0,0-.216-.32.993.993,0,0,0-.316-.214,1.014,1.014,0,0,0-.78,0,.993.993,0,0,0-.316.214,1,1,0,0,0-.216.32,1,1,0,0,0,0,.776l-1.842.781a3,3,0,0,1,1.6-3.934,3.027,3.027,0,0,1,2.334,0,2.986,2.986,0,0,1,.955.644,3,3,0,0,1,.642,3.29Z"></path><path fill="none" stroke="#000" stroke-miterlimit="10" stroke-width=".5" d="M-12 -156H468V324H-12z"></path>
  </symbol><symbol  viewBox='0 0 24 24' id='window-maximise'>
    <path d="M18,5H6A1,1,0,0,0,5,6V18a1,1,0,0,0,1,1H18a1,1,0,0,0,1-1V6A1,1,0,0,0,18,5ZM17,17H7V9H17Z"></path><path fill="none" stroke="#000" stroke-miterlimit="10" stroke-width=".5" d="M-156 -156H324V324H-156z"></path>
  </symbol><symbol  viewBox='0 0 24 24' id='window-minimise'>
    <path d="M5 11H19V13H5z"></path><path fill="none" stroke="#000" stroke-miterlimit="10" stroke-width=".5" d="M-204 -156H276V324H-204z"></path>
  </symbol></svg>