<svg xmlns="http://www.w3.org/2000/svg" viewBox="0 0 24 24"><path d="M2,3.87,4.69,6.55A11.74,11.74,0,0,0,1,11.5,11.83,11.83,0,0,0,12,19a11.73,11.73,0,0,0,4.32-.82l3.42,3.42,1.41-1.41L3.42,2.45ZM6.11,8,7.86,9.72A4.6,4.6,0,0,0,7.5,11.5a4.51,4.51,0,0,0,6.27,4.14l1,1A10.43,10.43,0,0,1,12,17a9.77,9.77,0,0,1-8.82-5.5A9.9,9.9,0,0,1,6.11,8ZM10,6.22,8.36,4.57A11.83,11.83,0,0,1,23,11.5,11.8,11.8,0,0,1,19.82,16l-1.41-1.41a9.65,9.65,0,0,0,2.41-3.12A9.77,9.77,0,0,0,12,6,10.11,10.11,0,0,0,10,6.22ZM12,7a4.48,4.48,0,0,1,4.49,4.49,4.68,4.68,0,0,1-.14,1.07L10.93,7.14A4.24,4.24,0,0,1,12,7Z"/></svg>