<svg xmlns="http://www.w3.org/2000/svg" viewBox="0 0 24 24"><path d="M13.85,10.21l-1.49,1.17.26-1.88H11.38l.26,1.88-1.49-1.17-.63,1.08,1.77.71-1.77.71.63,1.08,1.49-1.17-.26,1.88h1.24l-.26-1.88,1.49,1.17.63-1.08L12.71,12l1.77-.71Zm-5.5,0L6.86,11.38,7.12,9.5H5.88l.26,1.88L4.65,10.21,4,11.29,5.79,12,4,12.71l.63,1.08,1.49-1.17L5.88,14.5H7.12l-.26-1.88,1.49,1.17L9,12.71,7.21,12,9,11.29Zm11,0-1.49,1.17.26-1.88H16.88l.26,1.88-1.49-1.17L15,11.29l1.77.71L15,12.71l.63,1.08,1.49-1.17-.26,1.88h1.24l-.26-1.88,1.49,1.17L20,12.71,18.21,12,20,11.29ZM22,5H2A1,1,0,0,0,1,6V18a1,1,0,0,0,1,1H22a1,1,0,0,0,1-1V6A1,1,0,0,0,22,5ZM3,17V7H21l0,10Z"/></svg>