<svg xmlns="http://www.w3.org/2000/svg" viewBox="0 0 24 24"><path d="M6.15,16.86a1.87,1.87,0,0,1-.74,1.5,2.84,2.84,0,0,1-1.84.56,2.51,2.51,0,0,1-1.95-.74,2.94,2.94,0,0,1-.7-2.11v-.16a3.38,3.38,0,0,1,.32-1.5,2.21,2.21,0,0,1,.92-1,2.62,2.62,0,0,1,1.36-.34,2.86,2.86,0,0,1,1.86.56,2.11,2.11,0,0,1,.78,1.55H4.52a.73.73,0,0,0-.26-.62,1.09,1.09,0,0,0-.74-.23c-.58,0-.9.44-.94,1.32v.43a2.52,2.52,0,0,0,.21,1.2.83.83,0,0,0,.78.37c.64,0,.95-.27.94-.8Zm4,.43a.47.47,0,0,0-.22-.41,2.34,2.34,0,0,0-.79-.29,8,8,0,0,1-.95-.28A2.35,2.35,0,0,1,7.53,16a1.13,1.13,0,0,1-.36-.48,1.78,1.78,0,0,1-.12-.69,1.44,1.44,0,0,1,.28-.88,1.9,1.9,0,0,1,.8-.61,2.78,2.78,0,0,1,1.13-.22,3,3,0,0,1,1.77.48,1.54,1.54,0,0,1,.66,1.31H10a.58.58,0,0,0-.22-.46.81.81,0,0,0-.54-.19.76.76,0,0,0-.5.15.43.43,0,0,0-.19.35.4.4,0,0,0,.19.35,2.23,2.23,0,0,0,.68.26,3.73,3.73,0,0,1,1.71.7,1.54,1.54,0,0,1,.5,1.21,1.46,1.46,0,0,1-.61,1.23,2.79,2.79,0,0,1-1.68.45,3.45,3.45,0,0,1-1.32-.23A2,2,0,0,1,7.17,18a1.71,1.71,0,0,1-.32-1H8.51a.71.71,0,0,0,.23.61,1.31,1.31,0,0,0,.76.17.72.72,0,0,0,.46-.13A.44.44,0,0,0,10.12,17.29Zm4.88,0,0,.1v-.08l1.2-4.11H18l-2,5.69H14.09l-2-5.69h1.71Z"/><path d="M21,2H13.41a1,1,0,0,0-.7.29L6.29,8.71a1,1,0,0,0-.29.7V11h8a1,1,0,0,0,1-1V4h5V21H6v1a1,1,0,0,0,1,1H21a1,1,0,0,0,1-1V3A1,1,0,0,0,21,2ZM13,9H8.83L13,4.83Z"/></svg>