<svg xmlns="http://www.w3.org/2000/svg" viewBox="0 0 24 24"><path d="M3,13H5V11H3Zm4,8H9V19H7ZM3,9H5V7H3ZM13,3H11V5h2ZM3,17H5V15H3ZM9,3H7V5H9ZM5,3H3V5H5Zm6,18h2V19H11Zm8-8h2V11H19Zm0-4h2V7H19Zm0,8h2V15H19Zm-4,4h2V19H15ZM15,5h2V3H15Zm4,0h2V3H19Zm0,16h2V19H19ZM3,21H5V19H3ZM15.536,7.05,12,10.586,8.464,7.05,7.05,8.464,10.586,12,7.05,15.536,8.464,16.95,12,13.414l3.536,3.536,1.414-1.414L13.414,12,16.95,8.464Z"/><path fill="none" stroke="#000" stroke-miterlimit="10" stroke-width=".5" d="M-156 -12H324V468H-156z"/></svg>