<svg xmlns="http://www.w3.org/2000/svg" viewBox="0 0 24 24"><path d="M17.65,13.581l1.2-1.052-.9-1.558-1.51.51-.724-.418L15.4,9.5H13.6l-.313,1.563-.724.418-1.51-.51-.9,1.558,1.2,1.052v.838l-1.2,1.052.9,1.558,1.51-.51.724.418L13.6,18.5h1.8l.313-1.563.724-.418,1.51.51.9-1.558-1.2-1.052ZM15.85,14a1.35,1.35,0,1,1-1.35-1.35A1.349,1.349,0,0,1,15.85,14ZM17,1H5A2.006,2.006,0,0,0,3,3V17H5V3H17Zm3,4H9A2.006,2.006,0,0,0,7,7V21a2.006,2.006,0,0,0,2,2H20a2.006,2.006,0,0,0,2-2V7A2.006,2.006,0,0,0,20,5Zm0,16H9V7H20Z"/></svg>