<svg xmlns="http://www.w3.org/2000/svg" viewBox="0 0 24 24"><g fill="none"><path d="M0 0H24V24H0z"/><path stroke="#000" stroke-miterlimit="10" stroke-width=".5" d="M-300 -12H180V468H-300z"/></g><path d="M17.65,13.58l1.2-1.05L18,11l-1.51.51-.73-.42L15.4,9.5H13.6l-.31,1.56-.73.42L11.05,11l-.9,1.56,1.2,1.05v.84l-1.2,1.05.9,1.56,1.51-.51.73.42.31,1.56h1.8l.31-1.56.73-.42L18,17l.9-1.56-1.2-1.05Zm-1.8.42a1.35,1.35,0,1,1-1.35-1.35A1.34,1.34,0,0,1,15.85,14ZM17,1H5A2,2,0,0,0,3,3V17H5V3H17Zm3,4H9A2,2,0,0,0,7,7V21a2,2,0,0,0,2,2H20a2,2,0,0,0,2-2V7A2,2,0,0,0,20,5Zm0,16H9V7H20Z"/></svg>