<svg xmlns="http://www.w3.org/2000/svg" viewBox="0 0 24 24"><path d="M5,4A2,2,0,1,1,3,6,2,2,0,0,1,5,4ZM5,9c-1.34,0-4,.75-4,2.25V12H9v-.75C9,9.75,6.34,9,5,9ZM17.08,5,15.79,6.48a2,2,0,0,1,.66,1.1l2-.43A4,4,0,0,0,17.08,5Zm-.61,3.41a2,2,0,0,1-.63,1.12L17.19,11a3.94,3.94,0,0,0,1.24-2.25ZM11.81,5a3.94,3.94,0,0,0-1.24,2.25l2,.35a2,2,0,0,1,.63-1.12Zm3.36,4.84a1.85,1.85,0,0,1-.67.12,1.77,1.77,0,0,1-.61-.1l-.61,1.91A4.15,4.15,0,0,0,14.5,12a3.8,3.8,0,0,0,1.35-.24ZM12.55,8.42l-2,.43a4,4,0,0,0,1.33,2.2l1.29-1.53A2,2,0,0,1,12.55,8.42ZM14.5,4a3.8,3.8,0,0,0-1.35.24l.68,1.88A1.85,1.85,0,0,1,14.5,6a1.77,1.77,0,0,1,.61.1l.61-1.91A4.15,4.15,0,0,0,14.5,4ZM23,21H21V19h2ZM6,19H8v2H6Zm5,0H9v2h2Zm3,0H12v2h2Zm3,0H15v2h2Zm3,0H18v2h2Zm-6.2-5-.45,0c-.51,0-1,.08-1.46.15l.27,2h0A18.1,18.1,0,0,1,14,16h0l0-2ZM6,18H8a1.13,1.13,0,0,1,.62-.85h0l-1-1.51A3,3,0,0,0,6,18Zm2.72-2.93.7,1.68h0c.25-.09.52-.18.81-.26h0c.29-.08.61-.15.95-.21l-.4-1.87A11.18,11.18,0,0,0,8.72,15.07Zm12.63.57-1,1.51h0A1.13,1.13,0,0,1,21,18h2A3,3,0,0,0,21.35,15.64Zm-3.14-1.23-.4,1.87c.34.06.66.13,1,.21h0c.29.08.56.17.81.26h0l.7-1.68A11.18,11.18,0,0,0,18.21,14.41ZM15.65,14l-.45,0H15l0,2h0a18.1,18.1,0,0,1,1.87.13h0l.27-2C16.64,14.12,16.16,14.07,15.65,14Z"/></svg>