<svg xmlns="http://www.w3.org/2000/svg" viewBox="0 0 24 24"><path d="M19,2H14.82A2.988,2.988,0,0,0,9.18,2H5A2.006,2.006,0,0,0,3,4V5.229A7.027,7.027,0,0,0,5,8V4H7V6H17V4h2V20H5V15.673A10.977,10.977,0,0,1,3,14.5V20a2.006,2.006,0,0,0,2,2H19a2.006,2.006,0,0,0,2-2V4A2.006,2.006,0,0,0,19,2ZM12,4a1,1,0,1,1,1-1A1,1,0,0,1,12,4ZM9.5,17.5v-3a9,9,0,0,1-9-9A9.045,9.045,0,0,1,.635,4,8.995,8.995,0,0,0,9.5,11.5v-3L15,13Z"/><path fill="none" stroke="#000" stroke-miterlimit="10" stroke-width=".5" d="M-204 -12H276V468H-204z"/></svg>