<svg xmlns="http://www.w3.org/2000/svg" viewBox="0 0 24 24"><path d="M16.65,13.58l1.2-1.05L17,11l-1.51.51-.73-.42L14.4,9.5H12.6l-.31,1.56-.73.42L10.05,11l-.9,1.56,1.2,1.05v.84l-1.2,1.05.9,1.56,1.51-.51.73.42.31,1.56h1.8l.31-1.56.73-.42L17,17l.9-1.56-1.2-1.05Zm-1.8.42a1.35,1.35,0,1,1-1.35-1.35A1.34,1.34,0,0,1,14.85,14ZM16,1H4A2,2,0,0,0,2,3V17H4V3H16Zm3,4H8A2,2,0,0,0,6,7V21a2,2,0,0,0,2,2H19a2,2,0,0,0,2-2V7A2,2,0,0,0,19,5Zm0,16H8V7H19Z"/><path fill="none" stroke="#000" stroke-miterlimit="10" stroke-width=".5" d="M-300 -12H180V468H-300z"/></svg>