<svg xmlns="http://www.w3.org/2000/svg" viewBox="0 0 24 24"><path d="M6.154,16.859a1.893,1.893,0,0,1-.742,1.5,2.9,2.9,0,0,1-1.846.562,2.539,2.539,0,0,1-1.95-.742,2.966,2.966,0,0,1-.7-2.11v-.161a3.341,3.341,0,0,1,.322-1.507,2.3,2.3,0,0,1,.913-.988,2.681,2.681,0,0,1,1.367-.342,2.858,2.858,0,0,1,1.858.569,2.136,2.136,0,0,1,.784,1.55H4.519a.756.756,0,0,0-.254-.625,1.116,1.116,0,0,0-.743-.224q-.877,0-.942,1.316l0,.434a2.421,2.421,0,0,0,.22,1.2.828.828,0,0,0,.771.36c.642,0,.955-.265.943-.8Zm3.971.432a.478.478,0,0,0-.225-.413,2.458,2.458,0,0,0-.789-.287,7.471,7.471,0,0,1-.947-.279,2.282,2.282,0,0,1-.632-.348,1.233,1.233,0,0,1-.366-.486,1.791,1.791,0,0,1-.117-.684,1.483,1.483,0,0,1,.285-.887,1.854,1.854,0,0,1,.8-.609,2.836,2.836,0,0,1,1.13-.218,2.934,2.934,0,0,1,1.772.482,1.528,1.528,0,0,1,.659,1.305h-1.65a.581.581,0,0,0-.218-.454.8.8,0,0,0-.549-.19.781.781,0,0,0-.5.149.433.433,0,0,0-.19.349.407.407,0,0,0,.192.351,2.379,2.379,0,0,0,.682.259,3.793,3.793,0,0,1,1.711.7,1.543,1.543,0,0,1,.5,1.214,1.454,1.454,0,0,1-.61,1.234,2.771,2.771,0,0,1-1.675.451,3.512,3.512,0,0,1-1.319-.233,1.981,1.981,0,0,1-.9-.664A1.708,1.708,0,0,1,6.854,17H8.509a.724.724,0,0,0,.227.611,1.264,1.264,0,0,0,.759.175.722.722,0,0,0,.464-.134A.435.435,0,0,0,10.125,17.291ZM15,17.255l.015.093.014-.074,1.2-4.116H17.95l-2,5.689H14.093l-1.988-5.689h1.714Z"/><path d="M21,2H13.414a1,1,0,0,0-.707.293L6.293,8.707A1,1,0,0,0,6,9.414V11h8a1,1,0,0,0,1-1V4h5V21H6v1a1,1,0,0,0,1,1H21a1,1,0,0,0,1-1V3A1,1,0,0,0,21,2ZM13,9H8.828L13,4.828Z"/><g><path fill="none" stroke="#000" stroke-miterlimit="10" stroke-width=".5" d="M-252 -12H228V468H-252z"/></g></svg>