<svg xmlns="http://www.w3.org/2000/svg" viewBox="0 0 24 24"><path d="M5,4A2,2,0,1,1,3,6,2,2,0,0,1,5,4ZM5,9c-1.3,0-4,.7-4,2.2V12H9v-.7C9,9.8,6.3,9,5,9ZM17.1,5,15.8,6.5a2.1,2.1,0,0,1,.7,1.1l1.9-.4A3.6,3.6,0,0,0,17.1,5Zm-.6,3.4a1.9,1.9,0,0,1-.7,1.1L17.2,11a4,4,0,0,0,1.2-2.3ZM11.8,5a4,4,0,0,0-1.2,2.3l1.9.3a1.9,1.9,0,0,1,.7-1.1Zm3.4,4.9H13.9l-.6,1.9,1.2.2,1.3-.2ZM12.5,8.4l-1.9.5a4.2,4.2,0,0,0,1.3,2.2l1.3-1.6A2.1,2.1,0,0,1,12.5,8.4Zm2-4.4-1.3.2.6,1.9h1.3l.6-1.9ZM23,21H21V19h2ZM6,19H8v2H6Zm5,0H9v2h2Zm3,0H12v2h2Zm3,0H15v2h2Zm3,0H18v2h2Zm-6.2-5h-.5l-1.4.2.3,1.9H14V14ZM6,18H8a.9.9,0,0,1,.6-.8h0l-.9-1.6A3,3,0,0,0,6,18Zm2.7-2.9.7,1.7h0l.8-.3h0l1-.2-.4-1.9Zm12.6.5-.9,1.6h0a.9.9,0,0,1,.6.8h2A3,3,0,0,0,21.3,15.6Zm-3.1-1.2-.4,1.9,1,.2h0l.8.3h0l.7-1.7ZM15.7,14H15v2h1.8l.3-1.9Z"/></svg>