<svg xmlns="http://www.w3.org/2000/svg" viewBox="0 0 24 24"><path d="M13.853,10.208l-1.5,1.175L12.625,9.5h-1.25l.269,1.883-1.5-1.175-.625,1.084L11.288,12l-1.766.708.625,1.084,1.5-1.175L11.375,14.5h1.25l-.269-1.883,1.5,1.175.625-1.084L12.712,12l1.766-.708ZM12,12ZM8.353,10.208l-1.5,1.175L7.125,9.5H5.875l.269,1.883-1.5-1.175-.625,1.084L5.788,12l-1.766.708.625,1.084,1.5-1.175L5.875,14.5h1.25l-.269-1.883,1.5,1.175.625-1.084L7.212,12l1.766-.708ZM6.5,12Zm12.853-1.792-1.5,1.175L18.125,9.5h-1.25l.269,1.883-1.5-1.175-.625,1.084L16.788,12l-1.766.708.625,1.084,1.5-1.175L16.875,14.5h1.25l-.269-1.883,1.5,1.175.625-1.084L18.212,12l1.766-.708ZM17.5,12Zm4.52-7.01h-20a1,1,0,0,0-1,1v12a1,1,0,0,0,1,1h20a1,1,0,0,0,1-1v-12A1,1,0,0,0,22.02,4.99Zm-19,12v-10L21,7l.021,9.99Z"/></svg>