<svg xmlns="http://www.w3.org/2000/svg" viewBox="0 0 24 24"><path d="M16.65,13.581l1.2-1.052-.9-1.558-1.51.51-.724-.418L14.4,9.5H12.6l-.313,1.563-.724.418-1.51-.51-.9,1.558,1.2,1.052v.838l-1.2,1.052.9,1.558,1.51-.51.724.418L12.6,18.5h1.8l.313-1.563.724-.418,1.51.51.9-1.558-1.2-1.052ZM14.85,14a1.35,1.35,0,1,1-1.35-1.35A1.349,1.349,0,0,1,14.85,14ZM16,1H4A2.006,2.006,0,0,0,2,3V17H4V3H16Zm3,4H8A2.006,2.006,0,0,0,6,7V21a2.006,2.006,0,0,0,2,2H19a2.006,2.006,0,0,0,2-2V7A2.006,2.006,0,0,0,19,5Zm0,16H8V7H19Z"/><path fill="none" stroke="#000" stroke-miterlimit="10" stroke-width=".5" d="M-300 -12H180V468H-300z"/></svg>