<svg xmlns="http://www.w3.org/2000/svg" viewBox="0 0 24 24"><path d="M16.9,10.1l1,1-7,6.9H10v-.9l6.9-7m3.6-6a1.1,1.1,0,0,0-.7.3L18,6.2,21.8,10l1.8-1.8a1,1,0,0,0,0-1.4L21.2,4.4A.8.8,0,0,0,20.5,4.1ZM16.9,7.3,8,16.2V20h3.8l8.9-8.9ZM1,20H5V18H1ZM1,4V6H14l2-2Zm7.5,6.9a1,1,0,0,0-1.1-.6H7.1l-1.3,1a.9.9,0,0,0-.5-.3l.5-1.6a.9.9,0,0,0-.5-1.1H5a.8.8,0,0,0-.9.8c0,.1.1.2.1.3l.5,1.6a.9.9,0,0,0-.5.3l-1.3-1a1,1,0,0,0-1.2.2l-.2.3h0A1,1,0,0,0,2.1,12H4a1.4,1.4,0,0,0,.2.6l-1.3,1a.8.8,0,0,0-.2,1.2h.2a.8.8,0,0,0,1.2-.2v-.2l.5-1.6h.6l.5,1.6a.9.9,0,0,0,1.1.6l.2-.2h0a.8.8,0,0,0,.2-1.2H7.1l-1.3-1A1.4,1.4,0,0,0,6,12H7.6a.9.9,0,0,0,.9-.9ZM23,18H18l-2,2h7Z"/></svg>