<svg xmlns="http://www.w3.org/2000/svg" viewBox="0 0 24 24"><path d="M20,18a2,2,0,0,0,1.99-2L22,5a2.006,2.006,0,0,0-2-2H4A2.006,2.006,0,0,0,2,5V16a2.006,2.006,0,0,0,2,2H0v2H24V18ZM4,5H20V16H4ZM17.25,9a1.25,1.25,0,0,1-1.243,1.249L15,14H9L7.993,10.249A1.25,1.25,0,1,1,9.25,9a1.234,1.234,0,0,1-.9,1.179L10.5,11.5,11.938,9.49c-.017,0-.031-.01-.048-.012a1.25,1.25,0,1,1,.22,0c-.017,0-.031.011-.048.012L13.5,11.5l2.15-1.324A1.234,1.234,0,0,1,14.75,9a1.25,1.25,0,0,1,2.5,0Z"/><path fill="none" stroke="#000" stroke-miterlimit="10" stroke-width=".5" d="M-252 -12H228V468H-252z"/></svg>