<svg xmlns="http://www.w3.org/2000/svg" viewBox="0 0 24 24"><path d="M14.619,22H9.381L8.8,19.1l-1.352-.781-2.8.948L2.029,14.73,4.25,12.78V11.219L2.029,9.269,4.649,4.73l2.8.948L8.8,4.9,9.381,2h5.238l.58,2.9,1.352.781,2.8-.948,2.62,4.539-2.221,1.95V12.78l2.221,1.95-2.62,4.539-2.8-.948L15.2,19.1Zm-3.6-2h1.96l.436-2.178,2.918-1.684,2.1.711.98-1.7L17.75,13.685V10.314l1.668-1.465-.98-1.7-2.1.713L13.416,6.177,12.98,4H11.02l-.436,2.177L7.666,7.863l-2.1-.713-.98,1.7L6.25,10.314v3.371L4.582,15.15l.98,1.7,2.1-.711,2.918,1.684ZM15,12a3,3,0,1,0-3,3A3,3,0,0,0,15,12Z"/><path fill="none" stroke="#000" stroke-miterlimit="10" stroke-width=".5" d="M-348 -12H132V468H-348z"/></svg>