<svg xmlns="http://www.w3.org/2000/svg" viewBox="0 0 24 24"><path d="M18.4,23h1.09c-.32-.62-.49-2.3-.49-3v-3c0-1.1-.9-2-2-2h-4V2c0-.55-.45-1-1-1s-1,.45-1,1V15H7c-1.1,0-2,.9-2,2v3c0,.7-.17,2.38-.49,3h1.09c.17-.41,.29-1.26,.35-2h.63c-.06,.73-.16,1.61-.29,2h1.04c.12-.44,.21-1.29,.26-2h.63c-.04,.72-.1,1.6-.18,2h1.02c.08-.49,.14-1.33,.17-2h.64c-.02,.7-.04,1.58-.07,2h.99c.04-.5,.07-1.34,.08-2h.64v2h1v-2h.64c.01,.66,.04,1.5,.08,2h1.01c-.04-.43-.07-1.3-.08-2h.64c.03,.67,.08,1.51,.17,2h1.02c-.07-.4-.14-1.28-.18-2h.63c.05,.71,.13,1.56,.26,2h1.04c-.13-.39-.23-1.27-.29-2h.63c.06,.74,.18,1.59,.35,2Zm-11.4-6h10v2H7v-2Z"/></svg>