<svg xmlns="http://www.w3.org/2000/svg" viewBox="0 0 24 24"><path d="M16.94,10.14l.92.92L10.92,18H10v-.92l6.94-6.94m3.6-6a1,1,0,0,0-.7.29L18,6.24,21.76,10l1.83-1.83a1,1,0,0,0,0-1.41L21.25,4.41A1,1,0,0,0,20.54,4.12Zm-3.6,3.19L8,16.25V20h3.75l8.94-8.94ZM1,20H5V18H1ZM1,4V6H14l2-2Zm7.46,6.88a.86.86,0,0,0-1.08-.55.55.55,0,0,0-.24.12l-1.34,1a1,1,0,0,0-.49-.36l.51-1.57A.88.88,0,0,0,5,8.36H5a.87.87,0,0,0-.86.86,1.26,1.26,0,0,0,0,.27l.52,1.57a1,1,0,0,0-.49.36l-1.34-1a.85.85,0,0,0-1.2.19.9.9,0,0,0-.12.24h0A.86.86,0,0,0,2.1,12a.75.75,0,0,0,.26,0H4a1,1,0,0,0,.2.58l-1.34,1a.86.86,0,0,0-.19,1.2,1.14,1.14,0,0,0,.19.19h0a.86.86,0,0,0,1.2-.19.55.55,0,0,0,.12-.24l.52-1.57A1.07,1.07,0,0,0,5,13a1.07,1.07,0,0,0,.3-.06l.51,1.57a.86.86,0,0,0,1.08.55.9.9,0,0,0,.24-.12h0a.86.86,0,0,0,0-1.39l-1.33-1A1,1,0,0,0,6,12H7.64a.86.86,0,0,0,.86-.86A1.09,1.09,0,0,0,8.46,10.88ZM23,18H18l-2,2h7Z"/><path fill="none" stroke="#000" stroke-miterlimit="10" stroke-width=".5" d="M-204 -12H276V468H-204z"/></svg>