<svg xmlns="http://www.w3.org/2000/svg" viewBox="0 0 24 24"><path d="M16.939,10.141l.92.92L10.92,18H10v-.92l6.939-6.939m3.6-6.02a1,1,0,0,0-.7.29l-1.83,1.83,3.75,3.75,1.83-1.83a1,1,0,0,0,0-1.41l-2.34-2.34A.982.982,0,0,0,20.539,4.121Zm-3.6,3.19L8,16.25V20h3.75l8.939-8.939ZM1,20H5V18H1ZM1,4V6H14l2-2Zm7.457,6.877a.857.857,0,0,0-1.32-.429L5.8,11.423a.97.97,0,0,0-.49-.361l.511-1.574A.858.858,0,0,0,5,8.365H5a.858.858,0,0,0-.816,1.123L4.7,11.062a.97.97,0,0,0-.49.361l-1.342-.975a.857.857,0,0,0-1.32.429h0A.858.858,0,0,0,2.359,12H4a.975.975,0,0,0,.205.577l-1.342.975a.859.859,0,0,0,0,1.389h0a.859.859,0,0,0,1.321-.429L4.7,12.938A.974.974,0,0,0,5,13a.974.974,0,0,0,.3-.062l.511,1.574a.859.859,0,0,0,1.321.429h0a.859.859,0,0,0,0-1.389L5.8,12.577A.975.975,0,0,0,6,12H7.641a.858.858,0,0,0,.816-1.123ZM23,18H18l-2,2h7Z"/><path fill="none" stroke="#000" stroke-miterlimit="10" stroke-width=".5" d="M-204 -12H276V468H-204z"/></svg>