<svg xmlns="http://www.w3.org/2000/svg" viewBox="0 0 24 24"><path d="M5,4A2,2,0,1,1,3,6,2,2,0,0,1,5,4ZM5,9c-1.337,0-4,.75-4,2.25V12H9v-.75C9,9.75,6.337,9,5,9ZM17.08,4.951l-1.29,1.53a1.958,1.958,0,0,1,.66,1.1l1.96-.43A3.964,3.964,0,0,0,17.08,4.951Zm-.61,3.41a2,2,0,0,1-.63,1.12l1.35,1.48a3.941,3.941,0,0,0,1.24-2.25Zm-4.66-3.32a3.941,3.941,0,0,0-1.24,2.25l1.96.35a2,2,0,0,1,.63-1.12Zm3.36,4.84a1.853,1.853,0,0,1-.67.12,1.775,1.775,0,0,1-.61-.1l-.61,1.91A4.148,4.148,0,0,0,14.5,12a3.8,3.8,0,0,0,1.35-.24Zm-2.62-1.46-1.96.43a3.964,3.964,0,0,0,1.33,2.2l1.29-1.53A1.958,1.958,0,0,1,12.55,8.421ZM14.5,4a3.8,3.8,0,0,0-1.35.24l.68,1.88A1.853,1.853,0,0,1,14.5,6a1.775,1.775,0,0,1,.61.1l.61-1.91A4.148,4.148,0,0,0,14.5,4ZM23,21H21V19h2ZM6,19H8v2H6Zm5,0H9v2h2Zm3,0H12v2h2Zm3,0H15v2h2Zm3,0H18v2h2Zm-6.2-4.983c-.152.005-.3.015-.452.024-.5.032-.99.082-1.459.154l.272,1.941h0c.588-.07,1.215-.114,1.871-.129h.013l-.053-1.994C13.927,14.014,13.862,14.014,13.8,14.017ZM6,18H8a1.112,1.112,0,0,1,.618-.847h0l-.965-1.516A3,3,0,0,0,6,18Zm2.72-2.927.7,1.68h0a8.094,8.094,0,0,1,.807-.259h.006c.294-.079.612-.149.95-.211l-.395-1.877A11.709,11.709,0,0,0,8.72,15.073Zm12.627.564-.965,1.516h0A1.112,1.112,0,0,1,21,18h2A3,3,0,0,0,21.347,15.637Zm-3.138-1.232-.395,1.877c.338.062.656.132.95.211h.006a8.094,8.094,0,0,1,.807.259h0l.7-1.68A11.709,11.709,0,0,0,18.209,14.405Zm-2.555-.364c-.15-.009-.3-.019-.452-.024-.064,0-.129,0-.192,0l-.053,1.994h.013c.656.015,1.283.059,1.871.129h0l.272-1.941C16.644,14.123,16.155,14.073,15.654,14.041Z"/><path fill="none" stroke="#000" stroke-miterlimit="10" stroke-width=".5" d="M-156 -12H324V468H-156z"/></svg>