<svg xmlns="http://www.w3.org/2000/svg" viewBox="0 0 24 24"><path d="M21,5.5a.5.5,0,0,1,.5.5v5a.5.5,0,0,1-.5.5H18a.5.5,0,0,1-.5-.5V6a.5.5,0,0,1,.5-.5h3M21,4H18a2,2,0,0,0-2,2v5a2,2,0,0,0,2,2h3a2,2,0,0,0,2-2V6a2,2,0,0,0-2-2ZM14,14.5a.5.5,0,0,1,.5.5v3a.5.5,0,0,1-.5.5H11a.5.5,0,0,1-.5-.5V15a.5.5,0,0,1,.5-.5h3M14,13H11a2,2,0,0,0-2,2v3a2,2,0,0,0,2,2h3a2,2,0,0,0,2-2V15a2,2,0,0,0-2-2ZM6,14.5a.5.5,0,0,1,.5.5v3a.5.5,0,0,1-.5.5H3a.5.5,0,0,1-.5-.5V15a.5.5,0,0,1,.5-.5H6M6,13H3a2,2,0,0,0-2,2v3a2,2,0,0,0,2,2H6a2,2,0,0,0,2-2V15a2,2,0,0,0-2-2Zm8-8H3.86A1.86,1.86,0,0,0,2,6.86V11H14Zm4,10v4h2.119A1.881,1.881,0,0,0,22,17.119V15Z"/></svg>