<svg xmlns="http://www.w3.org/2000/svg" viewBox="0 0 24 24"><path d="M12,3a9,9,0,1,0,9,9A9,9,0,0,0,12,3Z"/><path d="M13,18H11V16h2Zm2-8a2.92,2.92,0,0,0-.24-1.17,2.8,2.8,0,0,0-.64-1,3,3,0,0,0-.95-.65,3.06,3.06,0,0,0-2.34,0,3,3,0,0,0-.95.65,2.8,2.8,0,0,0-.64,1A2.92,2.92,0,0,0,9,10a3,3,0,0,0,.24,1.17l1.84-.78A1,1,0,0,1,11,10a1,1,0,0,1,.08-.39,1,1,0,0,1,.21-.32,1.11,1.11,0,0,1,.32-.21,1,1,0,0,1,.78,0,1.11,1.11,0,0,1,.32.21,1,1,0,0,1,.21.32A1,1,0,0,1,13,10a1,1,0,0,1-.08.39,1.08,1.08,0,0,1-.22.32l-1,1A2.36,2.36,0,0,0,11,13.38V14h2v-.62a.36.36,0,0,1,.09-.23l1-1a3,3,0,0,0,.63-.94A3,3,0,0,0,15,10Z" fill="#fff"/></svg>