<svg xmlns="http://www.w3.org/2000/svg" viewBox="0 0 24 24"><path d="M2.848,17.208v-3c0-1.05-.4-1.324-1.848-1.324V11.118c1.449,0,1.848-.273,1.848-1.344V6.793c0-2.373,1.113-3.506,3.4-3.506H7.781V5.05H6.627C5.514,5.05,5.01,5.618,5.01,6.9V9.753c0,1.3-.42,1.974-1.428,2.226v.042c1.008.252,1.428.924,1.428,2.226v2.877c0,1.259.5,1.826,1.617,1.826H7.781v1.763H6.248C3.961,20.713,2.848,19.58,2.848,17.208Zm18.3-10.415V9.774c0,1.071.4,1.344,1.848,1.344v1.763c-1.449,0-1.848.274-1.848,1.324v3c0,2.372-1.113,3.505-3.4,3.505H16.217V18.95h1.156c1.111,0,1.615-.567,1.615-1.848V14.247c0-1.3.42-1.974,1.428-2.226v-.042c-1.008-.252-1.428-.924-1.428-2.226V6.877c0-1.259-.5-1.827-1.615-1.827H16.217V3.287H17.75C20.039,3.287,21.152,4.42,21.152,6.793ZM12,10.5A1.5,1.5,0,1,0,13.5,12,1.5,1.5,0,0,0,12,10.5Zm-4,0A1.5,1.5,0,1,0,9.5,12,1.5,1.5,0,0,0,8,10.5Zm8,0A1.5,1.5,0,1,0,17.5,12,1.5,1.5,0,0,0,16,10.5Z"/></svg>