<svg xmlns="http://www.w3.org/2000/svg" viewBox="0 0 24 24"><path d="M9,4a3.5,3.5,0,1,0,3.5,3.5A3.5,3.5,0,0,0,9,4ZM9,9a1.5,1.5,0,1,1,1.5-1.5A1.5,1.5,0,0,1,9,9Zm6,2a3.45,3.45,0,0,1-1.5-.35,5.46,5.46,0,0,0,0-6.3A3.45,3.45,0,0,1,15,4a3.5,3.5,0,0,1,0,7m-3.95,8H2V16.25c0-2.33,4.66-3.5,7-3.5,1.75,0,4.81.66,6.23,2a4,4,0,0,0,.2.42A3.61,3.61,0,0,0,14.5,15a3.46,3.46,0,0,0-1.8.51A10.41,10.41,0,0,0,9,14.75c-2.14,0-4.62,1-5,1.57V17h7.35A3.45,3.45,0,0,0,11,18.5,4,4,0,0,0,11.05,19Z"/><path d="M22.5,17a1.47,1.47,0,0,0-1,.35l-2.2-2.6h0a1.5,1.5,0,1,0-1.68,0h0l-2.2,2.6a1.47,1.47,0,0,0-1-.35,1.5,1.5,0,1,0,1.2,2.4l1.6,1.2h0a1.54,1.54,0,0,0-.3.9,1.5,1.5,0,0,0,3,0,1.54,1.54,0,0,0-.3-.9h0l1.6-1.2A1.5,1.5,0,1,0,22.5,17ZM16,18.37l0,0,0-.05,2-2.39v4Zm3,1.51v-4l2,2.39,0,.05,0,0Z" fill="#08f"/><path fill="none" stroke="#000" stroke-miterlimit="10" stroke-width=".5" d="M-60 -60H420V420H-60z"/></svg>