<svg xmlns="http://www.w3.org/2000/svg" viewBox="0 0 24 24"><g fill="none"><path d="M0 0H24V24H0z"/><path stroke="#000" stroke-miterlimit="10" stroke-width=".5" d="M-444 -60H36V420H-444z"/></g><path d="M9,4a3.5,3.5,0,1,0,3.5,3.5A3.5,3.5,0,0,0,9,4ZM9,9a1.5,1.5,0,1,1,1.5-1.5A1.5,1.5,0,0,1,9,9Zm7,3.81c2.46.27,6,1.42,6,3.44V19H18V16.25a4.19,4.19,0,0,0-2-3.44M15,11a3.45,3.45,0,0,1-1.5-.35,5.46,5.46,0,0,0,0-6.3A3.45,3.45,0,0,1,15,4a3.5,3.5,0,0,1,0,7M9,12.75c-2.34,0-7,1.17-7,3.5V19H16V16.25C16,13.92,11.34,12.75,9,12.75ZM14,17H4v-.68c.38-.61,2.86-1.57,5-1.57s4.62,1,5,1.57Z"/></svg>