<svg xmlns="http://www.w3.org/2000/svg" viewBox="0 0 24 24"><path d="M19.5,13a6.467,6.467,0,0,1,4.365,1.694A.984.984,0,0,0,24,14.22V9.781a1,1,0,0,0-.757-.97L12.485,6.121a2.015,2.015,0,0,0-.97,0L.757,8.811A1,1,0,0,0,0,9.781V14.22a1,1,0,0,0,.757.97l.94.235,9.818,2.454a2.015,2.015,0,0,0,.97,0l.777-.194A6.5,6.5,0,0,1,19.5,13Zm-17.063.75c-.517,0-.937-.559-.937-1.25s.42-1.25.937-1.25.938.56.938,1.25S2.955,13.75,2.437,13.75ZM2.372,9.439,12,7.032l9.628,2.407L12,11.846Z"/><path d="M19.5,15A4.5,4.5,0,1,0,24,19.5,4.5,4.5,0,0,0,19.5,15Zm3.02,2.75h-.97A5.194,5.194,0,0,0,21,16.344,3.529,3.529,0,0,1,22.52,17.75ZM23,19.5a3.5,3.5,0,0,1-.09.75h-1.2c.023-.244.038-.493.038-.75s-.015-.506-.038-.75h1.2A3.5,3.5,0,0,1,23,19.5Zm-7,0a3.5,3.5,0,0,1,.09-.75h1.2c-.023.244-.038.493-.038.75s.015.506.038.75h-1.2A3.5,3.5,0,0,1,16,19.5Zm2.25,0a6.869,6.869,0,0,1,.041-.75h2.418a6.88,6.88,0,0,1,0,1.5H18.291A6.869,6.869,0,0,1,18.25,19.5Zm1.25-3.25c.283,0,.736.554,1.012,1.5H18.488C18.764,16.8,19.217,16.25,19.5,16.25Zm-1.5.094a5.194,5.194,0,0,0-.547,1.406h-.97A3.529,3.529,0,0,1,18,16.344ZM16.48,21.25h.97A5.194,5.194,0,0,0,18,22.656,3.529,3.529,0,0,1,16.48,21.25Zm3.02,1.5c-.283,0-.736-.554-1.012-1.5h2.024C20.236,22.2,19.783,22.75,19.5,22.75Zm1.5-.094a5.194,5.194,0,0,0,.547-1.406h.97A3.529,3.529,0,0,1,21,22.656Z" fill="#08f"/></svg>