<svg xmlns="http://www.w3.org/2000/svg" viewBox="0 0 24 24"><path d="M13.42,15.67a.93.93,0,0,0,.15,1l3.11,3.94a1.43,1.43,0,0,0,1.09.54.88.88,0,0,0,.79-.42l4.07-7c.34-.6-.22-1.45-1.05-1.57l-5-.72-.18,0a.88.88,0,0,0-.79.41ZM0,19v2H6a2,2,0,0,0,2-2V15.34l2.48,1.43a1,1,0,0,0,1.36-.36l3.65-6.32a1,1,0,0,0-.37-1.36L5.59,3.23a1,1,0,0,0-.49-.14,1,1,0,0,0-.87.5L.58,9.91A1,1,0,0,0,1,11.27L6,14.19V19Zm8-6v0H7.94L2.82,10,5.46,5.46l7.8,4.5-2.65,4.58Z"/><path fill="none" stroke="#000" stroke-miterlimit="10" stroke-width=".5" d="M-396 -60H84V420H-396z"/></svg>