<svg xmlns="http://www.w3.org/2000/svg" viewBox="0 0 24 24"><path d="M7,5a7,7,0,1,0,6.3,10H16v4h6V15h2V9H13.3A7,7,0,0,0,7,5Zm15,8H20v4H18V13H11.9l-.2.7A5,5,0,0,1,7,17,5,5,0,0,1,7,7a5,5,0,0,1,4.7,3.3l.2.7H22ZM7,8a2,2,0,1,1-2,2A2,2,0,0,1,7,8ZM3.6,14.1A6.5,6.5,0,0,1,7,13a6.5,6.5,0,0,1,3.4,1.1A4.1,4.1,0,0,1,7,16,4.1,4.1,0,0,1,3.6,14.1Zm0,0A6.5,6.5,0,0,1,7,13a6.5,6.5,0,0,1,3.4,1.1A4.1,4.1,0,0,1,7,16,4.1,4.1,0,0,1,3.6,14.1Z"/><path fill="none" stroke="#000" stroke-miterlimit="10" stroke-width=".5" d="M-12 -60H468V420H-12z"/></svg>