<svg xmlns="http://www.w3.org/2000/svg" viewBox="0 0 24 24"><path d="M13.425,15.666a.932.932,0,0,0,.143,1.042l3.113,3.942a1.409,1.409,0,0,0,1.086.535.878.878,0,0,0,.791-.41l4.07-7.05c.346-.6-.22-1.443-1.047-1.563l-4.97-.725a1.244,1.244,0,0,0-.181-.013.887.887,0,0,0-.793.41ZM0,19v2H6a2,2,0,0,0,2-2V15.342l2.477,1.43a1,1,0,0,0,1.366-.366l3.644-6.312a1,1,0,0,0-.366-1.366L5.6,3.228a1,1,0,0,0-1.366.366L.585,9.906a1,1,0,0,0,.366,1.366L6,14.187V19Zm8-5.968V13H7.945L2.817,10.04,5.461,5.46l7.794,4.5-2.644,4.58Z"/><path fill="none" stroke="#000" stroke-miterlimit="10" stroke-width=".5" d="M-252 -60H228V420H-252z"/></svg>