<svg xmlns="http://www.w3.org/2000/svg" viewBox="0 0 24 24"><path d="M13,15H23.609A.99.99,0,0,0,24,14.22V9.781a1,1,0,0,0-.757-.97L12.485,6.121a2.015,2.015,0,0,0-.97,0L.757,8.811A1,1,0,0,0,0,9.781V14.22a1,1,0,0,0,.757.97l.94.235,9.818,2.454a2.015,2.015,0,0,0,.97,0L13,17.75ZM2.437,13.75c-.517,0-.937-.559-.937-1.25s.42-1.25.937-1.25.938.56.938,1.25S2.955,13.75,2.437,13.75ZM2.372,9.439,12,7.032l9.628,2.407L12,11.846Z"/><path d="M19.5,19.832,15,17h9ZM24,18.2l-4.5,2.831L15,18.2h0V23h9V18.2Z" fill="#08f"/></svg>