<svg xmlns="http://www.w3.org/2000/svg" viewBox="0 0 24 24"><path d="M13.739,8a7,7,0,1,0,0,8H23V8ZM21,14H12.575a5,5,0,1,1,0-4H21Zm-9.6-3.123A.858.858,0,0,1,10.593,12H8.951a.975.975,0,0,1-.205.577l1.342.975a.858.858,0,0,1,0,1.389h0a.858.858,0,0,1-1.32-.429l-.512-1.574a.779.779,0,0,1-.609,0l-.512,1.574a.858.858,0,0,1-1.32.429h0a.858.858,0,0,1,0-1.389l1.342-.975A.976.976,0,0,1,6.951,12H5.31a.858.858,0,0,1-.816-1.123h0a.858.858,0,0,1,1.321-.429l1.342.975a.966.966,0,0,1,.49-.361L7.135,9.488a.858.858,0,0,1,.816-1.123h0a.858.858,0,0,1,.816,1.123l-.512,1.574a.966.966,0,0,1,.49.361l1.342-.975a.858.858,0,0,1,1.321.429Z"/><path fill="none" stroke="#000" stroke-miterlimit="10" stroke-width=".5" d="M-204 -60H276V420H-204z"/></svg>