<svg xmlns="http://www.w3.org/2000/svg" viewBox="0 0 24 24"><path d="M23,12a5.48,5.48,0,0,1-5.44,5.5,6.15,6.15,0,0,1-4.22-2,15.86,15.86,0,0,0,1-1.57l.08-.15a4.62,4.62,0,0,0,3.11,1.72,3.5,3.5,0,0,0,0-7,4.62,4.62,0,0,0-3.11,1.72A9.68,9.68,0,0,0,13.14,12h0l-.53,1a11,11,0,0,1-.6.93,12.15,12.15,0,0,1-1.34,1.58,6.15,6.15,0,0,1-4.22,2,5.5,5.5,0,0,1,0-11,6.15,6.15,0,0,1,4.22,2,15.86,15.86,0,0,0-1,1.57l-.08.15A4.62,4.62,0,0,0,6.44,8.5a3.5,3.5,0,0,0,0,7,4.62,4.62,0,0,0,3.11-1.72A9.68,9.68,0,0,0,10.86,12h0l.53-1a11,11,0,0,1,.6-.93A12.15,12.15,0,0,1,13.34,8.5a6.15,6.15,0,0,1,4.22-2A5.48,5.48,0,0,1,23,12Z"/></svg>