<svg xmlns="http://www.w3.org/2000/svg" viewBox="0 0 24 24"><path d="M13,14.564l11-1.573V9.781a1,1,0,0,0-.757-.97L12.485,6.121a2.015,2.015,0,0,0-.97,0L.757,8.811A1,1,0,0,0,0,9.781V14.22a1,1,0,0,0,.757.97l.94.235,9.818,2.454a2.015,2.015,0,0,0,.97,0L13,17.75ZM2.437,13.75c-.517,0-.937-.559-.937-1.25s.42-1.25.937-1.25.938.56.938,1.25S2.955,13.75,2.437,13.75ZM2.372,9.439,12,7.032l9.628,2.407L12,11.846Z"/><path d="M18.5,19H15V16.28c1.163-.179,2.332-.333,3.5-.48Zm1,0H24q0-2,0-4-2.251.312-4.5.652Zm0,4.365c1.5.2,3,.411,4.5.635q0-2,0-4H19.5ZM18.5,20H15v2.754c1.167.157,2.334.31,3.5.48Z" fill="#08f"/><g><path fill="none" stroke="#000" stroke-miterlimit="10" stroke-width=".5" d="M-108 -60H372V420H-108z"/></g></svg>