<svg xmlns="http://www.w3.org/2000/svg" viewBox="0 0 24 24"><g fill="none"><path d="M0 0H24V24H0z"/><path stroke="#000" stroke-miterlimit="10" stroke-width=".5" d="M-252 -60H228V420H-252z"/></g><path d="M1.43,19.48A5,5,0,0,0,10.64,18h5.75a3.37,3.37,0,0,0,.32.73,3.5,3.5,0,1,0,2.22-5.13L15.27,7.27a3.49,3.49,0,1,0-5.56-.64,3.1,3.1,0,0,0,.49.64l-2.88,5a5,5,0,0,0-5.89,7.22Zm7.63-6.23,2.87-5a3.5,3.5,0,0,0,1.61,0L17.2,14.6a3.41,3.41,0,0,0-.81,1.4H10.64a4.89,4.89,0,0,0-.55-1.52A5.14,5.14,0,0,0,9.06,13.25ZM3.24,17a2.47,2.47,0,0,1,.83-1.85l.11-.09a2.48,2.48,0,0,1,.26-.19l.07,0,.19-.09.09,0A2.39,2.39,0,0,1,6,14.51v0a2.5,2.5,0,0,1,1.73,1l0,0c.06.08.12.15.17.23s.08.18.12.27H8a2.49,2.49,0,0,1,0,2H8a1.3,1.3,0,0,1-.1.15,1.76,1.76,0,0,1-.23.37,1.46,1.46,0,0,1-.16.19,2.8,2.8,0,0,1-.49.41s0,0,0,0l-.12.06-.3.13-.1,0a2.36,2.36,0,0,1-.75.13A2.5,2.5,0,0,1,3.24,17Z"/></svg>