<svg xmlns="http://www.w3.org/2000/svg" viewBox="0 0 24 24"><path d="M14,17.2a3.2,3.2,0,0,1,5.463-2.262l.537.537.537-.537A3.173,3.173,0,0,1,22.8,14a3.211,3.211,0,0,1,1.2.233l0-.013V9.781a1,1,0,0,0-.757-.97L12.485,6.121a2.015,2.015,0,0,0-.97,0L.757,8.811A1,1,0,0,0,0,9.781V14.22a1,1,0,0,0,.757.97l.94.235,9.818,2.454a2.015,2.015,0,0,0,.97,0l1.544-.386C14.02,17.4,14,17.3,14,17.2ZM2.437,13.75c-.517,0-.937-.559-.937-1.25s.42-1.25.937-1.25.938.56.938,1.25S2.955,13.75,2.437,13.75ZM12,11.846,2.372,9.439,12,7.032l9.628,2.407Z"/><path d="M17.2,24a1.2,1.2,0,0,1-.849-2.049L18.3,20l-1.952-1.952a1.2,1.2,0,0,1,1.7-1.7L21.7,20l-3.648,3.648A1.2,1.2,0,0,1,17.2,24m5.063-4.566,1.386-1.386a1.2,1.2,0,0,0-1.7-1.7l-1.385,1.386Zm0,1.131-1.7,1.7,1.385,1.387a1.2,1.2,0,1,0,1.7-1.7Z" fill="#08f"/></svg>