<svg xmlns="http://www.w3.org/2000/svg" viewBox="0 0 24 24"><path d="M9,4a3.5,3.5,0,1,0,3.5,3.5A3.5,3.5,0,0,0,9,4ZM9,9a1.5,1.5,0,1,1,1.5-1.5A1.5,1.5,0,0,1,9,9Zm7.04,3.81c2.46.27,5.96,1.42,5.96,3.44V19H18V16.25a4.193,4.193,0,0,0-1.96-3.44M15,11a3.446,3.446,0,0,1-1.5-.35,5.461,5.461,0,0,0,0-6.3A3.446,3.446,0,0,1,15,4a3.5,3.5,0,0,1,0,7M9,12.75c-2.34,0-7,1.17-7,3.5V19H16V16.25C16,13.92,11.34,12.75,9,12.75ZM14,17H4v-.684c.375-.6,2.864-1.566,5-1.566s4.625.961,5,1.566Z"/><path fill="none" stroke="#000" stroke-miterlimit="10" stroke-width=".5" d="M-444 -60H36V420H-444z"/></svg>