<svg xmlns="http://www.w3.org/2000/svg" viewBox="0 0 24 24"><path d="M13,14.56,24,13V9.78a1,1,0,0,0-.76-1L12.49,6.12a2,2,0,0,0-1,0L.76,8.81a1,1,0,0,0-.76,1v4.44a1,1,0,0,0,.76,1l.94.23,9.82,2.46a2,2,0,0,0,1,0l.52-.13ZM2.44,13.75c-.52,0-.94-.56-.94-1.25s.42-1.25.94-1.25.94.56.94,1.25S3,13.75,2.44,13.75ZM2.37,9.44,12,7l9.63,2.41L12,11.85Z"/><path d="M18.5,19H15V16.28c1.16-.18,2.33-.33,3.5-.48Zm1,0H24V15l-4.5.65Zm0,4.37q2.25.3,4.5.63V20H19.5ZM18.5,20H15v2.75l3.5.48Z" fill="#08f"/><path fill="none" stroke="#000" stroke-miterlimit="10" stroke-width=".5" d="M-108 -60H372V420H-108z"/></svg>