<svg xmlns="http://www.w3.org/2000/svg" viewBox="0 0 24 24"><path d="M9,4a3.5,3.5,0,1,0,3.5,3.5A3.5,3.5,0,0,0,9,4ZM9,9a1.5,1.5,0,1,1,1.5-1.5A1.5,1.5,0,0,1,9,9Zm6,2a3.446,3.446,0,0,1-1.5-.35,5.461,5.461,0,0,0,0-6.3A3.446,3.446,0,0,1,15,4a3.5,3.5,0,0,1,0,7m-3.95,8H2V16.25c0-2.33,4.66-3.5,7-3.5,1.755,0,4.814.658,6.235,1.97a3.861,3.861,0,0,0,.19.419,3.321,3.321,0,0,0-2.723.373A10.427,10.427,0,0,0,9,14.75c-2.136,0-4.625.961-5,1.567V17h7.35A3.464,3.464,0,0,0,11,18.5,3.588,3.588,0,0,0,11.05,19Z"/><path d="M22.5,17a1.483,1.483,0,0,0-.965.35l-2.2-2.605h0a1.5,1.5,0,1,0-1.678,0h0l-2.2,2.605A1.483,1.483,0,0,0,14.5,17a1.5,1.5,0,1,0,1.2,2.4l1.6,1.2,0,0a1.5,1.5,0,1,0,2.392,0l0,0,1.6-1.2A1.5,1.5,0,1,0,22.5,17Zm-6.51,1.37-.045-.035.04-.045L18,15.9v3.98Zm3.01,1.5V15.9l2.015,2.395.04.045-.045.035Z" fill="#08f"/><g><path fill="none" stroke="#000" stroke-miterlimit="10" stroke-width=".5" d="M-60 -60H420V420H-60z"/></g></svg>