<svg xmlns="http://www.w3.org/2000/svg" viewBox="0 0 24 24"><path d="M12,3a9,9,0,1,0,9,9A9,9,0,0,0,12,3Zm6,5.5H16.1A10.29,10.29,0,0,0,15,5.69,7.09,7.09,0,0,1,18,8.5ZM19,12a6.77,6.77,0,0,1-.18,1.5h-2.4a14.1,14.1,0,0,0,0-3h2.4A6.77,6.77,0,0,1,19,12ZM5,12a6.77,6.77,0,0,1,.18-1.5h2.4a14.1,14.1,0,0,0,0,3H5.18A6.77,6.77,0,0,1,5,12Zm4.5,0a14.16,14.16,0,0,1,.08-1.5h4.84a14.1,14.1,0,0,1,0,3H9.58A14.16,14.16,0,0,1,9.5,12ZM12,5.5c.57,0,1.47,1.11,2,3H10C10.53,6.61,11.43,5.5,12,5.5ZM9,5.69A10.29,10.29,0,0,0,7.9,8.5H6A7.09,7.09,0,0,1,9,5.69ZM6,15.5H7.9A10.29,10.29,0,0,0,9,18.31,7.09,7.09,0,0,1,6,15.5Zm6,3c-.57,0-1.47-1.11-2-3h4C13.47,17.39,12.57,18.5,12,18.5Zm3-.19A10.29,10.29,0,0,0,16.1,15.5H18A7.09,7.09,0,0,1,15,18.31Z"/></svg>