<svg xmlns="http://www.w3.org/2000/svg" viewBox="0 0 24 24"><path d="M4,13a2,2,0,1,0-2-2A2,2,0,0,0,4,13Zm1.13,1.1A7.08,7.08,0,0,0,4,14a7,7,0,0,0-2.78.58A2,2,0,0,0,0,16.43V18H4.5V16.39A4.48,4.48,0,0,1,5.13,14.1ZM20,13a2,2,0,1,0-2-2A2,2,0,0,0,20,13Zm4,3.43a2,2,0,0,0-1.22-1.85,6.82,6.82,0,0,0-3.91-.48,4.48,4.48,0,0,1,.63,2.29V18H24Zm-7.76-2.78a10.48,10.48,0,0,0-4.24-.9,10.68,10.68,0,0,0-4.24.9A3,3,0,0,0,6,16.39V18H18V16.39A3,3,0,0,0,16.24,13.65ZM8.07,16c.09-.23.13-.39.91-.69a8.39,8.39,0,0,1,6,0c.77.3.81.46.91.69ZM12,8a1,1,0,1,1-1,1,1,1,0,0,1,1-1m0-2a3,3,0,1,0,3,3A3,3,0,0,0,12,6Z"/><path fill="none" stroke="#000" stroke-miterlimit="10" stroke-width=".5" d="M-12 -60H468V420H-12z"/></svg>