<svg xmlns="http://www.w3.org/2000/svg" viewBox="0 0 24 24"><path d="M14,17.2a3.2,3.2,0,0,1,5.46-2.26l.54.54.54-.54A3.14,3.14,0,0,1,22.8,14a3.24,3.24,0,0,1,1.2.23h0V9.78a1,1,0,0,0-.76-1L12.49,6.12a2,2,0,0,0-1,0L.76,8.81a1,1,0,0,0-.76,1v4.44a1,1,0,0,0,.76,1l.94.23,9.82,2.46a2,2,0,0,0,1,0L14,17.49A2.58,2.58,0,0,1,14,17.2ZM2.44,13.75c-.52,0-.94-.56-.94-1.25s.42-1.25.94-1.25.94.56.94,1.25S3,13.75,2.44,13.75ZM12,11.85,2.37,9.44,12,7l9.63,2.41Z"/><path d="M17.2,24a1.22,1.22,0,0,1-.85-.35,1.2,1.2,0,0,1,0-1.7L18.3,20l-1.95-1.95a1.2,1.2,0,0,1,1.7-1.7L21.7,20l-3.65,3.65a1.22,1.22,0,0,1-.85.35m5.06-4.57,1.39-1.38a1.2,1.2,0,0,0-1.7-1.7l-1.38,1.39Zm0,1.14-1.69,1.69L22,23.65a1.21,1.21,0,0,0,1.7,0,1.2,1.2,0,0,0,0-1.7Z" fill="#08f"/><path fill="none" stroke="#000" stroke-miterlimit="10" stroke-width=".5" d="M-156 -60H324V420H-156z"/></svg>