<svg xmlns="http://www.w3.org/2000/svg" viewBox="0 0 24 24"><g fill="none"><path d="M0 0H24V24H0z"/><path stroke="#000" stroke-miterlimit="10" stroke-width=".5" d="M-60 -60H420V420H-60z"/></g><path d="M19.5,13a6.49,6.49,0,0,1,4.37,1.69,1.06,1.06,0,0,0,.13-.47V9.78a1,1,0,0,0-.76-1L12.49,6.12a2,2,0,0,0-1,0L.76,8.81a1,1,0,0,0-.76,1v4.44a1,1,0,0,0,.76,1l.94.23,9.82,2.46a2,2,0,0,0,1,0l.78-.2A6.51,6.51,0,0,1,19.5,13Zm-17.06.75c-.52,0-.94-.56-.94-1.25s.42-1.25.94-1.25.94.56.94,1.25S3,13.75,2.44,13.75ZM2.37,9.44,12,7l9.63,2.41L12,11.85Z"/><path d="M19.5,15A4.5,4.5,0,1,0,24,19.5,4.49,4.49,0,0,0,19.5,15Zm3,2.75h-1A5.18,5.18,0,0,0,21,16.34,3.51,3.51,0,0,1,22.52,17.75ZM23,19.5a3.66,3.66,0,0,1-.09.75h-1.2c0-.24,0-.49,0-.75s0-.51,0-.75h1.2A3.66,3.66,0,0,1,23,19.5Zm-7,0a3.66,3.66,0,0,1,.09-.75h1.2c0,.24,0,.49,0,.75s0,.51,0,.75h-1.2A3.66,3.66,0,0,1,16,19.5Zm2.25,0c0-.26,0-.51,0-.75h2.42c0,.24,0,.49,0,.75s0,.51,0,.75H18.29C18.27,20,18.25,19.76,18.25,19.5Zm1.25-3.25c.28,0,.74.55,1,1.5h-2C18.76,16.8,19.22,16.25,19.5,16.25Zm-1.5.09a5.18,5.18,0,0,0-.55,1.41h-1A3.51,3.51,0,0,1,18,16.34Zm-1.52,4.91h1A5.18,5.18,0,0,0,18,22.66,3.51,3.51,0,0,1,16.48,21.25Zm3,1.5c-.28,0-.74-.55-1-1.5h2C20.24,22.2,19.78,22.75,19.5,22.75Zm1.5-.09a5.18,5.18,0,0,0,.55-1.41h1A3.51,3.51,0,0,1,21,22.66Z" fill="#08f"/></svg>