<svg xmlns="http://www.w3.org/2000/svg" viewBox="0 0 24 24"><path d="M19.01,8.49a3.532,3.532,0,1,0-2.794-1.413L15.158,8.135a4.9,4.9,0,0,0-6.3,0L7.727,7a2.022,2.022,0,1,0-.707.707L8.155,8.842a4.9,4.9,0,0,0,0,6.3L6.387,16.906a2.506,2.506,0,1,0,.707.707l1.768-1.768a4.9,4.9,0,0,0,6.3,0l1.135,1.135A2.022,2.022,0,1,0,17,16.273l-1.135-1.135a4.9,4.9,0,0,0,0-6.3l1.058-1.058A3.462,3.462,0,0,0,19.01,8.49Zm0-5a1.5,1.5,0,1,1-1.5,1.5A1.5,1.5,0,0,1,19.01,3.49Zm-7,11.5a3,3,0,1,1,3-3A3,3,0,0,1,12.01,14.99Z"/></svg>