<svg xmlns="http://www.w3.org/2000/svg" viewBox="0 0 24 24"><path d="M21,3H5A1,1,0,0,0,4,4V6H2v4H4v4H2v4H4v2a1,1,0,0,0,1,1H21a1,1,0,0,0,1-1V4A1,1,0,0,0,21,3ZM20,19H6V5H20ZM8.76,16.24a1,1,0,0,0,1.41,0l1.18-1.17a3.51,3.51,0,0,0,3.3,0l1.18,1.17a1,1,0,0,0,1.41,0,1,1,0,0,0,0-1.41l-1.17-1.18a3.51,3.51,0,0,0,0-3.3l1.17-1.18a1,1,0,1,0-1.41-1.41L14.65,8.93a3.51,3.51,0,0,0-3.3,0L10.17,7.76A1,1,0,0,0,8.76,9.17l1.17,1.18a3.51,3.51,0,0,0,0,3.3L8.76,14.83A1,1,0,0,0,8.76,16.24ZM13,10a2,2,0,1,1-2,2A2,2,0,0,1,13,10Z"/></svg>