<svg xmlns="http://www.w3.org/2000/svg" viewBox="0 0 24 24"><path d="M12,14H24V9.781a1,1,0,0,0-.757-.97L12.485,6.121a2.015,2.015,0,0,0-.97,0L.757,8.811A1,1,0,0,0,0,9.781V14.22a1,1,0,0,0,.757.97l.94.235,9.818,2.454a1.987,1.987,0,0,0,.485.059Zm-9.563-.25c-.517,0-.937-.559-.937-1.25s.42-1.25.937-1.25.938.56.938,1.25S2.955,13.75,2.437,13.75ZM2.372,9.439,12,7.032l9.628,2.407L12,11.846Z"/><path d="M17.5,16h4v1.5h-4ZM14,17.5V16h2.5v1.5Zm0,1h4.5V20H14Zm2,4H14V21h2Zm4.5,0H17V21h3.5ZM24,21v1.5H21.5V21Zm0-1H19.5V18.5H24Zm0-2.5H22.5V16H24Z" fill="#08f"/></svg>