<svg xmlns="http://www.w3.org/2000/svg" viewBox="0 0 24 24"><path d="M1.433,19.485A4.98,4.98,0,0,0,10.637,18H16.4a3.5,3.5,0,1,0,2.532-4.4L15.272,7.265a3.493,3.493,0,1,0-5.566-.639,3.559,3.559,0,0,0,.492.647L7.321,12.256a4.981,4.981,0,0,0-5.888,7.229Zm7.623-6.233,2.875-4.98a3.5,3.5,0,0,0,1.609-.006L17.2,14.6a3.486,3.486,0,0,0-.81,1.4H10.642a4.606,4.606,0,0,0-1.586-2.748ZM3.237,17a2.483,2.483,0,0,1,.835-1.851c.033-.031.071-.059.106-.088a2.482,2.482,0,0,1,.258-.186c.027-.017.049-.039.077-.055.062-.036.127-.061.191-.091.03-.013.058-.029.088-.041a2.488,2.488,0,0,1,1.23-.182l-.012.021a2.49,2.49,0,0,1,1.735,1l.014-.024a2.379,2.379,0,0,1,.169.235,2.508,2.508,0,0,1,.12.265H8.026a2.47,2.47,0,0,1,0,2H8.04c-.024.054-.068.1-.095.149a2.463,2.463,0,0,1-.239.373c-.049.063-.1.125-.151.184a2.548,2.548,0,0,1-.5.409c-.017.01-.027.025-.043.035-.041.023-.084.035-.125.056a2.488,2.488,0,0,1-.3.134c-.034.012-.067.021-.1.032A2.467,2.467,0,0,1,3.237,17Z"/></svg>