<svg xmlns="http://www.w3.org/2000/svg" viewBox="0 0 24 24"><g fill="none"><path d="M0 0H24V24H0z"/><path stroke="#000" stroke-miterlimit="10" stroke-width=".5" d="M-12 -60H468V420H-12z"/></g><path d="M12,14H24V9.78a1,1,0,0,0-.76-1L12.49,6.12a2,2,0,0,0-1,0L.76,8.81a1,1,0,0,0-.76,1v4.44a1,1,0,0,0,.76,1l.94.23,9.82,2.46a1.91,1.91,0,0,0,.48.06Zm-9.56-.25c-.52,0-.94-.56-.94-1.25s.42-1.25.94-1.25.94.56.94,1.25S3,13.75,2.44,13.75ZM2.37,9.44,12,7l9.63,2.41L12,11.85Z"/><path d="M17.5,16h4v1.5h-4ZM14,17.5V16h2.5v1.5Zm0,1h4.5V20H14Zm2,4H14V21h2Zm4.5,0H17V21h3.5ZM24,21v1.5H21.5V21Zm0-1H19.5V18.5H24Zm0-2.5H22.5V16H24Z" fill="#08f"/></svg>