<svg xmlns="http://www.w3.org/2000/svg" viewBox="0 0 24 24"><g fill="none"><path d="M0 0H24V24H0z"/><path stroke="#000" stroke-miterlimit="10" stroke-width=".5" d="M-204 -60H276V420H-204z"/></g><path d="M11.51,6.12.76,8.81a1,1,0,0,0-.76,1v4.44a1,1,0,0,0,.76,1l.94.23,9.82,2.46a2,2,0,0,0,1,0l9.82-2.46.94-.23a1,1,0,0,0,.76-1V9.78a1,1,0,0,0-.76-1L12.49,6.12A2,2,0,0,0,11.51,6.12ZM2.44,13.75c-.52,0-.94-.56-.94-1.25s.42-1.25.94-1.25.94.56.94,1.25S3,13.75,2.44,13.75ZM12,11.85,2.37,9.44,12,7l9.63,2.41Z"/></svg>