<svg xmlns="http://www.w3.org/2000/svg" viewBox="0 0 24 24"><g fill="none"><path d="M0 0H24V24H0z"/><path stroke="#000" stroke-miterlimit="10" stroke-width=".5" d="M-60 -60H420V420H-60z"/></g><path d="M2.85,17.21v-3c0-1-.4-1.32-1.85-1.32V11.12c1.45,0,1.85-.27,1.85-1.35v-3c0-2.37,1.11-3.5,3.4-3.5H7.78V5.05H6.63C5.51,5.05,5,5.62,5,6.9V9.75c0,1.31-.42,2-1.43,2.23v0c1,.25,1.43.92,1.43,2.23v2.87C5,18.38,5.51,19,6.63,19H7.78v1.76H6.25C4,20.71,2.85,19.58,2.85,17.21ZM21.15,6.79v3c0,1.08.4,1.35,1.85,1.35v1.76c-1.45,0-1.85.27-1.85,1.32v3c0,2.37-1.11,3.5-3.4,3.5H16.22V19h1.15C18.48,19,19,18.38,19,17.1V14.25c0-1.31.42-2,1.43-2.23v0c-1-.25-1.43-.92-1.43-2.23V6.88c0-1.26-.51-1.83-1.62-1.83H16.22V3.29h1.53C20,3.29,21.15,4.42,21.15,6.79ZM12,10.5A1.5,1.5,0,1,0,13.5,12,1.5,1.5,0,0,0,12,10.5Zm-4,0A1.5,1.5,0,1,0,9.5,12,1.5,1.5,0,0,0,8,10.5Zm8,0A1.5,1.5,0,1,0,17.5,12,1.5,1.5,0,0,0,16,10.5Z"/></svg>