<svg xmlns="http://www.w3.org/2000/svg" viewBox="0 0 24 24"><path d="M19,8.49A3.5,3.5,0,1,0,15.51,5a3.47,3.47,0,0,0,.71,2.09L15.16,8.13a4.92,4.92,0,0,0-6.3,0L7.73,7A2,2,0,0,0,8,6,2,2,0,1,0,6,8a2,2,0,0,0,1-.28L8.16,8.84a4.89,4.89,0,0,0,0,6.3L6.39,16.91A2.44,2.44,0,0,0,5,16.49,2.5,2.5,0,1,0,7.51,19a2.44,2.44,0,0,0-.42-1.38l1.77-1.77a4.91,4.91,0,0,0,6.3,0L16.29,17A2,2,0,0,0,16,18a2,2,0,1,0,2-2,2,2,0,0,0-1,.28l-1.13-1.13a4.92,4.92,0,0,0,0-6.3l1.05-1.06A3.47,3.47,0,0,0,19,8.49Zm0-5A1.5,1.5,0,1,1,17.51,5,1.5,1.5,0,0,1,19,3.49ZM12,15a3,3,0,1,1,3-3A3,3,0,0,1,12,15Z"/></svg>