<svg xmlns="http://www.w3.org/2000/svg" viewBox="0 0 24 24"><path d="M11.515,6.121.757,8.811A1,1,0,0,0,0,9.781V14.22a1,1,0,0,0,.757.97l.94.235,9.818,2.454a2.015,2.015,0,0,0,.97,0L22.3,15.425l.94-.235A1,1,0,0,0,24,14.22V9.781a1,1,0,0,0-.757-.97L12.485,6.121A2.015,2.015,0,0,0,11.515,6.121ZM2.437,13.75c-.517,0-.937-.559-.937-1.25s.42-1.25.937-1.25.938.56.938,1.25S2.955,13.75,2.437,13.75ZM12,11.846,2.372,9.439,12,7.032l9.628,2.407Z"/><path fill="none" stroke="#000" stroke-miterlimit="10" stroke-width=".5" d="M-204 -60H276V420H-204z"/></svg>