<svg xmlns="http://www.w3.org/2000/svg" viewBox="0 0 24 24"><path d="M10.46,10.88A.86.86,0,0,1,9.64,12H8a1,1,0,0,1-.21.58l1.35,1a.86.86,0,0,1,0,1.39h0a.86.86,0,0,1-1.32-.43L7.3,12.94a.78.78,0,0,1-.6,0l-.52,1.57a.86.86,0,0,1-1.32.43h0a.86.86,0,0,1,0-1.39l1.35-1A1,1,0,0,1,6,12H4.36a.86.86,0,0,1-.82-1.12h0a.85.85,0,0,1,1.32-.43l1.35,1a1,1,0,0,1,.49-.36L6.18,9.49A.87.87,0,0,1,7,8.36H7a.87.87,0,0,1,.82,1.13L7.3,11.06a1,1,0,0,1,.49.36l1.35-1a.85.85,0,0,1,1.32.43ZM24,9v6H22v4H16V15H13.32a7,7,0,1,1,0-6Zm-2,2H11.94l-.23-.67a5,5,0,1,0,0,3.34l.23-.67H18v4h2V13h2Z"/></svg>