<svg xmlns="http://www.w3.org/2000/svg" viewBox="0 0 24 24"><path d="M20,18a2,2,0,0,0,1.99-2L22,5a2.006,2.006,0,0,0-2-2H4A2.006,2.006,0,0,0,2,5V16a2.006,2.006,0,0,0,2,2H0v2H24V18ZM4,5H20V16H4Z"/><path d="M16,7.75A1.25,1.25,0,0,0,14.75,9a1.234,1.234,0,0,0,.9,1.179L13.5,11.5,12.062,9.49c.017,0,.031-.01.048-.012a1.25,1.25,0,1,0-.22,0c.017,0,.031.011.048.012L10.5,11.5,8.35,10.179A1.234,1.234,0,0,0,9.25,9a1.25,1.25,0,1,0-1.257,1.249L9,14h6l1.007-3.754A1.25,1.25,0,0,0,16,7.75Z"/><g><path fill="none" stroke="#000" stroke-miterlimit="10" stroke-width=".5" d="M-396 -60H84V420H-396z"/></g></svg>