<svg xmlns="http://www.w3.org/2000/svg" viewBox="0 0 24 24"><path d="M21,3.01H5a1,1,0,0,0-1,1V6H2v4H4v4H2v4H4v2.01a1,1,0,0,0,1,1H21a1,1,0,0,0,1-1v-16A1,1,0,0,0,21,3.01Zm-1,16H6v-14H20ZM8.758,16.243a1,1,0,0,0,1.414,0l1.175-1.176a3.485,3.485,0,0,0,3.306,0l1.175,1.176a1,1,0,1,0,1.414-1.414l-1.175-1.176a3.485,3.485,0,0,0,0-3.306l1.175-1.176a1,1,0,1,0-1.414-1.414L14.653,8.933a3.485,3.485,0,0,0-3.306,0L10.172,7.757A1,1,0,1,0,8.758,9.171l1.175,1.176a3.485,3.485,0,0,0,0,3.306L8.758,14.829A1,1,0,0,0,8.758,16.243ZM13,10a2,2,0,1,1-2,2A2,2,0,0,1,13,10Z"/></svg>