<svg xmlns="http://www.w3.org/2000/svg" viewBox="0 0 24 24"><path d="M17.8,4.5h-.2A11.4,11.4,0,0,0,12,3,12.2,12.2,0,0,0,6.4,4.4a.5.5,0,0,1-.6-.2c-.2-.2-.1-.5.2-.7A12.4,12.4,0,0,1,12,2a13,13,0,0,1,6,1.5c.3.2.4.5.2.7S18,4.5,17.8,4.5ZM3.5,9.7H3.2a.5.5,0,0,1-.1-.7A9.5,9.5,0,0,1,6.8,5.7a11,11,0,0,1,10.3,0,9.8,9.8,0,0,1,3.8,3.2.5.5,0,0,1-.1.7.5.5,0,0,1-.7-.1,9.7,9.7,0,0,0-3.4-3,11,11,0,0,0-9.4,0,8.9,8.9,0,0,0-3.4,3C3.8,9.7,3.7,9.7,3.5,9.7ZM9.8,21.8a.5.5,0,0,1-.4-.2,9,9,0,0,1-2-2.6,8.6,8.6,0,0,1-1.1-4.3A5.6,5.6,0,0,1,12,9.3a5.6,5.6,0,0,1,5.7,5.4.6.6,0,0,1-.5.5.5.5,0,0,1-.5-.5A4.5,4.5,0,0,0,12,10.3a4.5,4.5,0,0,0-4.7,4.4,8,8,0,0,0,1,3.8,7.9,7.9,0,0,0,1.8,2.4.5.5,0,0,1,0,.7Zm7.1-1.9a6.2,6.2,0,0,1-3.1-.8,5.5,5.5,0,0,1-2.4-4.4.5.5,0,0,1,.5-.5.5.5,0,0,1,.5.5,4.3,4.3,0,0,0,2,3.5,4.1,4.1,0,0,0,2.5.7H18c.2,0,.5.2.5.4a.4.4,0,0,1-.4.6Zm-2,2.1h-.1a8.4,8.4,0,0,1-3.7-2.1,7.4,7.4,0,0,1-2.2-5.2,3,3,0,0,1,3.1-3,2.9,2.9,0,0,1,3,3,2.1,2.1,0,0,0,2.1,1.9,2,2,0,0,0,2.1-1.9A7,7,0,0,0,12,7.8a7.4,7.4,0,0,0-6.7,4.1,7.8,7.8,0,0,0-.5,2.8,9.7,9.7,0,0,0,.6,3.6.4.4,0,0,1-.3.6.4.4,0,0,1-.6-.3,10.7,10.7,0,0,1-.7-3.9,8.8,8.8,0,0,1,.6-3.3A8.4,8.4,0,0,1,12,6.8a8,8,0,0,1,8.2,7.8,3.1,3.1,0,0,1-6.2,0,2,2,0,0,0-2-1.9,2,2,0,0,0-2.1,1.9,6,6,0,0,0,1.9,4.6A6.7,6.7,0,0,0,15,21a.6.6,0,0,1,.4.6A.5.5,0,0,1,14.9,22Z"/></svg>