<svg xmlns="http://www.w3.org/2000/svg" viewBox="0 0 24 24"><path d="M12,3a9,9,0,1,0,9,9A9,9,0,0,0,12,3Zm6.04,5.5H16.1a10.354,10.354,0,0,0-1.093-2.812A7.052,7.052,0,0,1,18.04,8.5ZM19,12a6.934,6.934,0,0,1-.181,1.5H16.424c.046-.488.076-.987.076-1.5s-.03-1.012-.076-1.5h2.395A6.934,6.934,0,0,1,19,12ZM5,12a6.934,6.934,0,0,1,.181-1.5H7.576c-.046.488-.076.987-.076,1.5s.03,1.012.076,1.5H5.181A6.934,6.934,0,0,1,5,12Zm4.5,0a13.718,13.718,0,0,1,.083-1.5h4.834a13.6,13.6,0,0,1,0,3H9.583A13.718,13.718,0,0,1,9.5,12ZM12,5.5c.567,0,1.472,1.108,2.024,3H9.976C10.528,6.608,11.433,5.5,12,5.5Zm-3.006.188A10.354,10.354,0,0,0,7.9,8.5H5.96A7.052,7.052,0,0,1,8.994,5.688ZM5.96,15.5H7.9a10.354,10.354,0,0,0,1.093,2.812A7.052,7.052,0,0,1,5.96,15.5Zm6.04,3c-.567,0-1.472-1.108-2.024-3h4.048C13.472,17.392,12.567,18.5,12,18.5Zm3.006-.188A10.354,10.354,0,0,0,16.1,15.5H18.04A7.052,7.052,0,0,1,15.006,18.312Z"/><path fill="none" stroke="#000" stroke-miterlimit="10" stroke-width=".5" d="M-444 -60H36V420H-444z"/></svg>