<svg xmlns="http://www.w3.org/2000/svg" viewBox="0 0 24 24"><path d="M13.74,8a7,7,0,1,0,0,8H23V8ZM21,14H12.57a5,5,0,1,1,0-4H21Zm-9.59-3.12A.86.86,0,0,1,10.59,12H9a1,1,0,0,1-.2.58l1.34,1a.86.86,0,0,1,0,1.39h0a.86.86,0,0,1-1.32-.43l-.51-1.57A1.07,1.07,0,0,1,8,13a.94.94,0,0,1-.3-.06l-.51,1.57a.86.86,0,0,1-1.33.43h0a.86.86,0,0,1,0-1.39l1.35-1A1,1,0,0,1,7,12H5.31a.86.86,0,0,1-.82-1.12h0a.85.85,0,0,1,1.32-.43l1.35,1a1,1,0,0,1,.49-.36L7.14,9.49A.86.86,0,0,1,8,8.36H8a.87.87,0,0,1,.82,1.13l-.51,1.57a1,1,0,0,1,.49.36l1.34-1a.85.85,0,0,1,1.32.43Z"/><path fill="none" stroke="#000" stroke-miterlimit="10" stroke-width=".5" d="M-204 -60H276V420H-204z"/></svg>