<svg xmlns="http://www.w3.org/2000/svg" viewBox="0 0 24 24"><path d="M10.457,10.877A.858.858,0,0,1,9.641,12H8a.975.975,0,0,1-.205.577l1.342.975a.859.859,0,0,1,0,1.389h0a.859.859,0,0,1-1.321-.429l-.511-1.574A.974.974,0,0,1,7,13a.974.974,0,0,1-.3-.062l-.511,1.574a.859.859,0,0,1-1.321.429h0a.859.859,0,0,1,0-1.389l1.342-.975A.975.975,0,0,1,6,12H4.359a.858.858,0,0,1-.816-1.123h0a.857.857,0,0,1,1.32-.429l1.342.975a.97.97,0,0,1,.49-.361L6.184,9.488A.858.858,0,0,1,7,8.365H7a.858.858,0,0,1,.816,1.123l-.511,1.574a.97.97,0,0,1,.49.361l1.342-.975a.857.857,0,0,1,1.32.429ZM24,9v6H22v4H16V15H13.32a7,7,0,1,1,0-6Zm-2,2H11.94l-.23-.671a5,5,0,1,0,0,3.341l.23-.67H18v4h2V13h2Z"/><path fill="none" stroke="#000" stroke-miterlimit="10" stroke-width=".5" d="M-300 -60H180V420H-300z"/></svg>