<svg xmlns="http://www.w3.org/2000/svg" viewBox="0 0 24 24"><path d="M0,20H24V18H0ZM0,4V6H24V4Zm15.457,6.877A.858.858,0,0,1,14.641,12H13a.975.975,0,0,1-.205.577l1.342.975a.859.859,0,0,1,0,1.389h0a.859.859,0,0,1-1.321-.429l-.511-1.574a.781.781,0,0,1-.61,0l-.511,1.574a.859.859,0,0,1-1.321.429h0a.859.859,0,0,1,0-1.389l1.342-.975A.975.975,0,0,1,11,12H9.359a.858.858,0,0,1-.816-1.123h0a.857.857,0,0,1,1.32-.429l1.342.975a.97.97,0,0,1,.49-.361l-.511-1.574A.858.858,0,0,1,12,8.365h0a.858.858,0,0,1,.816,1.123l-.511,1.574a.97.97,0,0,1,.49.361l1.342-.975a.857.857,0,0,1,1.32.429Zm-8,0a.857.857,0,0,0-1.32-.429L4.8,11.423a.97.97,0,0,0-.49-.361l.511-1.574A.858.858,0,0,0,4,8.365H4a.858.858,0,0,0-.816,1.123L3.7,11.062a.97.97,0,0,0-.49.361l-1.342-.975a.857.857,0,0,0-1.32.429h0A.858.858,0,0,0,1.359,12H3a.975.975,0,0,0,.205.577l-1.342.975a.859.859,0,0,0,0,1.389h0a.859.859,0,0,0,1.321-.429L3.7,12.938A.974.974,0,0,0,4,13a.974.974,0,0,0,.3-.062l.511,1.574a.859.859,0,0,0,1.321.429h0a.859.859,0,0,0,0-1.389L4.8,12.577A.975.975,0,0,0,5,12H6.641a.858.858,0,0,0,.816-1.123Zm16,0h0a.857.857,0,0,0-1.32-.429l-1.342.975a.97.97,0,0,0-.49-.361l.511-1.574A.858.858,0,0,0,20,8.365h0a.858.858,0,0,0-.816,1.123l.511,1.574a.97.97,0,0,0-.49.361l-1.342-.975a.857.857,0,0,0-1.32.429h0A.858.858,0,0,0,17.359,12H19a.975.975,0,0,0,.2.577l-1.342.975a.859.859,0,0,0,0,1.389h0a.859.859,0,0,0,1.321-.429l.511-1.574a.781.781,0,0,0,.61,0l.511,1.574a.859.859,0,0,0,1.321.429h0a.859.859,0,0,0,0-1.389L20.8,12.577A.975.975,0,0,0,21,12h1.641A.858.858,0,0,0,23.457,10.877Z"/><path fill="none" stroke="#000" stroke-miterlimit="10" stroke-width=".5" d="M-156 -60H324V420H-156z"/></svg>