<svg xmlns="http://www.w3.org/2000/svg" viewBox="0 0 24 24"><path d="M0,20H24V18H0ZM0,4V6H24V4Zm15.46,6.88A.86.86,0,0,1,14.64,12H13a1,1,0,0,1-.21.58l1.35,1a.86.86,0,0,1,0,1.39h0a.86.86,0,0,1-1.32-.43l-.52-1.57a.78.78,0,0,1-.6,0l-.52,1.57a.86.86,0,0,1-1.32.43h0a.86.86,0,0,1,0-1.39l1.35-1A1,1,0,0,1,11,12H9.36a.86.86,0,0,1-.82-1.12h0a.85.85,0,0,1,1.32-.43l1.35,1a1,1,0,0,1,.49-.36l-.52-1.57A.87.87,0,0,1,12,8.36h0a.87.87,0,0,1,.82,1.13l-.52,1.57a1,1,0,0,1,.49.36l1.35-1a.85.85,0,0,1,1.32.43Zm-8,0a.85.85,0,0,0-1.32-.43l-1.35,1a1,1,0,0,0-.49-.36l.52-1.57A.87.87,0,0,0,4,8.36H4a.87.87,0,0,0-.82,1.13l.52,1.57a1,1,0,0,0-.49.36l-1.35-1a.85.85,0,0,0-1.32.43h0A.86.86,0,0,0,1.36,12H3a1,1,0,0,0,.21.58l-1.35,1a.86.86,0,0,0,0,1.39h0a.86.86,0,0,0,1.32-.43l.52-1.57A.94.94,0,0,0,4,13a.94.94,0,0,0,.3-.06l.52,1.57a.86.86,0,0,0,1.32.43h0a.86.86,0,0,0,0-1.39l-1.35-1A1,1,0,0,0,5,12H6.64a.86.86,0,0,0,.82-1.12Zm16,0h0a.85.85,0,0,0-1.32-.43l-1.35,1a1,1,0,0,0-.49-.36l.52-1.57A.87.87,0,0,0,20,8.36h0a.87.87,0,0,0-.82,1.13l.52,1.57a1,1,0,0,0-.49.36l-1.35-1a.85.85,0,0,0-1.32.43h0A.86.86,0,0,0,17.36,12H19a1,1,0,0,0,.21.58l-1.35,1a.86.86,0,0,0,0,1.39h0a.86.86,0,0,0,1.32-.43l.52-1.57a.78.78,0,0,0,.6,0l.52,1.57a.86.86,0,0,0,1.32.43h0a.86.86,0,0,0,0-1.39l-1.35-1A1,1,0,0,0,21,12h1.64A.86.86,0,0,0,23.46,10.88Z"/></svg>