<svg xmlns="http://www.w3.org/2000/svg" viewBox="0 0 24 24"><path d="M18,13.71l1.31,2.66,2.94.43-2.13,2.07.51,2.92L18,20.41l-2.63,1.38.51-2.92L13.75,16.8l2.94-.43ZM10,12a4.09,4.09,0,0,0,1-.14V9.72a2,2,0,1,1,0-3.44V4.14A4.09,4.09,0,0,0,10,4a4,4,0,0,0,0,8Zm1,8H2V18c0-2.66,5.33-4,8-4,.3,0,.64,0,1,.05v2c-.34,0-.67-.05-1-.05-2.69,0-5.78,1.28-6,2h7Z" fill="#08f"/><path d="M20.75,6V5a2.75,2.75,0,0,0-5.5,0V6H14v6h8V6ZM18,10.25A1.25,1.25,0,1,1,19.25,9,1.25,1.25,0,0,1,18,10.25ZM16.75,6V5a1.25,1.25,0,0,1,2.5,0V6Z" fill="#d00"/></svg>