<svg xmlns="http://www.w3.org/2000/svg" viewBox="0 0 24 24"><path d="M23,16a1.1,1.1,0,0,1-.9,1L21,21H15l-1.1-4a.9.9,0,0,1-.6-.3,1,1,0,1,1,1.4,0,.9.9,0,0,1-.7.3l2.5,1.5,1.4-2a1,1,0,0,1-.9-1,1,1,0,0,1,2,0,1,1,0,0,1-.9,1l1.4,2L22,17a1,1,0,0,1-1-1,1,1,0,0,1,2,0M10,12h1V9.7a1.7,1.7,0,0,1-1,.3,2,2,0,0,1,0-4,1.7,1.7,0,0,1,1,.3V4.1H10a4,4,0,0,0,0,8Zm1,8H2V18c0-2.7,5.3-4,8-4h1v2H10c-2.7,0-5.8,1.3-6,2h7Z" fill="#f80"/><path d="M20.8,6V5a2.8,2.8,0,1,0-5.6,0V6H14v6h8V6ZM18,10.2A1.2,1.2,0,0,1,16.8,9a1.2,1.2,0,1,1,2.4,0A1.2,1.2,0,0,1,18,10.2ZM16.8,6V5a1.2,1.2,0,0,1,2.4,0V6Z" fill="#c00"/></svg>