<svg xmlns="http://www.w3.org/2000/svg" viewBox="0 0 24 24"><path fill="#08f" d="M18 13.71L19.31 16.37 22.25 16.8 20.13 18.87 20.63 21.79 18 20.41 15.37 21.79 15.88 18.87 13.75 16.8 16.69 16.37 18 13.71z"/><path d="M20.75,6V5a2.75,2.75,0,0,0-5.5,0V6H14v6h8V6ZM18,10.25A1.25,1.25,0,1,1,19.25,9,1.25,1.25,0,0,1,18,10.25ZM16.75,6V5a1.25,1.25,0,0,1,2.5,0V6Z" fill="#c00"/><path d="M6,8a4,4,0,0,1,4-4,4.09,4.09,0,0,1,1,.14V6.28a2,2,0,1,0,0,3.44v2.14A4.09,4.09,0,0,1,10,12,4,4,0,0,1,6,8Zm5,10H4c.22-.72,3.31-2,6-2,.33,0,.66,0,1,.05v-2c-.36,0-.7-.05-1-.05-2.67,0-8,1.34-8,4v2h9Z" fill="#bbb"/><path fill="none" stroke="#000" stroke-miterlimit="10" stroke-width=".5" d="M-348 -108H132V372H-348z"/></svg>