<svg xmlns="http://www.w3.org/2000/svg" viewBox="0 0 24 24"><path d="M12,12A4,4,0,1,0,8,8,4,4,0,0,0,12,12Zm0-6a2,2,0,1,1-2,2A2.006,2.006,0,0,1,12,6ZM10.921,20H4V18c0-2.66,5.33-4,8-4a12.952,12.952,0,0,1,2.252.23l-1.067,1.848A9.715,9.715,0,0,0,12,16c-2.69,0-5.78,1.28-6,2h6.075Z" fill="#fb0"/><path d="M23.78,21.75,19.3,13.989a1.5,1.5,0,0,0-2.6,0L12.22,21.75a1.5,1.5,0,0,0,1.3,2.25h8.962A1.5,1.5,0,0,0,23.78,21.75ZM15.9,23.5a.9.9,0,0,1-.636-1.536L16.727,20.5l-1.463-1.464a.9.9,0,1,1,1.272-1.272L19.273,20.5l-2.737,2.736A.9.9,0,0,1,15.9,23.5Zm4.836-.264a.9.9,0,0,1-1.272,0l-.976-.976,1.272-1.273.976.977A.9.9,0,0,1,20.736,23.236Zm0-4.2-.933.934L18.53,18.7l.934-.933a.9.9,0,1,1,1.272,1.272Z" fill="#fb0"/></svg>