<svg xmlns="http://www.w3.org/2000/svg" viewBox="0 0 24 24"><path d="M12.661,20H3V18c0-2.66,5.331-4,8-4,.23,0,.486.014.751.034A2.973,2.973,0,0,0,11,16h0c-2.689,0-5.78,1.28-6,2h6.779c.035.039.062.084.1.122a2.773,2.773,0,0,0,.361.3ZM11,12a4,4,0,1,1,4-4,4,4,0,0,1-4,4m0-6a2,2,0,1,0,2,2,2.006,2.006,0,0,0-2-2" fill="#bbb"/><path d="M23,16a1,1,0,1,0-1.047.99L19.5,18.5l-1.437-2.012a1,1,0,1,0-.125,0L16.5,18.5l-2.452-1.51a.983.983,0,0,0,.659-.283,1,1,0,1,0-1.414,0,.983.983,0,0,0,.63.278L15,21h6l1.077-4.015A.993.993,0,0,0,23,16" fill="#f90"/></svg>