<svg xmlns="http://www.w3.org/2000/svg" viewBox="0 0 24 24"><path d="M9,5a3.5,3.5,0,1,0,3.5,3.5A3.5,3.5,0,0,0,9,5Zm0,5a1.5,1.5,0,1,1,1.5-1.5A1.5,1.5,0,0,1,9,10Zm7.04,3.81c2.46.27,5.96,1.42,5.96,3.44V20H18V17.25a4.193,4.193,0,0,0-1.96-3.44M15,12a3.446,3.446,0,0,1-1.5-.35,5.461,5.461,0,0,0,0-6.3A3.446,3.446,0,0,1,15,5a3.5,3.5,0,0,1,0,7M9,13.75c-2.34,0-7,1.17-7,3.5V20H16V17.25C16,14.92,11.34,13.75,9,13.75ZM14,18H4v-.684c.375-.605,2.864-1.566,5-1.566s4.625.961,5,1.566Z" fill="#bbb"/><path fill="none" stroke="#000" stroke-miterlimit="10" stroke-width=".5" d="M-60 -108H420V372H-60z"/></svg>