<svg xmlns="http://www.w3.org/2000/svg" viewBox="0 0 24 24"><path d="M15.2,21a1.2,1.2,0,0,1-.849-2.049L16.3,17l-1.952-1.951a1.2,1.2,0,0,1,1.7-1.7L19.7,17,16.05,20.648A1.2,1.2,0,0,1,15.2,21m5.063-4.566,1.386-1.386a1.2,1.2,0,1,0-1.7-1.7l-1.385,1.386Zm0,1.132-1.7,1.7,1.385,1.387a1.2,1.2,0,0,0,1.7-1.7Z" fill="#0a0"/><path d="M12.023,20H4V18c0-2.66,5.33-4,8-4h.015c-.005.067-.014.133-.014.2a3.174,3.174,0,0,0,.573,1.82C12.381,16.008,12.19,16,12,16c-2.69,0-5.78,1.28-6,2h6.56A3.181,3.181,0,0,0,12.023,20ZM8,8a4,4,0,1,1,4,4A4,4,0,0,1,8,8Zm2,0a2,2,0,1,0,2-2A2.006,2.006,0,0,0,10,8Z" fill="#0a0"/></svg>