<svg xmlns="http://www.w3.org/2000/svg" viewBox="0 0 24 24"><path fill="#08f" d="M18 13.708L19.313 16.369 22.25 16.796 20.125 18.867 20.626 21.792 18 20.411 15.373 21.792 15.875 18.867 13.75 16.796 16.687 16.369 18 13.708z"/><path data-name="specifier" d="M20.75,6V5a2.75,2.75,0,0,0-5.5,0V6H14v6h8V6ZM18,10.25A1.25,1.25,0,1,1,19.25,9,1.25,1.25,0,0,1,18,10.25ZM16.75,6V5a1.25,1.25,0,0,1,2.5,0V6Z" fill="#c00"/><path d="M6,8a3.953,3.953,0,0,1,5-3.859V6.28A1.965,1.965,0,0,0,10,6a2,2,0,0,0,0,4,1.965,1.965,0,0,0,1-.28v2.139A3.953,3.953,0,0,1,6,8Zm5,10H4c.22-.72,3.31-2,6-2a9.664,9.664,0,0,1,1,.055v-2c-.359-.034-.7-.054-1-.054-2.67,0-8,1.34-8,4v2h9Z" fill="#bbb"/><g><path fill="none" stroke="#000" stroke-miterlimit="10" stroke-width=".5" d="M-348 -108H132V372H-348z"/></g></svg>