<svg xmlns="http://www.w3.org/2000/svg" viewBox="0 0 24 24"><path d="M13.651,20H3V18c0-1.922,2.784-3.153,5.335-3.689l1.782,1.737C7.675,16.276,5.2,17.358,5,18h7.12l1.606,1.566ZM15,8a4,4,0,1,1-4-4,4,4,0,0,1,4,4M13,8a2,2,0,1,0-2,2,2.006,2.006,0,0,0,2-2" fill="#bbb"/><path fill="#08f" d="M18 13.708L19.313 16.369 22.25 16.796 20.125 18.867 20.626 21.792 18 20.411 15.373 21.792 15.875 18.867 13.75 16.796 16.687 16.369 18 13.708z"/><g><path fill="none" stroke="#000" stroke-miterlimit="10" stroke-width=".5" d="M-300 -108H180V372H-300z"/></g></svg>