<svg xmlns="http://www.w3.org/2000/svg" viewBox="0 0 24 24"><g fill="none"><path d="M0 0H24V24H0z"/><path stroke="#000" stroke-miterlimit="10" stroke-width=".5" d="M-12 -108H468V372H-12z"/></g><path d="M12.66,20H3V18c0-2.66,5.33-4,8-4l.75,0A3,3,0,0,0,11,16h0c-2.69,0-5.78,1.28-6,2h6.78l.1.12a2.67,2.67,0,0,0,.36.31ZM11,12a4,4,0,1,1,4-4,4,4,0,0,1-4,4m0-6a2,2,0,1,0,2,2,2,2,0,0,0-2-2M23,16a1,1,0,0,0-2,0A1,1,0,0,0,22,17L19.5,18.5l-1.44-2a1,1,0,1,0-.12,0l-1.44,2L14.05,17a1,1,0,1,0-.76-.28,1,1,0,0,0,.63.28L15,21h6l1.08-4A1,1,0,0,0,23,16" fill="#f80"/></svg>