<svg xmlns="http://www.w3.org/2000/svg" viewBox="0 0 24 24"><path d="M23,16a1,1,0,0,1-.92,1L21,21H15l-1.08-4a1,1,0,0,1-.63-.28,1,1,0,1,1,.76.28L16.5,18.5l1.44-2a1,1,0,1,1,.12,0l1.44,2L22,17A1,1,0,0,1,21,16a1,1,0,0,1,2,0M10,12a4.09,4.09,0,0,0,1-.14V9.72a2,2,0,1,1,0-3.44V4.14A4.09,4.09,0,0,0,10,4a4,4,0,0,0,0,8Zm1,8H2V18c0-2.66,5.33-4,8-4,.3,0,.64,0,1,.05v2c-.34,0-.67-.05-1-.05-2.69,0-5.78,1.28-6,2h7Z" fill="#f80"/><path d="M20.75,6V5a2.75,2.75,0,0,0-5.5,0V6H14v6h8V6ZM18,10.25A1.25,1.25,0,1,1,19.25,9,1.25,1.25,0,0,1,18,10.25ZM16.75,6V5a1.25,1.25,0,0,1,2.5,0V6Z" fill="#c00"/></svg>