<svg xmlns="http://www.w3.org/2000/svg" viewBox="0 0 24 24"><path d="M11.294,20H4V18c0-2.66,5.33-4,8-4,.08,0,.17.005.254.008a6.957,6.957,0,0,0-.968,2.023C8.79,16.223,6.2,17.343,6,18h5A6.99,6.99,0,0,0,11.294,20ZM8,8a4,4,0,1,1,4,4A4,4,0,0,1,8,8Zm2,0a2,2,0,1,0,2-2A2.006,2.006,0,0,0,10,8Z" fill="#09f"/><path d="M18,13a5,5,0,1,0,5,5A5,5,0,0,0,18,13Zm-1.464,7.736a.9.9,0,1,1-1.272-1.272L16.727,18l-1.463-1.464a.9.9,0,0,1,1.272-1.272L19.273,18Zm4.2,0a.9.9,0,0,1-1.272,0l-.976-.976,1.272-1.273.976.977A.9.9,0,0,1,20.736,20.736Zm0-4.2-.933.934L18.53,16.2l.934-.933a.9.9,0,1,1,1.272,1.272Z" fill="#09f"/></svg>