<svg xmlns="http://www.w3.org/2000/svg" viewBox="0 0 24 24"><path d="M12.237,20H4V18c0-2.66,5.33-4,8-4,.074,0,.156.005.234.007a6.447,6.447,0,0,0-.651,2.005C9,16.132,6.209,17.317,6,18h5.585A6.446,6.446,0,0,0,12.237,20ZM8,8a4,4,0,1,1,4,4A4,4,0,0,1,8,8Zm2,0a2,2,0,1,0,2-2A2.006,2.006,0,0,0,10,8Z" fill="#d00"/><path d="M18,12.5A4.5,4.5,0,1,0,22.5,17,4.5,4.5,0,0,0,18,12.5Zm2.53,5.97-1.06,1.06L18,18.061,16.53,19.53l-1.06-1.06L16.939,17,15.47,15.53l1.06-1.06L18,15.939l1.47-1.469,1.06,1.06L19.061,17Z" fill="#d00"/></svg>