<svg xmlns="http://www.w3.org/2000/svg" viewBox="0 0 24 24"><path d="M20.75,6V5a2.75,2.75,0,0,0-5.5,0V6H14v6h8V6ZM18,10.25A1.25,1.25,0,1,1,19.25,9,1.25,1.25,0,0,1,18,10.25ZM16.75,6V5a1.25,1.25,0,0,1,2.5,0V6Z" fill="#d00"/><path d="M23,16a.993.993,0,0,1-.923.985L21,21H15l-1.077-4.015a.983.983,0,0,1-.63-.278,1,1,0,1,1,1.414,0,.983.983,0,0,1-.659.283L16.5,18.5l1.438-2.012a1,1,0,1,1,.125,0L19.5,18.5l2.453-1.51A1,1,0,1,1,23,16" fill="#f90"/><path d="M10,12a3.977,3.977,0,0,0,1-.141V9.72A1.965,1.965,0,0,1,10,10a2,2,0,0,1,0-4,1.965,1.965,0,0,1,1,.28V4.141A3.994,3.994,0,1,0,10,12Zm1,8H2V18c0-2.66,5.33-4,8-4,.3,0,.641.02,1,.054v2A9.664,9.664,0,0,0,10,16c-2.69,0-5.78,1.28-6,2h7Z" fill="#bbb"/></svg>