<svg xmlns="http://www.w3.org/2000/svg" viewBox="0 0 24 24"><path d="M12,3a9,9,0,1,0,9,9A9,9,0,0,0,12,3Zm1,15H11V16h2Zm1.764-6.832a3.088,3.088,0,0,1-.634.943c-.256.263-1.035,1.035-1.035,1.035a.333.333,0,0,0-.1.233V14H11v-.621a2.349,2.349,0,0,1,.684-1.65s.765-.759,1.015-1.015a1.07,1.07,0,0,0,.223-.327,1,1,0,0,0,0-.776,1,1,0,0,0-.216-.32.993.993,0,0,0-.316-.214,1.014,1.014,0,0,0-.78,0,.993.993,0,0,0-.316.214,1,1,0,0,0-.216.32,1,1,0,0,0,0,.776l-1.842.781a3,3,0,0,1,1.6-3.934,3.027,3.027,0,0,1,2.334,0,2.986,2.986,0,0,1,.955.644,3,3,0,0,1,.642,3.29Z"/><path fill="none" stroke="#000" stroke-miterlimit="10" stroke-width=".5" d="M-12 -156H468V324H-12z"/></svg>