<svg xmlns="http://www.w3.org/2000/svg" viewBox="0 0 24 24"><path d="M12,3a9,9,0,1,0,9,9A9,9,0,0,0,12,3Zm1,14H11V15h2Zm1.76-5.83a3,3,0,0,1-.63.95l-1,1a.39.39,0,0,0-.09.23V14H11v-.62a2.38,2.38,0,0,1,.68-1.65s.77-.75,1-1a1,1,0,0,0,.22-1.1,1,1,0,0,0-.21-.32,1,1,0,0,0-.32-.22,1.05,1.05,0,0,0-.78,0,1,1,0,0,0-.32.22A1,1,0,0,0,11,10a1,1,0,0,0,.08.39l-1.84.78A2.92,2.92,0,0,1,9,10a3,3,0,0,1,.88-2.12,3,3,0,0,1,.95-.64,3.06,3.06,0,0,1,2.34,0,3,3,0,0,1,.95.64A3,3,0,0,1,15,10,2.92,2.92,0,0,1,14.76,11.15Z"/></svg>