<svg id="icon" xmlns="http://www.w3.org/2000/svg" viewBox="0 0 24 24"><path id="specifier" d="M6.2,16.9a2.2,2.2,0,0,1-.8,1.5,3.5,3.5,0,0,1-1.8.5,2.6,2.6,0,0,1-2-.7,3.3,3.3,0,0,1-.7-2.1v-.2a3.3,3.3,0,0,1,.3-1.5,3.2,3.2,0,0,1,1-1,2.5,2.5,0,0,1,1.3-.3,3.6,3.6,0,0,1,1.9.5,2.7,2.7,0,0,1,.8,1.6H4.5a.8.8,0,0,0-.2-.6,1.1,1.1,0,0,0-.8-.3c-.6,0-.9.5-.9,1.4v.4c0,.6,0,1,.2,1.2a.9.9,0,0,0,.8.4c.6,0,.9-.3.9-.8Zm3.9.4a.5.5,0,0,0-.2-.4l-.8-.3-.9-.3L7.5,16c-.1-.2-.3-.3-.3-.5a1.4,1.4,0,0,1-.2-.7,1.6,1.6,0,0,1,.3-.9,1.6,1.6,0,0,1,.8-.6l1.2-.2a2.3,2.3,0,0,1,1.7.5,1.4,1.4,0,0,1,.7,1.3H10c0-.2,0-.4-.2-.5l-.5-.2-.5.2-.2.3a.5.5,0,0,0,.2.4l.7.2a4.6,4.6,0,0,1,1.7.7,1.7,1.7,0,0,1,.5,1.2,1.5,1.5,0,0,1-.6,1.3,2.9,2.9,0,0,1-1.7.4l-1.3-.2a2.2,2.2,0,0,1-.9-.7,1.7,1.7,0,0,1-.3-1H8.5a.8.8,0,0,0,.2.6l.8.2.5-.2C10.1,17.6,10.1,17.4,10.1,17.3Zm4.9,0h0l1.2-4.1H18l-2.1,5.6H14.1l-2-5.6h1.7Z"/><path id="element" d="M21,2H13.4a.9.9,0,0,0-.7.3L6.3,8.7a.9.9,0,0,0-.3.7V11h8a.9.9,0,0,0,1-1V4h5V21H6v1a.9.9,0,0,0,1,1H21a.9.9,0,0,0,1-1V3A.9.9,0,0,0,21,2ZM13,9H8.8L13,4.8Z"/></svg>