<svg id="icon" xmlns="http://www.w3.org/2000/svg" viewBox="0 0 24 24"><path id="element" d="M2,4.4,4.7,7A12.4,12.4,0,0,0,1,12a11.8,11.8,0,0,0,11,7.5,12.2,12.2,0,0,0,4.3-.8l3.4,3.4,1.5-1.4L3.4,3ZM6.1,8.5l1.8,1.7A3.9,3.9,0,0,0,7.5,12,4.5,4.5,0,0,0,12,16.5a3.9,3.9,0,0,0,1.8-.4l1,1a8.6,8.6,0,0,1-2.8.4A9.6,9.6,0,0,1,3.2,12,9.9,9.9,0,0,1,6.1,8.5ZM10,6.7,8.4,5.1A10.5,10.5,0,0,1,12,4.5,11.8,11.8,0,0,1,23,12a11.2,11.2,0,0,1-3.2,4.5l-1.4-1.4A9.2,9.2,0,0,0,20.8,12,9.6,9.6,0,0,0,12,6.5Zm2,.8A4.5,4.5,0,0,1,16.5,12a4.3,4.3,0,0,1-.2,1.1L10.9,7.6Z"/></svg>