<?xml version="1.0" encoding="UTF-8"?><svg xmlns="http://www.w3.org/2000/svg" viewBox="0 0 24 24"><g id="icon"><g><path d="M17,9v1H7v-1c0-1.1,.9-2,2-2h2V2.5c0-.6,.5-1,1-1s1,.4,1,1V7h2c1.1,0,2,.9,2,2Zm4.7,10.8l-1.1,.5c-2.8,1.3-5.7,1.9-8.6,1.9s-5.8-.6-8.6-1.9l-1.1-.5,.6-1c.5-.8,1-1.5,1.5-2.2,1.2-1.7,2.2-3.1,2.5-4.7v-.8h10.1v.8c.3,1.6,1.4,3,2.6,4.7,.5,.7,1,1.4,1.5,2.2l.6,1Zm-13-6.8c-.5,1.7-1.5,3.1-2.6,4.7-.3,.4-.5,.8-.8,1.1,1,.4,2,.6,2.9,.8,.9-1.5,1.6-3,2.1-4.3,0,1.4,.2,2.9,.4,4.6,.9,0,1.8,0,2.7,0,.2-1.8,.3-3.3,.4-4.6,.5,1.3,1.2,2.7,2.1,4.3,1-.2,2-.5,2.9-.8-.3-.4-.5-.8-.8-1.1-1.1-1.6-2.2-3-2.6-4.7h-6.6Z"/><path d="M17,9v1H7v-1c0-1.1,.9-2,2-2h2V2.5c0-.6,.5-1,1-1s1,.4,1,1V7h2c1.1,0,2,.9,2,2Zm4.7,10.8l-1.1,.5c-2.8,1.3-5.7,1.9-8.6,1.9s-5.8-.6-8.6-1.9l-1.1-.5,.6-1c.5-.8,1-1.5,1.5-2.2,1.2-1.7,2.2-3.1,2.5-4.7v-.8h10.1v.8c.3,1.6,1.4,3,2.6,4.7,.5,.7,1,1.4,1.5,2.2l.6,1Zm-13-6.8c-.5,1.7-1.5,3.1-2.6,4.7-.3,.4-.5,.8-.8,1.1,1,.4,2,.6,2.9,.8,.9-1.5,1.6-3,2.1-4.3,0,1.4,.2,2.9,.4,4.6,.9,0,1.8,0,2.7,0,.2-1.8,.3-3.3,.4-4.6,.5,1.3,1.2,2.7,2.1,4.3,1-.2,2-.5,2.9-.8-.3-.4-.5-.8-.8-1.1-1.1-1.6-2.2-3-2.6-4.7h-6.6Z"/></g></g><g id="Grid"><rect x="-444" y="-12" width="480" height="480" fill="none" stroke="#000" stroke-miterlimit="10" stroke-width=".5"/></g></svg>