<svg xmlns="http://www.w3.org/2000/svg" viewBox="0 0 24 24"><path d="M2,4.37,4.69,7.05A11.74,11.74,0,0,0,1,12a11.83,11.83,0,0,0,11,7.5,11.73,11.73,0,0,0,4.32-.82l3.42,3.42,1.41-1.41L3.42,3Zm4.1,4.1,1.75,1.75A4.6,4.6,0,0,0,7.5,12a4.51,4.51,0,0,0,6.27,4.14l1,1A10.43,10.43,0,0,1,12,17.5,9.77,9.77,0,0,1,3.18,12,9.9,9.9,0,0,1,6.11,8.47ZM10,6.72,8.36,5.07A11.83,11.83,0,0,1,23,12a11.8,11.8,0,0,1-3.18,4.53l-1.41-1.41A9.65,9.65,0,0,0,20.82,12,9.77,9.77,0,0,0,12,6.5,10.11,10.11,0,0,0,10,6.72Zm2,.78A4.48,4.48,0,0,1,16.49,12a4.68,4.68,0,0,1-.14,1.07L10.93,7.64A4.24,4.24,0,0,1,12,7.5Z"/></svg>