<svg id="icon" xmlns="http://www.w3.org/2000/svg" viewBox="0 0 24 24"><path id="element" d="M21.9,6.8,20.3,5.1,17.4,8A1,1,0,0,1,16,6.6l2.9-2.9L17.2,2.1a6.1,6.1,0,0,0-5.4,1.6,5.8,5.8,0,0,0-1.4,6.2L3.7,16.1A2.7,2.7,0,0,0,4,20a2.7,2.7,0,0,0,3.9.3l6.2-6.7a5.8,5.8,0,0,0,6.2-1.4A5.8,5.8,0,0,0,21.9,6.8Zm-6.2,5.1H14.2l-.6-.3L6.5,18.9c-.1.2-.6.1-1.1-.3s-.5-1-.4-1l7.8-7.3-.3-.5c0-.1-.1-.1-.1-.2s-.1-.2-.1-.4a.4.4,0,0,1-.1-.3c-.1,0-.1-.1-.1-.2V8.3h0a3.8,3.8,0,0,1,1.1-3.3A3.6,3.6,0,0,1,15.8,4L14.6,5.1a3,3,0,0,0,4.3,4.3L20,8.2a3.6,3.6,0,0,1-1.1,2.6A3.7,3.7,0,0,1,15.7,11.9Z"/></svg>