<svg xmlns="http://www.w3.org/2000/svg" viewBox="0 0 24 24"><path d="M12,3a9,9,0,1,0,9,9A9,9,0,0,0,12,3Zm1,15H11V16h2Zm1.76-6.83a3,3,0,0,1-.63.94l-1,1a.36.36,0,0,0-.09.23V14H11v-.62a2.36,2.36,0,0,1,.68-1.65l1-1a1.08,1.08,0,0,0,.22-.32A1,1,0,0,0,13,10a1,1,0,0,0-.08-.39,1,1,0,0,0-.21-.32,1.11,1.11,0,0,0-.32-.21,1,1,0,0,0-.78,0,1.11,1.11,0,0,0-.32.21,1,1,0,0,0-.21.32A1,1,0,0,0,11,10a1,1,0,0,0,.08.39l-1.84.78A3,3,0,0,1,9,10a2.92,2.92,0,0,1,.24-1.17,2.8,2.8,0,0,1,.64-1,3,3,0,0,1,.95-.65,3.06,3.06,0,0,1,2.34,0,3,3,0,0,1,.95.65,2.8,2.8,0,0,1,.64,1A2.92,2.92,0,0,1,15,10,3,3,0,0,1,14.76,11.17Z"/></svg>