<svg id="icon" xmlns="http://www.w3.org/2000/svg" viewBox="0 0 24 24"><path id="element" d="M14,17.2a3.3,3.3,0,0,1,5.5-2.3l.5.6.5-.6a3.2,3.2,0,0,1,2.3-.9l1.2.2h0V9.8a1,1,0,0,0-.8-1L12.5,6.1h-1L.8,8.8a1,1,0,0,0-.8,1v4.4a1,1,0,0,0,.8,1l.9.2,9.8,2.5a1.7,1.7,0,0,0,1,0l1.5-.4ZM2.4,13.8c-.5,0-.9-.6-.9-1.3s.4-1.2.9-1.2,1,.5,1,1.2S3,13.8,2.4,13.8Zm9.6-2L2.4,9.4,12,7l9.6,2.4Z"/><path id="specifier" d="M17.2,24a.9.9,0,0,1-.8-.4,1,1,0,0,1,0-1.6l1.9-2-1.9-2A1.1,1.1,0,0,1,18,16.4L21.7,20,18,23.6a.9.9,0,0,1-.8.4m5.1-4.6L23.6,18A1.1,1.1,0,0,0,22,16.4l-1.4,1.3Zm0,1.2-1.7,1.7L22,23.6a1,1,0,0,0,1.6,0,1,1,0,0,0,0-1.6Z" fill="#08f"/></svg>