<svg id="icon" xmlns="http://www.w3.org/2000/svg" viewBox="0 0 24 24"><path id="element" d="M4,13a2,2,0,1,0-2-2A2,2,0,0,0,4,13Zm1.1,1.1H4a6.7,6.7,0,0,0-2.8.6A2,2,0,0,0,0,16.4V18H4.5V16.4A4.6,4.6,0,0,1,5.1,14.1ZM20,13a2,2,0,1,0-2-2A2,2,0,0,0,20,13Zm4,3.4a2,2,0,0,0-1.2-1.8,6.5,6.5,0,0,0-3.9-.5,4.6,4.6,0,0,1,.6,2.3V18H24Zm-7.8-2.7a9.9,9.9,0,0,0-4.2-.9,9.9,9.9,0,0,0-4.2.9A2.8,2.8,0,0,0,6,16.4V18H18V16.4A2.8,2.8,0,0,0,16.2,13.7ZM8.1,16c.1-.2.1-.4.9-.7a8.8,8.8,0,0,1,6,0c.8.3.8.5.9.7ZM12,8a.9.9,0,0,1,1,1,1,1,0,0,1-2,0,.9.9,0,0,1,1-1m0-2A2.9,2.9,0,0,0,9,9a3,3,0,0,0,6,0A2.9,2.9,0,0,0,12,6Z"/></svg>