<?xml version="1.0" encoding="UTF-8"?>
<svg xmlns="http://www.w3.org/2000/svg" viewBox="0 0 24 24">
  <g id="icon">
    <path id="element" d="M7,5C3.14,5,0,8.14,0,12s3.14,7,7,7c2.72,0,5.17-1.58,6.32-4h2.68v4h6v-4h2v-6H13.32c-1.15-2.42-3.6-4-6.32-4Zm15,8h-2v4h-2v-4h-6.06l-.23,.67c-.7,1.99-2.6,3.33-4.71,3.33-2.76,0-5-2.24-5-5s2.24-5,5-5c2.11,0,4.01,1.34,4.71,3.33l.23,.67h10.06v2ZM7,8c1.1,0,2,.9,2,2s-.9,2-2,2-2-.9-2-2,.9-2,2-2Zm-3.39,6.1c.87-.74,2.45-1.1,3.39-1.1s2.52,.37,3.39,1.11c-.71,1.13-1.95,1.89-3.39,1.89s-2.68-.76-3.39-1.9Zm0,0c.87-.74,2.45-1.1,3.39-1.1s2.52,.37,3.39,1.11c-.71,1.13-1.95,1.89-3.39,1.89s-2.68-.76-3.39-1.9Z"/>
  </g>
  <g id="Grid">
    <rect x="-12" y="-60" width="480" height="480" fill="none" stroke="#000" stroke-miterlimit="10" stroke-width=".5"/>
  </g>
</svg>