<svg id="icon" xmlns="http://www.w3.org/2000/svg" viewBox="0 0 24 24"><path id="element" d="M10.5,10.9A.9.9,0,0,1,9.6,12H8a1.4,1.4,0,0,1-.2.6l1.3,1a.8.8,0,0,1,0,1.3h0a.8.8,0,0,1-1.3-.4l-.5-1.6H6.7l-.5,1.6a.8.8,0,0,1-1.3.4h0a.8.8,0,0,1,0-1.3l1.3-1A1.4,1.4,0,0,1,6,12H4.4a.9.9,0,0,1-.9-1.1h0a1,1,0,0,1,1.4-.5l1.3,1a.9.9,0,0,1,.5-.3L6.2,9.5A.8.8,0,0,1,7,8.4H7a.8.8,0,0,1,.8,1.1l-.5,1.6a.9.9,0,0,1,.5.3l1.3-1a1,1,0,0,1,1.4.5ZM24,9v6H22v4H16V15H13.3a7,7,0,1,1,0-6Zm-2,2H11.9l-.2-.7A5,5,0,0,0,7,7,5,5,0,0,0,7,17a5,5,0,0,0,4.7-3.3l.2-.7H18v4h2V13h2Z"/></svg>