<svg id="icon" xmlns="http://www.w3.org/2000/svg" viewBox="0 0 24 24"><path id="element" d="M0,20H24V18H0ZM0,4V6H24V4Zm15.5,6.9a.9.9,0,0,1-.9,1.1H13a1.4,1.4,0,0,1-.2.6l1.3,1a.8.8,0,0,1,0,1.3h0a.8.8,0,0,1-1.3-.4l-.5-1.6h-.6l-.5,1.6a.8.8,0,0,1-1.3.4h0a.8.8,0,0,1,0-1.3l1.3-1A1.4,1.4,0,0,1,11,12H9.4a.9.9,0,0,1-.9-1.1h0a1,1,0,0,1,1.4-.5l1.3,1a.9.9,0,0,1,.5-.3l-.5-1.6A.8.8,0,0,1,12,8.4h0a.8.8,0,0,1,.8,1.1l-.5,1.6a.9.9,0,0,1,.5.3l1.3-1a1,1,0,0,1,1.4.5Zm-8,0a1,1,0,0,0-1.4-.5l-1.3,1a.9.9,0,0,0-.5-.3l.5-1.6A.8.8,0,0,0,4,8.4H4a.8.8,0,0,0-.8,1.1l.5,1.6a.9.9,0,0,0-.5.3l-1.3-1a1,1,0,0,0-1.4.5h0A.9.9,0,0,0,1.4,12H3a1.4,1.4,0,0,0,.2.6l-1.3,1a.8.8,0,0,0,0,1.3h0a.8.8,0,0,0,1.3-.4l.5-1.6h.6l.5,1.6a.8.8,0,0,0,1.3.4h0a.8.8,0,0,0,0-1.3l-1.3-1A1.4,1.4,0,0,0,5,12H6.6a.9.9,0,0,0,.9-1.1Zm16,0h0a1,1,0,0,0-1.4-.5l-1.3,1a.9.9,0,0,0-.5-.3l.5-1.6A.8.8,0,0,0,20,8.4h0a.8.8,0,0,0-.8,1.1l.5,1.6a.9.9,0,0,0-.5.3l-1.3-1a1,1,0,0,0-1.4.5h0a.9.9,0,0,0,.9,1.1H19a1.4,1.4,0,0,0,.2.6l-1.3,1a.8.8,0,0,0,0,1.3h0a.8.8,0,0,0,1.3-.4l.5-1.6h.6l.5,1.6a.8.8,0,0,0,1.3.4h0a.8.8,0,0,0,0-1.3l-1.3-1A1.4,1.4,0,0,0,21,12h1.6A.9.9,0,0,0,23.5,10.9Z"/></svg>