<svg id="icon" xmlns="http://www.w3.org/2000/svg" viewBox="0 0 24 24"><path id="element" d="M12,3a9,9,0,1,0,9,9A9,9,0,0,0,12,3Zm6,5.5H16.1A10.2,10.2,0,0,0,15,5.7,6.8,6.8,0,0,1,18,8.5ZM19,12a7.7,7.7,0,0,1-.2,1.5H16.4a7.6,7.6,0,0,0,.1-1.5,7.6,7.6,0,0,0-.1-1.5h2.4A7.7,7.7,0,0,1,19,12ZM5,12a7.7,7.7,0,0,1,.2-1.5H7.6A7.6,7.6,0,0,0,7.5,12a7.6,7.6,0,0,0,.1,1.5H5.2A7.7,7.7,0,0,1,5,12Zm4.5,0a7.6,7.6,0,0,1,.1-1.5h4.8a7.6,7.6,0,0,1,.1,1.5,7.6,7.6,0,0,1-.1,1.5H9.6A7.6,7.6,0,0,1,9.5,12ZM12,5.5c.6,0,1.5,1.1,2,3H10C10.5,6.6,11.4,5.5,12,5.5ZM9,5.7A10.2,10.2,0,0,0,7.9,8.5H6A6.8,6.8,0,0,1,9,5.7ZM6,15.5H7.9A10.2,10.2,0,0,0,9,18.3,6.8,6.8,0,0,1,6,15.5Zm6,3c-.6,0-1.5-1.1-2-3h4C13.5,17.4,12.6,18.5,12,18.5Zm3-.2a10.2,10.2,0,0,0,1.1-2.8H18A6.8,6.8,0,0,1,15,18.3Z"/></svg>