<svg id="icon" xmlns="http://www.w3.org/2000/svg" viewBox="0 0 24 24"><path id="element" d="M9,4A3.5,3.5,0,0,0,5.5,7.5a3.5,3.5,0,0,0,7,0A3.5,3.5,0,0,0,9,4ZM9,9a1.5,1.5,0,1,1,1.5-1.5A1.5,1.5,0,0,1,9,9Zm6,2a4,4,0,0,1-1.5-.3,5.8,5.8,0,0,0,1-3.2,5.2,5.2,0,0,0-1-3.1A2.8,2.8,0,0,1,15,4a3.5,3.5,0,0,1,3.5,3.5A3.5,3.5,0,0,1,15,11m-3.9,8H2V16.3c0-2.4,4.7-3.5,7-3.5s4.8.6,6.2,1.9l.2.4h-.9a3.5,3.5,0,0,0-1.8.5A10.6,10.6,0,0,0,9,14.8c-2.1,0-4.6.9-5,1.5V17h7.3a4,4,0,0,0-.3,1.5A.9.9,0,0,0,11.1,19Z"/><path id="specifier" d="M22.5,17a1.3,1.3,0,0,0-1,.4l-2.2-2.7h0a1.4,1.4,0,0,0,.7-1.2,1.5,1.5,0,0,0-3,0,1.4,1.4,0,0,0,.7,1.2h0l-2.2,2.7a1.3,1.3,0,0,0-1-.4,1.5,1.5,0,0,0,0,3,1.4,1.4,0,0,0,1.2-.6l1.6,1.2h0a1.6,1.6,0,0,0-.3.9,1.5,1.5,0,0,0,3,0,1.6,1.6,0,0,0-.3-.9h0l1.6-1.2a1.4,1.4,0,0,0,1.2.6,1.5,1.5,0,0,0,0-3ZM16,18.4h0l2-2.4v4Zm3,1.5v-4l2,2.4h0Z" fill="#08f"/></svg>