<svg id="icon" xmlns="http://www.w3.org/2000/svg" viewBox="0 0 24 24"><path id="element" d="M13.7,8A6.8,6.8,0,0,0,8,5,7,7,0,0,0,8,19a6.8,6.8,0,0,0,5.7-3H23V8ZM21,14H12.6A5.1,5.1,0,0,1,8,17,5,5,0,0,1,8,7a5.1,5.1,0,0,1,4.6,3H21Zm-9.6-3.1a.8.8,0,0,1-.8,1.1H9a.9.9,0,0,1-.3.6l1.4,1a.8.8,0,0,1,0,1.3h0a.8.8,0,0,1-1.3-.4l-.5-1.6H7.6l-.5,1.6a.8.8,0,0,1-1.3.4h0a.8.8,0,0,1,0-1.3l1.4-1A.7.7,0,0,1,7,12H5.3a.8.8,0,0,1-.8-1.1h0a.9.9,0,0,1,1.3-.5l1.4,1c.1-.1.2-.3.4-.3L7.1,9.5A.9.9,0,0,1,8,8.4H8a.9.9,0,0,1,.8,1.1l-.5,1.6c.2,0,.3.2.4.3l1.4-1a.9.9,0,0,1,1.3.5Z"/></svg>