<svg id="icon" xmlns="http://www.w3.org/2000/svg" viewBox="0 0 24 24"><path id="element" d="M21,3H5A1,1,0,0,0,4,4V6H2v4H4v4H2v4H4v2a.9.9,0,0,0,1,1H21a.9.9,0,0,0,1-1V4A1,1,0,0,0,21,3ZM20,19H6V5H20ZM8.8,16.2a.9.9,0,0,0,.7.3,1.1,1.1,0,0,0,.7-.3l1.1-1.1a4,4,0,0,0,3.4,0l1.1,1.1a1.1,1.1,0,0,0,.7.3.9.9,0,0,0,.7-.3,1,1,0,0,0,0-1.4l-1.1-1.1a4,4,0,0,0,0-3.4l1.1-1.1a1,1,0,0,0-1.4-1.4L14.7,8.9a4,4,0,0,0-3.4,0L10.2,7.8A1,1,0,0,0,8.8,9.2l1.1,1.1a4,4,0,0,0,0,3.4L8.8,14.8A1,1,0,0,0,8.8,16.2ZM13,10a2,2,0,1,1-2,2A2,2,0,0,1,13,10Z"/></svg>