<svg id="icon" xmlns="http://www.w3.org/2000/svg" viewBox="0 0 24 24"><path id="element" d="M9,5A3.5,3.5,0,0,0,5.5,8.5a3.5,3.5,0,0,0,7,0A3.5,3.5,0,0,0,9,5Zm0,5a1.5,1.5,0,1,1,1.5-1.5A1.5,1.5,0,0,1,9,10Zm7,3.8c2.5.3,6,1.4,6,3.4V20H18V17.2a4.1,4.1,0,0,0-2-3.4M15,12a2.8,2.8,0,0,1-1.5-.4,5.2,5.2,0,0,0,1-3.1,5.8,5.8,0,0,0-1-3.2A4,4,0,0,1,15,5a3.5,3.5,0,0,1,3.5,3.5A3.5,3.5,0,0,1,15,12M9,13.7c-2.3,0-7,1.2-7,3.5V20H16V17.2C16,14.9,11.3,13.7,9,13.7ZM14,18H4v-.7c.4-.6,2.9-1.6,5-1.6s4.6,1,5,1.6Z" fill="#bbb"/></svg>