<svg id="icon" xmlns="http://www.w3.org/2000/svg" viewBox="0 0 24 24"><polygon id="specifier" points="18 13.7 19.3 16.4 22.3 16.8 20.1 18.9 20.6 21.8 18 20.4 15.4 21.8 15.9 18.9 13.8 16.8 16.7 16.4 18 13.7" fill="#08f"/><path id="specifier-2" data-name="specifier" d="M20.8,6V5a2.8,2.8,0,1,0-5.6,0V6H14v6h8V6ZM18,10.2A1.2,1.2,0,0,1,16.8,9a1.2,1.2,0,1,1,2.4,0A1.2,1.2,0,0,1,18,10.2ZM16.8,6V5a1.2,1.2,0,0,1,2.4,0V6Z" fill="#c00"/><path id="element" d="M6,8a4,4,0,0,1,4-4h1V6.3A1.7,1.7,0,0,0,10,6a2,2,0,0,0,0,4,1.7,1.7,0,0,0,1-.3v2.2H10A4,4,0,0,1,6,8Zm5,10H4c.2-.7,3.3-2,6-2h1v-2H10c-2.7,0-8,1.3-8,4v2h9Z" fill="#bbb"/></svg>